%TF.GenerationSoftware,KiCad,Pcbnew,(5.1.10)-1*%
%TF.CreationDate,2021-08-29T21:18:51+07:00*%
%TF.ProjectId,stm32f405rgt6_Mini,73746d33-3266-4343-9035-726774365f4d,rev?*%
%TF.SameCoordinates,Original*%
%TF.FileFunction,Paste,Bot*%
%TF.FilePolarity,Positive*%
%FSLAX46Y46*%
G04 Gerber Fmt 4.6, Leading zero omitted, Abs format (unit mm)*
G04 Created by KiCad (PCBNEW (5.1.10)-1) date 2021-08-29 21:18:51*
%MOMM*%
%LPD*%
G01*
G04 APERTURE LIST*
%ADD10R,2.200000X1.200000*%
%ADD11R,1.400000X1.600000*%
%ADD12R,1.400000X1.200000*%
%ADD13R,1.600000X0.700000*%
%ADD14R,2.000000X3.800000*%
%ADD15R,2.000000X1.500000*%
G04 APERTURE END LIST*
%TO.C,C13*%
G36*
G01*
X128262400Y-91122080D02*
X127312400Y-91122080D01*
G75*
G02*
X127062400Y-90872080I0J250000D01*
G01*
X127062400Y-90197080D01*
G75*
G02*
X127312400Y-89947080I250000J0D01*
G01*
X128262400Y-89947080D01*
G75*
G02*
X128512400Y-90197080I0J-250000D01*
G01*
X128512400Y-90872080D01*
G75*
G02*
X128262400Y-91122080I-250000J0D01*
G01*
G37*
G36*
G01*
X128262400Y-93197080D02*
X127312400Y-93197080D01*
G75*
G02*
X127062400Y-92947080I0J250000D01*
G01*
X127062400Y-92272080D01*
G75*
G02*
X127312400Y-92022080I250000J0D01*
G01*
X128262400Y-92022080D01*
G75*
G02*
X128512400Y-92272080I0J-250000D01*
G01*
X128512400Y-92947080D01*
G75*
G02*
X128262400Y-93197080I-250000J0D01*
G01*
G37*
%TD*%
D10*
%TO.C,J4*%
X80537000Y-85696600D03*
X80537000Y-101196600D03*
D11*
X90137000Y-86596600D03*
D12*
X90137000Y-101196600D03*
D13*
X90637000Y-100046600D03*
X90637000Y-97846600D03*
X90637000Y-98946600D03*
X90637000Y-96746600D03*
X90637000Y-95646600D03*
X90637000Y-94546600D03*
X90637000Y-91246600D03*
X90637000Y-92346600D03*
X90637000Y-93446600D03*
%TD*%
%TO.C,C1*%
G36*
G01*
X102724800Y-100794800D02*
X102724800Y-101744800D01*
G75*
G02*
X102474800Y-101994800I-250000J0D01*
G01*
X101799800Y-101994800D01*
G75*
G02*
X101549800Y-101744800I0J250000D01*
G01*
X101549800Y-100794800D01*
G75*
G02*
X101799800Y-100544800I250000J0D01*
G01*
X102474800Y-100544800D01*
G75*
G02*
X102724800Y-100794800I0J-250000D01*
G01*
G37*
G36*
G01*
X104799800Y-100794800D02*
X104799800Y-101744800D01*
G75*
G02*
X104549800Y-101994800I-250000J0D01*
G01*
X103874800Y-101994800D01*
G75*
G02*
X103624800Y-101744800I0J250000D01*
G01*
X103624800Y-100794800D01*
G75*
G02*
X103874800Y-100544800I250000J0D01*
G01*
X104549800Y-100544800D01*
G75*
G02*
X104799800Y-100794800I0J-250000D01*
G01*
G37*
%TD*%
%TO.C,C3*%
G36*
G01*
X138206900Y-103667580D02*
X138206900Y-102717580D01*
G75*
G02*
X138456900Y-102467580I250000J0D01*
G01*
X139131900Y-102467580D01*
G75*
G02*
X139381900Y-102717580I0J-250000D01*
G01*
X139381900Y-103667580D01*
G75*
G02*
X139131900Y-103917580I-250000J0D01*
G01*
X138456900Y-103917580D01*
G75*
G02*
X138206900Y-103667580I0J250000D01*
G01*
G37*
G36*
G01*
X136131900Y-103667580D02*
X136131900Y-102717580D01*
G75*
G02*
X136381900Y-102467580I250000J0D01*
G01*
X137056900Y-102467580D01*
G75*
G02*
X137306900Y-102717580I0J-250000D01*
G01*
X137306900Y-103667580D01*
G75*
G02*
X137056900Y-103917580I-250000J0D01*
G01*
X136381900Y-103917580D01*
G75*
G02*
X136131900Y-103667580I0J250000D01*
G01*
G37*
%TD*%
%TO.C,C7*%
G36*
G01*
X106855078Y-88090580D02*
X109055082Y-88090580D01*
G75*
G02*
X109305080Y-88340578I0J-249998D01*
G01*
X109305080Y-89165582D01*
G75*
G02*
X109055082Y-89415580I-249998J0D01*
G01*
X106855078Y-89415580D01*
G75*
G02*
X106605080Y-89165582I0J249998D01*
G01*
X106605080Y-88340578D01*
G75*
G02*
X106855078Y-88090580I249998J0D01*
G01*
G37*
G36*
G01*
X106855078Y-84965580D02*
X109055082Y-84965580D01*
G75*
G02*
X109305080Y-85215578I0J-249998D01*
G01*
X109305080Y-86040582D01*
G75*
G02*
X109055082Y-86290580I-249998J0D01*
G01*
X106855078Y-86290580D01*
G75*
G02*
X106605080Y-86040582I0J249998D01*
G01*
X106605080Y-85215578D01*
G75*
G02*
X106855078Y-84965580I249998J0D01*
G01*
G37*
%TD*%
%TO.C,C8*%
G36*
G01*
X122448502Y-89446060D02*
X120248498Y-89446060D01*
G75*
G02*
X119998500Y-89196062I0J249998D01*
G01*
X119998500Y-88371058D01*
G75*
G02*
X120248498Y-88121060I249998J0D01*
G01*
X122448502Y-88121060D01*
G75*
G02*
X122698500Y-88371058I0J-249998D01*
G01*
X122698500Y-89196062D01*
G75*
G02*
X122448502Y-89446060I-249998J0D01*
G01*
G37*
G36*
G01*
X122448502Y-86321060D02*
X120248498Y-86321060D01*
G75*
G02*
X119998500Y-86071062I0J249998D01*
G01*
X119998500Y-85246058D01*
G75*
G02*
X120248498Y-84996060I249998J0D01*
G01*
X122448502Y-84996060D01*
G75*
G02*
X122698500Y-85246058I0J-249998D01*
G01*
X122698500Y-86071062D01*
G75*
G02*
X122448502Y-86321060I-249998J0D01*
G01*
G37*
%TD*%
%TO.C,C9*%
G36*
G01*
X131526260Y-89934380D02*
X132476260Y-89934380D01*
G75*
G02*
X132726260Y-90184380I0J-250000D01*
G01*
X132726260Y-90859380D01*
G75*
G02*
X132476260Y-91109380I-250000J0D01*
G01*
X131526260Y-91109380D01*
G75*
G02*
X131276260Y-90859380I0J250000D01*
G01*
X131276260Y-90184380D01*
G75*
G02*
X131526260Y-89934380I250000J0D01*
G01*
G37*
G36*
G01*
X131526260Y-92009380D02*
X132476260Y-92009380D01*
G75*
G02*
X132726260Y-92259380I0J-250000D01*
G01*
X132726260Y-92934380D01*
G75*
G02*
X132476260Y-93184380I-250000J0D01*
G01*
X131526260Y-93184380D01*
G75*
G02*
X131276260Y-92934380I0J250000D01*
G01*
X131276260Y-92259380D01*
G75*
G02*
X131526260Y-92009380I250000J0D01*
G01*
G37*
%TD*%
%TO.C,C10*%
G36*
G01*
X129438380Y-92019540D02*
X130388380Y-92019540D01*
G75*
G02*
X130638380Y-92269540I0J-250000D01*
G01*
X130638380Y-92944540D01*
G75*
G02*
X130388380Y-93194540I-250000J0D01*
G01*
X129438380Y-93194540D01*
G75*
G02*
X129188380Y-92944540I0J250000D01*
G01*
X129188380Y-92269540D01*
G75*
G02*
X129438380Y-92019540I250000J0D01*
G01*
G37*
G36*
G01*
X129438380Y-89944540D02*
X130388380Y-89944540D01*
G75*
G02*
X130638380Y-90194540I0J-250000D01*
G01*
X130638380Y-90869540D01*
G75*
G02*
X130388380Y-91119540I-250000J0D01*
G01*
X129438380Y-91119540D01*
G75*
G02*
X129188380Y-90869540I0J250000D01*
G01*
X129188380Y-90194540D01*
G75*
G02*
X129438380Y-89944540I250000J0D01*
G01*
G37*
%TD*%
%TO.C,C11*%
G36*
G01*
X145269800Y-90152200D02*
X145269800Y-91102200D01*
G75*
G02*
X145019800Y-91352200I-250000J0D01*
G01*
X144344800Y-91352200D01*
G75*
G02*
X144094800Y-91102200I0J250000D01*
G01*
X144094800Y-90152200D01*
G75*
G02*
X144344800Y-89902200I250000J0D01*
G01*
X145019800Y-89902200D01*
G75*
G02*
X145269800Y-90152200I0J-250000D01*
G01*
G37*
G36*
G01*
X147344800Y-90152200D02*
X147344800Y-91102200D01*
G75*
G02*
X147094800Y-91352200I-250000J0D01*
G01*
X146419800Y-91352200D01*
G75*
G02*
X146169800Y-91102200I0J250000D01*
G01*
X146169800Y-90152200D01*
G75*
G02*
X146419800Y-89902200I250000J0D01*
G01*
X147094800Y-89902200D01*
G75*
G02*
X147344800Y-90152200I0J-250000D01*
G01*
G37*
%TD*%
%TO.C,C12*%
G36*
G01*
X126151660Y-91119540D02*
X125201660Y-91119540D01*
G75*
G02*
X124951660Y-90869540I0J250000D01*
G01*
X124951660Y-90194540D01*
G75*
G02*
X125201660Y-89944540I250000J0D01*
G01*
X126151660Y-89944540D01*
G75*
G02*
X126401660Y-90194540I0J-250000D01*
G01*
X126401660Y-90869540D01*
G75*
G02*
X126151660Y-91119540I-250000J0D01*
G01*
G37*
G36*
G01*
X126151660Y-93194540D02*
X125201660Y-93194540D01*
G75*
G02*
X124951660Y-92944540I0J250000D01*
G01*
X124951660Y-92269540D01*
G75*
G02*
X125201660Y-92019540I250000J0D01*
G01*
X126151660Y-92019540D01*
G75*
G02*
X126401660Y-92269540I0J-250000D01*
G01*
X126401660Y-92944540D01*
G75*
G02*
X126151660Y-93194540I-250000J0D01*
G01*
G37*
%TD*%
%TO.C,C15*%
G36*
G01*
X102714640Y-102869980D02*
X102714640Y-103819980D01*
G75*
G02*
X102464640Y-104069980I-250000J0D01*
G01*
X101789640Y-104069980D01*
G75*
G02*
X101539640Y-103819980I0J250000D01*
G01*
X101539640Y-102869980D01*
G75*
G02*
X101789640Y-102619980I250000J0D01*
G01*
X102464640Y-102619980D01*
G75*
G02*
X102714640Y-102869980I0J-250000D01*
G01*
G37*
G36*
G01*
X104789640Y-102869980D02*
X104789640Y-103819980D01*
G75*
G02*
X104539640Y-104069980I-250000J0D01*
G01*
X103864640Y-104069980D01*
G75*
G02*
X103614640Y-103819980I0J250000D01*
G01*
X103614640Y-102869980D01*
G75*
G02*
X103864640Y-102619980I250000J0D01*
G01*
X104539640Y-102619980D01*
G75*
G02*
X104789640Y-102869980I0J-250000D01*
G01*
G37*
%TD*%
%TO.C,R3*%
G36*
G01*
X145332500Y-84098979D02*
X145332500Y-84998981D01*
G75*
G02*
X145082501Y-85248980I-249999J0D01*
G01*
X144382499Y-85248980D01*
G75*
G02*
X144132500Y-84998981I0J249999D01*
G01*
X144132500Y-84098979D01*
G75*
G02*
X144382499Y-83848980I249999J0D01*
G01*
X145082501Y-83848980D01*
G75*
G02*
X145332500Y-84098979I0J-249999D01*
G01*
G37*
G36*
G01*
X147332500Y-84098979D02*
X147332500Y-84998981D01*
G75*
G02*
X147082501Y-85248980I-249999J0D01*
G01*
X146382499Y-85248980D01*
G75*
G02*
X146132500Y-84998981I0J249999D01*
G01*
X146132500Y-84098979D01*
G75*
G02*
X146382499Y-83848980I249999J0D01*
G01*
X147082501Y-83848980D01*
G75*
G02*
X147332500Y-84098979I0J-249999D01*
G01*
G37*
%TD*%
%TO.C,R8*%
G36*
G01*
X132552240Y-87982639D02*
X132552240Y-88882641D01*
G75*
G02*
X132302241Y-89132640I-249999J0D01*
G01*
X131602239Y-89132640D01*
G75*
G02*
X131352240Y-88882641I0J249999D01*
G01*
X131352240Y-87982639D01*
G75*
G02*
X131602239Y-87732640I249999J0D01*
G01*
X132302241Y-87732640D01*
G75*
G02*
X132552240Y-87982639I0J-249999D01*
G01*
G37*
G36*
G01*
X130552240Y-87982639D02*
X130552240Y-88882641D01*
G75*
G02*
X130302241Y-89132640I-249999J0D01*
G01*
X129602239Y-89132640D01*
G75*
G02*
X129352240Y-88882641I0J249999D01*
G01*
X129352240Y-87982639D01*
G75*
G02*
X129602239Y-87732640I249999J0D01*
G01*
X130302241Y-87732640D01*
G75*
G02*
X130552240Y-87982639I0J-249999D01*
G01*
G37*
%TD*%
%TO.C,R10*%
G36*
G01*
X147332500Y-86138599D02*
X147332500Y-87038601D01*
G75*
G02*
X147082501Y-87288600I-249999J0D01*
G01*
X146382499Y-87288600D01*
G75*
G02*
X146132500Y-87038601I0J249999D01*
G01*
X146132500Y-86138599D01*
G75*
G02*
X146382499Y-85888600I249999J0D01*
G01*
X147082501Y-85888600D01*
G75*
G02*
X147332500Y-86138599I0J-249999D01*
G01*
G37*
G36*
G01*
X145332500Y-86138599D02*
X145332500Y-87038601D01*
G75*
G02*
X145082501Y-87288600I-249999J0D01*
G01*
X144382499Y-87288600D01*
G75*
G02*
X144132500Y-87038601I0J249999D01*
G01*
X144132500Y-86138599D01*
G75*
G02*
X144382499Y-85888600I249999J0D01*
G01*
X145082501Y-85888600D01*
G75*
G02*
X145332500Y-86138599I0J-249999D01*
G01*
G37*
%TD*%
D14*
%TO.C,AMS1117-3.3*%
X111480200Y-87147400D03*
D15*
X117780200Y-87147400D03*
X117780200Y-89447400D03*
X117780200Y-84847400D03*
%TD*%
%TO.C,R7*%
G36*
G01*
X137000401Y-97688200D02*
X136100399Y-97688200D01*
G75*
G02*
X135850400Y-97438201I0J249999D01*
G01*
X135850400Y-96738199D01*
G75*
G02*
X136100399Y-96488200I249999J0D01*
G01*
X137000401Y-96488200D01*
G75*
G02*
X137250400Y-96738199I0J-249999D01*
G01*
X137250400Y-97438201D01*
G75*
G02*
X137000401Y-97688200I-249999J0D01*
G01*
G37*
G36*
G01*
X137000401Y-95688200D02*
X136100399Y-95688200D01*
G75*
G02*
X135850400Y-95438201I0J249999D01*
G01*
X135850400Y-94738199D01*
G75*
G02*
X136100399Y-94488200I249999J0D01*
G01*
X137000401Y-94488200D01*
G75*
G02*
X137250400Y-94738199I0J-249999D01*
G01*
X137250400Y-95438201D01*
G75*
G02*
X137000401Y-95688200I-249999J0D01*
G01*
G37*
%TD*%
M02*
