%TF.GenerationSoftware,KiCad,Pcbnew,(5.1.10)-1*%
%TF.CreationDate,2021-08-29T21:18:51+07:00*%
%TF.ProjectId,stm32f405rgt6_Mini,73746d33-3266-4343-9035-726774365f4d,rev?*%
%TF.SameCoordinates,Original*%
%TF.FileFunction,Other,User*%
%FSLAX46Y46*%
G04 Gerber Fmt 4.6, Leading zero omitted, Abs format (unit mm)*
G04 Created by KiCad (PCBNEW (5.1.10)-1) date 2021-08-29 21:18:51*
%MOMM*%
%LPD*%
G01*
G04 APERTURE LIST*
%ADD10C,0.050000*%
G04 APERTURE END LIST*
D10*
%TO.C,C13*%
X126807400Y-89692080D02*
X126807400Y-93452080D01*
X128767400Y-89692080D02*
X126807400Y-89692080D01*
X128767400Y-93452080D02*
X128767400Y-89692080D01*
X126807400Y-93452080D02*
X128767400Y-93452080D01*
%TO.C,J4*%
X75637000Y-101196600D02*
X79137000Y-101196600D01*
X79137000Y-101196600D02*
X79137000Y-102196600D01*
X79137000Y-102196600D02*
X81887000Y-102196600D01*
X81887000Y-102196600D02*
X81887000Y-101196600D01*
X81887000Y-101196600D02*
X89137000Y-101196600D01*
X89137000Y-101196600D02*
X89137000Y-102196600D01*
X89137000Y-102196600D02*
X91137000Y-102196600D01*
X91137000Y-102196600D02*
X91137000Y-100696600D01*
X91137000Y-100696600D02*
X91637000Y-100696600D01*
X91637000Y-100696600D02*
X91637000Y-90696600D01*
X91637000Y-90696600D02*
X90387000Y-90696600D01*
X90387000Y-90696600D02*
X90387000Y-87696600D01*
X90387000Y-87696600D02*
X91137000Y-87696600D01*
X91137000Y-87696600D02*
X91137000Y-85446600D01*
X91137000Y-85446600D02*
X89137000Y-85446600D01*
X89137000Y-85446600D02*
X89137000Y-85696600D01*
X89137000Y-85696600D02*
X81887000Y-85696600D01*
X81887000Y-85696600D02*
X81887000Y-84696600D01*
X81887000Y-84696600D02*
X79137000Y-84696600D01*
X79137000Y-84696600D02*
X79137000Y-85696600D01*
X79137000Y-85696600D02*
X75637000Y-85696600D01*
%TO.C,C1*%
X101294800Y-102249800D02*
X105054800Y-102249800D01*
X101294800Y-100289800D02*
X101294800Y-102249800D01*
X105054800Y-100289800D02*
X101294800Y-100289800D01*
X105054800Y-102249800D02*
X105054800Y-100289800D01*
%TO.C,C3*%
X139636900Y-102212580D02*
X135876900Y-102212580D01*
X139636900Y-104172580D02*
X139636900Y-102212580D01*
X135876900Y-104172580D02*
X139636900Y-104172580D01*
X135876900Y-102212580D02*
X135876900Y-104172580D01*
%TO.C,C7*%
X109555080Y-89670580D02*
X109555080Y-84710580D01*
X106355080Y-89670580D02*
X109555080Y-89670580D01*
X106355080Y-84710580D02*
X106355080Y-89670580D01*
X109555080Y-84710580D02*
X106355080Y-84710580D01*
%TO.C,C8*%
X119748500Y-89701060D02*
X122948500Y-89701060D01*
X122948500Y-89701060D02*
X122948500Y-84741060D01*
X122948500Y-84741060D02*
X119748500Y-84741060D01*
X119748500Y-84741060D02*
X119748500Y-89701060D01*
%TO.C,C9*%
X132981260Y-89679380D02*
X131021260Y-89679380D01*
X131021260Y-89679380D02*
X131021260Y-93439380D01*
X131021260Y-93439380D02*
X132981260Y-93439380D01*
X132981260Y-93439380D02*
X132981260Y-89679380D01*
%TO.C,C10*%
X130893380Y-93449540D02*
X130893380Y-89689540D01*
X128933380Y-93449540D02*
X130893380Y-93449540D01*
X128933380Y-89689540D02*
X128933380Y-93449540D01*
X130893380Y-89689540D02*
X128933380Y-89689540D01*
%TO.C,C11*%
X143839800Y-91607200D02*
X147599800Y-91607200D01*
X143839800Y-89647200D02*
X143839800Y-91607200D01*
X147599800Y-89647200D02*
X143839800Y-89647200D01*
X147599800Y-91607200D02*
X147599800Y-89647200D01*
%TO.C,C12*%
X124696660Y-89689540D02*
X124696660Y-93449540D01*
X126656660Y-89689540D02*
X124696660Y-89689540D01*
X126656660Y-93449540D02*
X126656660Y-89689540D01*
X124696660Y-93449540D02*
X126656660Y-93449540D01*
%TO.C,C15*%
X101284640Y-104324980D02*
X105044640Y-104324980D01*
X101284640Y-102364980D02*
X101284640Y-104324980D01*
X105044640Y-102364980D02*
X101284640Y-102364980D01*
X105044640Y-104324980D02*
X105044640Y-102364980D01*
%TO.C,R3*%
X143882500Y-85498980D02*
X147582500Y-85498980D01*
X143882500Y-83598980D02*
X143882500Y-85498980D01*
X147582500Y-83598980D02*
X143882500Y-83598980D01*
X147582500Y-85498980D02*
X147582500Y-83598980D01*
%TO.C,R8*%
X132802240Y-89382640D02*
X132802240Y-87482640D01*
X132802240Y-87482640D02*
X129102240Y-87482640D01*
X129102240Y-87482640D02*
X129102240Y-89382640D01*
X129102240Y-89382640D02*
X132802240Y-89382640D01*
%TO.C,R10*%
X147582500Y-87538600D02*
X147582500Y-85638600D01*
X147582500Y-85638600D02*
X143882500Y-85638600D01*
X143882500Y-85638600D02*
X143882500Y-87538600D01*
X143882500Y-87538600D02*
X147582500Y-87538600D01*
%TO.C,AMS1117-3.3*%
X110230200Y-83547400D02*
X119030200Y-83547400D01*
X110230200Y-90747400D02*
X110230200Y-83547400D01*
X119030200Y-90747400D02*
X110230200Y-90747400D01*
X119030200Y-83547400D02*
X119030200Y-90747400D01*
%TO.C,R7*%
X135600400Y-94238200D02*
X135600400Y-97938200D01*
X137500400Y-94238200D02*
X135600400Y-94238200D01*
X137500400Y-97938200D02*
X137500400Y-94238200D01*
X135600400Y-97938200D02*
X137500400Y-97938200D01*
%TD*%
M02*
