%TF.GenerationSoftware,KiCad,Pcbnew,(5.1.10)-1*%
%TF.CreationDate,2021-08-29T21:18:50+07:00*%
%TF.ProjectId,stm32f405rgt6_Mini,73746d33-3266-4343-9035-726774365f4d,rev?*%
%TF.SameCoordinates,Original*%
%TF.FileFunction,Copper,L2,Bot*%
%TF.FilePolarity,Positive*%
%FSLAX46Y46*%
G04 Gerber Fmt 4.6, Leading zero omitted, Abs format (unit mm)*
G04 Created by KiCad (PCBNEW (5.1.10)-1) date 2021-08-29 21:18:50*
%MOMM*%
%LPD*%
G01*
G04 APERTURE LIST*
%TA.AperFunction,SMDPad,CuDef*%
%ADD10R,2.200000X1.200000*%
%TD*%
%TA.AperFunction,SMDPad,CuDef*%
%ADD11R,1.400000X1.600000*%
%TD*%
%TA.AperFunction,SMDPad,CuDef*%
%ADD12R,1.400000X1.200000*%
%TD*%
%TA.AperFunction,SMDPad,CuDef*%
%ADD13R,1.600000X0.700000*%
%TD*%
%TA.AperFunction,ComponentPad*%
%ADD14R,1.700000X1.700000*%
%TD*%
%TA.AperFunction,ComponentPad*%
%ADD15O,1.700000X1.700000*%
%TD*%
%TA.AperFunction,SMDPad,CuDef*%
%ADD16R,2.000000X3.800000*%
%TD*%
%TA.AperFunction,SMDPad,CuDef*%
%ADD17R,2.000000X1.500000*%
%TD*%
%TA.AperFunction,ViaPad*%
%ADD18C,0.800000*%
%TD*%
%TA.AperFunction,Conductor*%
%ADD19C,0.750000*%
%TD*%
%TA.AperFunction,Conductor*%
%ADD20C,0.250000*%
%TD*%
%TA.AperFunction,Conductor*%
%ADD21C,0.500000*%
%TD*%
%TA.AperFunction,Conductor*%
%ADD22C,0.400000*%
%TD*%
%TA.AperFunction,Conductor*%
%ADD23C,0.350000*%
%TD*%
%TA.AperFunction,Conductor*%
%ADD24C,0.450000*%
%TD*%
%TA.AperFunction,Conductor*%
%ADD25C,0.254000*%
%TD*%
%TA.AperFunction,Conductor*%
%ADD26C,0.100000*%
%TD*%
G04 APERTURE END LIST*
%TO.P,C13,2*%
%TO.N,GND*%
%TA.AperFunction,SMDPad,CuDef*%
G36*
G01*
X128262400Y-91122080D02*
X127312400Y-91122080D01*
G75*
G02*
X127062400Y-90872080I0J250000D01*
G01*
X127062400Y-90197080D01*
G75*
G02*
X127312400Y-89947080I250000J0D01*
G01*
X128262400Y-89947080D01*
G75*
G02*
X128512400Y-90197080I0J-250000D01*
G01*
X128512400Y-90872080D01*
G75*
G02*
X128262400Y-91122080I-250000J0D01*
G01*
G37*
%TD.AperFunction*%
%TO.P,C13,1*%
%TO.N,Net-(C13-Pad1)*%
%TA.AperFunction,SMDPad,CuDef*%
G36*
G01*
X128262400Y-93197080D02*
X127312400Y-93197080D01*
G75*
G02*
X127062400Y-92947080I0J250000D01*
G01*
X127062400Y-92272080D01*
G75*
G02*
X127312400Y-92022080I250000J0D01*
G01*
X128262400Y-92022080D01*
G75*
G02*
X128512400Y-92272080I0J-250000D01*
G01*
X128512400Y-92947080D01*
G75*
G02*
X128262400Y-93197080I-250000J0D01*
G01*
G37*
%TD.AperFunction*%
%TD*%
D10*
%TO.P,J4,6*%
%TO.N,+3V3*%
X80537000Y-85696600D03*
X80537000Y-101196600D03*
D11*
X90137000Y-86596600D03*
D12*
X90137000Y-101196600D03*
D13*
%TO.P,J4,9*%
%TO.N,GND*%
X90637000Y-100046600D03*
%TO.P,J4,7*%
%TO.N,PC8*%
X90637000Y-97846600D03*
%TO.P,J4,8*%
%TO.N,PC9*%
X90637000Y-98946600D03*
%TO.P,J4,6*%
%TO.N,+3V3*%
X90637000Y-96746600D03*
%TO.P,J4,5*%
%TO.N,PC12*%
X90637000Y-95646600D03*
%TO.P,J4,4*%
%TO.N,GND*%
X90637000Y-94546600D03*
%TO.P,J4,1*%
%TO.N,PC10*%
X90637000Y-91246600D03*
%TO.P,J4,2*%
%TO.N,PC11*%
X90637000Y-92346600D03*
%TO.P,J4,3*%
%TO.N,PD2*%
X90637000Y-93446600D03*
%TD*%
%TO.P,C1,2*%
%TO.N,+3V3*%
%TA.AperFunction,SMDPad,CuDef*%
G36*
G01*
X102724800Y-100794800D02*
X102724800Y-101744800D01*
G75*
G02*
X102474800Y-101994800I-250000J0D01*
G01*
X101799800Y-101994800D01*
G75*
G02*
X101549800Y-101744800I0J250000D01*
G01*
X101549800Y-100794800D01*
G75*
G02*
X101799800Y-100544800I250000J0D01*
G01*
X102474800Y-100544800D01*
G75*
G02*
X102724800Y-100794800I0J-250000D01*
G01*
G37*
%TD.AperFunction*%
%TO.P,C1,1*%
%TO.N,GND*%
%TA.AperFunction,SMDPad,CuDef*%
G36*
G01*
X104799800Y-100794800D02*
X104799800Y-101744800D01*
G75*
G02*
X104549800Y-101994800I-250000J0D01*
G01*
X103874800Y-101994800D01*
G75*
G02*
X103624800Y-101744800I0J250000D01*
G01*
X103624800Y-100794800D01*
G75*
G02*
X103874800Y-100544800I250000J0D01*
G01*
X104549800Y-100544800D01*
G75*
G02*
X104799800Y-100794800I0J-250000D01*
G01*
G37*
%TD.AperFunction*%
%TD*%
%TO.P,C3,2*%
%TO.N,+5V*%
%TA.AperFunction,SMDPad,CuDef*%
G36*
G01*
X138206900Y-103667580D02*
X138206900Y-102717580D01*
G75*
G02*
X138456900Y-102467580I250000J0D01*
G01*
X139131900Y-102467580D01*
G75*
G02*
X139381900Y-102717580I0J-250000D01*
G01*
X139381900Y-103667580D01*
G75*
G02*
X139131900Y-103917580I-250000J0D01*
G01*
X138456900Y-103917580D01*
G75*
G02*
X138206900Y-103667580I0J250000D01*
G01*
G37*
%TD.AperFunction*%
%TO.P,C3,1*%
%TO.N,GND*%
%TA.AperFunction,SMDPad,CuDef*%
G36*
G01*
X136131900Y-103667580D02*
X136131900Y-102717580D01*
G75*
G02*
X136381900Y-102467580I250000J0D01*
G01*
X137056900Y-102467580D01*
G75*
G02*
X137306900Y-102717580I0J-250000D01*
G01*
X137306900Y-103667580D01*
G75*
G02*
X137056900Y-103917580I-250000J0D01*
G01*
X136381900Y-103917580D01*
G75*
G02*
X136131900Y-103667580I0J250000D01*
G01*
G37*
%TD.AperFunction*%
%TD*%
%TO.P,C7,2*%
%TO.N,GND*%
%TA.AperFunction,SMDPad,CuDef*%
G36*
G01*
X106855078Y-88090580D02*
X109055082Y-88090580D01*
G75*
G02*
X109305080Y-88340578I0J-249998D01*
G01*
X109305080Y-89165582D01*
G75*
G02*
X109055082Y-89415580I-249998J0D01*
G01*
X106855078Y-89415580D01*
G75*
G02*
X106605080Y-89165582I0J249998D01*
G01*
X106605080Y-88340578D01*
G75*
G02*
X106855078Y-88090580I249998J0D01*
G01*
G37*
%TD.AperFunction*%
%TO.P,C7,1*%
%TO.N,+3V3*%
%TA.AperFunction,SMDPad,CuDef*%
G36*
G01*
X106855078Y-84965580D02*
X109055082Y-84965580D01*
G75*
G02*
X109305080Y-85215578I0J-249998D01*
G01*
X109305080Y-86040582D01*
G75*
G02*
X109055082Y-86290580I-249998J0D01*
G01*
X106855078Y-86290580D01*
G75*
G02*
X106605080Y-86040582I0J249998D01*
G01*
X106605080Y-85215578D01*
G75*
G02*
X106855078Y-84965580I249998J0D01*
G01*
G37*
%TD.AperFunction*%
%TD*%
%TO.P,C8,1*%
%TO.N,+3V3*%
%TA.AperFunction,SMDPad,CuDef*%
G36*
G01*
X122448502Y-89446060D02*
X120248498Y-89446060D01*
G75*
G02*
X119998500Y-89196062I0J249998D01*
G01*
X119998500Y-88371058D01*
G75*
G02*
X120248498Y-88121060I249998J0D01*
G01*
X122448502Y-88121060D01*
G75*
G02*
X122698500Y-88371058I0J-249998D01*
G01*
X122698500Y-89196062D01*
G75*
G02*
X122448502Y-89446060I-249998J0D01*
G01*
G37*
%TD.AperFunction*%
%TO.P,C8,2*%
%TO.N,GND*%
%TA.AperFunction,SMDPad,CuDef*%
G36*
G01*
X122448502Y-86321060D02*
X120248498Y-86321060D01*
G75*
G02*
X119998500Y-86071062I0J249998D01*
G01*
X119998500Y-85246058D01*
G75*
G02*
X120248498Y-84996060I249998J0D01*
G01*
X122448502Y-84996060D01*
G75*
G02*
X122698500Y-85246058I0J-249998D01*
G01*
X122698500Y-86071062D01*
G75*
G02*
X122448502Y-86321060I-249998J0D01*
G01*
G37*
%TD.AperFunction*%
%TD*%
%TO.P,C9,1*%
%TO.N,Net-(C9-Pad1)*%
%TA.AperFunction,SMDPad,CuDef*%
G36*
G01*
X131526260Y-89934380D02*
X132476260Y-89934380D01*
G75*
G02*
X132726260Y-90184380I0J-250000D01*
G01*
X132726260Y-90859380D01*
G75*
G02*
X132476260Y-91109380I-250000J0D01*
G01*
X131526260Y-91109380D01*
G75*
G02*
X131276260Y-90859380I0J250000D01*
G01*
X131276260Y-90184380D01*
G75*
G02*
X131526260Y-89934380I250000J0D01*
G01*
G37*
%TD.AperFunction*%
%TO.P,C9,2*%
%TO.N,GND*%
%TA.AperFunction,SMDPad,CuDef*%
G36*
G01*
X131526260Y-92009380D02*
X132476260Y-92009380D01*
G75*
G02*
X132726260Y-92259380I0J-250000D01*
G01*
X132726260Y-92934380D01*
G75*
G02*
X132476260Y-93184380I-250000J0D01*
G01*
X131526260Y-93184380D01*
G75*
G02*
X131276260Y-92934380I0J250000D01*
G01*
X131276260Y-92259380D01*
G75*
G02*
X131526260Y-92009380I250000J0D01*
G01*
G37*
%TD.AperFunction*%
%TD*%
%TO.P,C10,2*%
%TO.N,GND*%
%TA.AperFunction,SMDPad,CuDef*%
G36*
G01*
X129438380Y-92019540D02*
X130388380Y-92019540D01*
G75*
G02*
X130638380Y-92269540I0J-250000D01*
G01*
X130638380Y-92944540D01*
G75*
G02*
X130388380Y-93194540I-250000J0D01*
G01*
X129438380Y-93194540D01*
G75*
G02*
X129188380Y-92944540I0J250000D01*
G01*
X129188380Y-92269540D01*
G75*
G02*
X129438380Y-92019540I250000J0D01*
G01*
G37*
%TD.AperFunction*%
%TO.P,C10,1*%
%TO.N,Net-(C10-Pad1)*%
%TA.AperFunction,SMDPad,CuDef*%
G36*
G01*
X129438380Y-89944540D02*
X130388380Y-89944540D01*
G75*
G02*
X130638380Y-90194540I0J-250000D01*
G01*
X130638380Y-90869540D01*
G75*
G02*
X130388380Y-91119540I-250000J0D01*
G01*
X129438380Y-91119540D01*
G75*
G02*
X129188380Y-90869540I0J250000D01*
G01*
X129188380Y-90194540D01*
G75*
G02*
X129438380Y-89944540I250000J0D01*
G01*
G37*
%TD.AperFunction*%
%TD*%
%TO.P,C11,2*%
%TO.N,GND*%
%TA.AperFunction,SMDPad,CuDef*%
G36*
G01*
X145269800Y-90152200D02*
X145269800Y-91102200D01*
G75*
G02*
X145019800Y-91352200I-250000J0D01*
G01*
X144344800Y-91352200D01*
G75*
G02*
X144094800Y-91102200I0J250000D01*
G01*
X144094800Y-90152200D01*
G75*
G02*
X144344800Y-89902200I250000J0D01*
G01*
X145019800Y-89902200D01*
G75*
G02*
X145269800Y-90152200I0J-250000D01*
G01*
G37*
%TD.AperFunction*%
%TO.P,C11,1*%
%TO.N,Reset*%
%TA.AperFunction,SMDPad,CuDef*%
G36*
G01*
X147344800Y-90152200D02*
X147344800Y-91102200D01*
G75*
G02*
X147094800Y-91352200I-250000J0D01*
G01*
X146419800Y-91352200D01*
G75*
G02*
X146169800Y-91102200I0J250000D01*
G01*
X146169800Y-90152200D01*
G75*
G02*
X146419800Y-89902200I250000J0D01*
G01*
X147094800Y-89902200D01*
G75*
G02*
X147344800Y-90152200I0J-250000D01*
G01*
G37*
%TD.AperFunction*%
%TD*%
%TO.P,C12,2*%
%TO.N,GND*%
%TA.AperFunction,SMDPad,CuDef*%
G36*
G01*
X126151660Y-91119540D02*
X125201660Y-91119540D01*
G75*
G02*
X124951660Y-90869540I0J250000D01*
G01*
X124951660Y-90194540D01*
G75*
G02*
X125201660Y-89944540I250000J0D01*
G01*
X126151660Y-89944540D01*
G75*
G02*
X126401660Y-90194540I0J-250000D01*
G01*
X126401660Y-90869540D01*
G75*
G02*
X126151660Y-91119540I-250000J0D01*
G01*
G37*
%TD.AperFunction*%
%TO.P,C12,1*%
%TO.N,Net-(C12-Pad1)*%
%TA.AperFunction,SMDPad,CuDef*%
G36*
G01*
X126151660Y-93194540D02*
X125201660Y-93194540D01*
G75*
G02*
X124951660Y-92944540I0J250000D01*
G01*
X124951660Y-92269540D01*
G75*
G02*
X125201660Y-92019540I250000J0D01*
G01*
X126151660Y-92019540D01*
G75*
G02*
X126401660Y-92269540I0J-250000D01*
G01*
X126401660Y-92944540D01*
G75*
G02*
X126151660Y-93194540I-250000J0D01*
G01*
G37*
%TD.AperFunction*%
%TD*%
%TO.P,C15,2*%
%TO.N,+3V3*%
%TA.AperFunction,SMDPad,CuDef*%
G36*
G01*
X102714640Y-102869980D02*
X102714640Y-103819980D01*
G75*
G02*
X102464640Y-104069980I-250000J0D01*
G01*
X101789640Y-104069980D01*
G75*
G02*
X101539640Y-103819980I0J250000D01*
G01*
X101539640Y-102869980D01*
G75*
G02*
X101789640Y-102619980I250000J0D01*
G01*
X102464640Y-102619980D01*
G75*
G02*
X102714640Y-102869980I0J-250000D01*
G01*
G37*
%TD.AperFunction*%
%TO.P,C15,1*%
%TO.N,GND*%
%TA.AperFunction,SMDPad,CuDef*%
G36*
G01*
X104789640Y-102869980D02*
X104789640Y-103819980D01*
G75*
G02*
X104539640Y-104069980I-250000J0D01*
G01*
X103864640Y-104069980D01*
G75*
G02*
X103614640Y-103819980I0J250000D01*
G01*
X103614640Y-102869980D01*
G75*
G02*
X103864640Y-102619980I250000J0D01*
G01*
X104539640Y-102619980D01*
G75*
G02*
X104789640Y-102869980I0J-250000D01*
G01*
G37*
%TD.AperFunction*%
%TD*%
D14*
%TO.P,SWD PROG,1*%
%TO.N,GND*%
X143654780Y-92351860D03*
D15*
%TO.P,SWD PROG,2*%
%TO.N,PA14*%
X143654780Y-94891860D03*
%TO.P,SWD PROG,3*%
%TO.N,PA13*%
X143654780Y-97431860D03*
%TO.P,SWD PROG,4*%
%TO.N,+3V3*%
X143654780Y-99971860D03*
%TO.P,SWD PROG,5*%
%TO.N,+5V*%
X143654780Y-102511860D03*
%TD*%
%TO.P,VBat,2*%
%TO.N,GND*%
X129273300Y-100647500D03*
D14*
%TO.P,VBat,1*%
%TO.N,VBat*%
X126733300Y-100647500D03*
%TD*%
%TO.P,5V_IN,1*%
%TO.N,+5V*%
X93345000Y-86817200D03*
D15*
%TO.P,5V_IN,2*%
%TO.N,Net-(J14-Pad2)*%
X93345000Y-89357200D03*
%TD*%
%TO.P,R3,2*%
%TO.N,Net-(D1-Pad2)*%
%TA.AperFunction,SMDPad,CuDef*%
G36*
G01*
X145332500Y-84098979D02*
X145332500Y-84998981D01*
G75*
G02*
X145082501Y-85248980I-249999J0D01*
G01*
X144382499Y-85248980D01*
G75*
G02*
X144132500Y-84998981I0J249999D01*
G01*
X144132500Y-84098979D01*
G75*
G02*
X144382499Y-83848980I249999J0D01*
G01*
X145082501Y-83848980D01*
G75*
G02*
X145332500Y-84098979I0J-249999D01*
G01*
G37*
%TD.AperFunction*%
%TO.P,R3,1*%
%TO.N,GND*%
%TA.AperFunction,SMDPad,CuDef*%
G36*
G01*
X147332500Y-84098979D02*
X147332500Y-84998981D01*
G75*
G02*
X147082501Y-85248980I-249999J0D01*
G01*
X146382499Y-85248980D01*
G75*
G02*
X146132500Y-84998981I0J249999D01*
G01*
X146132500Y-84098979D01*
G75*
G02*
X146382499Y-83848980I249999J0D01*
G01*
X147082501Y-83848980D01*
G75*
G02*
X147332500Y-84098979I0J-249999D01*
G01*
G37*
%TD.AperFunction*%
%TD*%
%TO.P,R8,1*%
%TO.N,Net-(C9-Pad1)*%
%TA.AperFunction,SMDPad,CuDef*%
G36*
G01*
X132552240Y-87982639D02*
X132552240Y-88882641D01*
G75*
G02*
X132302241Y-89132640I-249999J0D01*
G01*
X131602239Y-89132640D01*
G75*
G02*
X131352240Y-88882641I0J249999D01*
G01*
X131352240Y-87982639D01*
G75*
G02*
X131602239Y-87732640I249999J0D01*
G01*
X132302241Y-87732640D01*
G75*
G02*
X132552240Y-87982639I0J-249999D01*
G01*
G37*
%TD.AperFunction*%
%TO.P,R8,2*%
%TO.N,Net-(C10-Pad1)*%
%TA.AperFunction,SMDPad,CuDef*%
G36*
G01*
X130552240Y-87982639D02*
X130552240Y-88882641D01*
G75*
G02*
X130302241Y-89132640I-249999J0D01*
G01*
X129602239Y-89132640D01*
G75*
G02*
X129352240Y-88882641I0J249999D01*
G01*
X129352240Y-87982639D01*
G75*
G02*
X129602239Y-87732640I249999J0D01*
G01*
X130302241Y-87732640D01*
G75*
G02*
X130552240Y-87982639I0J-249999D01*
G01*
G37*
%TD.AperFunction*%
%TD*%
%TO.P,R10,1*%
%TO.N,Reset*%
%TA.AperFunction,SMDPad,CuDef*%
G36*
G01*
X147332500Y-86138599D02*
X147332500Y-87038601D01*
G75*
G02*
X147082501Y-87288600I-249999J0D01*
G01*
X146382499Y-87288600D01*
G75*
G02*
X146132500Y-87038601I0J249999D01*
G01*
X146132500Y-86138599D01*
G75*
G02*
X146382499Y-85888600I249999J0D01*
G01*
X147082501Y-85888600D01*
G75*
G02*
X147332500Y-86138599I0J-249999D01*
G01*
G37*
%TD.AperFunction*%
%TO.P,R10,2*%
%TO.N,+3V3*%
%TA.AperFunction,SMDPad,CuDef*%
G36*
G01*
X145332500Y-86138599D02*
X145332500Y-87038601D01*
G75*
G02*
X145082501Y-87288600I-249999J0D01*
G01*
X144382499Y-87288600D01*
G75*
G02*
X144132500Y-87038601I0J249999D01*
G01*
X144132500Y-86138599D01*
G75*
G02*
X144382499Y-85888600I249999J0D01*
G01*
X145082501Y-85888600D01*
G75*
G02*
X145332500Y-86138599I0J-249999D01*
G01*
G37*
%TD.AperFunction*%
%TD*%
D16*
%TO.P,AMS1117-3.3,2*%
%TO.N,+3V3*%
X111480200Y-87147400D03*
D17*
X117780200Y-87147400D03*
%TO.P,AMS1117-3.3,3*%
%TO.N,Net-(J14-Pad2)*%
X117780200Y-89447400D03*
%TO.P,AMS1117-3.3,1*%
%TO.N,GND*%
X117780200Y-84847400D03*
%TD*%
%TO.P,R7,1*%
%TO.N,+3V3*%
%TA.AperFunction,SMDPad,CuDef*%
G36*
G01*
X137000401Y-97688200D02*
X136100399Y-97688200D01*
G75*
G02*
X135850400Y-97438201I0J249999D01*
G01*
X135850400Y-96738199D01*
G75*
G02*
X136100399Y-96488200I249999J0D01*
G01*
X137000401Y-96488200D01*
G75*
G02*
X137250400Y-96738199I0J-249999D01*
G01*
X137250400Y-97438201D01*
G75*
G02*
X137000401Y-97688200I-249999J0D01*
G01*
G37*
%TD.AperFunction*%
%TO.P,R7,2*%
%TO.N,PC1*%
%TA.AperFunction,SMDPad,CuDef*%
G36*
G01*
X137000401Y-95688200D02*
X136100399Y-95688200D01*
G75*
G02*
X135850400Y-95438201I0J249999D01*
G01*
X135850400Y-94738199D01*
G75*
G02*
X136100399Y-94488200I249999J0D01*
G01*
X137000401Y-94488200D01*
G75*
G02*
X137250400Y-94738199I0J-249999D01*
G01*
X137250400Y-95438201D01*
G75*
G02*
X137000401Y-95688200I-249999J0D01*
G01*
G37*
%TD.AperFunction*%
%TD*%
D14*
%TO.P,BOOT0,1*%
%TO.N,GND*%
X97053400Y-91871800D03*
D15*
%TO.P,BOOT0,2*%
%TO.N,Net-(J1-Pad2)*%
X97053400Y-89331800D03*
%TO.P,BOOT0,3*%
%TO.N,+3V3*%
X97053400Y-86791800D03*
%TD*%
D14*
%TO.P,.,1*%
%TO.N,Reset*%
X142458440Y-80203040D03*
D15*
%TO.P,.,2*%
%TO.N,PC0*%
X139918440Y-80203040D03*
%TO.P,.,3*%
%TO.N,PC1*%
X137378440Y-80203040D03*
%TO.P,.,4*%
%TO.N,PC2*%
X134838440Y-80203040D03*
%TO.P,.,5*%
%TO.N,PC3*%
X132298440Y-80203040D03*
%TO.P,.,6*%
%TO.N,PA0*%
X129758440Y-80203040D03*
%TO.P,.,7*%
%TO.N,PA1*%
X127218440Y-80203040D03*
%TO.P,.,8*%
%TO.N,PA2*%
X124678440Y-80203040D03*
%TO.P,.,9*%
%TO.N,PA3*%
X122138440Y-80203040D03*
%TO.P,.,10*%
%TO.N,PA4*%
X119598440Y-80203040D03*
%TO.P,.,11*%
%TO.N,PA5*%
X117058440Y-80203040D03*
%TO.P,.,12*%
%TO.N,PA6*%
X114518440Y-80203040D03*
%TO.P,.,13*%
%TO.N,PA7*%
X111978440Y-80203040D03*
%TO.P,.,14*%
%TO.N,PC4*%
X109438440Y-80203040D03*
%TO.P,.,15*%
%TO.N,PC5*%
X106898440Y-80203040D03*
%TO.P,.,16*%
%TO.N,PB0*%
X104358440Y-80203040D03*
%TO.P,.,17*%
%TO.N,PB1*%
X101818440Y-80203040D03*
%TO.P,.,18*%
%TO.N,PB2*%
X99278440Y-80203040D03*
%TO.P,.,19*%
%TO.N,PB10*%
X96738440Y-80203040D03*
%TO.P,.,20*%
%TO.N,PB11*%
X94198440Y-80203040D03*
%TO.P,.,21*%
%TO.N,PB12*%
X91658440Y-80203040D03*
%TO.P,.,22*%
%TO.N,PB13*%
X89118440Y-80203040D03*
%TO.P,.,23*%
%TO.N,PB14*%
X86578440Y-80203040D03*
%TO.P,.,24*%
%TO.N,PB15*%
X84038440Y-80203040D03*
%TO.P,.,25*%
%TO.N,GND*%
X81498440Y-80203040D03*
%TO.P,.,26*%
X78958440Y-80203040D03*
%TO.P,.,27*%
%TO.N,+3V3*%
X76418440Y-80203040D03*
%TO.P,.,28*%
%TO.N,+5V*%
X73878440Y-80203040D03*
%TD*%
%TO.P,.,28*%
%TO.N,+5V*%
X142504160Y-107716320D03*
%TO.P,.,27*%
%TO.N,+3V3*%
X139964160Y-107716320D03*
%TO.P,.,26*%
%TO.N,GND*%
X137424160Y-107716320D03*
%TO.P,.,25*%
X134884160Y-107716320D03*
%TO.P,.,24*%
%TO.N,PC13*%
X132344160Y-107716320D03*
%TO.P,.,23*%
%TO.N,PB9*%
X129804160Y-107716320D03*
%TO.P,.,22*%
%TO.N,PB8*%
X127264160Y-107716320D03*
%TO.P,.,21*%
%TO.N,PB7*%
X124724160Y-107716320D03*
%TO.P,.,20*%
%TO.N,PB6*%
X122184160Y-107716320D03*
%TO.P,.,19*%
%TO.N,PB5*%
X119644160Y-107716320D03*
%TO.P,.,18*%
%TO.N,PB4*%
X117104160Y-107716320D03*
%TO.P,.,17*%
%TO.N,PB3*%
X114564160Y-107716320D03*
%TO.P,.,16*%
%TO.N,PD2*%
X112024160Y-107716320D03*
%TO.P,.,15*%
%TO.N,PC12*%
X109484160Y-107716320D03*
%TO.P,.,14*%
%TO.N,PC11*%
X106944160Y-107716320D03*
%TO.P,.,13*%
%TO.N,PC10*%
X104404160Y-107716320D03*
%TO.P,.,12*%
%TO.N,PA15*%
X101864160Y-107716320D03*
%TO.P,.,11*%
%TO.N,PA14*%
X99324160Y-107716320D03*
%TO.P,.,10*%
%TO.N,PA13*%
X96784160Y-107716320D03*
%TO.P,.,9*%
%TO.N,PA12*%
X94244160Y-107716320D03*
%TO.P,.,8*%
%TO.N,PA11*%
X91704160Y-107716320D03*
%TO.P,.,7*%
%TO.N,PA10*%
X89164160Y-107716320D03*
%TO.P,.,6*%
%TO.N,PA9*%
X86624160Y-107716320D03*
%TO.P,.,5*%
%TO.N,PA8*%
X84084160Y-107716320D03*
%TO.P,.,4*%
%TO.N,PC9*%
X81544160Y-107716320D03*
%TO.P,.,3*%
%TO.N,PC8*%
X79004160Y-107716320D03*
%TO.P,.,2*%
%TO.N,PC7*%
X76464160Y-107716320D03*
D14*
%TO.P,.,1*%
%TO.N,PC6*%
X73924160Y-107716320D03*
%TD*%
D18*
%TO.N,GND*%
X92529660Y-98333560D03*
X92539820Y-99245420D03*
X134594600Y-90093800D03*
X118724253Y-92730747D03*
X118262400Y-94513400D03*
X114147600Y-85166200D03*
X88290400Y-85623400D03*
X122199400Y-97053400D03*
X80065400Y-95508600D03*
X88849200Y-89916000D03*
X150548340Y-80868520D03*
X88442800Y-86969600D03*
X73964800Y-101117400D03*
X73964800Y-99966780D03*
X72456040Y-86796880D03*
X148808440Y-105559860D03*
X131593500Y-95423900D03*
X131593500Y-100740300D03*
X80137000Y-92003880D03*
X130903980Y-94124780D03*
X86601300Y-100393500D03*
X146423380Y-96161860D03*
X146415760Y-93642180D03*
X90601800Y-88976200D03*
X146443700Y-106690160D03*
X147563840Y-106690160D03*
X135475980Y-103177340D03*
X135224520Y-104312720D03*
X79014320Y-83444080D03*
X80126840Y-83469480D03*
X81264760Y-83469480D03*
X140591540Y-93644720D03*
X140591540Y-91229180D03*
X99161600Y-91704160D03*
X104264460Y-85793580D03*
X114665760Y-84023200D03*
X124020580Y-90568780D03*
X150538180Y-81953100D03*
X73985120Y-102219760D03*
X72448420Y-85603080D03*
X72456040Y-84381340D03*
X131589780Y-99631500D03*
X131589780Y-98470720D03*
X151075480Y-106678820D03*
X148805900Y-106682540D03*
X149966680Y-106682540D03*
X152524460Y-93484700D03*
X152524460Y-92364560D03*
X152513120Y-88852920D03*
X152516840Y-89961720D03*
X152516840Y-91122500D03*
X93502480Y-99253040D03*
X94414340Y-99242880D03*
X151516080Y-81963260D03*
X151526240Y-80878680D03*
%TO.N,+5V*%
X81661000Y-103555800D03*
X86563200Y-102133400D03*
X79745840Y-88732360D03*
%TO.N,+3V3*%
X80416400Y-99847400D03*
X115493800Y-85572400D03*
X87122000Y-91186000D03*
X88648000Y-96746600D03*
X135178800Y-97078800D03*
X88671400Y-99885500D03*
X78963520Y-87299800D03*
X93438980Y-97208340D03*
%TO.N,Net-(C9-Pad1)*%
X132918200Y-85420200D03*
%TO.N,Net-(C10-Pad1)*%
X130276600Y-85445600D03*
%TO.N,Reset*%
X148170900Y-86144100D03*
X145841720Y-89298780D03*
%TO.N,Net-(C12-Pad1)*%
X127952500Y-97370900D03*
%TO.N,Net-(C13-Pad1)*%
X127975362Y-95628458D03*
%TO.N,PA13*%
X114096800Y-102082600D03*
%TO.N,PA14*%
X111683800Y-102870000D03*
X140830300Y-98704400D03*
X140830300Y-96139000D03*
%TO.N,PC12*%
X115951000Y-96418402D03*
%TO.N,PD2*%
X117348000Y-96291400D03*
%TO.N,PC1*%
X138150600Y-94234000D03*
X141927580Y-86512398D03*
%TO.N,PC2*%
X140746480Y-86522560D03*
%TO.N,PC3*%
X139542520Y-86558120D03*
%TO.N,PB10*%
X122732800Y-94767400D03*
X113030000Y-93243400D03*
%TO.N,PC13*%
X136337040Y-101533960D03*
X146616420Y-83052920D03*
%TO.N,PC11*%
X115874800Y-94462602D03*
%TO.N,PC10*%
X115874634Y-93346294D03*
%TO.N,PA12*%
X86106000Y-96520000D03*
%TO.N,PA11*%
X86131400Y-92303600D03*
%TO.N,PC9*%
X87350600Y-98933000D03*
X83845400Y-98933000D03*
%TO.N,PC8*%
X87350600Y-97840800D03*
X83845400Y-97866200D03*
%TO.N,Net-(R9-Pad1)*%
X115860515Y-92216285D03*
X102235000Y-93370400D03*
%TO.N,Net-(D1-Pad2)*%
X143108734Y-86487054D03*
%TO.N,Net-(C17-Pad1)*%
X113194000Y-98475800D03*
X105511600Y-98272600D03*
%TD*%
D19*
%TO.N,GND*%
X104212300Y-103632000D02*
X104186900Y-103657400D01*
X104212300Y-101269800D02*
X104212300Y-100148300D01*
D20*
X118724253Y-94051547D02*
X118262400Y-94513400D01*
X118724253Y-92730747D02*
X118724253Y-94051547D01*
D19*
X117806500Y-84873700D02*
X117780200Y-84847400D01*
X117780200Y-84847400D02*
X117780200Y-84760200D01*
D21*
X80111600Y-95462400D02*
X80065400Y-95508600D01*
X88849200Y-94058800D02*
X88849200Y-89916000D01*
X89337000Y-94546600D02*
X88849200Y-94058800D01*
X90637000Y-94546600D02*
X89337000Y-94546600D01*
D19*
X131593500Y-100740300D02*
X131593500Y-95423900D01*
D22*
X80065400Y-91918002D02*
X80086202Y-91897200D01*
X80065400Y-95508600D02*
X80065400Y-91918002D01*
D19*
X129273300Y-99618800D02*
X129273300Y-100647500D01*
X128257300Y-98602800D02*
X129273300Y-99618800D01*
X115265200Y-98602800D02*
X128257300Y-98602800D01*
X112598200Y-101269800D02*
X115265200Y-98602800D01*
X104212300Y-101269800D02*
X112598200Y-101269800D01*
X131500700Y-100647500D02*
X131593500Y-100740300D01*
X129273300Y-100647500D02*
X131500700Y-100647500D01*
X143738600Y-90093800D02*
X134594600Y-90093800D01*
X144627600Y-90681900D02*
X144682300Y-90627200D01*
X144682300Y-90627200D02*
X144682300Y-90377100D01*
X144399000Y-90093800D02*
X143738600Y-90093800D01*
X144682300Y-90377100D02*
X144399000Y-90093800D01*
X135224520Y-104312720D02*
X104842220Y-104312720D01*
D22*
X92569220Y-100046600D02*
X93416120Y-99199700D01*
X90637000Y-100046600D02*
X92569220Y-100046600D01*
D19*
X103263700Y-99199700D02*
X104212300Y-100148300D01*
X93416120Y-99199700D02*
X103263700Y-99199700D01*
D22*
X122199400Y-97053400D02*
X122923300Y-97053400D01*
X122923300Y-97053400D02*
X123888500Y-96088200D01*
X123888500Y-96088200D02*
X123888500Y-90934540D01*
X124291000Y-90532040D02*
X125676660Y-90532040D01*
X123888500Y-90934540D02*
X124291000Y-90532040D01*
D19*
X104212300Y-103334820D02*
X104202140Y-103344980D01*
X104212300Y-101269800D02*
X104212300Y-103334820D01*
X104202140Y-103672640D02*
X104842220Y-104312720D01*
X104202140Y-103344980D02*
X104202140Y-103672640D01*
X105331660Y-88753080D02*
X104264460Y-87685880D01*
X104264460Y-87685880D02*
X104264460Y-85793580D01*
X107955080Y-88753080D02*
X105331660Y-88753080D01*
X136704160Y-103177340D02*
X136719400Y-103192580D01*
X135475980Y-103177340D02*
X136704160Y-103177340D01*
D23*
X149684439Y-82117899D02*
X150416260Y-82849720D01*
X146287599Y-82117899D02*
X149684439Y-82117899D01*
X145704560Y-82700938D02*
X146287599Y-82117899D01*
X145704560Y-83521040D02*
X145704560Y-82700938D01*
X146732500Y-84548980D02*
X145704560Y-83521040D01*
D19*
%TO.N,+5V*%
X142494000Y-107797600D02*
X142494000Y-106553000D01*
X142494000Y-106553000D02*
X141351000Y-105410000D01*
D24*
X141397900Y-105363100D02*
X141351000Y-105410000D01*
D19*
X141351000Y-105410000D02*
X140157200Y-105410000D01*
X78729840Y-88732360D02*
X79745840Y-88732360D01*
X77647800Y-89814400D02*
X78729840Y-88732360D01*
X77647800Y-102082600D02*
X77647800Y-89814400D01*
X79121000Y-103555800D02*
X77647800Y-102082600D01*
X81661000Y-103555800D02*
X79121000Y-103555800D01*
X95732600Y-105410000D02*
X93751400Y-103428800D01*
X93751400Y-103428800D02*
X87858600Y-103428800D01*
X87858600Y-103428800D02*
X86563200Y-102133400D01*
X138794400Y-105403740D02*
X138788140Y-105410000D01*
X138794400Y-103192580D02*
X138794400Y-105403740D01*
X138788140Y-105410000D02*
X95732600Y-105410000D01*
X140157200Y-105410000D02*
X138788140Y-105410000D01*
%TO.N,+3V3*%
X102137300Y-103632000D02*
X102111900Y-103657400D01*
X90210200Y-101269800D02*
X90137000Y-101196600D01*
X102137300Y-101269800D02*
X90210200Y-101269800D01*
D24*
X85671200Y-85696600D02*
X80537000Y-85696600D01*
X88341200Y-88366600D02*
X85671200Y-85696600D01*
X80537000Y-99968000D02*
X80416400Y-99847400D01*
X80537000Y-101196600D02*
X80537000Y-99968000D01*
D20*
X115493800Y-86995000D02*
X115341400Y-87147400D01*
X115493800Y-85572400D02*
X115493800Y-86995000D01*
D19*
X115341400Y-87147400D02*
X111480200Y-87147400D01*
X117780200Y-87147400D02*
X115341400Y-87147400D01*
D21*
X80416400Y-99847400D02*
X81838800Y-98425000D01*
X81838800Y-98425000D02*
X81838800Y-93370400D01*
X81838800Y-93370400D02*
X84023200Y-91186000D01*
X84023200Y-91186000D02*
X87122000Y-91186000D01*
D23*
X90637000Y-96746600D02*
X88648000Y-96746600D01*
D21*
X88648000Y-96746600D02*
X87983600Y-96746600D01*
X87122000Y-95885000D02*
X87122000Y-91186000D01*
X87983600Y-96746600D02*
X87122000Y-95885000D01*
X87122000Y-89611600D02*
X90137000Y-86596600D01*
X87122000Y-91186000D02*
X87122000Y-89611600D01*
X135188200Y-97088200D02*
X135178800Y-97078800D01*
X136550400Y-97088200D02*
X135188200Y-97088200D01*
D19*
X97053400Y-86791800D02*
X97129600Y-86791800D01*
D21*
X97104200Y-86741000D02*
X97053400Y-86791800D01*
X90137000Y-101196600D02*
X88937000Y-101196600D01*
X88937000Y-101196600D02*
X88671400Y-100931000D01*
X88671400Y-100931000D02*
X88671400Y-99885500D01*
D19*
X78963520Y-87270080D02*
X78963520Y-87299800D01*
X80537000Y-85696600D02*
X78963520Y-87270080D01*
D20*
X90637000Y-96746600D02*
X92596240Y-96746600D01*
X93438980Y-97208340D02*
X93045280Y-97208340D01*
X92596240Y-96759300D02*
X92596240Y-96746600D01*
X93045280Y-97208340D02*
X92596240Y-96759300D01*
D19*
X102137300Y-103334820D02*
X102127140Y-103344980D01*
X102137300Y-101269800D02*
X102137300Y-103334820D01*
X107955080Y-86291420D02*
X107955080Y-85628080D01*
X108811060Y-87147400D02*
X107955080Y-86291420D01*
X111480200Y-87147400D02*
X108811060Y-87147400D01*
X117780200Y-87147400D02*
X118869460Y-87147400D01*
X120505620Y-88783560D02*
X121348500Y-88783560D01*
X118869460Y-87147400D02*
X120505620Y-88783560D01*
X147693380Y-88117680D02*
X149491700Y-89916000D01*
X135648700Y-85344000D02*
X135648700Y-87477600D01*
X134404100Y-84099400D02*
X135648700Y-85344000D01*
X149491700Y-89916000D02*
X149491700Y-98945700D01*
X125587760Y-84099400D02*
X134404100Y-84099400D01*
X124673360Y-85013800D02*
X125587760Y-84099400D01*
X124673360Y-88204040D02*
X124673360Y-85013800D01*
X148465540Y-99971860D02*
X143654780Y-99971860D01*
X124093840Y-88783560D02*
X124673360Y-88204040D01*
X149491700Y-98945700D02*
X148465540Y-99971860D01*
X135648700Y-87477600D02*
X136288780Y-88117680D01*
X121348500Y-88783560D02*
X124093840Y-88783560D01*
X144840960Y-88117680D02*
X147693380Y-88117680D01*
X136288780Y-88117680D02*
X144840960Y-88117680D01*
X144732500Y-88009220D02*
X144840960Y-88117680D01*
X144732500Y-86588600D02*
X144732500Y-88009220D01*
X107955080Y-85196680D02*
X107955080Y-85628080D01*
X107248960Y-84490560D02*
X107955080Y-85196680D01*
X90137000Y-85542100D02*
X91188540Y-84490560D01*
X90137000Y-86596600D02*
X90137000Y-85542100D01*
X97053400Y-84508340D02*
X97035620Y-84490560D01*
X97053400Y-86791800D02*
X97053400Y-84508340D01*
X97035620Y-84490560D02*
X107248960Y-84490560D01*
X91188540Y-84490560D02*
X97035620Y-84490560D01*
D22*
%TO.N,Net-(C9-Pad1)*%
X132001260Y-88481660D02*
X131952240Y-88432640D01*
X132001260Y-90521880D02*
X132001260Y-88481660D01*
X131952240Y-86386160D02*
X132918200Y-85420200D01*
X131952240Y-88432640D02*
X131952240Y-86386160D01*
%TO.N,Net-(C10-Pad1)*%
X129913380Y-88471500D02*
X129952240Y-88432640D01*
X129913380Y-90532040D02*
X129913380Y-88471500D01*
X129952240Y-85769960D02*
X130276600Y-85445600D01*
X129952240Y-88432640D02*
X129952240Y-85769960D01*
D21*
%TO.N,Reset*%
X147726400Y-86588600D02*
X148170900Y-86144100D01*
X146732500Y-86588600D02*
X147726400Y-86588600D01*
X146757300Y-90627200D02*
X145841720Y-89711620D01*
X145841720Y-89711620D02*
X145841720Y-89298780D01*
D22*
%TO.N,Net-(C12-Pad1)*%
X125676660Y-92607040D02*
X125676660Y-96324420D01*
X126723140Y-97370900D02*
X127952500Y-97370900D01*
X125676660Y-96324420D02*
X126723140Y-97370900D01*
%TO.N,Net-(C13-Pad1)*%
X127787400Y-95440496D02*
X127975362Y-95628458D01*
X127787400Y-92609580D02*
X127787400Y-95440496D01*
%TO.N,PA13*%
X139301220Y-97431860D02*
X143654780Y-97431860D01*
X138094720Y-98638360D02*
X139301220Y-97431860D01*
X134614920Y-98638360D02*
X138094720Y-98638360D01*
X133847840Y-99405440D02*
X134614920Y-98638360D01*
X133847840Y-101544120D02*
X133847840Y-99405440D01*
X132969000Y-102422960D02*
X133847840Y-101544120D01*
X114437160Y-102422960D02*
X132969000Y-102422960D01*
X114096800Y-102082600D02*
X114437160Y-102422960D01*
%TO.N,PA14*%
X112064800Y-103251000D02*
X111683800Y-102870000D01*
X133385560Y-103251000D02*
X112064800Y-103251000D01*
X134721600Y-99761040D02*
X134721600Y-101914960D01*
X135001000Y-99481640D02*
X134721600Y-99761040D01*
X137535920Y-99481640D02*
X135001000Y-99481640D01*
X134721600Y-101914960D02*
X133385560Y-103251000D01*
X140053060Y-99481640D02*
X140830300Y-98704400D01*
X137535920Y-99481640D02*
X140053060Y-99481640D01*
X140830300Y-96139000D02*
X140830300Y-95432880D01*
X141371320Y-94891860D02*
X143654780Y-94891860D01*
X140830300Y-95432880D02*
X141371320Y-94891860D01*
D20*
%TO.N,PC12*%
X115833802Y-96535600D02*
X115951000Y-96418402D01*
X92573200Y-95646600D02*
X90637000Y-95646600D01*
X93345002Y-96418402D02*
X92573200Y-95646600D01*
X115951000Y-96418402D02*
X93345002Y-96418402D01*
%TO.N,PD2*%
X91440000Y-93446600D02*
X90637000Y-93446600D01*
X93827600Y-95834200D02*
X91440000Y-93446600D01*
X115011200Y-95834200D02*
X93827600Y-95834200D01*
X115443000Y-95402400D02*
X115011200Y-95834200D01*
X116459000Y-95402400D02*
X115443000Y-95402400D01*
X117348000Y-96291400D02*
X116459000Y-95402400D01*
D21*
%TO.N,PC1*%
X138150600Y-94234000D02*
X138150600Y-94843600D01*
X137906000Y-95088200D02*
X136550400Y-95088200D01*
X138150600Y-94843600D02*
X137906000Y-95088200D01*
D23*
X141927580Y-84726780D02*
X141927580Y-86512398D01*
X137363200Y-80162400D02*
X141927580Y-84726780D01*
%TO.N,PC2*%
X138506200Y-82555080D02*
X140746480Y-84795360D01*
X134823200Y-80162400D02*
X137215880Y-82555080D01*
X137215880Y-82555080D02*
X138506200Y-82555080D01*
X140746480Y-84795360D02*
X140746480Y-86522560D01*
%TO.N,PC3*%
X132283200Y-80162400D02*
X132702300Y-80162400D01*
D22*
X139542520Y-86558120D02*
X139542520Y-84957920D01*
X139542520Y-84957920D02*
X138071860Y-83487260D01*
X135582660Y-83487260D02*
X132298440Y-80203040D01*
X138071860Y-83487260D02*
X135582660Y-83487260D01*
D23*
%TO.N,PB10*%
X122732800Y-94767400D02*
X119189199Y-91223799D01*
X119189199Y-91223799D02*
X115049601Y-91223799D01*
X115049601Y-91223799D02*
X113030000Y-93243400D01*
%TO.N,PC13*%
X148729700Y-83052920D02*
X146616420Y-83052920D01*
X150799800Y-85123020D02*
X148729700Y-83052920D01*
X150799800Y-100571300D02*
X150799800Y-85123020D01*
X146875500Y-104495600D02*
X150799800Y-100571300D01*
X142880080Y-104495600D02*
X146875500Y-104495600D01*
X139918440Y-101533960D02*
X142880080Y-104495600D01*
X136337040Y-101533960D02*
X139918440Y-101533960D01*
D20*
%TO.N,PC11*%
X94361000Y-95275400D02*
X91432200Y-92346600D01*
X91432200Y-92346600D02*
X90637000Y-92346600D01*
X114706400Y-95275400D02*
X94361000Y-95275400D01*
X115519198Y-94462602D02*
X114706400Y-95275400D01*
X115874800Y-94462602D02*
X115519198Y-94462602D01*
%TO.N,PC10*%
X115716196Y-93446600D02*
X115816502Y-93346294D01*
X115816502Y-93346294D02*
X115874634Y-93346294D01*
X91449800Y-91246600D02*
X90637000Y-91246600D01*
X94919800Y-94716600D02*
X91449800Y-91246600D01*
X114173000Y-94716600D02*
X94919800Y-94716600D01*
X115544600Y-93345000D02*
X114173000Y-94716600D01*
X115873340Y-93345000D02*
X115544600Y-93345000D01*
X115874634Y-93346294D02*
X115873340Y-93345000D01*
D22*
%TO.N,PA12*%
X85547200Y-97078800D02*
X86106000Y-96520000D01*
X85547200Y-103225600D02*
X85547200Y-97078800D01*
X86715600Y-104394000D02*
X85547200Y-103225600D01*
X93243400Y-104394000D02*
X86715600Y-104394000D01*
X94234000Y-105384600D02*
X93243400Y-104394000D01*
X94234000Y-107797600D02*
X94234000Y-105384600D01*
%TO.N,PA11*%
X84721700Y-93713300D02*
X86131400Y-92303600D01*
X84721700Y-103682800D02*
X84721700Y-93713300D01*
X86245700Y-105206800D02*
X84721700Y-103682800D01*
X90855800Y-105206800D02*
X86245700Y-105206800D01*
X91694000Y-106045000D02*
X90855800Y-105206800D01*
X91694000Y-107797600D02*
X91694000Y-106045000D01*
%TO.N,PC9*%
X81534000Y-107797600D02*
X83667600Y-105664000D01*
X83845400Y-105486200D02*
X83667600Y-105664000D01*
X83845400Y-98933000D02*
X83845400Y-105486200D01*
X90623400Y-98933000D02*
X90637000Y-98946600D01*
X87350600Y-98933000D02*
X90623400Y-98933000D01*
%TO.N,PC8*%
X90637000Y-97846600D02*
X87598800Y-97846600D01*
X87356400Y-97846600D02*
X87350600Y-97840800D01*
X87598800Y-97846600D02*
X87356400Y-97846600D01*
X80670400Y-106121200D02*
X78994000Y-107797600D01*
X82067400Y-106121200D02*
X80670400Y-106121200D01*
X83045399Y-105143201D02*
X82067400Y-106121200D01*
X83045399Y-98234401D02*
X83045399Y-105143201D01*
X83413600Y-97866200D02*
X83045399Y-98234401D01*
X83845400Y-97866200D02*
X83413600Y-97866200D01*
D20*
%TO.N,Net-(R9-Pad1)*%
X115860515Y-92216285D02*
X113893600Y-94183200D01*
X103047800Y-94183200D02*
X102235000Y-93370400D01*
X113893600Y-94183200D02*
X103047800Y-94183200D01*
D22*
%TO.N,Net-(D1-Pad2)*%
X143108734Y-85493806D02*
X143108734Y-86487054D01*
X144053560Y-84548980D02*
X143108734Y-85493806D01*
X144732500Y-84548980D02*
X144053560Y-84548980D01*
D19*
%TO.N,Net-(J14-Pad2)*%
X117780200Y-89447400D02*
X114717800Y-89447400D01*
X114717800Y-89447400D02*
X112344200Y-91821000D01*
X112344200Y-91821000D02*
X101396800Y-91821000D01*
X101396800Y-91821000D02*
X99364800Y-93853000D01*
X99364800Y-93853000D02*
X95580200Y-93853000D01*
X93345000Y-91617800D02*
X93345000Y-89357200D01*
X95580200Y-93853000D02*
X93345000Y-91617800D01*
D20*
%TO.N,Net-(C17-Pad1)*%
X105714800Y-98475800D02*
X105511600Y-98272600D01*
X113194000Y-98475800D02*
X105714800Y-98475800D01*
%TD*%
D25*
%TO.N,GND*%
X153248760Y-109068000D02*
X143121407Y-109068000D01*
X143207571Y-109032310D01*
X143450792Y-108869795D01*
X143657635Y-108662952D01*
X143820150Y-108419731D01*
X143932092Y-108149478D01*
X143989160Y-107862580D01*
X143989160Y-107570060D01*
X143932092Y-107283162D01*
X143820150Y-107012909D01*
X143657635Y-106769688D01*
X143504000Y-106616053D01*
X143504000Y-106602604D01*
X143508886Y-106552999D01*
X143501456Y-106477563D01*
X143489385Y-106355006D01*
X143431632Y-106164620D01*
X143337847Y-105989160D01*
X143211633Y-105835367D01*
X143173094Y-105803739D01*
X142637955Y-105268600D01*
X142721292Y-105293880D01*
X142840289Y-105305600D01*
X142840291Y-105305600D01*
X142880079Y-105309519D01*
X142919867Y-105305600D01*
X146835712Y-105305600D01*
X146875500Y-105309519D01*
X146915288Y-105305600D01*
X146915291Y-105305600D01*
X147034288Y-105293880D01*
X147186973Y-105247563D01*
X147327689Y-105172349D01*
X147451028Y-105071128D01*
X147476400Y-105040212D01*
X151344419Y-101172194D01*
X151375328Y-101146828D01*
X151456762Y-101047600D01*
X151476549Y-101023490D01*
X151525985Y-100931000D01*
X151551763Y-100882773D01*
X151598080Y-100730088D01*
X151609800Y-100611091D01*
X151609800Y-100611089D01*
X151613719Y-100571301D01*
X151609800Y-100531513D01*
X151609800Y-85162807D01*
X151613719Y-85123019D01*
X151608712Y-85072180D01*
X151598080Y-84964232D01*
X151551763Y-84811547D01*
X151476549Y-84670831D01*
X151375328Y-84547492D01*
X151344418Y-84522125D01*
X149330599Y-82508307D01*
X149305228Y-82477392D01*
X149181889Y-82376171D01*
X149041173Y-82300957D01*
X148888488Y-82254640D01*
X148769491Y-82242920D01*
X148769488Y-82242920D01*
X148729700Y-82239001D01*
X148689912Y-82242920D01*
X147267120Y-82242920D01*
X147106676Y-82135715D01*
X146918318Y-82057694D01*
X146718359Y-82017920D01*
X146514481Y-82017920D01*
X146314522Y-82057694D01*
X146126164Y-82135715D01*
X145956646Y-82248983D01*
X145812483Y-82393146D01*
X145699215Y-82562664D01*
X145621194Y-82751022D01*
X145581420Y-82950981D01*
X145581420Y-83154859D01*
X145621194Y-83354818D01*
X145648140Y-83419872D01*
X145575887Y-83360575D01*
X145422351Y-83278508D01*
X145255755Y-83227972D01*
X145082501Y-83210908D01*
X144382499Y-83210908D01*
X144209245Y-83227972D01*
X144042649Y-83278508D01*
X143889113Y-83360575D01*
X143754538Y-83471018D01*
X143644095Y-83605593D01*
X143562028Y-83759129D01*
X143516369Y-83909649D01*
X143493399Y-83928500D01*
X143460269Y-83955689D01*
X143434123Y-83987548D01*
X142737320Y-84684352D01*
X142737060Y-84681714D01*
X142725860Y-84567992D01*
X142679543Y-84415307D01*
X142643896Y-84348615D01*
X142604329Y-84274590D01*
X142544177Y-84201295D01*
X142503108Y-84151252D01*
X142472199Y-84125886D01*
X140034352Y-81688040D01*
X140064700Y-81688040D01*
X140351598Y-81630972D01*
X140621851Y-81519030D01*
X140865072Y-81356515D01*
X140996927Y-81224660D01*
X141018938Y-81297220D01*
X141077903Y-81407534D01*
X141157255Y-81504225D01*
X141253946Y-81583577D01*
X141364260Y-81642542D01*
X141483958Y-81678852D01*
X141608440Y-81691112D01*
X143308440Y-81691112D01*
X143432922Y-81678852D01*
X143552620Y-81642542D01*
X143662934Y-81583577D01*
X143759625Y-81504225D01*
X143838977Y-81407534D01*
X143897942Y-81297220D01*
X143934252Y-81177522D01*
X143946512Y-81053040D01*
X143946512Y-79353040D01*
X143934252Y-79228558D01*
X143897942Y-79108860D01*
X143838977Y-78998546D01*
X143759625Y-78901855D01*
X143741427Y-78886920D01*
X153248761Y-78886920D01*
X153248760Y-109068000D01*
%TA.AperFunction,Conductor*%
D26*
G36*
X153248760Y-109068000D02*
G01*
X143121407Y-109068000D01*
X143207571Y-109032310D01*
X143450792Y-108869795D01*
X143657635Y-108662952D01*
X143820150Y-108419731D01*
X143932092Y-108149478D01*
X143989160Y-107862580D01*
X143989160Y-107570060D01*
X143932092Y-107283162D01*
X143820150Y-107012909D01*
X143657635Y-106769688D01*
X143504000Y-106616053D01*
X143504000Y-106602604D01*
X143508886Y-106552999D01*
X143501456Y-106477563D01*
X143489385Y-106355006D01*
X143431632Y-106164620D01*
X143337847Y-105989160D01*
X143211633Y-105835367D01*
X143173094Y-105803739D01*
X142637955Y-105268600D01*
X142721292Y-105293880D01*
X142840289Y-105305600D01*
X142840291Y-105305600D01*
X142880079Y-105309519D01*
X142919867Y-105305600D01*
X146835712Y-105305600D01*
X146875500Y-105309519D01*
X146915288Y-105305600D01*
X146915291Y-105305600D01*
X147034288Y-105293880D01*
X147186973Y-105247563D01*
X147327689Y-105172349D01*
X147451028Y-105071128D01*
X147476400Y-105040212D01*
X151344419Y-101172194D01*
X151375328Y-101146828D01*
X151456762Y-101047600D01*
X151476549Y-101023490D01*
X151525985Y-100931000D01*
X151551763Y-100882773D01*
X151598080Y-100730088D01*
X151609800Y-100611091D01*
X151609800Y-100611089D01*
X151613719Y-100571301D01*
X151609800Y-100531513D01*
X151609800Y-85162807D01*
X151613719Y-85123019D01*
X151608712Y-85072180D01*
X151598080Y-84964232D01*
X151551763Y-84811547D01*
X151476549Y-84670831D01*
X151375328Y-84547492D01*
X151344418Y-84522125D01*
X149330599Y-82508307D01*
X149305228Y-82477392D01*
X149181889Y-82376171D01*
X149041173Y-82300957D01*
X148888488Y-82254640D01*
X148769491Y-82242920D01*
X148769488Y-82242920D01*
X148729700Y-82239001D01*
X148689912Y-82242920D01*
X147267120Y-82242920D01*
X147106676Y-82135715D01*
X146918318Y-82057694D01*
X146718359Y-82017920D01*
X146514481Y-82017920D01*
X146314522Y-82057694D01*
X146126164Y-82135715D01*
X145956646Y-82248983D01*
X145812483Y-82393146D01*
X145699215Y-82562664D01*
X145621194Y-82751022D01*
X145581420Y-82950981D01*
X145581420Y-83154859D01*
X145621194Y-83354818D01*
X145648140Y-83419872D01*
X145575887Y-83360575D01*
X145422351Y-83278508D01*
X145255755Y-83227972D01*
X145082501Y-83210908D01*
X144382499Y-83210908D01*
X144209245Y-83227972D01*
X144042649Y-83278508D01*
X143889113Y-83360575D01*
X143754538Y-83471018D01*
X143644095Y-83605593D01*
X143562028Y-83759129D01*
X143516369Y-83909649D01*
X143493399Y-83928500D01*
X143460269Y-83955689D01*
X143434123Y-83987548D01*
X142737320Y-84684352D01*
X142737060Y-84681714D01*
X142725860Y-84567992D01*
X142679543Y-84415307D01*
X142643896Y-84348615D01*
X142604329Y-84274590D01*
X142544177Y-84201295D01*
X142503108Y-84151252D01*
X142472199Y-84125886D01*
X140034352Y-81688040D01*
X140064700Y-81688040D01*
X140351598Y-81630972D01*
X140621851Y-81519030D01*
X140865072Y-81356515D01*
X140996927Y-81224660D01*
X141018938Y-81297220D01*
X141077903Y-81407534D01*
X141157255Y-81504225D01*
X141253946Y-81583577D01*
X141364260Y-81642542D01*
X141483958Y-81678852D01*
X141608440Y-81691112D01*
X143308440Y-81691112D01*
X143432922Y-81678852D01*
X143552620Y-81642542D01*
X143662934Y-81583577D01*
X143759625Y-81504225D01*
X143838977Y-81407534D01*
X143897942Y-81297220D01*
X143934252Y-81177522D01*
X143946512Y-81053040D01*
X143946512Y-79353040D01*
X143934252Y-79228558D01*
X143897942Y-79108860D01*
X143838977Y-78998546D01*
X143759625Y-78901855D01*
X143741427Y-78886920D01*
X153248761Y-78886920D01*
X153248760Y-109068000D01*
G37*
%TD.AperFunction*%
D25*
X73175029Y-78887050D02*
X72931808Y-79049565D01*
X72724965Y-79256408D01*
X72562450Y-79499629D01*
X72450508Y-79769882D01*
X72393440Y-80056780D01*
X72393440Y-80349300D01*
X72450508Y-80636198D01*
X72562450Y-80906451D01*
X72724965Y-81149672D01*
X72931808Y-81356515D01*
X73175029Y-81519030D01*
X73445282Y-81630972D01*
X73732180Y-81688040D01*
X74024700Y-81688040D01*
X74311598Y-81630972D01*
X74581851Y-81519030D01*
X74825072Y-81356515D01*
X75031915Y-81149672D01*
X75148440Y-80975280D01*
X75264965Y-81149672D01*
X75471808Y-81356515D01*
X75715029Y-81519030D01*
X75985282Y-81630972D01*
X76272180Y-81688040D01*
X76564700Y-81688040D01*
X76851598Y-81630972D01*
X77121851Y-81519030D01*
X77365072Y-81356515D01*
X77571915Y-81149672D01*
X77734430Y-80906451D01*
X77753909Y-80859425D01*
X77855712Y-81027742D01*
X78037792Y-81227027D01*
X78255252Y-81386961D01*
X78499735Y-81501397D01*
X78618511Y-81537423D01*
X78831440Y-81441797D01*
X78831440Y-80330040D01*
X79085440Y-80330040D01*
X79085440Y-81441797D01*
X79298369Y-81537423D01*
X79417145Y-81501397D01*
X79661628Y-81386961D01*
X79879088Y-81227027D01*
X80061168Y-81027742D01*
X80200871Y-80796764D01*
X80228440Y-80720675D01*
X80256009Y-80796764D01*
X80395712Y-81027742D01*
X80577792Y-81227027D01*
X80795252Y-81386961D01*
X81039735Y-81501397D01*
X81158511Y-81537423D01*
X81371440Y-81441797D01*
X81371440Y-80330040D01*
X80259054Y-80330040D01*
X80228440Y-80398655D01*
X80197826Y-80330040D01*
X79085440Y-80330040D01*
X78831440Y-80330040D01*
X78811440Y-80330040D01*
X78811440Y-80076040D01*
X78831440Y-80076040D01*
X78831440Y-80056040D01*
X79085440Y-80056040D01*
X79085440Y-80076040D01*
X80197826Y-80076040D01*
X80228440Y-80007425D01*
X80259054Y-80076040D01*
X81371440Y-80076040D01*
X81371440Y-80056040D01*
X81625440Y-80056040D01*
X81625440Y-80076040D01*
X81645440Y-80076040D01*
X81645440Y-80330040D01*
X81625440Y-80330040D01*
X81625440Y-81441797D01*
X81838369Y-81537423D01*
X81957145Y-81501397D01*
X82201628Y-81386961D01*
X82419088Y-81227027D01*
X82601168Y-81027742D01*
X82702971Y-80859425D01*
X82722450Y-80906451D01*
X82884965Y-81149672D01*
X83091808Y-81356515D01*
X83335029Y-81519030D01*
X83605282Y-81630972D01*
X83892180Y-81688040D01*
X84184700Y-81688040D01*
X84471598Y-81630972D01*
X84741851Y-81519030D01*
X84985072Y-81356515D01*
X85191915Y-81149672D01*
X85308440Y-80975280D01*
X85424965Y-81149672D01*
X85631808Y-81356515D01*
X85875029Y-81519030D01*
X86145282Y-81630972D01*
X86432180Y-81688040D01*
X86724700Y-81688040D01*
X87011598Y-81630972D01*
X87281851Y-81519030D01*
X87525072Y-81356515D01*
X87731915Y-81149672D01*
X87848440Y-80975280D01*
X87964965Y-81149672D01*
X88171808Y-81356515D01*
X88415029Y-81519030D01*
X88685282Y-81630972D01*
X88972180Y-81688040D01*
X89264700Y-81688040D01*
X89551598Y-81630972D01*
X89821851Y-81519030D01*
X90065072Y-81356515D01*
X90271915Y-81149672D01*
X90388440Y-80975280D01*
X90504965Y-81149672D01*
X90711808Y-81356515D01*
X90955029Y-81519030D01*
X91225282Y-81630972D01*
X91512180Y-81688040D01*
X91804700Y-81688040D01*
X92091598Y-81630972D01*
X92361851Y-81519030D01*
X92605072Y-81356515D01*
X92811915Y-81149672D01*
X92928440Y-80975280D01*
X93044965Y-81149672D01*
X93251808Y-81356515D01*
X93495029Y-81519030D01*
X93765282Y-81630972D01*
X94052180Y-81688040D01*
X94344700Y-81688040D01*
X94631598Y-81630972D01*
X94901851Y-81519030D01*
X95145072Y-81356515D01*
X95351915Y-81149672D01*
X95468440Y-80975280D01*
X95584965Y-81149672D01*
X95791808Y-81356515D01*
X96035029Y-81519030D01*
X96305282Y-81630972D01*
X96592180Y-81688040D01*
X96884700Y-81688040D01*
X97171598Y-81630972D01*
X97441851Y-81519030D01*
X97685072Y-81356515D01*
X97891915Y-81149672D01*
X98008440Y-80975280D01*
X98124965Y-81149672D01*
X98331808Y-81356515D01*
X98575029Y-81519030D01*
X98845282Y-81630972D01*
X99132180Y-81688040D01*
X99424700Y-81688040D01*
X99711598Y-81630972D01*
X99981851Y-81519030D01*
X100225072Y-81356515D01*
X100431915Y-81149672D01*
X100548440Y-80975280D01*
X100664965Y-81149672D01*
X100871808Y-81356515D01*
X101115029Y-81519030D01*
X101385282Y-81630972D01*
X101672180Y-81688040D01*
X101964700Y-81688040D01*
X102251598Y-81630972D01*
X102521851Y-81519030D01*
X102765072Y-81356515D01*
X102971915Y-81149672D01*
X103088440Y-80975280D01*
X103204965Y-81149672D01*
X103411808Y-81356515D01*
X103655029Y-81519030D01*
X103925282Y-81630972D01*
X104212180Y-81688040D01*
X104504700Y-81688040D01*
X104791598Y-81630972D01*
X105061851Y-81519030D01*
X105305072Y-81356515D01*
X105511915Y-81149672D01*
X105628440Y-80975280D01*
X105744965Y-81149672D01*
X105951808Y-81356515D01*
X106195029Y-81519030D01*
X106465282Y-81630972D01*
X106752180Y-81688040D01*
X107044700Y-81688040D01*
X107331598Y-81630972D01*
X107601851Y-81519030D01*
X107845072Y-81356515D01*
X108051915Y-81149672D01*
X108168440Y-80975280D01*
X108284965Y-81149672D01*
X108491808Y-81356515D01*
X108735029Y-81519030D01*
X109005282Y-81630972D01*
X109292180Y-81688040D01*
X109584700Y-81688040D01*
X109871598Y-81630972D01*
X110141851Y-81519030D01*
X110385072Y-81356515D01*
X110591915Y-81149672D01*
X110708440Y-80975280D01*
X110824965Y-81149672D01*
X111031808Y-81356515D01*
X111275029Y-81519030D01*
X111545282Y-81630972D01*
X111832180Y-81688040D01*
X112124700Y-81688040D01*
X112411598Y-81630972D01*
X112681851Y-81519030D01*
X112925072Y-81356515D01*
X113131915Y-81149672D01*
X113248440Y-80975280D01*
X113364965Y-81149672D01*
X113571808Y-81356515D01*
X113815029Y-81519030D01*
X114085282Y-81630972D01*
X114372180Y-81688040D01*
X114664700Y-81688040D01*
X114951598Y-81630972D01*
X115221851Y-81519030D01*
X115465072Y-81356515D01*
X115671915Y-81149672D01*
X115788440Y-80975280D01*
X115904965Y-81149672D01*
X116111808Y-81356515D01*
X116355029Y-81519030D01*
X116625282Y-81630972D01*
X116912180Y-81688040D01*
X117204700Y-81688040D01*
X117491598Y-81630972D01*
X117761851Y-81519030D01*
X118005072Y-81356515D01*
X118211915Y-81149672D01*
X118328440Y-80975280D01*
X118444965Y-81149672D01*
X118651808Y-81356515D01*
X118895029Y-81519030D01*
X119165282Y-81630972D01*
X119452180Y-81688040D01*
X119744700Y-81688040D01*
X120031598Y-81630972D01*
X120301851Y-81519030D01*
X120545072Y-81356515D01*
X120751915Y-81149672D01*
X120868440Y-80975280D01*
X120984965Y-81149672D01*
X121191808Y-81356515D01*
X121435029Y-81519030D01*
X121705282Y-81630972D01*
X121992180Y-81688040D01*
X122284700Y-81688040D01*
X122571598Y-81630972D01*
X122841851Y-81519030D01*
X123085072Y-81356515D01*
X123291915Y-81149672D01*
X123408440Y-80975280D01*
X123524965Y-81149672D01*
X123731808Y-81356515D01*
X123975029Y-81519030D01*
X124245282Y-81630972D01*
X124532180Y-81688040D01*
X124824700Y-81688040D01*
X125111598Y-81630972D01*
X125381851Y-81519030D01*
X125625072Y-81356515D01*
X125831915Y-81149672D01*
X125948440Y-80975280D01*
X126064965Y-81149672D01*
X126271808Y-81356515D01*
X126515029Y-81519030D01*
X126785282Y-81630972D01*
X127072180Y-81688040D01*
X127364700Y-81688040D01*
X127651598Y-81630972D01*
X127921851Y-81519030D01*
X128165072Y-81356515D01*
X128371915Y-81149672D01*
X128488440Y-80975280D01*
X128604965Y-81149672D01*
X128811808Y-81356515D01*
X129055029Y-81519030D01*
X129325282Y-81630972D01*
X129612180Y-81688040D01*
X129904700Y-81688040D01*
X130191598Y-81630972D01*
X130461851Y-81519030D01*
X130705072Y-81356515D01*
X130911915Y-81149672D01*
X131028440Y-80975280D01*
X131144965Y-81149672D01*
X131351808Y-81356515D01*
X131595029Y-81519030D01*
X131865282Y-81630972D01*
X132152180Y-81688040D01*
X132444700Y-81688040D01*
X132576380Y-81661847D01*
X134003932Y-83089400D01*
X125637368Y-83089400D01*
X125587760Y-83084514D01*
X125389765Y-83104015D01*
X125199380Y-83161768D01*
X125023920Y-83255553D01*
X124870127Y-83381767D01*
X124838503Y-83420301D01*
X123994261Y-84264544D01*
X123955728Y-84296167D01*
X123924105Y-84334700D01*
X123924104Y-84334701D01*
X123829514Y-84449960D01*
X123735728Y-84625421D01*
X123677975Y-84815806D01*
X123658474Y-85013800D01*
X123663361Y-85063417D01*
X123663360Y-87773560D01*
X123101462Y-87773560D01*
X123076462Y-87743098D01*
X122941887Y-87632655D01*
X122788352Y-87550588D01*
X122621756Y-87500052D01*
X122448502Y-87482988D01*
X120633404Y-87482988D01*
X120001019Y-86850604D01*
X121089750Y-86848060D01*
X121221500Y-86716310D01*
X121221500Y-85785560D01*
X121475500Y-85785560D01*
X121475500Y-86716310D01*
X121607250Y-86848060D01*
X122698500Y-86850610D01*
X122801810Y-86840435D01*
X122901150Y-86810300D01*
X122992702Y-86761365D01*
X123072948Y-86695508D01*
X123138805Y-86615262D01*
X123187740Y-86523710D01*
X123217875Y-86424370D01*
X123228050Y-86321060D01*
X123225500Y-85917310D01*
X123093750Y-85785560D01*
X121475500Y-85785560D01*
X121221500Y-85785560D01*
X119603250Y-85785560D01*
X119471500Y-85917310D01*
X119468950Y-86321060D01*
X119470209Y-86333843D01*
X119433300Y-86303553D01*
X119407681Y-86289859D01*
X119406012Y-86272918D01*
X119369702Y-86153220D01*
X119310737Y-86042906D01*
X119231385Y-85946215D01*
X119198102Y-85918900D01*
X119220505Y-85891602D01*
X119269440Y-85800050D01*
X119299575Y-85700710D01*
X119309750Y-85597400D01*
X119307200Y-85106150D01*
X119197110Y-84996060D01*
X119468950Y-84996060D01*
X119471500Y-85399810D01*
X119603250Y-85531560D01*
X121221500Y-85531560D01*
X121221500Y-84600810D01*
X121475500Y-84600810D01*
X121475500Y-85531560D01*
X123093750Y-85531560D01*
X123225500Y-85399810D01*
X123228050Y-84996060D01*
X123217875Y-84892750D01*
X123187740Y-84793410D01*
X123138805Y-84701858D01*
X123072948Y-84621612D01*
X122992702Y-84555755D01*
X122901150Y-84506820D01*
X122801810Y-84476685D01*
X122698500Y-84466510D01*
X121607250Y-84469060D01*
X121475500Y-84600810D01*
X121221500Y-84600810D01*
X121089750Y-84469060D01*
X119998500Y-84466510D01*
X119895190Y-84476685D01*
X119795850Y-84506820D01*
X119704298Y-84555755D01*
X119624052Y-84621612D01*
X119558195Y-84701858D01*
X119509260Y-84793410D01*
X119479125Y-84892750D01*
X119468950Y-84996060D01*
X119197110Y-84996060D01*
X119175450Y-84974400D01*
X117907200Y-84974400D01*
X117907200Y-84994400D01*
X117653200Y-84994400D01*
X117653200Y-84974400D01*
X116384950Y-84974400D01*
X116357413Y-85001937D01*
X116297737Y-84912626D01*
X116153574Y-84768463D01*
X115984056Y-84655195D01*
X115795698Y-84577174D01*
X115595739Y-84537400D01*
X115391861Y-84537400D01*
X115191902Y-84577174D01*
X115003544Y-84655195D01*
X114834026Y-84768463D01*
X114689863Y-84912626D01*
X114576595Y-85082144D01*
X114498574Y-85270502D01*
X114458800Y-85470461D01*
X114458800Y-85674339D01*
X114498574Y-85874298D01*
X114576595Y-86062656D01*
X114626537Y-86137400D01*
X113118272Y-86137400D01*
X113118272Y-85247400D01*
X113106012Y-85122918D01*
X113069702Y-85003220D01*
X113010737Y-84892906D01*
X112931385Y-84796215D01*
X112834694Y-84716863D01*
X112724380Y-84657898D01*
X112604682Y-84621588D01*
X112480200Y-84609328D01*
X110480200Y-84609328D01*
X110355718Y-84621588D01*
X110236020Y-84657898D01*
X110125706Y-84716863D01*
X110029015Y-84796215D01*
X109949663Y-84892906D01*
X109905708Y-84975139D01*
X109875552Y-84875728D01*
X109793485Y-84722193D01*
X109683042Y-84587618D01*
X109548467Y-84477175D01*
X109394932Y-84395108D01*
X109228336Y-84344572D01*
X109055082Y-84327508D01*
X108514264Y-84327508D01*
X108284156Y-84097400D01*
X116250650Y-84097400D01*
X116253200Y-84588650D01*
X116384950Y-84720400D01*
X117653200Y-84720400D01*
X117653200Y-83702150D01*
X117907200Y-83702150D01*
X117907200Y-84720400D01*
X119175450Y-84720400D01*
X119307200Y-84588650D01*
X119309750Y-84097400D01*
X119299575Y-83994090D01*
X119269440Y-83894750D01*
X119220505Y-83803198D01*
X119154648Y-83722952D01*
X119074402Y-83657095D01*
X118982850Y-83608160D01*
X118883510Y-83578025D01*
X118780200Y-83567850D01*
X118038950Y-83570400D01*
X117907200Y-83702150D01*
X117653200Y-83702150D01*
X117521450Y-83570400D01*
X116780200Y-83567850D01*
X116676890Y-83578025D01*
X116577550Y-83608160D01*
X116485998Y-83657095D01*
X116405752Y-83722952D01*
X116339895Y-83803198D01*
X116290960Y-83894750D01*
X116260825Y-83994090D01*
X116250650Y-84097400D01*
X108284156Y-84097400D01*
X107998220Y-83811465D01*
X107966593Y-83772927D01*
X107812800Y-83646713D01*
X107637340Y-83552928D01*
X107446954Y-83495175D01*
X107298568Y-83480560D01*
X107248960Y-83475674D01*
X107199352Y-83480560D01*
X97085228Y-83480560D01*
X97035620Y-83475674D01*
X96986012Y-83480560D01*
X91238144Y-83480560D01*
X91188539Y-83475674D01*
X91138934Y-83480560D01*
X91138932Y-83480560D01*
X90990546Y-83495175D01*
X90800160Y-83552928D01*
X90624700Y-83646713D01*
X90470907Y-83772927D01*
X90439279Y-83811466D01*
X89457901Y-84792844D01*
X89419368Y-84824467D01*
X89387745Y-84863000D01*
X89387744Y-84863001D01*
X89293154Y-84978260D01*
X89199368Y-85153721D01*
X89181310Y-85213250D01*
X89082506Y-85266063D01*
X88985815Y-85345415D01*
X88906463Y-85442106D01*
X88847498Y-85552420D01*
X88811188Y-85672118D01*
X88798928Y-85796600D01*
X88798928Y-86683093D01*
X88336423Y-87145599D01*
X86309188Y-85118365D01*
X86282254Y-85085546D01*
X86151302Y-84978076D01*
X86001900Y-84898219D01*
X85839789Y-84849044D01*
X85713446Y-84836600D01*
X85713439Y-84836600D01*
X85671200Y-84832440D01*
X85628961Y-84836600D01*
X82218046Y-84836600D01*
X82167537Y-84742106D01*
X82088185Y-84645415D01*
X81991494Y-84566063D01*
X81881180Y-84507098D01*
X81761482Y-84470788D01*
X81637000Y-84458528D01*
X79437000Y-84458528D01*
X79312518Y-84470788D01*
X79192820Y-84507098D01*
X79082506Y-84566063D01*
X78985815Y-84645415D01*
X78906463Y-84742106D01*
X78847498Y-84852420D01*
X78811188Y-84972118D01*
X78798928Y-85096600D01*
X78798928Y-86006317D01*
X78320731Y-86484514D01*
X78303746Y-86495863D01*
X78252997Y-86546612D01*
X78245887Y-86552447D01*
X78240052Y-86559557D01*
X78159583Y-86640026D01*
X78046315Y-86809544D01*
X77968294Y-86997902D01*
X77928520Y-87197861D01*
X77928520Y-87401739D01*
X77968294Y-87601698D01*
X78046315Y-87790056D01*
X78131190Y-87917081D01*
X78012207Y-88014727D01*
X77980583Y-88053261D01*
X76968701Y-89065144D01*
X76930168Y-89096767D01*
X76898545Y-89135300D01*
X76898544Y-89135301D01*
X76803954Y-89250560D01*
X76710168Y-89426021D01*
X76652415Y-89616406D01*
X76632914Y-89814400D01*
X76637801Y-89864018D01*
X76637800Y-102032992D01*
X76632914Y-102082600D01*
X76652415Y-102280594D01*
X76693490Y-102416000D01*
X76710168Y-102470979D01*
X76803953Y-102646440D01*
X76930167Y-102800233D01*
X76968706Y-102831861D01*
X78371739Y-104234894D01*
X78403367Y-104273433D01*
X78557160Y-104399647D01*
X78732620Y-104493432D01*
X78923006Y-104551185D01*
X79071392Y-104565800D01*
X79071394Y-104565800D01*
X79120999Y-104570686D01*
X79170604Y-104565800D01*
X81433377Y-104565800D01*
X81559061Y-104590800D01*
X81762939Y-104590800D01*
X81962898Y-104551026D01*
X82151256Y-104473005D01*
X82210400Y-104433486D01*
X82210400Y-104797332D01*
X81721533Y-105286200D01*
X80711418Y-105286200D01*
X80670400Y-105282160D01*
X80629382Y-105286200D01*
X80629381Y-105286200D01*
X80506711Y-105298282D01*
X80359579Y-105342914D01*
X80349313Y-105346028D01*
X80204254Y-105423564D01*
X80154632Y-105464288D01*
X80077109Y-105527909D01*
X80050963Y-105559768D01*
X79341419Y-106269312D01*
X79150420Y-106231320D01*
X78857900Y-106231320D01*
X78571002Y-106288388D01*
X78300749Y-106400330D01*
X78057528Y-106562845D01*
X77850685Y-106769688D01*
X77734160Y-106944080D01*
X77617635Y-106769688D01*
X77410792Y-106562845D01*
X77167571Y-106400330D01*
X76897318Y-106288388D01*
X76610420Y-106231320D01*
X76317900Y-106231320D01*
X76031002Y-106288388D01*
X75760749Y-106400330D01*
X75517528Y-106562845D01*
X75385673Y-106694700D01*
X75363662Y-106622140D01*
X75304697Y-106511826D01*
X75225345Y-106415135D01*
X75128654Y-106335783D01*
X75018340Y-106276818D01*
X74898642Y-106240508D01*
X74774160Y-106228248D01*
X73074160Y-106228248D01*
X72949678Y-106240508D01*
X72829980Y-106276818D01*
X72719666Y-106335783D01*
X72622975Y-106415135D01*
X72543623Y-106511826D01*
X72484658Y-106622140D01*
X72448348Y-106741838D01*
X72436088Y-106866320D01*
X72436088Y-108566320D01*
X72448348Y-108690802D01*
X72484658Y-108810500D01*
X72543623Y-108920814D01*
X72622975Y-109017505D01*
X72684504Y-109068000D01*
X71993360Y-109068000D01*
X71993360Y-78886920D01*
X73175343Y-78886920D01*
X73175029Y-78887050D01*
%TA.AperFunction,Conductor*%
D26*
G36*
X73175029Y-78887050D02*
G01*
X72931808Y-79049565D01*
X72724965Y-79256408D01*
X72562450Y-79499629D01*
X72450508Y-79769882D01*
X72393440Y-80056780D01*
X72393440Y-80349300D01*
X72450508Y-80636198D01*
X72562450Y-80906451D01*
X72724965Y-81149672D01*
X72931808Y-81356515D01*
X73175029Y-81519030D01*
X73445282Y-81630972D01*
X73732180Y-81688040D01*
X74024700Y-81688040D01*
X74311598Y-81630972D01*
X74581851Y-81519030D01*
X74825072Y-81356515D01*
X75031915Y-81149672D01*
X75148440Y-80975280D01*
X75264965Y-81149672D01*
X75471808Y-81356515D01*
X75715029Y-81519030D01*
X75985282Y-81630972D01*
X76272180Y-81688040D01*
X76564700Y-81688040D01*
X76851598Y-81630972D01*
X77121851Y-81519030D01*
X77365072Y-81356515D01*
X77571915Y-81149672D01*
X77734430Y-80906451D01*
X77753909Y-80859425D01*
X77855712Y-81027742D01*
X78037792Y-81227027D01*
X78255252Y-81386961D01*
X78499735Y-81501397D01*
X78618511Y-81537423D01*
X78831440Y-81441797D01*
X78831440Y-80330040D01*
X79085440Y-80330040D01*
X79085440Y-81441797D01*
X79298369Y-81537423D01*
X79417145Y-81501397D01*
X79661628Y-81386961D01*
X79879088Y-81227027D01*
X80061168Y-81027742D01*
X80200871Y-80796764D01*
X80228440Y-80720675D01*
X80256009Y-80796764D01*
X80395712Y-81027742D01*
X80577792Y-81227027D01*
X80795252Y-81386961D01*
X81039735Y-81501397D01*
X81158511Y-81537423D01*
X81371440Y-81441797D01*
X81371440Y-80330040D01*
X80259054Y-80330040D01*
X80228440Y-80398655D01*
X80197826Y-80330040D01*
X79085440Y-80330040D01*
X78831440Y-80330040D01*
X78811440Y-80330040D01*
X78811440Y-80076040D01*
X78831440Y-80076040D01*
X78831440Y-80056040D01*
X79085440Y-80056040D01*
X79085440Y-80076040D01*
X80197826Y-80076040D01*
X80228440Y-80007425D01*
X80259054Y-80076040D01*
X81371440Y-80076040D01*
X81371440Y-80056040D01*
X81625440Y-80056040D01*
X81625440Y-80076040D01*
X81645440Y-80076040D01*
X81645440Y-80330040D01*
X81625440Y-80330040D01*
X81625440Y-81441797D01*
X81838369Y-81537423D01*
X81957145Y-81501397D01*
X82201628Y-81386961D01*
X82419088Y-81227027D01*
X82601168Y-81027742D01*
X82702971Y-80859425D01*
X82722450Y-80906451D01*
X82884965Y-81149672D01*
X83091808Y-81356515D01*
X83335029Y-81519030D01*
X83605282Y-81630972D01*
X83892180Y-81688040D01*
X84184700Y-81688040D01*
X84471598Y-81630972D01*
X84741851Y-81519030D01*
X84985072Y-81356515D01*
X85191915Y-81149672D01*
X85308440Y-80975280D01*
X85424965Y-81149672D01*
X85631808Y-81356515D01*
X85875029Y-81519030D01*
X86145282Y-81630972D01*
X86432180Y-81688040D01*
X86724700Y-81688040D01*
X87011598Y-81630972D01*
X87281851Y-81519030D01*
X87525072Y-81356515D01*
X87731915Y-81149672D01*
X87848440Y-80975280D01*
X87964965Y-81149672D01*
X88171808Y-81356515D01*
X88415029Y-81519030D01*
X88685282Y-81630972D01*
X88972180Y-81688040D01*
X89264700Y-81688040D01*
X89551598Y-81630972D01*
X89821851Y-81519030D01*
X90065072Y-81356515D01*
X90271915Y-81149672D01*
X90388440Y-80975280D01*
X90504965Y-81149672D01*
X90711808Y-81356515D01*
X90955029Y-81519030D01*
X91225282Y-81630972D01*
X91512180Y-81688040D01*
X91804700Y-81688040D01*
X92091598Y-81630972D01*
X92361851Y-81519030D01*
X92605072Y-81356515D01*
X92811915Y-81149672D01*
X92928440Y-80975280D01*
X93044965Y-81149672D01*
X93251808Y-81356515D01*
X93495029Y-81519030D01*
X93765282Y-81630972D01*
X94052180Y-81688040D01*
X94344700Y-81688040D01*
X94631598Y-81630972D01*
X94901851Y-81519030D01*
X95145072Y-81356515D01*
X95351915Y-81149672D01*
X95468440Y-80975280D01*
X95584965Y-81149672D01*
X95791808Y-81356515D01*
X96035029Y-81519030D01*
X96305282Y-81630972D01*
X96592180Y-81688040D01*
X96884700Y-81688040D01*
X97171598Y-81630972D01*
X97441851Y-81519030D01*
X97685072Y-81356515D01*
X97891915Y-81149672D01*
X98008440Y-80975280D01*
X98124965Y-81149672D01*
X98331808Y-81356515D01*
X98575029Y-81519030D01*
X98845282Y-81630972D01*
X99132180Y-81688040D01*
X99424700Y-81688040D01*
X99711598Y-81630972D01*
X99981851Y-81519030D01*
X100225072Y-81356515D01*
X100431915Y-81149672D01*
X100548440Y-80975280D01*
X100664965Y-81149672D01*
X100871808Y-81356515D01*
X101115029Y-81519030D01*
X101385282Y-81630972D01*
X101672180Y-81688040D01*
X101964700Y-81688040D01*
X102251598Y-81630972D01*
X102521851Y-81519030D01*
X102765072Y-81356515D01*
X102971915Y-81149672D01*
X103088440Y-80975280D01*
X103204965Y-81149672D01*
X103411808Y-81356515D01*
X103655029Y-81519030D01*
X103925282Y-81630972D01*
X104212180Y-81688040D01*
X104504700Y-81688040D01*
X104791598Y-81630972D01*
X105061851Y-81519030D01*
X105305072Y-81356515D01*
X105511915Y-81149672D01*
X105628440Y-80975280D01*
X105744965Y-81149672D01*
X105951808Y-81356515D01*
X106195029Y-81519030D01*
X106465282Y-81630972D01*
X106752180Y-81688040D01*
X107044700Y-81688040D01*
X107331598Y-81630972D01*
X107601851Y-81519030D01*
X107845072Y-81356515D01*
X108051915Y-81149672D01*
X108168440Y-80975280D01*
X108284965Y-81149672D01*
X108491808Y-81356515D01*
X108735029Y-81519030D01*
X109005282Y-81630972D01*
X109292180Y-81688040D01*
X109584700Y-81688040D01*
X109871598Y-81630972D01*
X110141851Y-81519030D01*
X110385072Y-81356515D01*
X110591915Y-81149672D01*
X110708440Y-80975280D01*
X110824965Y-81149672D01*
X111031808Y-81356515D01*
X111275029Y-81519030D01*
X111545282Y-81630972D01*
X111832180Y-81688040D01*
X112124700Y-81688040D01*
X112411598Y-81630972D01*
X112681851Y-81519030D01*
X112925072Y-81356515D01*
X113131915Y-81149672D01*
X113248440Y-80975280D01*
X113364965Y-81149672D01*
X113571808Y-81356515D01*
X113815029Y-81519030D01*
X114085282Y-81630972D01*
X114372180Y-81688040D01*
X114664700Y-81688040D01*
X114951598Y-81630972D01*
X115221851Y-81519030D01*
X115465072Y-81356515D01*
X115671915Y-81149672D01*
X115788440Y-80975280D01*
X115904965Y-81149672D01*
X116111808Y-81356515D01*
X116355029Y-81519030D01*
X116625282Y-81630972D01*
X116912180Y-81688040D01*
X117204700Y-81688040D01*
X117491598Y-81630972D01*
X117761851Y-81519030D01*
X118005072Y-81356515D01*
X118211915Y-81149672D01*
X118328440Y-80975280D01*
X118444965Y-81149672D01*
X118651808Y-81356515D01*
X118895029Y-81519030D01*
X119165282Y-81630972D01*
X119452180Y-81688040D01*
X119744700Y-81688040D01*
X120031598Y-81630972D01*
X120301851Y-81519030D01*
X120545072Y-81356515D01*
X120751915Y-81149672D01*
X120868440Y-80975280D01*
X120984965Y-81149672D01*
X121191808Y-81356515D01*
X121435029Y-81519030D01*
X121705282Y-81630972D01*
X121992180Y-81688040D01*
X122284700Y-81688040D01*
X122571598Y-81630972D01*
X122841851Y-81519030D01*
X123085072Y-81356515D01*
X123291915Y-81149672D01*
X123408440Y-80975280D01*
X123524965Y-81149672D01*
X123731808Y-81356515D01*
X123975029Y-81519030D01*
X124245282Y-81630972D01*
X124532180Y-81688040D01*
X124824700Y-81688040D01*
X125111598Y-81630972D01*
X125381851Y-81519030D01*
X125625072Y-81356515D01*
X125831915Y-81149672D01*
X125948440Y-80975280D01*
X126064965Y-81149672D01*
X126271808Y-81356515D01*
X126515029Y-81519030D01*
X126785282Y-81630972D01*
X127072180Y-81688040D01*
X127364700Y-81688040D01*
X127651598Y-81630972D01*
X127921851Y-81519030D01*
X128165072Y-81356515D01*
X128371915Y-81149672D01*
X128488440Y-80975280D01*
X128604965Y-81149672D01*
X128811808Y-81356515D01*
X129055029Y-81519030D01*
X129325282Y-81630972D01*
X129612180Y-81688040D01*
X129904700Y-81688040D01*
X130191598Y-81630972D01*
X130461851Y-81519030D01*
X130705072Y-81356515D01*
X130911915Y-81149672D01*
X131028440Y-80975280D01*
X131144965Y-81149672D01*
X131351808Y-81356515D01*
X131595029Y-81519030D01*
X131865282Y-81630972D01*
X132152180Y-81688040D01*
X132444700Y-81688040D01*
X132576380Y-81661847D01*
X134003932Y-83089400D01*
X125637368Y-83089400D01*
X125587760Y-83084514D01*
X125389765Y-83104015D01*
X125199380Y-83161768D01*
X125023920Y-83255553D01*
X124870127Y-83381767D01*
X124838503Y-83420301D01*
X123994261Y-84264544D01*
X123955728Y-84296167D01*
X123924105Y-84334700D01*
X123924104Y-84334701D01*
X123829514Y-84449960D01*
X123735728Y-84625421D01*
X123677975Y-84815806D01*
X123658474Y-85013800D01*
X123663361Y-85063417D01*
X123663360Y-87773560D01*
X123101462Y-87773560D01*
X123076462Y-87743098D01*
X122941887Y-87632655D01*
X122788352Y-87550588D01*
X122621756Y-87500052D01*
X122448502Y-87482988D01*
X120633404Y-87482988D01*
X120001019Y-86850604D01*
X121089750Y-86848060D01*
X121221500Y-86716310D01*
X121221500Y-85785560D01*
X121475500Y-85785560D01*
X121475500Y-86716310D01*
X121607250Y-86848060D01*
X122698500Y-86850610D01*
X122801810Y-86840435D01*
X122901150Y-86810300D01*
X122992702Y-86761365D01*
X123072948Y-86695508D01*
X123138805Y-86615262D01*
X123187740Y-86523710D01*
X123217875Y-86424370D01*
X123228050Y-86321060D01*
X123225500Y-85917310D01*
X123093750Y-85785560D01*
X121475500Y-85785560D01*
X121221500Y-85785560D01*
X119603250Y-85785560D01*
X119471500Y-85917310D01*
X119468950Y-86321060D01*
X119470209Y-86333843D01*
X119433300Y-86303553D01*
X119407681Y-86289859D01*
X119406012Y-86272918D01*
X119369702Y-86153220D01*
X119310737Y-86042906D01*
X119231385Y-85946215D01*
X119198102Y-85918900D01*
X119220505Y-85891602D01*
X119269440Y-85800050D01*
X119299575Y-85700710D01*
X119309750Y-85597400D01*
X119307200Y-85106150D01*
X119197110Y-84996060D01*
X119468950Y-84996060D01*
X119471500Y-85399810D01*
X119603250Y-85531560D01*
X121221500Y-85531560D01*
X121221500Y-84600810D01*
X121475500Y-84600810D01*
X121475500Y-85531560D01*
X123093750Y-85531560D01*
X123225500Y-85399810D01*
X123228050Y-84996060D01*
X123217875Y-84892750D01*
X123187740Y-84793410D01*
X123138805Y-84701858D01*
X123072948Y-84621612D01*
X122992702Y-84555755D01*
X122901150Y-84506820D01*
X122801810Y-84476685D01*
X122698500Y-84466510D01*
X121607250Y-84469060D01*
X121475500Y-84600810D01*
X121221500Y-84600810D01*
X121089750Y-84469060D01*
X119998500Y-84466510D01*
X119895190Y-84476685D01*
X119795850Y-84506820D01*
X119704298Y-84555755D01*
X119624052Y-84621612D01*
X119558195Y-84701858D01*
X119509260Y-84793410D01*
X119479125Y-84892750D01*
X119468950Y-84996060D01*
X119197110Y-84996060D01*
X119175450Y-84974400D01*
X117907200Y-84974400D01*
X117907200Y-84994400D01*
X117653200Y-84994400D01*
X117653200Y-84974400D01*
X116384950Y-84974400D01*
X116357413Y-85001937D01*
X116297737Y-84912626D01*
X116153574Y-84768463D01*
X115984056Y-84655195D01*
X115795698Y-84577174D01*
X115595739Y-84537400D01*
X115391861Y-84537400D01*
X115191902Y-84577174D01*
X115003544Y-84655195D01*
X114834026Y-84768463D01*
X114689863Y-84912626D01*
X114576595Y-85082144D01*
X114498574Y-85270502D01*
X114458800Y-85470461D01*
X114458800Y-85674339D01*
X114498574Y-85874298D01*
X114576595Y-86062656D01*
X114626537Y-86137400D01*
X113118272Y-86137400D01*
X113118272Y-85247400D01*
X113106012Y-85122918D01*
X113069702Y-85003220D01*
X113010737Y-84892906D01*
X112931385Y-84796215D01*
X112834694Y-84716863D01*
X112724380Y-84657898D01*
X112604682Y-84621588D01*
X112480200Y-84609328D01*
X110480200Y-84609328D01*
X110355718Y-84621588D01*
X110236020Y-84657898D01*
X110125706Y-84716863D01*
X110029015Y-84796215D01*
X109949663Y-84892906D01*
X109905708Y-84975139D01*
X109875552Y-84875728D01*
X109793485Y-84722193D01*
X109683042Y-84587618D01*
X109548467Y-84477175D01*
X109394932Y-84395108D01*
X109228336Y-84344572D01*
X109055082Y-84327508D01*
X108514264Y-84327508D01*
X108284156Y-84097400D01*
X116250650Y-84097400D01*
X116253200Y-84588650D01*
X116384950Y-84720400D01*
X117653200Y-84720400D01*
X117653200Y-83702150D01*
X117907200Y-83702150D01*
X117907200Y-84720400D01*
X119175450Y-84720400D01*
X119307200Y-84588650D01*
X119309750Y-84097400D01*
X119299575Y-83994090D01*
X119269440Y-83894750D01*
X119220505Y-83803198D01*
X119154648Y-83722952D01*
X119074402Y-83657095D01*
X118982850Y-83608160D01*
X118883510Y-83578025D01*
X118780200Y-83567850D01*
X118038950Y-83570400D01*
X117907200Y-83702150D01*
X117653200Y-83702150D01*
X117521450Y-83570400D01*
X116780200Y-83567850D01*
X116676890Y-83578025D01*
X116577550Y-83608160D01*
X116485998Y-83657095D01*
X116405752Y-83722952D01*
X116339895Y-83803198D01*
X116290960Y-83894750D01*
X116260825Y-83994090D01*
X116250650Y-84097400D01*
X108284156Y-84097400D01*
X107998220Y-83811465D01*
X107966593Y-83772927D01*
X107812800Y-83646713D01*
X107637340Y-83552928D01*
X107446954Y-83495175D01*
X107298568Y-83480560D01*
X107248960Y-83475674D01*
X107199352Y-83480560D01*
X97085228Y-83480560D01*
X97035620Y-83475674D01*
X96986012Y-83480560D01*
X91238144Y-83480560D01*
X91188539Y-83475674D01*
X91138934Y-83480560D01*
X91138932Y-83480560D01*
X90990546Y-83495175D01*
X90800160Y-83552928D01*
X90624700Y-83646713D01*
X90470907Y-83772927D01*
X90439279Y-83811466D01*
X89457901Y-84792844D01*
X89419368Y-84824467D01*
X89387745Y-84863000D01*
X89387744Y-84863001D01*
X89293154Y-84978260D01*
X89199368Y-85153721D01*
X89181310Y-85213250D01*
X89082506Y-85266063D01*
X88985815Y-85345415D01*
X88906463Y-85442106D01*
X88847498Y-85552420D01*
X88811188Y-85672118D01*
X88798928Y-85796600D01*
X88798928Y-86683093D01*
X88336423Y-87145599D01*
X86309188Y-85118365D01*
X86282254Y-85085546D01*
X86151302Y-84978076D01*
X86001900Y-84898219D01*
X85839789Y-84849044D01*
X85713446Y-84836600D01*
X85713439Y-84836600D01*
X85671200Y-84832440D01*
X85628961Y-84836600D01*
X82218046Y-84836600D01*
X82167537Y-84742106D01*
X82088185Y-84645415D01*
X81991494Y-84566063D01*
X81881180Y-84507098D01*
X81761482Y-84470788D01*
X81637000Y-84458528D01*
X79437000Y-84458528D01*
X79312518Y-84470788D01*
X79192820Y-84507098D01*
X79082506Y-84566063D01*
X78985815Y-84645415D01*
X78906463Y-84742106D01*
X78847498Y-84852420D01*
X78811188Y-84972118D01*
X78798928Y-85096600D01*
X78798928Y-86006317D01*
X78320731Y-86484514D01*
X78303746Y-86495863D01*
X78252997Y-86546612D01*
X78245887Y-86552447D01*
X78240052Y-86559557D01*
X78159583Y-86640026D01*
X78046315Y-86809544D01*
X77968294Y-86997902D01*
X77928520Y-87197861D01*
X77928520Y-87401739D01*
X77968294Y-87601698D01*
X78046315Y-87790056D01*
X78131190Y-87917081D01*
X78012207Y-88014727D01*
X77980583Y-88053261D01*
X76968701Y-89065144D01*
X76930168Y-89096767D01*
X76898545Y-89135300D01*
X76898544Y-89135301D01*
X76803954Y-89250560D01*
X76710168Y-89426021D01*
X76652415Y-89616406D01*
X76632914Y-89814400D01*
X76637801Y-89864018D01*
X76637800Y-102032992D01*
X76632914Y-102082600D01*
X76652415Y-102280594D01*
X76693490Y-102416000D01*
X76710168Y-102470979D01*
X76803953Y-102646440D01*
X76930167Y-102800233D01*
X76968706Y-102831861D01*
X78371739Y-104234894D01*
X78403367Y-104273433D01*
X78557160Y-104399647D01*
X78732620Y-104493432D01*
X78923006Y-104551185D01*
X79071392Y-104565800D01*
X79071394Y-104565800D01*
X79120999Y-104570686D01*
X79170604Y-104565800D01*
X81433377Y-104565800D01*
X81559061Y-104590800D01*
X81762939Y-104590800D01*
X81962898Y-104551026D01*
X82151256Y-104473005D01*
X82210400Y-104433486D01*
X82210400Y-104797332D01*
X81721533Y-105286200D01*
X80711418Y-105286200D01*
X80670400Y-105282160D01*
X80629382Y-105286200D01*
X80629381Y-105286200D01*
X80506711Y-105298282D01*
X80359579Y-105342914D01*
X80349313Y-105346028D01*
X80204254Y-105423564D01*
X80154632Y-105464288D01*
X80077109Y-105527909D01*
X80050963Y-105559768D01*
X79341419Y-106269312D01*
X79150420Y-106231320D01*
X78857900Y-106231320D01*
X78571002Y-106288388D01*
X78300749Y-106400330D01*
X78057528Y-106562845D01*
X77850685Y-106769688D01*
X77734160Y-106944080D01*
X77617635Y-106769688D01*
X77410792Y-106562845D01*
X77167571Y-106400330D01*
X76897318Y-106288388D01*
X76610420Y-106231320D01*
X76317900Y-106231320D01*
X76031002Y-106288388D01*
X75760749Y-106400330D01*
X75517528Y-106562845D01*
X75385673Y-106694700D01*
X75363662Y-106622140D01*
X75304697Y-106511826D01*
X75225345Y-106415135D01*
X75128654Y-106335783D01*
X75018340Y-106276818D01*
X74898642Y-106240508D01*
X74774160Y-106228248D01*
X73074160Y-106228248D01*
X72949678Y-106240508D01*
X72829980Y-106276818D01*
X72719666Y-106335783D01*
X72622975Y-106415135D01*
X72543623Y-106511826D01*
X72484658Y-106622140D01*
X72448348Y-106741838D01*
X72436088Y-106866320D01*
X72436088Y-108566320D01*
X72448348Y-108690802D01*
X72484658Y-108810500D01*
X72543623Y-108920814D01*
X72622975Y-109017505D01*
X72684504Y-109068000D01*
X71993360Y-109068000D01*
X71993360Y-78886920D01*
X73175343Y-78886920D01*
X73175029Y-78887050D01*
G37*
%TD.AperFunction*%
D25*
X136184774Y-107589320D02*
X137297160Y-107589320D01*
X137297160Y-107569320D01*
X137551160Y-107569320D01*
X137551160Y-107589320D01*
X137571160Y-107589320D01*
X137571160Y-107843320D01*
X137551160Y-107843320D01*
X137551160Y-107863320D01*
X137297160Y-107863320D01*
X137297160Y-107843320D01*
X136184774Y-107843320D01*
X136154160Y-107911935D01*
X136123546Y-107843320D01*
X135011160Y-107843320D01*
X135011160Y-107863320D01*
X134757160Y-107863320D01*
X134757160Y-107843320D01*
X134737160Y-107843320D01*
X134737160Y-107589320D01*
X134757160Y-107589320D01*
X134757160Y-107569320D01*
X135011160Y-107569320D01*
X135011160Y-107589320D01*
X136123546Y-107589320D01*
X136154160Y-107520705D01*
X136184774Y-107589320D01*
%TA.AperFunction,Conductor*%
D26*
G36*
X136184774Y-107589320D02*
G01*
X137297160Y-107589320D01*
X137297160Y-107569320D01*
X137551160Y-107569320D01*
X137551160Y-107589320D01*
X137571160Y-107589320D01*
X137571160Y-107843320D01*
X137551160Y-107843320D01*
X137551160Y-107863320D01*
X137297160Y-107863320D01*
X137297160Y-107843320D01*
X136184774Y-107843320D01*
X136154160Y-107911935D01*
X136123546Y-107843320D01*
X135011160Y-107843320D01*
X135011160Y-107863320D01*
X134757160Y-107863320D01*
X134757160Y-107843320D01*
X134737160Y-107843320D01*
X134737160Y-107589320D01*
X134757160Y-107589320D01*
X134757160Y-107569320D01*
X135011160Y-107569320D01*
X135011160Y-107589320D01*
X136123546Y-107589320D01*
X136154160Y-107520705D01*
X136184774Y-107589320D01*
G37*
%TD.AperFunction*%
D25*
X129281374Y-85143702D02*
X129246516Y-85318947D01*
X129177068Y-85448874D01*
X129129322Y-85606272D01*
X129113200Y-85769960D01*
X129117241Y-85810988D01*
X129117240Y-87239752D01*
X129108853Y-87244235D01*
X128974278Y-87354678D01*
X128863835Y-87489253D01*
X128781768Y-87642789D01*
X128731232Y-87809385D01*
X128714168Y-87982639D01*
X128714168Y-88882641D01*
X128731232Y-89055895D01*
X128781768Y-89222491D01*
X128863835Y-89376027D01*
X128935782Y-89463695D01*
X128844945Y-89538243D01*
X128806602Y-89506775D01*
X128715050Y-89457840D01*
X128615710Y-89427705D01*
X128512400Y-89417530D01*
X128046150Y-89420080D01*
X127914400Y-89551830D01*
X127914400Y-90407580D01*
X127934400Y-90407580D01*
X127934400Y-90661580D01*
X127914400Y-90661580D01*
X127914400Y-90681580D01*
X127660400Y-90681580D01*
X127660400Y-90661580D01*
X126799450Y-90661580D01*
X126796910Y-90659040D01*
X125803660Y-90659040D01*
X125803660Y-90679040D01*
X125549660Y-90679040D01*
X125549660Y-90659040D01*
X124556410Y-90659040D01*
X124424660Y-90790790D01*
X124422110Y-91119540D01*
X124432285Y-91222850D01*
X124462420Y-91322190D01*
X124511355Y-91413742D01*
X124577212Y-91493988D01*
X124657458Y-91559845D01*
X124667046Y-91564970D01*
X124573698Y-91641578D01*
X124463255Y-91776154D01*
X124381188Y-91929690D01*
X124330652Y-92096286D01*
X124313588Y-92269540D01*
X124313588Y-92944540D01*
X124330652Y-93117794D01*
X124381188Y-93284390D01*
X124463255Y-93437926D01*
X124573698Y-93572502D01*
X124708274Y-93682945D01*
X124841660Y-93754242D01*
X124841661Y-96283392D01*
X124837620Y-96324420D01*
X124853742Y-96488108D01*
X124901488Y-96645506D01*
X124979024Y-96790565D01*
X124979025Y-96790566D01*
X125083370Y-96917711D01*
X125115234Y-96943861D01*
X126103698Y-97932326D01*
X126129849Y-97964191D01*
X126256994Y-98068536D01*
X126402053Y-98146072D01*
X126559451Y-98193818D01*
X126682121Y-98205900D01*
X126682123Y-98205900D01*
X126723139Y-98209940D01*
X126764155Y-98205900D01*
X127339215Y-98205900D01*
X127462244Y-98288105D01*
X127650602Y-98366126D01*
X127850561Y-98405900D01*
X128054439Y-98405900D01*
X128254398Y-98366126D01*
X128442756Y-98288105D01*
X128612274Y-98174837D01*
X128756437Y-98030674D01*
X128869705Y-97861156D01*
X128947726Y-97672798D01*
X128987500Y-97472839D01*
X128987500Y-97268961D01*
X128947726Y-97069002D01*
X128869705Y-96880644D01*
X128756437Y-96711126D01*
X128612274Y-96566963D01*
X128523007Y-96507317D01*
X128635136Y-96432395D01*
X128779299Y-96288232D01*
X128892567Y-96118714D01*
X128970588Y-95930356D01*
X129010362Y-95730397D01*
X129010362Y-95526519D01*
X128970588Y-95326560D01*
X128892567Y-95138202D01*
X128779299Y-94968684D01*
X128635136Y-94824521D01*
X128622400Y-94816011D01*
X128622400Y-93756782D01*
X128755786Y-93685485D01*
X128855835Y-93603377D01*
X128894178Y-93634845D01*
X128985730Y-93683780D01*
X129085070Y-93713915D01*
X129188380Y-93724090D01*
X129654630Y-93721540D01*
X129786380Y-93589790D01*
X129786380Y-92734040D01*
X130040380Y-92734040D01*
X130040380Y-93589790D01*
X130172130Y-93721540D01*
X130638380Y-93724090D01*
X130741690Y-93713915D01*
X130841030Y-93683780D01*
X130932582Y-93634845D01*
X130963510Y-93609463D01*
X130982058Y-93624685D01*
X131073610Y-93673620D01*
X131172950Y-93703755D01*
X131276260Y-93713930D01*
X131742510Y-93711380D01*
X131874260Y-93579630D01*
X131874260Y-92723880D01*
X132128260Y-92723880D01*
X132128260Y-93579630D01*
X132260010Y-93711380D01*
X132726260Y-93713930D01*
X132829570Y-93703755D01*
X132928910Y-93673620D01*
X133020462Y-93624685D01*
X133100708Y-93558828D01*
X133166565Y-93478582D01*
X133215500Y-93387030D01*
X133245635Y-93287690D01*
X133255810Y-93184380D01*
X133253260Y-92855630D01*
X133121510Y-92723880D01*
X132128260Y-92723880D01*
X131874260Y-92723880D01*
X130881010Y-92723880D01*
X130870850Y-92734040D01*
X130040380Y-92734040D01*
X129786380Y-92734040D01*
X129766380Y-92734040D01*
X129766380Y-92480040D01*
X129786380Y-92480040D01*
X129786380Y-92460040D01*
X130040380Y-92460040D01*
X130040380Y-92480040D01*
X131033630Y-92480040D01*
X131043790Y-92469880D01*
X131874260Y-92469880D01*
X131874260Y-92449880D01*
X132128260Y-92449880D01*
X132128260Y-92469880D01*
X133121510Y-92469880D01*
X133253260Y-92338130D01*
X133255810Y-92009380D01*
X133245635Y-91906070D01*
X133215500Y-91806730D01*
X133166565Y-91715178D01*
X133100708Y-91634932D01*
X133020462Y-91569075D01*
X133010874Y-91563950D01*
X133104222Y-91487342D01*
X133214665Y-91352766D01*
X133296732Y-91199230D01*
X133347268Y-91032634D01*
X133364332Y-90859380D01*
X133364332Y-90184380D01*
X133347268Y-90011126D01*
X133314226Y-89902200D01*
X143565250Y-89902200D01*
X143567800Y-90368450D01*
X143699550Y-90500200D01*
X144555300Y-90500200D01*
X144555300Y-89506950D01*
X144423550Y-89375200D01*
X144094800Y-89372650D01*
X143991490Y-89382825D01*
X143892150Y-89412960D01*
X143800598Y-89461895D01*
X143720352Y-89527752D01*
X143654495Y-89607998D01*
X143605560Y-89699550D01*
X143575425Y-89798890D01*
X143565250Y-89902200D01*
X133314226Y-89902200D01*
X133296732Y-89844530D01*
X133214665Y-89690994D01*
X133104222Y-89556418D01*
X132977769Y-89452641D01*
X133040645Y-89376027D01*
X133122712Y-89222491D01*
X133173248Y-89055895D01*
X133190312Y-88882641D01*
X133190312Y-87982639D01*
X133173248Y-87809385D01*
X133122712Y-87642789D01*
X133040645Y-87489253D01*
X132930202Y-87354678D01*
X132795627Y-87244235D01*
X132787240Y-87239752D01*
X132787240Y-86732028D01*
X133074976Y-86444292D01*
X133220098Y-86415426D01*
X133408456Y-86337405D01*
X133577974Y-86224137D01*
X133722137Y-86079974D01*
X133835405Y-85910456D01*
X133913426Y-85722098D01*
X133953200Y-85522139D01*
X133953200Y-85318261D01*
X133913426Y-85118302D01*
X133909739Y-85109400D01*
X133985745Y-85109400D01*
X134638700Y-85762355D01*
X134638701Y-87427983D01*
X134633814Y-87477600D01*
X134653315Y-87675594D01*
X134711068Y-87865979D01*
X134804854Y-88041440D01*
X134855980Y-88103737D01*
X134931068Y-88195233D01*
X134969601Y-88226856D01*
X135539519Y-88796774D01*
X135571147Y-88835313D01*
X135724940Y-88961527D01*
X135845432Y-89025931D01*
X135900400Y-89055312D01*
X136090785Y-89113065D01*
X136288780Y-89132566D01*
X136338388Y-89127680D01*
X144791352Y-89127680D01*
X144819917Y-89130493D01*
X144806720Y-89196841D01*
X144806720Y-89400719D01*
X144824773Y-89491477D01*
X144809300Y-89506950D01*
X144809300Y-90500200D01*
X144829300Y-90500200D01*
X144829300Y-90754200D01*
X144809300Y-90754200D01*
X144809300Y-90774200D01*
X144555300Y-90774200D01*
X144555300Y-90754200D01*
X143699550Y-90754200D01*
X143567800Y-90885950D01*
X143567314Y-90974860D01*
X143527778Y-90974860D01*
X143527778Y-91106608D01*
X143396030Y-90974860D01*
X142804780Y-90972310D01*
X142701470Y-90982485D01*
X142602130Y-91012620D01*
X142510578Y-91061555D01*
X142430332Y-91127412D01*
X142364475Y-91207658D01*
X142315540Y-91299210D01*
X142285405Y-91398550D01*
X142275230Y-91501860D01*
X142277780Y-92093110D01*
X142409530Y-92224860D01*
X143527780Y-92224860D01*
X143527780Y-92204860D01*
X143781780Y-92204860D01*
X143781780Y-92224860D01*
X144900030Y-92224860D01*
X145031780Y-92093110D01*
X145032700Y-91879911D01*
X145269800Y-91881750D01*
X145373110Y-91871575D01*
X145472450Y-91841440D01*
X145564002Y-91792505D01*
X145644248Y-91726648D01*
X145710105Y-91646402D01*
X145715230Y-91636814D01*
X145791838Y-91730162D01*
X145926414Y-91840605D01*
X146079950Y-91922672D01*
X146246546Y-91973208D01*
X146419800Y-91990272D01*
X147094800Y-91990272D01*
X147268054Y-91973208D01*
X147434650Y-91922672D01*
X147588186Y-91840605D01*
X147722762Y-91730162D01*
X147833205Y-91595586D01*
X147915272Y-91442050D01*
X147965808Y-91275454D01*
X147982872Y-91102200D01*
X147982872Y-90152200D01*
X147965808Y-89978946D01*
X147915272Y-89812350D01*
X147864262Y-89716918D01*
X148481700Y-90334356D01*
X148481701Y-98527344D01*
X148047185Y-98961860D01*
X144744887Y-98961860D01*
X144601412Y-98818385D01*
X144427020Y-98701860D01*
X144601412Y-98585335D01*
X144808255Y-98378492D01*
X144970770Y-98135271D01*
X145082712Y-97865018D01*
X145139780Y-97578120D01*
X145139780Y-97285600D01*
X145082712Y-96998702D01*
X144970770Y-96728449D01*
X144808255Y-96485228D01*
X144601412Y-96278385D01*
X144427020Y-96161860D01*
X144601412Y-96045335D01*
X144808255Y-95838492D01*
X144970770Y-95595271D01*
X145082712Y-95325018D01*
X145139780Y-95038120D01*
X145139780Y-94745600D01*
X145082712Y-94458702D01*
X144970770Y-94188449D01*
X144808255Y-93945228D01*
X144601412Y-93738385D01*
X144579900Y-93724011D01*
X144608090Y-93721235D01*
X144707430Y-93691100D01*
X144798982Y-93642165D01*
X144879228Y-93576308D01*
X144945085Y-93496062D01*
X144994020Y-93404510D01*
X145024155Y-93305170D01*
X145034330Y-93201860D01*
X145031780Y-92610610D01*
X144900030Y-92478860D01*
X143781780Y-92478860D01*
X143781780Y-92498860D01*
X143527780Y-92498860D01*
X143527780Y-92478860D01*
X142409530Y-92478860D01*
X142277780Y-92610610D01*
X142275230Y-93201860D01*
X142285405Y-93305170D01*
X142315540Y-93404510D01*
X142364475Y-93496062D01*
X142430332Y-93576308D01*
X142510578Y-93642165D01*
X142602130Y-93691100D01*
X142701470Y-93721235D01*
X142729660Y-93724011D01*
X142708148Y-93738385D01*
X142501305Y-93945228D01*
X142426715Y-94056860D01*
X141412338Y-94056860D01*
X141371320Y-94052820D01*
X141330301Y-94056860D01*
X141207631Y-94068942D01*
X141050233Y-94116688D01*
X140905174Y-94194224D01*
X140778029Y-94298569D01*
X140751878Y-94330434D01*
X140268874Y-94813439D01*
X140237010Y-94839589D01*
X140175360Y-94914710D01*
X140132664Y-94966735D01*
X140055128Y-95111794D01*
X140036829Y-95172118D01*
X140007382Y-95269191D01*
X139997621Y-95368293D01*
X139991260Y-95432880D01*
X139995300Y-95473898D01*
X139995300Y-95525715D01*
X139913095Y-95648744D01*
X139835074Y-95837102D01*
X139795300Y-96037061D01*
X139795300Y-96240939D01*
X139835074Y-96440898D01*
X139899676Y-96596860D01*
X139342238Y-96596860D01*
X139301220Y-96592820D01*
X139260202Y-96596860D01*
X139260201Y-96596860D01*
X139137531Y-96608942D01*
X139019781Y-96644661D01*
X138980133Y-96656688D01*
X138835074Y-96734224D01*
X138774344Y-96784064D01*
X138707929Y-96838569D01*
X138681783Y-96870428D01*
X137841211Y-97711001D01*
X137871408Y-97611455D01*
X137888472Y-97438201D01*
X137888472Y-96738199D01*
X137871408Y-96564945D01*
X137820872Y-96398349D01*
X137738805Y-96244813D01*
X137628362Y-96110238D01*
X137601509Y-96088200D01*
X137628362Y-96066162D01*
X137704654Y-95973200D01*
X137862531Y-95973200D01*
X137906000Y-95977481D01*
X137949469Y-95973200D01*
X137949477Y-95973200D01*
X138079490Y-95960395D01*
X138246313Y-95909789D01*
X138400059Y-95827611D01*
X138534817Y-95717017D01*
X138562534Y-95683244D01*
X138745644Y-95500134D01*
X138779417Y-95472417D01*
X138890011Y-95337659D01*
X138972189Y-95183913D01*
X139022795Y-95017090D01*
X139035600Y-94887077D01*
X139035600Y-94887069D01*
X139039881Y-94843600D01*
X139035600Y-94800131D01*
X139035600Y-94772454D01*
X139067805Y-94724256D01*
X139145826Y-94535898D01*
X139185600Y-94335939D01*
X139185600Y-94132061D01*
X139145826Y-93932102D01*
X139067805Y-93743744D01*
X138954537Y-93574226D01*
X138810374Y-93430063D01*
X138640856Y-93316795D01*
X138452498Y-93238774D01*
X138252539Y-93199000D01*
X138048661Y-93199000D01*
X137848702Y-93238774D01*
X137660344Y-93316795D01*
X137490826Y-93430063D01*
X137346663Y-93574226D01*
X137233395Y-93743744D01*
X137181300Y-93869511D01*
X137173655Y-93867192D01*
X137000401Y-93850128D01*
X136100399Y-93850128D01*
X135927145Y-93867192D01*
X135760549Y-93917728D01*
X135607013Y-93999795D01*
X135472438Y-94110238D01*
X135361995Y-94244813D01*
X135279928Y-94398349D01*
X135229392Y-94564945D01*
X135212328Y-94738199D01*
X135212328Y-95438201D01*
X135229392Y-95611455D01*
X135279928Y-95778051D01*
X135361995Y-95931587D01*
X135472438Y-96066162D01*
X135499291Y-96088200D01*
X135496801Y-96090244D01*
X135480698Y-96083574D01*
X135280739Y-96043800D01*
X135076861Y-96043800D01*
X134876902Y-96083574D01*
X134688544Y-96161595D01*
X134519026Y-96274863D01*
X134374863Y-96419026D01*
X134261595Y-96588544D01*
X134183574Y-96776902D01*
X134143800Y-96976861D01*
X134143800Y-97180739D01*
X134183574Y-97380698D01*
X134261595Y-97569056D01*
X134374863Y-97738574D01*
X134451686Y-97815397D01*
X134451231Y-97815442D01*
X134293833Y-97863188D01*
X134148774Y-97940724D01*
X134057300Y-98015795D01*
X134021629Y-98045069D01*
X133995483Y-98076929D01*
X133286414Y-98785999D01*
X133254550Y-98812149D01*
X133192014Y-98888350D01*
X133150204Y-98939295D01*
X133072668Y-99084354D01*
X133024922Y-99241752D01*
X133008800Y-99405440D01*
X133012841Y-99446468D01*
X133012840Y-101198252D01*
X132623133Y-101587960D01*
X130270264Y-101587960D01*
X130376028Y-101472202D01*
X130515731Y-101241224D01*
X130607688Y-100987429D01*
X130512686Y-100774500D01*
X129400300Y-100774500D01*
X129400300Y-100794500D01*
X129146300Y-100794500D01*
X129146300Y-100774500D01*
X129126300Y-100774500D01*
X129126300Y-100520500D01*
X129146300Y-100520500D01*
X129146300Y-99408743D01*
X129400300Y-99408743D01*
X129400300Y-100520500D01*
X130512686Y-100520500D01*
X130607688Y-100307571D01*
X130515731Y-100053776D01*
X130376028Y-99822798D01*
X130193948Y-99623513D01*
X129976488Y-99463579D01*
X129732005Y-99349143D01*
X129613229Y-99313117D01*
X129400300Y-99408743D01*
X129146300Y-99408743D01*
X128933371Y-99313117D01*
X128814595Y-99349143D01*
X128570112Y-99463579D01*
X128352652Y-99623513D01*
X128218678Y-99770146D01*
X128209112Y-99673018D01*
X128172802Y-99553320D01*
X128113837Y-99443006D01*
X128034485Y-99346315D01*
X127937794Y-99266963D01*
X127827480Y-99207998D01*
X127707782Y-99171688D01*
X127583300Y-99159428D01*
X125883300Y-99159428D01*
X125758818Y-99171688D01*
X125639120Y-99207998D01*
X125528806Y-99266963D01*
X125432115Y-99346315D01*
X125352763Y-99443006D01*
X125293798Y-99553320D01*
X125257488Y-99673018D01*
X125245228Y-99797500D01*
X125245228Y-101497500D01*
X125254137Y-101587960D01*
X115011076Y-101587960D01*
X114900737Y-101422826D01*
X114756574Y-101278663D01*
X114587056Y-101165395D01*
X114398698Y-101087374D01*
X114198739Y-101047600D01*
X113994861Y-101047600D01*
X113794902Y-101087374D01*
X113606544Y-101165395D01*
X113437026Y-101278663D01*
X113292863Y-101422826D01*
X113179595Y-101592344D01*
X113101574Y-101780702D01*
X113061800Y-101980661D01*
X113061800Y-102184539D01*
X113101574Y-102384498D01*
X113114623Y-102416000D01*
X112616023Y-102416000D01*
X112601005Y-102379744D01*
X112487737Y-102210226D01*
X112343574Y-102066063D01*
X112174056Y-101952795D01*
X111985698Y-101874774D01*
X111785739Y-101835000D01*
X111581861Y-101835000D01*
X111381902Y-101874774D01*
X111193544Y-101952795D01*
X111024026Y-102066063D01*
X110879863Y-102210226D01*
X110766595Y-102379744D01*
X110688574Y-102568102D01*
X110648800Y-102768061D01*
X110648800Y-102971939D01*
X110688574Y-103171898D01*
X110766595Y-103360256D01*
X110879863Y-103529774D01*
X111024026Y-103673937D01*
X111193544Y-103787205D01*
X111381902Y-103865226D01*
X111533846Y-103895449D01*
X111598654Y-103948636D01*
X111743713Y-104026172D01*
X111901111Y-104073918D01*
X112023781Y-104086000D01*
X112023791Y-104086000D01*
X112064799Y-104090039D01*
X112105807Y-104086000D01*
X133344542Y-104086000D01*
X133385560Y-104090040D01*
X133426578Y-104086000D01*
X133426579Y-104086000D01*
X133549249Y-104073918D01*
X133706647Y-104026172D01*
X133851706Y-103948636D01*
X133978851Y-103844291D01*
X134005006Y-103812422D01*
X135283032Y-102534397D01*
X135314891Y-102508251D01*
X135345479Y-102470980D01*
X135419236Y-102381106D01*
X135496772Y-102236047D01*
X135516944Y-102169550D01*
X135533103Y-102193734D01*
X135633732Y-102294363D01*
X135612525Y-102364270D01*
X135602350Y-102467580D01*
X135604900Y-102933830D01*
X135736650Y-103065580D01*
X136592400Y-103065580D01*
X136592400Y-103045580D01*
X136846400Y-103045580D01*
X136846400Y-103065580D01*
X136866400Y-103065580D01*
X136866400Y-103319580D01*
X136846400Y-103319580D01*
X136846400Y-103339580D01*
X136592400Y-103339580D01*
X136592400Y-103319580D01*
X135736650Y-103319580D01*
X135604900Y-103451330D01*
X135602350Y-103917580D01*
X135612525Y-104020890D01*
X135642660Y-104120230D01*
X135691595Y-104211782D01*
X135757452Y-104292028D01*
X135837698Y-104357885D01*
X135916491Y-104400000D01*
X105200550Y-104400000D01*
X105229945Y-104364182D01*
X105278880Y-104272630D01*
X105309015Y-104173290D01*
X105319190Y-104069980D01*
X105316640Y-103603730D01*
X105184890Y-103471980D01*
X104329140Y-103471980D01*
X104329140Y-103491980D01*
X104075140Y-103491980D01*
X104075140Y-103471980D01*
X104055140Y-103471980D01*
X104055140Y-103217980D01*
X104075140Y-103217980D01*
X104075140Y-102400210D01*
X104085300Y-102390050D01*
X104085300Y-102224730D01*
X104329140Y-102224730D01*
X104329140Y-103217980D01*
X105184890Y-103217980D01*
X105316640Y-103086230D01*
X105319190Y-102619980D01*
X105309015Y-102516670D01*
X105278880Y-102417330D01*
X105229945Y-102325778D01*
X105219934Y-102313580D01*
X105240105Y-102289002D01*
X105289040Y-102197450D01*
X105319175Y-102098110D01*
X105329350Y-101994800D01*
X105326800Y-101528550D01*
X105195050Y-101396800D01*
X104339300Y-101396800D01*
X104339300Y-102214570D01*
X104329140Y-102224730D01*
X104085300Y-102224730D01*
X104085300Y-101396800D01*
X104065300Y-101396800D01*
X104065300Y-101142800D01*
X104085300Y-101142800D01*
X104085300Y-100149550D01*
X104339300Y-100149550D01*
X104339300Y-101142800D01*
X105195050Y-101142800D01*
X105326800Y-101011050D01*
X105329350Y-100544800D01*
X105319175Y-100441490D01*
X105289040Y-100342150D01*
X105240105Y-100250598D01*
X105174248Y-100170352D01*
X105094002Y-100104495D01*
X105002450Y-100055560D01*
X104903110Y-100025425D01*
X104799800Y-100015250D01*
X104471050Y-100017800D01*
X104339300Y-100149550D01*
X104085300Y-100149550D01*
X103953550Y-100017800D01*
X103624800Y-100015250D01*
X103521490Y-100025425D01*
X103422150Y-100055560D01*
X103330598Y-100104495D01*
X103250352Y-100170352D01*
X103184495Y-100250598D01*
X103179370Y-100260186D01*
X103102762Y-100166838D01*
X102968186Y-100056395D01*
X102814650Y-99974328D01*
X102648054Y-99923792D01*
X102474800Y-99906728D01*
X101799800Y-99906728D01*
X101626546Y-99923792D01*
X101459950Y-99974328D01*
X101306414Y-100056395D01*
X101171838Y-100166838D01*
X101095547Y-100259800D01*
X91918450Y-100259800D01*
X91832250Y-100173600D01*
X91311316Y-100173600D01*
X91288185Y-100145415D01*
X91191494Y-100066063D01*
X91081180Y-100007098D01*
X90961482Y-99970788D01*
X90837000Y-99958528D01*
X90490000Y-99958528D01*
X90490000Y-99934672D01*
X91437000Y-99934672D01*
X91561482Y-99922412D01*
X91570752Y-99919600D01*
X91832250Y-99919600D01*
X91964000Y-99787850D01*
X91966550Y-99696600D01*
X91962654Y-99657044D01*
X91967537Y-99651094D01*
X92026502Y-99540780D01*
X92062812Y-99421082D01*
X92075072Y-99296600D01*
X92075072Y-98596600D01*
X92062812Y-98472118D01*
X92039904Y-98396600D01*
X92062812Y-98321082D01*
X92075072Y-98196600D01*
X92075072Y-97506600D01*
X92268739Y-97506600D01*
X92481480Y-97719342D01*
X92505279Y-97748341D01*
X92615398Y-97838713D01*
X92635043Y-97868114D01*
X92779206Y-98012277D01*
X92948724Y-98125545D01*
X93137082Y-98203566D01*
X93337041Y-98243340D01*
X93540919Y-98243340D01*
X93740878Y-98203566D01*
X93820317Y-98170661D01*
X104476600Y-98170661D01*
X104476600Y-98374539D01*
X104516374Y-98574498D01*
X104594395Y-98762856D01*
X104707663Y-98932374D01*
X104851826Y-99076537D01*
X105021344Y-99189805D01*
X105209702Y-99267826D01*
X105409661Y-99307600D01*
X105613539Y-99307600D01*
X105813498Y-99267826D01*
X105890815Y-99235800D01*
X112490289Y-99235800D01*
X112534226Y-99279737D01*
X112703744Y-99393005D01*
X112892102Y-99471026D01*
X113092061Y-99510800D01*
X113295939Y-99510800D01*
X113495898Y-99471026D01*
X113684256Y-99393005D01*
X113853774Y-99279737D01*
X113997937Y-99135574D01*
X114111205Y-98966056D01*
X114189226Y-98777698D01*
X114229000Y-98577739D01*
X114229000Y-98373861D01*
X114189226Y-98173902D01*
X114111205Y-97985544D01*
X113997937Y-97816026D01*
X113853774Y-97671863D01*
X113684256Y-97558595D01*
X113495898Y-97480574D01*
X113295939Y-97440800D01*
X113092061Y-97440800D01*
X112892102Y-97480574D01*
X112703744Y-97558595D01*
X112534226Y-97671863D01*
X112490289Y-97715800D01*
X106384342Y-97715800D01*
X106315537Y-97612826D01*
X106171374Y-97468663D01*
X106001856Y-97355395D01*
X105813498Y-97277374D01*
X105613539Y-97237600D01*
X105409661Y-97237600D01*
X105209702Y-97277374D01*
X105021344Y-97355395D01*
X104851826Y-97468663D01*
X104707663Y-97612826D01*
X104594395Y-97782344D01*
X104516374Y-97970702D01*
X104476600Y-98170661D01*
X93820317Y-98170661D01*
X93929236Y-98125545D01*
X94098754Y-98012277D01*
X94242917Y-97868114D01*
X94356185Y-97698596D01*
X94434206Y-97510238D01*
X94473980Y-97310279D01*
X94473980Y-97178402D01*
X115247289Y-97178402D01*
X115291226Y-97222339D01*
X115460744Y-97335607D01*
X115649102Y-97413628D01*
X115849061Y-97453402D01*
X116052939Y-97453402D01*
X116252898Y-97413628D01*
X116441256Y-97335607D01*
X116610774Y-97222339D01*
X116717929Y-97115184D01*
X116857744Y-97208605D01*
X117046102Y-97286626D01*
X117246061Y-97326400D01*
X117449939Y-97326400D01*
X117649898Y-97286626D01*
X117838256Y-97208605D01*
X118007774Y-97095337D01*
X118151937Y-96951174D01*
X118265205Y-96781656D01*
X118343226Y-96593298D01*
X118383000Y-96393339D01*
X118383000Y-96189461D01*
X118343226Y-95989502D01*
X118265205Y-95801144D01*
X118151937Y-95631626D01*
X118007774Y-95487463D01*
X117838256Y-95374195D01*
X117649898Y-95296174D01*
X117449939Y-95256400D01*
X117387801Y-95256400D01*
X117022803Y-94891402D01*
X116999001Y-94862399D01*
X116883276Y-94767426D01*
X116870773Y-94760743D01*
X116909800Y-94564541D01*
X116909800Y-94360663D01*
X116870026Y-94160704D01*
X116792005Y-93972346D01*
X116746554Y-93904324D01*
X116791839Y-93836550D01*
X116869860Y-93648192D01*
X116909634Y-93448233D01*
X116909634Y-93244355D01*
X116869860Y-93044396D01*
X116791839Y-92856038D01*
X116734834Y-92770724D01*
X116777720Y-92706541D01*
X116855741Y-92518183D01*
X116895515Y-92318224D01*
X116895515Y-92114346D01*
X116879493Y-92033799D01*
X118853687Y-92033799D01*
X121699929Y-94880042D01*
X121737574Y-95069298D01*
X121815595Y-95257656D01*
X121928863Y-95427174D01*
X122073026Y-95571337D01*
X122242544Y-95684605D01*
X122430902Y-95762626D01*
X122630861Y-95802400D01*
X122834739Y-95802400D01*
X123034698Y-95762626D01*
X123223056Y-95684605D01*
X123392574Y-95571337D01*
X123536737Y-95427174D01*
X123650005Y-95257656D01*
X123728026Y-95069298D01*
X123767800Y-94869339D01*
X123767800Y-94665461D01*
X123728026Y-94465502D01*
X123650005Y-94277144D01*
X123536737Y-94107626D01*
X123392574Y-93963463D01*
X123223056Y-93850195D01*
X123034698Y-93772174D01*
X122845442Y-93734529D01*
X119790099Y-90679187D01*
X119764727Y-90648271D01*
X119641388Y-90547050D01*
X119500672Y-90471836D01*
X119372334Y-90432905D01*
X119406012Y-90321882D01*
X119418272Y-90197400D01*
X119418272Y-89503751D01*
X119428028Y-89535912D01*
X119510095Y-89689447D01*
X119620538Y-89824022D01*
X119755113Y-89934465D01*
X119908648Y-90016532D01*
X120075244Y-90067068D01*
X120248498Y-90084132D01*
X122448502Y-90084132D01*
X122621756Y-90067068D01*
X122788352Y-90016532D01*
X122941887Y-89934465D01*
X123076462Y-89824022D01*
X123101462Y-89793560D01*
X124044232Y-89793560D01*
X124093840Y-89798446D01*
X124291834Y-89778945D01*
X124471792Y-89724355D01*
X124462420Y-89741890D01*
X124432285Y-89841230D01*
X124422110Y-89944540D01*
X124424660Y-90273290D01*
X124556410Y-90405040D01*
X125549660Y-90405040D01*
X125549660Y-89549290D01*
X125803660Y-89549290D01*
X125803660Y-90405040D01*
X126664610Y-90405040D01*
X126667150Y-90407580D01*
X127660400Y-90407580D01*
X127660400Y-89551830D01*
X127528650Y-89420080D01*
X127062400Y-89417530D01*
X126959090Y-89427705D01*
X126859750Y-89457840D01*
X126768198Y-89506775D01*
X126733577Y-89535188D01*
X126695862Y-89504235D01*
X126604310Y-89455300D01*
X126504970Y-89425165D01*
X126401660Y-89414990D01*
X125935410Y-89417540D01*
X125803660Y-89549290D01*
X125549660Y-89549290D01*
X125417910Y-89417540D01*
X124951660Y-89414990D01*
X124884112Y-89421643D01*
X125352449Y-88953305D01*
X125390993Y-88921673D01*
X125517207Y-88767880D01*
X125610992Y-88592420D01*
X125668745Y-88402034D01*
X125683360Y-88253648D01*
X125683360Y-88253646D01*
X125688246Y-88204041D01*
X125683360Y-88154436D01*
X125683360Y-85432155D01*
X126006116Y-85109400D01*
X129295582Y-85109400D01*
X129281374Y-85143702D01*
%TA.AperFunction,Conductor*%
D26*
G36*
X129281374Y-85143702D02*
G01*
X129246516Y-85318947D01*
X129177068Y-85448874D01*
X129129322Y-85606272D01*
X129113200Y-85769960D01*
X129117241Y-85810988D01*
X129117240Y-87239752D01*
X129108853Y-87244235D01*
X128974278Y-87354678D01*
X128863835Y-87489253D01*
X128781768Y-87642789D01*
X128731232Y-87809385D01*
X128714168Y-87982639D01*
X128714168Y-88882641D01*
X128731232Y-89055895D01*
X128781768Y-89222491D01*
X128863835Y-89376027D01*
X128935782Y-89463695D01*
X128844945Y-89538243D01*
X128806602Y-89506775D01*
X128715050Y-89457840D01*
X128615710Y-89427705D01*
X128512400Y-89417530D01*
X128046150Y-89420080D01*
X127914400Y-89551830D01*
X127914400Y-90407580D01*
X127934400Y-90407580D01*
X127934400Y-90661580D01*
X127914400Y-90661580D01*
X127914400Y-90681580D01*
X127660400Y-90681580D01*
X127660400Y-90661580D01*
X126799450Y-90661580D01*
X126796910Y-90659040D01*
X125803660Y-90659040D01*
X125803660Y-90679040D01*
X125549660Y-90679040D01*
X125549660Y-90659040D01*
X124556410Y-90659040D01*
X124424660Y-90790790D01*
X124422110Y-91119540D01*
X124432285Y-91222850D01*
X124462420Y-91322190D01*
X124511355Y-91413742D01*
X124577212Y-91493988D01*
X124657458Y-91559845D01*
X124667046Y-91564970D01*
X124573698Y-91641578D01*
X124463255Y-91776154D01*
X124381188Y-91929690D01*
X124330652Y-92096286D01*
X124313588Y-92269540D01*
X124313588Y-92944540D01*
X124330652Y-93117794D01*
X124381188Y-93284390D01*
X124463255Y-93437926D01*
X124573698Y-93572502D01*
X124708274Y-93682945D01*
X124841660Y-93754242D01*
X124841661Y-96283392D01*
X124837620Y-96324420D01*
X124853742Y-96488108D01*
X124901488Y-96645506D01*
X124979024Y-96790565D01*
X124979025Y-96790566D01*
X125083370Y-96917711D01*
X125115234Y-96943861D01*
X126103698Y-97932326D01*
X126129849Y-97964191D01*
X126256994Y-98068536D01*
X126402053Y-98146072D01*
X126559451Y-98193818D01*
X126682121Y-98205900D01*
X126682123Y-98205900D01*
X126723139Y-98209940D01*
X126764155Y-98205900D01*
X127339215Y-98205900D01*
X127462244Y-98288105D01*
X127650602Y-98366126D01*
X127850561Y-98405900D01*
X128054439Y-98405900D01*
X128254398Y-98366126D01*
X128442756Y-98288105D01*
X128612274Y-98174837D01*
X128756437Y-98030674D01*
X128869705Y-97861156D01*
X128947726Y-97672798D01*
X128987500Y-97472839D01*
X128987500Y-97268961D01*
X128947726Y-97069002D01*
X128869705Y-96880644D01*
X128756437Y-96711126D01*
X128612274Y-96566963D01*
X128523007Y-96507317D01*
X128635136Y-96432395D01*
X128779299Y-96288232D01*
X128892567Y-96118714D01*
X128970588Y-95930356D01*
X129010362Y-95730397D01*
X129010362Y-95526519D01*
X128970588Y-95326560D01*
X128892567Y-95138202D01*
X128779299Y-94968684D01*
X128635136Y-94824521D01*
X128622400Y-94816011D01*
X128622400Y-93756782D01*
X128755786Y-93685485D01*
X128855835Y-93603377D01*
X128894178Y-93634845D01*
X128985730Y-93683780D01*
X129085070Y-93713915D01*
X129188380Y-93724090D01*
X129654630Y-93721540D01*
X129786380Y-93589790D01*
X129786380Y-92734040D01*
X130040380Y-92734040D01*
X130040380Y-93589790D01*
X130172130Y-93721540D01*
X130638380Y-93724090D01*
X130741690Y-93713915D01*
X130841030Y-93683780D01*
X130932582Y-93634845D01*
X130963510Y-93609463D01*
X130982058Y-93624685D01*
X131073610Y-93673620D01*
X131172950Y-93703755D01*
X131276260Y-93713930D01*
X131742510Y-93711380D01*
X131874260Y-93579630D01*
X131874260Y-92723880D01*
X132128260Y-92723880D01*
X132128260Y-93579630D01*
X132260010Y-93711380D01*
X132726260Y-93713930D01*
X132829570Y-93703755D01*
X132928910Y-93673620D01*
X133020462Y-93624685D01*
X133100708Y-93558828D01*
X133166565Y-93478582D01*
X133215500Y-93387030D01*
X133245635Y-93287690D01*
X133255810Y-93184380D01*
X133253260Y-92855630D01*
X133121510Y-92723880D01*
X132128260Y-92723880D01*
X131874260Y-92723880D01*
X130881010Y-92723880D01*
X130870850Y-92734040D01*
X130040380Y-92734040D01*
X129786380Y-92734040D01*
X129766380Y-92734040D01*
X129766380Y-92480040D01*
X129786380Y-92480040D01*
X129786380Y-92460040D01*
X130040380Y-92460040D01*
X130040380Y-92480040D01*
X131033630Y-92480040D01*
X131043790Y-92469880D01*
X131874260Y-92469880D01*
X131874260Y-92449880D01*
X132128260Y-92449880D01*
X132128260Y-92469880D01*
X133121510Y-92469880D01*
X133253260Y-92338130D01*
X133255810Y-92009380D01*
X133245635Y-91906070D01*
X133215500Y-91806730D01*
X133166565Y-91715178D01*
X133100708Y-91634932D01*
X133020462Y-91569075D01*
X133010874Y-91563950D01*
X133104222Y-91487342D01*
X133214665Y-91352766D01*
X133296732Y-91199230D01*
X133347268Y-91032634D01*
X133364332Y-90859380D01*
X133364332Y-90184380D01*
X133347268Y-90011126D01*
X133314226Y-89902200D01*
X143565250Y-89902200D01*
X143567800Y-90368450D01*
X143699550Y-90500200D01*
X144555300Y-90500200D01*
X144555300Y-89506950D01*
X144423550Y-89375200D01*
X144094800Y-89372650D01*
X143991490Y-89382825D01*
X143892150Y-89412960D01*
X143800598Y-89461895D01*
X143720352Y-89527752D01*
X143654495Y-89607998D01*
X143605560Y-89699550D01*
X143575425Y-89798890D01*
X143565250Y-89902200D01*
X133314226Y-89902200D01*
X133296732Y-89844530D01*
X133214665Y-89690994D01*
X133104222Y-89556418D01*
X132977769Y-89452641D01*
X133040645Y-89376027D01*
X133122712Y-89222491D01*
X133173248Y-89055895D01*
X133190312Y-88882641D01*
X133190312Y-87982639D01*
X133173248Y-87809385D01*
X133122712Y-87642789D01*
X133040645Y-87489253D01*
X132930202Y-87354678D01*
X132795627Y-87244235D01*
X132787240Y-87239752D01*
X132787240Y-86732028D01*
X133074976Y-86444292D01*
X133220098Y-86415426D01*
X133408456Y-86337405D01*
X133577974Y-86224137D01*
X133722137Y-86079974D01*
X133835405Y-85910456D01*
X133913426Y-85722098D01*
X133953200Y-85522139D01*
X133953200Y-85318261D01*
X133913426Y-85118302D01*
X133909739Y-85109400D01*
X133985745Y-85109400D01*
X134638700Y-85762355D01*
X134638701Y-87427983D01*
X134633814Y-87477600D01*
X134653315Y-87675594D01*
X134711068Y-87865979D01*
X134804854Y-88041440D01*
X134855980Y-88103737D01*
X134931068Y-88195233D01*
X134969601Y-88226856D01*
X135539519Y-88796774D01*
X135571147Y-88835313D01*
X135724940Y-88961527D01*
X135845432Y-89025931D01*
X135900400Y-89055312D01*
X136090785Y-89113065D01*
X136288780Y-89132566D01*
X136338388Y-89127680D01*
X144791352Y-89127680D01*
X144819917Y-89130493D01*
X144806720Y-89196841D01*
X144806720Y-89400719D01*
X144824773Y-89491477D01*
X144809300Y-89506950D01*
X144809300Y-90500200D01*
X144829300Y-90500200D01*
X144829300Y-90754200D01*
X144809300Y-90754200D01*
X144809300Y-90774200D01*
X144555300Y-90774200D01*
X144555300Y-90754200D01*
X143699550Y-90754200D01*
X143567800Y-90885950D01*
X143567314Y-90974860D01*
X143527778Y-90974860D01*
X143527778Y-91106608D01*
X143396030Y-90974860D01*
X142804780Y-90972310D01*
X142701470Y-90982485D01*
X142602130Y-91012620D01*
X142510578Y-91061555D01*
X142430332Y-91127412D01*
X142364475Y-91207658D01*
X142315540Y-91299210D01*
X142285405Y-91398550D01*
X142275230Y-91501860D01*
X142277780Y-92093110D01*
X142409530Y-92224860D01*
X143527780Y-92224860D01*
X143527780Y-92204860D01*
X143781780Y-92204860D01*
X143781780Y-92224860D01*
X144900030Y-92224860D01*
X145031780Y-92093110D01*
X145032700Y-91879911D01*
X145269800Y-91881750D01*
X145373110Y-91871575D01*
X145472450Y-91841440D01*
X145564002Y-91792505D01*
X145644248Y-91726648D01*
X145710105Y-91646402D01*
X145715230Y-91636814D01*
X145791838Y-91730162D01*
X145926414Y-91840605D01*
X146079950Y-91922672D01*
X146246546Y-91973208D01*
X146419800Y-91990272D01*
X147094800Y-91990272D01*
X147268054Y-91973208D01*
X147434650Y-91922672D01*
X147588186Y-91840605D01*
X147722762Y-91730162D01*
X147833205Y-91595586D01*
X147915272Y-91442050D01*
X147965808Y-91275454D01*
X147982872Y-91102200D01*
X147982872Y-90152200D01*
X147965808Y-89978946D01*
X147915272Y-89812350D01*
X147864262Y-89716918D01*
X148481700Y-90334356D01*
X148481701Y-98527344D01*
X148047185Y-98961860D01*
X144744887Y-98961860D01*
X144601412Y-98818385D01*
X144427020Y-98701860D01*
X144601412Y-98585335D01*
X144808255Y-98378492D01*
X144970770Y-98135271D01*
X145082712Y-97865018D01*
X145139780Y-97578120D01*
X145139780Y-97285600D01*
X145082712Y-96998702D01*
X144970770Y-96728449D01*
X144808255Y-96485228D01*
X144601412Y-96278385D01*
X144427020Y-96161860D01*
X144601412Y-96045335D01*
X144808255Y-95838492D01*
X144970770Y-95595271D01*
X145082712Y-95325018D01*
X145139780Y-95038120D01*
X145139780Y-94745600D01*
X145082712Y-94458702D01*
X144970770Y-94188449D01*
X144808255Y-93945228D01*
X144601412Y-93738385D01*
X144579900Y-93724011D01*
X144608090Y-93721235D01*
X144707430Y-93691100D01*
X144798982Y-93642165D01*
X144879228Y-93576308D01*
X144945085Y-93496062D01*
X144994020Y-93404510D01*
X145024155Y-93305170D01*
X145034330Y-93201860D01*
X145031780Y-92610610D01*
X144900030Y-92478860D01*
X143781780Y-92478860D01*
X143781780Y-92498860D01*
X143527780Y-92498860D01*
X143527780Y-92478860D01*
X142409530Y-92478860D01*
X142277780Y-92610610D01*
X142275230Y-93201860D01*
X142285405Y-93305170D01*
X142315540Y-93404510D01*
X142364475Y-93496062D01*
X142430332Y-93576308D01*
X142510578Y-93642165D01*
X142602130Y-93691100D01*
X142701470Y-93721235D01*
X142729660Y-93724011D01*
X142708148Y-93738385D01*
X142501305Y-93945228D01*
X142426715Y-94056860D01*
X141412338Y-94056860D01*
X141371320Y-94052820D01*
X141330301Y-94056860D01*
X141207631Y-94068942D01*
X141050233Y-94116688D01*
X140905174Y-94194224D01*
X140778029Y-94298569D01*
X140751878Y-94330434D01*
X140268874Y-94813439D01*
X140237010Y-94839589D01*
X140175360Y-94914710D01*
X140132664Y-94966735D01*
X140055128Y-95111794D01*
X140036829Y-95172118D01*
X140007382Y-95269191D01*
X139997621Y-95368293D01*
X139991260Y-95432880D01*
X139995300Y-95473898D01*
X139995300Y-95525715D01*
X139913095Y-95648744D01*
X139835074Y-95837102D01*
X139795300Y-96037061D01*
X139795300Y-96240939D01*
X139835074Y-96440898D01*
X139899676Y-96596860D01*
X139342238Y-96596860D01*
X139301220Y-96592820D01*
X139260202Y-96596860D01*
X139260201Y-96596860D01*
X139137531Y-96608942D01*
X139019781Y-96644661D01*
X138980133Y-96656688D01*
X138835074Y-96734224D01*
X138774344Y-96784064D01*
X138707929Y-96838569D01*
X138681783Y-96870428D01*
X137841211Y-97711001D01*
X137871408Y-97611455D01*
X137888472Y-97438201D01*
X137888472Y-96738199D01*
X137871408Y-96564945D01*
X137820872Y-96398349D01*
X137738805Y-96244813D01*
X137628362Y-96110238D01*
X137601509Y-96088200D01*
X137628362Y-96066162D01*
X137704654Y-95973200D01*
X137862531Y-95973200D01*
X137906000Y-95977481D01*
X137949469Y-95973200D01*
X137949477Y-95973200D01*
X138079490Y-95960395D01*
X138246313Y-95909789D01*
X138400059Y-95827611D01*
X138534817Y-95717017D01*
X138562534Y-95683244D01*
X138745644Y-95500134D01*
X138779417Y-95472417D01*
X138890011Y-95337659D01*
X138972189Y-95183913D01*
X139022795Y-95017090D01*
X139035600Y-94887077D01*
X139035600Y-94887069D01*
X139039881Y-94843600D01*
X139035600Y-94800131D01*
X139035600Y-94772454D01*
X139067805Y-94724256D01*
X139145826Y-94535898D01*
X139185600Y-94335939D01*
X139185600Y-94132061D01*
X139145826Y-93932102D01*
X139067805Y-93743744D01*
X138954537Y-93574226D01*
X138810374Y-93430063D01*
X138640856Y-93316795D01*
X138452498Y-93238774D01*
X138252539Y-93199000D01*
X138048661Y-93199000D01*
X137848702Y-93238774D01*
X137660344Y-93316795D01*
X137490826Y-93430063D01*
X137346663Y-93574226D01*
X137233395Y-93743744D01*
X137181300Y-93869511D01*
X137173655Y-93867192D01*
X137000401Y-93850128D01*
X136100399Y-93850128D01*
X135927145Y-93867192D01*
X135760549Y-93917728D01*
X135607013Y-93999795D01*
X135472438Y-94110238D01*
X135361995Y-94244813D01*
X135279928Y-94398349D01*
X135229392Y-94564945D01*
X135212328Y-94738199D01*
X135212328Y-95438201D01*
X135229392Y-95611455D01*
X135279928Y-95778051D01*
X135361995Y-95931587D01*
X135472438Y-96066162D01*
X135499291Y-96088200D01*
X135496801Y-96090244D01*
X135480698Y-96083574D01*
X135280739Y-96043800D01*
X135076861Y-96043800D01*
X134876902Y-96083574D01*
X134688544Y-96161595D01*
X134519026Y-96274863D01*
X134374863Y-96419026D01*
X134261595Y-96588544D01*
X134183574Y-96776902D01*
X134143800Y-96976861D01*
X134143800Y-97180739D01*
X134183574Y-97380698D01*
X134261595Y-97569056D01*
X134374863Y-97738574D01*
X134451686Y-97815397D01*
X134451231Y-97815442D01*
X134293833Y-97863188D01*
X134148774Y-97940724D01*
X134057300Y-98015795D01*
X134021629Y-98045069D01*
X133995483Y-98076929D01*
X133286414Y-98785999D01*
X133254550Y-98812149D01*
X133192014Y-98888350D01*
X133150204Y-98939295D01*
X133072668Y-99084354D01*
X133024922Y-99241752D01*
X133008800Y-99405440D01*
X133012841Y-99446468D01*
X133012840Y-101198252D01*
X132623133Y-101587960D01*
X130270264Y-101587960D01*
X130376028Y-101472202D01*
X130515731Y-101241224D01*
X130607688Y-100987429D01*
X130512686Y-100774500D01*
X129400300Y-100774500D01*
X129400300Y-100794500D01*
X129146300Y-100794500D01*
X129146300Y-100774500D01*
X129126300Y-100774500D01*
X129126300Y-100520500D01*
X129146300Y-100520500D01*
X129146300Y-99408743D01*
X129400300Y-99408743D01*
X129400300Y-100520500D01*
X130512686Y-100520500D01*
X130607688Y-100307571D01*
X130515731Y-100053776D01*
X130376028Y-99822798D01*
X130193948Y-99623513D01*
X129976488Y-99463579D01*
X129732005Y-99349143D01*
X129613229Y-99313117D01*
X129400300Y-99408743D01*
X129146300Y-99408743D01*
X128933371Y-99313117D01*
X128814595Y-99349143D01*
X128570112Y-99463579D01*
X128352652Y-99623513D01*
X128218678Y-99770146D01*
X128209112Y-99673018D01*
X128172802Y-99553320D01*
X128113837Y-99443006D01*
X128034485Y-99346315D01*
X127937794Y-99266963D01*
X127827480Y-99207998D01*
X127707782Y-99171688D01*
X127583300Y-99159428D01*
X125883300Y-99159428D01*
X125758818Y-99171688D01*
X125639120Y-99207998D01*
X125528806Y-99266963D01*
X125432115Y-99346315D01*
X125352763Y-99443006D01*
X125293798Y-99553320D01*
X125257488Y-99673018D01*
X125245228Y-99797500D01*
X125245228Y-101497500D01*
X125254137Y-101587960D01*
X115011076Y-101587960D01*
X114900737Y-101422826D01*
X114756574Y-101278663D01*
X114587056Y-101165395D01*
X114398698Y-101087374D01*
X114198739Y-101047600D01*
X113994861Y-101047600D01*
X113794902Y-101087374D01*
X113606544Y-101165395D01*
X113437026Y-101278663D01*
X113292863Y-101422826D01*
X113179595Y-101592344D01*
X113101574Y-101780702D01*
X113061800Y-101980661D01*
X113061800Y-102184539D01*
X113101574Y-102384498D01*
X113114623Y-102416000D01*
X112616023Y-102416000D01*
X112601005Y-102379744D01*
X112487737Y-102210226D01*
X112343574Y-102066063D01*
X112174056Y-101952795D01*
X111985698Y-101874774D01*
X111785739Y-101835000D01*
X111581861Y-101835000D01*
X111381902Y-101874774D01*
X111193544Y-101952795D01*
X111024026Y-102066063D01*
X110879863Y-102210226D01*
X110766595Y-102379744D01*
X110688574Y-102568102D01*
X110648800Y-102768061D01*
X110648800Y-102971939D01*
X110688574Y-103171898D01*
X110766595Y-103360256D01*
X110879863Y-103529774D01*
X111024026Y-103673937D01*
X111193544Y-103787205D01*
X111381902Y-103865226D01*
X111533846Y-103895449D01*
X111598654Y-103948636D01*
X111743713Y-104026172D01*
X111901111Y-104073918D01*
X112023781Y-104086000D01*
X112023791Y-104086000D01*
X112064799Y-104090039D01*
X112105807Y-104086000D01*
X133344542Y-104086000D01*
X133385560Y-104090040D01*
X133426578Y-104086000D01*
X133426579Y-104086000D01*
X133549249Y-104073918D01*
X133706647Y-104026172D01*
X133851706Y-103948636D01*
X133978851Y-103844291D01*
X134005006Y-103812422D01*
X135283032Y-102534397D01*
X135314891Y-102508251D01*
X135345479Y-102470980D01*
X135419236Y-102381106D01*
X135496772Y-102236047D01*
X135516944Y-102169550D01*
X135533103Y-102193734D01*
X135633732Y-102294363D01*
X135612525Y-102364270D01*
X135602350Y-102467580D01*
X135604900Y-102933830D01*
X135736650Y-103065580D01*
X136592400Y-103065580D01*
X136592400Y-103045580D01*
X136846400Y-103045580D01*
X136846400Y-103065580D01*
X136866400Y-103065580D01*
X136866400Y-103319580D01*
X136846400Y-103319580D01*
X136846400Y-103339580D01*
X136592400Y-103339580D01*
X136592400Y-103319580D01*
X135736650Y-103319580D01*
X135604900Y-103451330D01*
X135602350Y-103917580D01*
X135612525Y-104020890D01*
X135642660Y-104120230D01*
X135691595Y-104211782D01*
X135757452Y-104292028D01*
X135837698Y-104357885D01*
X135916491Y-104400000D01*
X105200550Y-104400000D01*
X105229945Y-104364182D01*
X105278880Y-104272630D01*
X105309015Y-104173290D01*
X105319190Y-104069980D01*
X105316640Y-103603730D01*
X105184890Y-103471980D01*
X104329140Y-103471980D01*
X104329140Y-103491980D01*
X104075140Y-103491980D01*
X104075140Y-103471980D01*
X104055140Y-103471980D01*
X104055140Y-103217980D01*
X104075140Y-103217980D01*
X104075140Y-102400210D01*
X104085300Y-102390050D01*
X104085300Y-102224730D01*
X104329140Y-102224730D01*
X104329140Y-103217980D01*
X105184890Y-103217980D01*
X105316640Y-103086230D01*
X105319190Y-102619980D01*
X105309015Y-102516670D01*
X105278880Y-102417330D01*
X105229945Y-102325778D01*
X105219934Y-102313580D01*
X105240105Y-102289002D01*
X105289040Y-102197450D01*
X105319175Y-102098110D01*
X105329350Y-101994800D01*
X105326800Y-101528550D01*
X105195050Y-101396800D01*
X104339300Y-101396800D01*
X104339300Y-102214570D01*
X104329140Y-102224730D01*
X104085300Y-102224730D01*
X104085300Y-101396800D01*
X104065300Y-101396800D01*
X104065300Y-101142800D01*
X104085300Y-101142800D01*
X104085300Y-100149550D01*
X104339300Y-100149550D01*
X104339300Y-101142800D01*
X105195050Y-101142800D01*
X105326800Y-101011050D01*
X105329350Y-100544800D01*
X105319175Y-100441490D01*
X105289040Y-100342150D01*
X105240105Y-100250598D01*
X105174248Y-100170352D01*
X105094002Y-100104495D01*
X105002450Y-100055560D01*
X104903110Y-100025425D01*
X104799800Y-100015250D01*
X104471050Y-100017800D01*
X104339300Y-100149550D01*
X104085300Y-100149550D01*
X103953550Y-100017800D01*
X103624800Y-100015250D01*
X103521490Y-100025425D01*
X103422150Y-100055560D01*
X103330598Y-100104495D01*
X103250352Y-100170352D01*
X103184495Y-100250598D01*
X103179370Y-100260186D01*
X103102762Y-100166838D01*
X102968186Y-100056395D01*
X102814650Y-99974328D01*
X102648054Y-99923792D01*
X102474800Y-99906728D01*
X101799800Y-99906728D01*
X101626546Y-99923792D01*
X101459950Y-99974328D01*
X101306414Y-100056395D01*
X101171838Y-100166838D01*
X101095547Y-100259800D01*
X91918450Y-100259800D01*
X91832250Y-100173600D01*
X91311316Y-100173600D01*
X91288185Y-100145415D01*
X91191494Y-100066063D01*
X91081180Y-100007098D01*
X90961482Y-99970788D01*
X90837000Y-99958528D01*
X90490000Y-99958528D01*
X90490000Y-99934672D01*
X91437000Y-99934672D01*
X91561482Y-99922412D01*
X91570752Y-99919600D01*
X91832250Y-99919600D01*
X91964000Y-99787850D01*
X91966550Y-99696600D01*
X91962654Y-99657044D01*
X91967537Y-99651094D01*
X92026502Y-99540780D01*
X92062812Y-99421082D01*
X92075072Y-99296600D01*
X92075072Y-98596600D01*
X92062812Y-98472118D01*
X92039904Y-98396600D01*
X92062812Y-98321082D01*
X92075072Y-98196600D01*
X92075072Y-97506600D01*
X92268739Y-97506600D01*
X92481480Y-97719342D01*
X92505279Y-97748341D01*
X92615398Y-97838713D01*
X92635043Y-97868114D01*
X92779206Y-98012277D01*
X92948724Y-98125545D01*
X93137082Y-98203566D01*
X93337041Y-98243340D01*
X93540919Y-98243340D01*
X93740878Y-98203566D01*
X93820317Y-98170661D01*
X104476600Y-98170661D01*
X104476600Y-98374539D01*
X104516374Y-98574498D01*
X104594395Y-98762856D01*
X104707663Y-98932374D01*
X104851826Y-99076537D01*
X105021344Y-99189805D01*
X105209702Y-99267826D01*
X105409661Y-99307600D01*
X105613539Y-99307600D01*
X105813498Y-99267826D01*
X105890815Y-99235800D01*
X112490289Y-99235800D01*
X112534226Y-99279737D01*
X112703744Y-99393005D01*
X112892102Y-99471026D01*
X113092061Y-99510800D01*
X113295939Y-99510800D01*
X113495898Y-99471026D01*
X113684256Y-99393005D01*
X113853774Y-99279737D01*
X113997937Y-99135574D01*
X114111205Y-98966056D01*
X114189226Y-98777698D01*
X114229000Y-98577739D01*
X114229000Y-98373861D01*
X114189226Y-98173902D01*
X114111205Y-97985544D01*
X113997937Y-97816026D01*
X113853774Y-97671863D01*
X113684256Y-97558595D01*
X113495898Y-97480574D01*
X113295939Y-97440800D01*
X113092061Y-97440800D01*
X112892102Y-97480574D01*
X112703744Y-97558595D01*
X112534226Y-97671863D01*
X112490289Y-97715800D01*
X106384342Y-97715800D01*
X106315537Y-97612826D01*
X106171374Y-97468663D01*
X106001856Y-97355395D01*
X105813498Y-97277374D01*
X105613539Y-97237600D01*
X105409661Y-97237600D01*
X105209702Y-97277374D01*
X105021344Y-97355395D01*
X104851826Y-97468663D01*
X104707663Y-97612826D01*
X104594395Y-97782344D01*
X104516374Y-97970702D01*
X104476600Y-98170661D01*
X93820317Y-98170661D01*
X93929236Y-98125545D01*
X94098754Y-98012277D01*
X94242917Y-97868114D01*
X94356185Y-97698596D01*
X94434206Y-97510238D01*
X94473980Y-97310279D01*
X94473980Y-97178402D01*
X115247289Y-97178402D01*
X115291226Y-97222339D01*
X115460744Y-97335607D01*
X115649102Y-97413628D01*
X115849061Y-97453402D01*
X116052939Y-97453402D01*
X116252898Y-97413628D01*
X116441256Y-97335607D01*
X116610774Y-97222339D01*
X116717929Y-97115184D01*
X116857744Y-97208605D01*
X117046102Y-97286626D01*
X117246061Y-97326400D01*
X117449939Y-97326400D01*
X117649898Y-97286626D01*
X117838256Y-97208605D01*
X118007774Y-97095337D01*
X118151937Y-96951174D01*
X118265205Y-96781656D01*
X118343226Y-96593298D01*
X118383000Y-96393339D01*
X118383000Y-96189461D01*
X118343226Y-95989502D01*
X118265205Y-95801144D01*
X118151937Y-95631626D01*
X118007774Y-95487463D01*
X117838256Y-95374195D01*
X117649898Y-95296174D01*
X117449939Y-95256400D01*
X117387801Y-95256400D01*
X117022803Y-94891402D01*
X116999001Y-94862399D01*
X116883276Y-94767426D01*
X116870773Y-94760743D01*
X116909800Y-94564541D01*
X116909800Y-94360663D01*
X116870026Y-94160704D01*
X116792005Y-93972346D01*
X116746554Y-93904324D01*
X116791839Y-93836550D01*
X116869860Y-93648192D01*
X116909634Y-93448233D01*
X116909634Y-93244355D01*
X116869860Y-93044396D01*
X116791839Y-92856038D01*
X116734834Y-92770724D01*
X116777720Y-92706541D01*
X116855741Y-92518183D01*
X116895515Y-92318224D01*
X116895515Y-92114346D01*
X116879493Y-92033799D01*
X118853687Y-92033799D01*
X121699929Y-94880042D01*
X121737574Y-95069298D01*
X121815595Y-95257656D01*
X121928863Y-95427174D01*
X122073026Y-95571337D01*
X122242544Y-95684605D01*
X122430902Y-95762626D01*
X122630861Y-95802400D01*
X122834739Y-95802400D01*
X123034698Y-95762626D01*
X123223056Y-95684605D01*
X123392574Y-95571337D01*
X123536737Y-95427174D01*
X123650005Y-95257656D01*
X123728026Y-95069298D01*
X123767800Y-94869339D01*
X123767800Y-94665461D01*
X123728026Y-94465502D01*
X123650005Y-94277144D01*
X123536737Y-94107626D01*
X123392574Y-93963463D01*
X123223056Y-93850195D01*
X123034698Y-93772174D01*
X122845442Y-93734529D01*
X119790099Y-90679187D01*
X119764727Y-90648271D01*
X119641388Y-90547050D01*
X119500672Y-90471836D01*
X119372334Y-90432905D01*
X119406012Y-90321882D01*
X119418272Y-90197400D01*
X119418272Y-89503751D01*
X119428028Y-89535912D01*
X119510095Y-89689447D01*
X119620538Y-89824022D01*
X119755113Y-89934465D01*
X119908648Y-90016532D01*
X120075244Y-90067068D01*
X120248498Y-90084132D01*
X122448502Y-90084132D01*
X122621756Y-90067068D01*
X122788352Y-90016532D01*
X122941887Y-89934465D01*
X123076462Y-89824022D01*
X123101462Y-89793560D01*
X124044232Y-89793560D01*
X124093840Y-89798446D01*
X124291834Y-89778945D01*
X124471792Y-89724355D01*
X124462420Y-89741890D01*
X124432285Y-89841230D01*
X124422110Y-89944540D01*
X124424660Y-90273290D01*
X124556410Y-90405040D01*
X125549660Y-90405040D01*
X125549660Y-89549290D01*
X125803660Y-89549290D01*
X125803660Y-90405040D01*
X126664610Y-90405040D01*
X126667150Y-90407580D01*
X127660400Y-90407580D01*
X127660400Y-89551830D01*
X127528650Y-89420080D01*
X127062400Y-89417530D01*
X126959090Y-89427705D01*
X126859750Y-89457840D01*
X126768198Y-89506775D01*
X126733577Y-89535188D01*
X126695862Y-89504235D01*
X126604310Y-89455300D01*
X126504970Y-89425165D01*
X126401660Y-89414990D01*
X125935410Y-89417540D01*
X125803660Y-89549290D01*
X125549660Y-89549290D01*
X125417910Y-89417540D01*
X124951660Y-89414990D01*
X124884112Y-89421643D01*
X125352449Y-88953305D01*
X125390993Y-88921673D01*
X125517207Y-88767880D01*
X125610992Y-88592420D01*
X125668745Y-88402034D01*
X125683360Y-88253648D01*
X125683360Y-88253646D01*
X125688246Y-88204041D01*
X125683360Y-88154436D01*
X125683360Y-85432155D01*
X126006116Y-85109400D01*
X129295582Y-85109400D01*
X129281374Y-85143702D01*
G37*
%TD.AperFunction*%
D25*
X86433395Y-99423256D02*
X86546663Y-99592774D01*
X86690826Y-99736937D01*
X86860344Y-99850205D01*
X87048702Y-99928226D01*
X87248661Y-99968000D01*
X87452539Y-99968000D01*
X87636400Y-99931428D01*
X87636400Y-99987439D01*
X87676174Y-100187398D01*
X87754195Y-100375756D01*
X87786400Y-100423955D01*
X87786400Y-100887530D01*
X87782119Y-100931000D01*
X87786400Y-100974469D01*
X87786400Y-100974476D01*
X87793602Y-101047600D01*
X87799205Y-101104490D01*
X87809375Y-101138015D01*
X87849811Y-101271312D01*
X87931989Y-101425058D01*
X88042583Y-101559817D01*
X88076356Y-101587534D01*
X88280466Y-101791644D01*
X88308183Y-101825417D01*
X88442941Y-101936011D01*
X88596687Y-102018189D01*
X88763510Y-102068795D01*
X88867972Y-102079083D01*
X88906463Y-102151094D01*
X88985815Y-102247785D01*
X89082506Y-102327137D01*
X89192820Y-102386102D01*
X89300611Y-102418800D01*
X88276955Y-102418800D01*
X87438332Y-101580177D01*
X87367137Y-101473626D01*
X87222974Y-101329463D01*
X87053456Y-101216195D01*
X86865098Y-101138174D01*
X86665139Y-101098400D01*
X86461261Y-101098400D01*
X86382200Y-101114126D01*
X86382200Y-99299661D01*
X86433395Y-99423256D01*
%TA.AperFunction,Conductor*%
D26*
G36*
X86433395Y-99423256D02*
G01*
X86546663Y-99592774D01*
X86690826Y-99736937D01*
X86860344Y-99850205D01*
X87048702Y-99928226D01*
X87248661Y-99968000D01*
X87452539Y-99968000D01*
X87636400Y-99931428D01*
X87636400Y-99987439D01*
X87676174Y-100187398D01*
X87754195Y-100375756D01*
X87786400Y-100423955D01*
X87786400Y-100887530D01*
X87782119Y-100931000D01*
X87786400Y-100974469D01*
X87786400Y-100974476D01*
X87793602Y-101047600D01*
X87799205Y-101104490D01*
X87809375Y-101138015D01*
X87849811Y-101271312D01*
X87931989Y-101425058D01*
X88042583Y-101559817D01*
X88076356Y-101587534D01*
X88280466Y-101791644D01*
X88308183Y-101825417D01*
X88442941Y-101936011D01*
X88596687Y-102018189D01*
X88763510Y-102068795D01*
X88867972Y-102079083D01*
X88906463Y-102151094D01*
X88985815Y-102247785D01*
X89082506Y-102327137D01*
X89192820Y-102386102D01*
X89300611Y-102418800D01*
X88276955Y-102418800D01*
X87438332Y-101580177D01*
X87367137Y-101473626D01*
X87222974Y-101329463D01*
X87053456Y-101216195D01*
X86865098Y-101138174D01*
X86665139Y-101098400D01*
X86461261Y-101098400D01*
X86382200Y-101114126D01*
X86382200Y-99299661D01*
X86433395Y-99423256D01*
G37*
%TD.AperFunction*%
D25*
X87120199Y-88361823D02*
X86526951Y-88955071D01*
X86493184Y-88982783D01*
X86465471Y-89016551D01*
X86465468Y-89016554D01*
X86382590Y-89117541D01*
X86300412Y-89271287D01*
X86249805Y-89438110D01*
X86232719Y-89611600D01*
X86237001Y-89655079D01*
X86237001Y-90301000D01*
X84066665Y-90301000D01*
X84023199Y-90296719D01*
X83979733Y-90301000D01*
X83979723Y-90301000D01*
X83849710Y-90313805D01*
X83682887Y-90364411D01*
X83529141Y-90446589D01*
X83520464Y-90453710D01*
X83428153Y-90529468D01*
X83428151Y-90529470D01*
X83394383Y-90557183D01*
X83366670Y-90590951D01*
X81243751Y-92713871D01*
X81209984Y-92741583D01*
X81182271Y-92775351D01*
X81182268Y-92775354D01*
X81099390Y-92876341D01*
X81017212Y-93030087D01*
X80966605Y-93196910D01*
X80949519Y-93370400D01*
X80953801Y-93413879D01*
X80953800Y-97588268D01*
X80860520Y-97494988D01*
X80674624Y-97370776D01*
X80468067Y-97285217D01*
X80248788Y-97241600D01*
X80025212Y-97241600D01*
X79805933Y-97285217D01*
X79599376Y-97370776D01*
X79413480Y-97494988D01*
X79255388Y-97653080D01*
X79131176Y-97838976D01*
X79045617Y-98045533D01*
X79002000Y-98264812D01*
X79002000Y-98488388D01*
X79045617Y-98707667D01*
X79131176Y-98914224D01*
X79255388Y-99100120D01*
X79413480Y-99258212D01*
X79518439Y-99328343D01*
X79499195Y-99357144D01*
X79421174Y-99545502D01*
X79381400Y-99745461D01*
X79381400Y-99949339D01*
X79384261Y-99963722D01*
X79312518Y-99970788D01*
X79192820Y-100007098D01*
X79082506Y-100066063D01*
X78985815Y-100145415D01*
X78906463Y-100242106D01*
X78847498Y-100352420D01*
X78811188Y-100472118D01*
X78798928Y-100596600D01*
X78798928Y-101796600D01*
X78799886Y-101806331D01*
X78657800Y-101664245D01*
X78657800Y-90232755D01*
X79148196Y-89742360D01*
X79209096Y-89742360D01*
X79131176Y-89858976D01*
X79045617Y-90065533D01*
X79002000Y-90284812D01*
X79002000Y-90508388D01*
X79045617Y-90727667D01*
X79131176Y-90934224D01*
X79255388Y-91120120D01*
X79413480Y-91278212D01*
X79599376Y-91402424D01*
X79805933Y-91487983D01*
X80025212Y-91531600D01*
X80248788Y-91531600D01*
X80468067Y-91487983D01*
X80674624Y-91402424D01*
X80860520Y-91278212D01*
X81018612Y-91120120D01*
X81142824Y-90934224D01*
X81228383Y-90727667D01*
X81272000Y-90508388D01*
X81272000Y-90284812D01*
X81228383Y-90065533D01*
X81142824Y-89858976D01*
X81018612Y-89673080D01*
X80860520Y-89514988D01*
X80674624Y-89390776D01*
X80577551Y-89350567D01*
X80663045Y-89222616D01*
X80741066Y-89034258D01*
X80780840Y-88834299D01*
X80780840Y-88630421D01*
X80741066Y-88430462D01*
X80663045Y-88242104D01*
X80549777Y-88072586D01*
X80405614Y-87928423D01*
X80236096Y-87815155D01*
X80047738Y-87737134D01*
X79945214Y-87716741D01*
X80727284Y-86934672D01*
X81637000Y-86934672D01*
X81761482Y-86922412D01*
X81881180Y-86886102D01*
X81991494Y-86827137D01*
X82088185Y-86747785D01*
X82167537Y-86651094D01*
X82218046Y-86556600D01*
X85314977Y-86556600D01*
X87120199Y-88361823D01*
%TA.AperFunction,Conductor*%
D26*
G36*
X87120199Y-88361823D02*
G01*
X86526951Y-88955071D01*
X86493184Y-88982783D01*
X86465471Y-89016551D01*
X86465468Y-89016554D01*
X86382590Y-89117541D01*
X86300412Y-89271287D01*
X86249805Y-89438110D01*
X86232719Y-89611600D01*
X86237001Y-89655079D01*
X86237001Y-90301000D01*
X84066665Y-90301000D01*
X84023199Y-90296719D01*
X83979733Y-90301000D01*
X83979723Y-90301000D01*
X83849710Y-90313805D01*
X83682887Y-90364411D01*
X83529141Y-90446589D01*
X83520464Y-90453710D01*
X83428153Y-90529468D01*
X83428151Y-90529470D01*
X83394383Y-90557183D01*
X83366670Y-90590951D01*
X81243751Y-92713871D01*
X81209984Y-92741583D01*
X81182271Y-92775351D01*
X81182268Y-92775354D01*
X81099390Y-92876341D01*
X81017212Y-93030087D01*
X80966605Y-93196910D01*
X80949519Y-93370400D01*
X80953801Y-93413879D01*
X80953800Y-97588268D01*
X80860520Y-97494988D01*
X80674624Y-97370776D01*
X80468067Y-97285217D01*
X80248788Y-97241600D01*
X80025212Y-97241600D01*
X79805933Y-97285217D01*
X79599376Y-97370776D01*
X79413480Y-97494988D01*
X79255388Y-97653080D01*
X79131176Y-97838976D01*
X79045617Y-98045533D01*
X79002000Y-98264812D01*
X79002000Y-98488388D01*
X79045617Y-98707667D01*
X79131176Y-98914224D01*
X79255388Y-99100120D01*
X79413480Y-99258212D01*
X79518439Y-99328343D01*
X79499195Y-99357144D01*
X79421174Y-99545502D01*
X79381400Y-99745461D01*
X79381400Y-99949339D01*
X79384261Y-99963722D01*
X79312518Y-99970788D01*
X79192820Y-100007098D01*
X79082506Y-100066063D01*
X78985815Y-100145415D01*
X78906463Y-100242106D01*
X78847498Y-100352420D01*
X78811188Y-100472118D01*
X78798928Y-100596600D01*
X78798928Y-101796600D01*
X78799886Y-101806331D01*
X78657800Y-101664245D01*
X78657800Y-90232755D01*
X79148196Y-89742360D01*
X79209096Y-89742360D01*
X79131176Y-89858976D01*
X79045617Y-90065533D01*
X79002000Y-90284812D01*
X79002000Y-90508388D01*
X79045617Y-90727667D01*
X79131176Y-90934224D01*
X79255388Y-91120120D01*
X79413480Y-91278212D01*
X79599376Y-91402424D01*
X79805933Y-91487983D01*
X80025212Y-91531600D01*
X80248788Y-91531600D01*
X80468067Y-91487983D01*
X80674624Y-91402424D01*
X80860520Y-91278212D01*
X81018612Y-91120120D01*
X81142824Y-90934224D01*
X81228383Y-90727667D01*
X81272000Y-90508388D01*
X81272000Y-90284812D01*
X81228383Y-90065533D01*
X81142824Y-89858976D01*
X81018612Y-89673080D01*
X80860520Y-89514988D01*
X80674624Y-89390776D01*
X80577551Y-89350567D01*
X80663045Y-89222616D01*
X80741066Y-89034258D01*
X80780840Y-88834299D01*
X80780840Y-88630421D01*
X80741066Y-88430462D01*
X80663045Y-88242104D01*
X80549777Y-88072586D01*
X80405614Y-87928423D01*
X80236096Y-87815155D01*
X80047738Y-87737134D01*
X79945214Y-87716741D01*
X80727284Y-86934672D01*
X81637000Y-86934672D01*
X81761482Y-86922412D01*
X81881180Y-86886102D01*
X81991494Y-86827137D01*
X82088185Y-86747785D01*
X82167537Y-86651094D01*
X82218046Y-86556600D01*
X85314977Y-86556600D01*
X87120199Y-88361823D01*
G37*
%TD.AperFunction*%
D25*
X92043815Y-85516015D02*
X91964463Y-85612706D01*
X91905498Y-85723020D01*
X91869188Y-85842718D01*
X91856928Y-85967200D01*
X91856928Y-87667200D01*
X91869188Y-87791682D01*
X91905498Y-87911380D01*
X91964463Y-88021694D01*
X92043815Y-88118385D01*
X92140506Y-88197737D01*
X92250820Y-88256702D01*
X92323380Y-88278713D01*
X92191525Y-88410568D01*
X92029010Y-88653789D01*
X91917068Y-88924042D01*
X91860000Y-89210940D01*
X91860000Y-89503460D01*
X91917068Y-89790358D01*
X92029010Y-90060611D01*
X92191525Y-90303832D01*
X92335001Y-90447308D01*
X92335000Y-91056999D01*
X92064199Y-90786198D01*
X92062812Y-90772118D01*
X92026502Y-90652420D01*
X91967537Y-90542106D01*
X91888185Y-90445415D01*
X91791494Y-90366063D01*
X91681180Y-90307098D01*
X91561482Y-90270788D01*
X91437000Y-90258528D01*
X89837000Y-90258528D01*
X89712518Y-90270788D01*
X89592820Y-90307098D01*
X89482506Y-90366063D01*
X89385815Y-90445415D01*
X89306463Y-90542106D01*
X89247498Y-90652420D01*
X89211188Y-90772118D01*
X89198928Y-90896600D01*
X89198928Y-91596600D01*
X89211188Y-91721082D01*
X89234096Y-91796600D01*
X89211188Y-91872118D01*
X89198928Y-91996600D01*
X89198928Y-92696600D01*
X89211188Y-92821082D01*
X89234096Y-92896600D01*
X89211188Y-92972118D01*
X89198928Y-93096600D01*
X89198928Y-93796600D01*
X89211188Y-93921082D01*
X89247498Y-94040780D01*
X89306463Y-94151094D01*
X89311346Y-94157044D01*
X89307450Y-94196600D01*
X89310000Y-94287850D01*
X89441750Y-94419600D01*
X89703248Y-94419600D01*
X89712518Y-94422412D01*
X89837000Y-94434672D01*
X90784000Y-94434672D01*
X90784000Y-94658528D01*
X89837000Y-94658528D01*
X89712518Y-94670788D01*
X89703248Y-94673600D01*
X89441750Y-94673600D01*
X89310000Y-94805350D01*
X89307450Y-94896600D01*
X89311346Y-94936156D01*
X89306463Y-94942106D01*
X89247498Y-95052420D01*
X89211188Y-95172118D01*
X89198928Y-95296600D01*
X89198928Y-95869935D01*
X89138256Y-95829395D01*
X88949898Y-95751374D01*
X88749939Y-95711600D01*
X88546061Y-95711600D01*
X88346102Y-95751374D01*
X88271043Y-95782465D01*
X88007000Y-95518422D01*
X88007000Y-91724454D01*
X88039205Y-91676256D01*
X88117226Y-91487898D01*
X88157000Y-91287939D01*
X88157000Y-91084061D01*
X88117226Y-90884102D01*
X88039205Y-90695744D01*
X88007000Y-90647546D01*
X88007000Y-89978178D01*
X89950507Y-88034672D01*
X90837000Y-88034672D01*
X90961482Y-88022412D01*
X91081180Y-87986102D01*
X91191494Y-87927137D01*
X91288185Y-87847785D01*
X91367537Y-87751094D01*
X91426502Y-87640780D01*
X91462812Y-87521082D01*
X91475072Y-87396600D01*
X91475072Y-85796600D01*
X91462812Y-85672118D01*
X91456417Y-85651038D01*
X91606895Y-85500560D01*
X92062647Y-85500560D01*
X92043815Y-85516015D01*
%TA.AperFunction,Conductor*%
D26*
G36*
X92043815Y-85516015D02*
G01*
X91964463Y-85612706D01*
X91905498Y-85723020D01*
X91869188Y-85842718D01*
X91856928Y-85967200D01*
X91856928Y-87667200D01*
X91869188Y-87791682D01*
X91905498Y-87911380D01*
X91964463Y-88021694D01*
X92043815Y-88118385D01*
X92140506Y-88197737D01*
X92250820Y-88256702D01*
X92323380Y-88278713D01*
X92191525Y-88410568D01*
X92029010Y-88653789D01*
X91917068Y-88924042D01*
X91860000Y-89210940D01*
X91860000Y-89503460D01*
X91917068Y-89790358D01*
X92029010Y-90060611D01*
X92191525Y-90303832D01*
X92335001Y-90447308D01*
X92335000Y-91056999D01*
X92064199Y-90786198D01*
X92062812Y-90772118D01*
X92026502Y-90652420D01*
X91967537Y-90542106D01*
X91888185Y-90445415D01*
X91791494Y-90366063D01*
X91681180Y-90307098D01*
X91561482Y-90270788D01*
X91437000Y-90258528D01*
X89837000Y-90258528D01*
X89712518Y-90270788D01*
X89592820Y-90307098D01*
X89482506Y-90366063D01*
X89385815Y-90445415D01*
X89306463Y-90542106D01*
X89247498Y-90652420D01*
X89211188Y-90772118D01*
X89198928Y-90896600D01*
X89198928Y-91596600D01*
X89211188Y-91721082D01*
X89234096Y-91796600D01*
X89211188Y-91872118D01*
X89198928Y-91996600D01*
X89198928Y-92696600D01*
X89211188Y-92821082D01*
X89234096Y-92896600D01*
X89211188Y-92972118D01*
X89198928Y-93096600D01*
X89198928Y-93796600D01*
X89211188Y-93921082D01*
X89247498Y-94040780D01*
X89306463Y-94151094D01*
X89311346Y-94157044D01*
X89307450Y-94196600D01*
X89310000Y-94287850D01*
X89441750Y-94419600D01*
X89703248Y-94419600D01*
X89712518Y-94422412D01*
X89837000Y-94434672D01*
X90784000Y-94434672D01*
X90784000Y-94658528D01*
X89837000Y-94658528D01*
X89712518Y-94670788D01*
X89703248Y-94673600D01*
X89441750Y-94673600D01*
X89310000Y-94805350D01*
X89307450Y-94896600D01*
X89311346Y-94936156D01*
X89306463Y-94942106D01*
X89247498Y-95052420D01*
X89211188Y-95172118D01*
X89198928Y-95296600D01*
X89198928Y-95869935D01*
X89138256Y-95829395D01*
X88949898Y-95751374D01*
X88749939Y-95711600D01*
X88546061Y-95711600D01*
X88346102Y-95751374D01*
X88271043Y-95782465D01*
X88007000Y-95518422D01*
X88007000Y-91724454D01*
X88039205Y-91676256D01*
X88117226Y-91487898D01*
X88157000Y-91287939D01*
X88157000Y-91084061D01*
X88117226Y-90884102D01*
X88039205Y-90695744D01*
X88007000Y-90647546D01*
X88007000Y-89978178D01*
X89950507Y-88034672D01*
X90837000Y-88034672D01*
X90961482Y-88022412D01*
X91081180Y-87986102D01*
X91191494Y-87927137D01*
X91288185Y-87847785D01*
X91367537Y-87751094D01*
X91426502Y-87640780D01*
X91462812Y-87521082D01*
X91475072Y-87396600D01*
X91475072Y-85796600D01*
X91462812Y-85672118D01*
X91456417Y-85651038D01*
X91606895Y-85500560D01*
X92062647Y-85500560D01*
X92043815Y-85516015D01*
G37*
%TD.AperFunction*%
D25*
X96043400Y-85701693D02*
X95899925Y-85845168D01*
X95737410Y-86088389D01*
X95625468Y-86358642D01*
X95568400Y-86645540D01*
X95568400Y-86938060D01*
X95625468Y-87224958D01*
X95737410Y-87495211D01*
X95899925Y-87738432D01*
X96106768Y-87945275D01*
X96281160Y-88061800D01*
X96106768Y-88178325D01*
X95899925Y-88385168D01*
X95737410Y-88628389D01*
X95625468Y-88898642D01*
X95568400Y-89185540D01*
X95568400Y-89478060D01*
X95625468Y-89764958D01*
X95737410Y-90035211D01*
X95899925Y-90278432D01*
X96106768Y-90485275D01*
X96128280Y-90499649D01*
X96100090Y-90502425D01*
X96000750Y-90532560D01*
X95909198Y-90581495D01*
X95828952Y-90647352D01*
X95763095Y-90727598D01*
X95714160Y-90819150D01*
X95684025Y-90918490D01*
X95673850Y-91021800D01*
X95676400Y-91613050D01*
X95808150Y-91744800D01*
X96926400Y-91744800D01*
X96926400Y-91724800D01*
X97180400Y-91724800D01*
X97180400Y-91744800D01*
X98298650Y-91744800D01*
X98430400Y-91613050D01*
X98432950Y-91021800D01*
X98422775Y-90918490D01*
X98392640Y-90819150D01*
X98343705Y-90727598D01*
X98277848Y-90647352D01*
X98197602Y-90581495D01*
X98106050Y-90532560D01*
X98006710Y-90502425D01*
X97978520Y-90499649D01*
X98000032Y-90485275D01*
X98206875Y-90278432D01*
X98369390Y-90035211D01*
X98481332Y-89764958D01*
X98538400Y-89478060D01*
X98538400Y-89415580D01*
X106075530Y-89415580D01*
X106085705Y-89518890D01*
X106115840Y-89618230D01*
X106164775Y-89709782D01*
X106230632Y-89790028D01*
X106310878Y-89855885D01*
X106402430Y-89904820D01*
X106501770Y-89934955D01*
X106605080Y-89945130D01*
X107696330Y-89942580D01*
X107828080Y-89810830D01*
X107828080Y-88880080D01*
X108082080Y-88880080D01*
X108082080Y-89810830D01*
X108213830Y-89942580D01*
X109305080Y-89945130D01*
X109408390Y-89934955D01*
X109507730Y-89904820D01*
X109599282Y-89855885D01*
X109679528Y-89790028D01*
X109745385Y-89709782D01*
X109794320Y-89618230D01*
X109824455Y-89518890D01*
X109834630Y-89415580D01*
X109832080Y-89011830D01*
X109700330Y-88880080D01*
X108082080Y-88880080D01*
X107828080Y-88880080D01*
X106209830Y-88880080D01*
X106078080Y-89011830D01*
X106075530Y-89415580D01*
X98538400Y-89415580D01*
X98538400Y-89185540D01*
X98481332Y-88898642D01*
X98369390Y-88628389D01*
X98206875Y-88385168D01*
X98000032Y-88178325D01*
X97825640Y-88061800D01*
X98000032Y-87945275D01*
X98206875Y-87738432D01*
X98369390Y-87495211D01*
X98481332Y-87224958D01*
X98538400Y-86938060D01*
X98538400Y-86645540D01*
X98481332Y-86358642D01*
X98369390Y-86088389D01*
X98206875Y-85845168D01*
X98063400Y-85701693D01*
X98063400Y-85500560D01*
X105967008Y-85500560D01*
X105967008Y-86040582D01*
X105984072Y-86213836D01*
X106034608Y-86380432D01*
X106116675Y-86533967D01*
X106227118Y-86668542D01*
X106361693Y-86778985D01*
X106515228Y-86861052D01*
X106681824Y-86911588D01*
X106855078Y-86928652D01*
X107171464Y-86928652D01*
X107237447Y-87009053D01*
X107275985Y-87040681D01*
X107828078Y-87592774D01*
X107828078Y-87695328D01*
X107696330Y-87563580D01*
X106605080Y-87561030D01*
X106501770Y-87571205D01*
X106402430Y-87601340D01*
X106310878Y-87650275D01*
X106230632Y-87716132D01*
X106164775Y-87796378D01*
X106115840Y-87887930D01*
X106085705Y-87987270D01*
X106075530Y-88090580D01*
X106078080Y-88494330D01*
X106209830Y-88626080D01*
X107828080Y-88626080D01*
X107828080Y-88606080D01*
X108082080Y-88606080D01*
X108082080Y-88626080D01*
X109700330Y-88626080D01*
X109832080Y-88494330D01*
X109834208Y-88157400D01*
X109842128Y-88157400D01*
X109842128Y-89047400D01*
X109854388Y-89171882D01*
X109890698Y-89291580D01*
X109949663Y-89401894D01*
X110029015Y-89498585D01*
X110125706Y-89577937D01*
X110236020Y-89636902D01*
X110355718Y-89673212D01*
X110480200Y-89685472D01*
X112480200Y-89685472D01*
X112604682Y-89673212D01*
X112724380Y-89636902D01*
X112834694Y-89577937D01*
X112931385Y-89498585D01*
X113010737Y-89401894D01*
X113069702Y-89291580D01*
X113106012Y-89171882D01*
X113118272Y-89047400D01*
X113118272Y-88157400D01*
X116199154Y-88157400D01*
X116249663Y-88251894D01*
X116287009Y-88297400D01*
X116249663Y-88342906D01*
X116199154Y-88437400D01*
X114767404Y-88437400D01*
X114717799Y-88432514D01*
X114668194Y-88437400D01*
X114668192Y-88437400D01*
X114519806Y-88452015D01*
X114329420Y-88509768D01*
X114153960Y-88603553D01*
X114000167Y-88729767D01*
X113968539Y-88768306D01*
X111925845Y-90811000D01*
X101446408Y-90811000D01*
X101396800Y-90806114D01*
X101198805Y-90825615D01*
X101057288Y-90868544D01*
X101008420Y-90883368D01*
X100832960Y-90977153D01*
X100679167Y-91103367D01*
X100647544Y-91141900D01*
X98946445Y-92843000D01*
X98417348Y-92843000D01*
X98422775Y-92825110D01*
X98432950Y-92721800D01*
X98430400Y-92130550D01*
X98298650Y-91998800D01*
X97180400Y-91998800D01*
X97180400Y-92018800D01*
X96926400Y-92018800D01*
X96926400Y-91998800D01*
X95808150Y-91998800D01*
X95676400Y-92130550D01*
X95674724Y-92519169D01*
X94355000Y-91199445D01*
X94355000Y-90447307D01*
X94498475Y-90303832D01*
X94660990Y-90060611D01*
X94772932Y-89790358D01*
X94830000Y-89503460D01*
X94830000Y-89210940D01*
X94772932Y-88924042D01*
X94660990Y-88653789D01*
X94498475Y-88410568D01*
X94366620Y-88278713D01*
X94439180Y-88256702D01*
X94549494Y-88197737D01*
X94646185Y-88118385D01*
X94725537Y-88021694D01*
X94784502Y-87911380D01*
X94820812Y-87791682D01*
X94833072Y-87667200D01*
X94833072Y-85967200D01*
X94820812Y-85842718D01*
X94784502Y-85723020D01*
X94725537Y-85612706D01*
X94646185Y-85516015D01*
X94627353Y-85500560D01*
X96043401Y-85500560D01*
X96043400Y-85701693D01*
%TA.AperFunction,Conductor*%
D26*
G36*
X96043400Y-85701693D02*
G01*
X95899925Y-85845168D01*
X95737410Y-86088389D01*
X95625468Y-86358642D01*
X95568400Y-86645540D01*
X95568400Y-86938060D01*
X95625468Y-87224958D01*
X95737410Y-87495211D01*
X95899925Y-87738432D01*
X96106768Y-87945275D01*
X96281160Y-88061800D01*
X96106768Y-88178325D01*
X95899925Y-88385168D01*
X95737410Y-88628389D01*
X95625468Y-88898642D01*
X95568400Y-89185540D01*
X95568400Y-89478060D01*
X95625468Y-89764958D01*
X95737410Y-90035211D01*
X95899925Y-90278432D01*
X96106768Y-90485275D01*
X96128280Y-90499649D01*
X96100090Y-90502425D01*
X96000750Y-90532560D01*
X95909198Y-90581495D01*
X95828952Y-90647352D01*
X95763095Y-90727598D01*
X95714160Y-90819150D01*
X95684025Y-90918490D01*
X95673850Y-91021800D01*
X95676400Y-91613050D01*
X95808150Y-91744800D01*
X96926400Y-91744800D01*
X96926400Y-91724800D01*
X97180400Y-91724800D01*
X97180400Y-91744800D01*
X98298650Y-91744800D01*
X98430400Y-91613050D01*
X98432950Y-91021800D01*
X98422775Y-90918490D01*
X98392640Y-90819150D01*
X98343705Y-90727598D01*
X98277848Y-90647352D01*
X98197602Y-90581495D01*
X98106050Y-90532560D01*
X98006710Y-90502425D01*
X97978520Y-90499649D01*
X98000032Y-90485275D01*
X98206875Y-90278432D01*
X98369390Y-90035211D01*
X98481332Y-89764958D01*
X98538400Y-89478060D01*
X98538400Y-89415580D01*
X106075530Y-89415580D01*
X106085705Y-89518890D01*
X106115840Y-89618230D01*
X106164775Y-89709782D01*
X106230632Y-89790028D01*
X106310878Y-89855885D01*
X106402430Y-89904820D01*
X106501770Y-89934955D01*
X106605080Y-89945130D01*
X107696330Y-89942580D01*
X107828080Y-89810830D01*
X107828080Y-88880080D01*
X108082080Y-88880080D01*
X108082080Y-89810830D01*
X108213830Y-89942580D01*
X109305080Y-89945130D01*
X109408390Y-89934955D01*
X109507730Y-89904820D01*
X109599282Y-89855885D01*
X109679528Y-89790028D01*
X109745385Y-89709782D01*
X109794320Y-89618230D01*
X109824455Y-89518890D01*
X109834630Y-89415580D01*
X109832080Y-89011830D01*
X109700330Y-88880080D01*
X108082080Y-88880080D01*
X107828080Y-88880080D01*
X106209830Y-88880080D01*
X106078080Y-89011830D01*
X106075530Y-89415580D01*
X98538400Y-89415580D01*
X98538400Y-89185540D01*
X98481332Y-88898642D01*
X98369390Y-88628389D01*
X98206875Y-88385168D01*
X98000032Y-88178325D01*
X97825640Y-88061800D01*
X98000032Y-87945275D01*
X98206875Y-87738432D01*
X98369390Y-87495211D01*
X98481332Y-87224958D01*
X98538400Y-86938060D01*
X98538400Y-86645540D01*
X98481332Y-86358642D01*
X98369390Y-86088389D01*
X98206875Y-85845168D01*
X98063400Y-85701693D01*
X98063400Y-85500560D01*
X105967008Y-85500560D01*
X105967008Y-86040582D01*
X105984072Y-86213836D01*
X106034608Y-86380432D01*
X106116675Y-86533967D01*
X106227118Y-86668542D01*
X106361693Y-86778985D01*
X106515228Y-86861052D01*
X106681824Y-86911588D01*
X106855078Y-86928652D01*
X107171464Y-86928652D01*
X107237447Y-87009053D01*
X107275985Y-87040681D01*
X107828078Y-87592774D01*
X107828078Y-87695328D01*
X107696330Y-87563580D01*
X106605080Y-87561030D01*
X106501770Y-87571205D01*
X106402430Y-87601340D01*
X106310878Y-87650275D01*
X106230632Y-87716132D01*
X106164775Y-87796378D01*
X106115840Y-87887930D01*
X106085705Y-87987270D01*
X106075530Y-88090580D01*
X106078080Y-88494330D01*
X106209830Y-88626080D01*
X107828080Y-88626080D01*
X107828080Y-88606080D01*
X108082080Y-88606080D01*
X108082080Y-88626080D01*
X109700330Y-88626080D01*
X109832080Y-88494330D01*
X109834208Y-88157400D01*
X109842128Y-88157400D01*
X109842128Y-89047400D01*
X109854388Y-89171882D01*
X109890698Y-89291580D01*
X109949663Y-89401894D01*
X110029015Y-89498585D01*
X110125706Y-89577937D01*
X110236020Y-89636902D01*
X110355718Y-89673212D01*
X110480200Y-89685472D01*
X112480200Y-89685472D01*
X112604682Y-89673212D01*
X112724380Y-89636902D01*
X112834694Y-89577937D01*
X112931385Y-89498585D01*
X113010737Y-89401894D01*
X113069702Y-89291580D01*
X113106012Y-89171882D01*
X113118272Y-89047400D01*
X113118272Y-88157400D01*
X116199154Y-88157400D01*
X116249663Y-88251894D01*
X116287009Y-88297400D01*
X116249663Y-88342906D01*
X116199154Y-88437400D01*
X114767404Y-88437400D01*
X114717799Y-88432514D01*
X114668194Y-88437400D01*
X114668192Y-88437400D01*
X114519806Y-88452015D01*
X114329420Y-88509768D01*
X114153960Y-88603553D01*
X114000167Y-88729767D01*
X113968539Y-88768306D01*
X111925845Y-90811000D01*
X101446408Y-90811000D01*
X101396800Y-90806114D01*
X101198805Y-90825615D01*
X101057288Y-90868544D01*
X101008420Y-90883368D01*
X100832960Y-90977153D01*
X100679167Y-91103367D01*
X100647544Y-91141900D01*
X98946445Y-92843000D01*
X98417348Y-92843000D01*
X98422775Y-92825110D01*
X98432950Y-92721800D01*
X98430400Y-92130550D01*
X98298650Y-91998800D01*
X97180400Y-91998800D01*
X97180400Y-92018800D01*
X96926400Y-92018800D01*
X96926400Y-91998800D01*
X95808150Y-91998800D01*
X95676400Y-92130550D01*
X95674724Y-92519169D01*
X94355000Y-91199445D01*
X94355000Y-90447307D01*
X94498475Y-90303832D01*
X94660990Y-90060611D01*
X94772932Y-89790358D01*
X94830000Y-89503460D01*
X94830000Y-89210940D01*
X94772932Y-88924042D01*
X94660990Y-88653789D01*
X94498475Y-88410568D01*
X94366620Y-88278713D01*
X94439180Y-88256702D01*
X94549494Y-88197737D01*
X94646185Y-88118385D01*
X94725537Y-88021694D01*
X94784502Y-87911380D01*
X94820812Y-87791682D01*
X94833072Y-87667200D01*
X94833072Y-85967200D01*
X94820812Y-85842718D01*
X94784502Y-85723020D01*
X94725537Y-85612706D01*
X94646185Y-85516015D01*
X94627353Y-85500560D01*
X96043401Y-85500560D01*
X96043400Y-85701693D01*
G37*
%TD.AperFunction*%
D25*
X149989801Y-85458534D02*
X149989801Y-88985745D01*
X148442641Y-87438586D01*
X148411013Y-87400047D01*
X148271847Y-87285837D01*
X148355217Y-87217417D01*
X148382934Y-87183644D01*
X148415943Y-87150635D01*
X148472798Y-87139326D01*
X148661156Y-87061305D01*
X148830674Y-86948037D01*
X148974837Y-86803874D01*
X149088105Y-86634356D01*
X149166126Y-86445998D01*
X149205900Y-86246039D01*
X149205900Y-86042161D01*
X149166126Y-85842202D01*
X149088105Y-85653844D01*
X148974837Y-85484326D01*
X148830674Y-85340163D01*
X148661156Y-85226895D01*
X148472798Y-85148874D01*
X148272839Y-85109100D01*
X148068961Y-85109100D01*
X147869002Y-85148874D01*
X147861489Y-85151986D01*
X147859500Y-84807730D01*
X147727750Y-84675980D01*
X146859500Y-84675980D01*
X146859500Y-84695980D01*
X146605500Y-84695980D01*
X146605500Y-84675980D01*
X146585500Y-84675980D01*
X146585500Y-84421980D01*
X146605500Y-84421980D01*
X146605500Y-84401980D01*
X146859500Y-84401980D01*
X146859500Y-84421980D01*
X147727750Y-84421980D01*
X147859500Y-84290230D01*
X147861969Y-83862920D01*
X148394188Y-83862920D01*
X149989801Y-85458534D01*
%TA.AperFunction,Conductor*%
D26*
G36*
X149989801Y-85458534D02*
G01*
X149989801Y-88985745D01*
X148442641Y-87438586D01*
X148411013Y-87400047D01*
X148271847Y-87285837D01*
X148355217Y-87217417D01*
X148382934Y-87183644D01*
X148415943Y-87150635D01*
X148472798Y-87139326D01*
X148661156Y-87061305D01*
X148830674Y-86948037D01*
X148974837Y-86803874D01*
X149088105Y-86634356D01*
X149166126Y-86445998D01*
X149205900Y-86246039D01*
X149205900Y-86042161D01*
X149166126Y-85842202D01*
X149088105Y-85653844D01*
X148974837Y-85484326D01*
X148830674Y-85340163D01*
X148661156Y-85226895D01*
X148472798Y-85148874D01*
X148272839Y-85109100D01*
X148068961Y-85109100D01*
X147869002Y-85148874D01*
X147861489Y-85151986D01*
X147859500Y-84807730D01*
X147727750Y-84675980D01*
X146859500Y-84675980D01*
X146859500Y-84695980D01*
X146605500Y-84695980D01*
X146605500Y-84675980D01*
X146585500Y-84675980D01*
X146585500Y-84421980D01*
X146605500Y-84421980D01*
X146605500Y-84401980D01*
X146859500Y-84401980D01*
X146859500Y-84421980D01*
X147727750Y-84421980D01*
X147859500Y-84290230D01*
X147861969Y-83862920D01*
X148394188Y-83862920D01*
X149989801Y-85458534D01*
G37*
%TD.AperFunction*%
%TD*%
M02*
