%TF.GenerationSoftware,KiCad,Pcbnew,(5.1.10)-1*%
%TF.CreationDate,2021-08-29T21:18:51+07:00*%
%TF.ProjectId,stm32f405rgt6_Mini,73746d33-3266-4343-9035-726774365f4d,rev?*%
%TF.SameCoordinates,Original*%
%TF.FileFunction,Other,Fab,Top*%
%FSLAX46Y46*%
G04 Gerber Fmt 4.6, Leading zero omitted, Abs format (unit mm)*
G04 Created by KiCad (PCBNEW (5.1.10)-1) date 2021-08-29 21:18:51*
%MOMM*%
%LPD*%
G01*
G04 APERTURE LIST*
%ADD10C,0.100000*%
%ADD11C,0.200000*%
%ADD12C,0.150000*%
%ADD13C,0.080000*%
%ADD14C,0.120000*%
%ADD15C,0.254000*%
G04 APERTURE END LIST*
D10*
%TO.C,C2*%
X95511780Y-97156780D02*
X94261780Y-97156780D01*
X94261780Y-97156780D02*
X94261780Y-95156780D01*
X94261780Y-95156780D02*
X95511780Y-95156780D01*
X95511780Y-95156780D02*
X95511780Y-97156780D01*
%TO.C,C4*%
X75819760Y-101849080D02*
X75819760Y-100599080D01*
X75819760Y-100599080D02*
X77819760Y-100599080D01*
X77819760Y-100599080D02*
X77819760Y-101849080D01*
X77819760Y-101849080D02*
X75819760Y-101849080D01*
%TO.C,C5*%
X82296200Y-88702200D02*
X82296200Y-86202200D01*
X82296200Y-86202200D02*
X85496200Y-86202200D01*
X85496200Y-86202200D02*
X85496200Y-88702200D01*
X85496200Y-88702200D02*
X82296200Y-88702200D01*
%TO.C,C6*%
X77809600Y-85054280D02*
X77809600Y-86304280D01*
X77809600Y-86304280D02*
X75809600Y-86304280D01*
X75809600Y-86304280D02*
X75809600Y-85054280D01*
X75809600Y-85054280D02*
X77809600Y-85054280D01*
%TO.C,C14*%
X136777220Y-103817580D02*
X136777220Y-102567580D01*
X136777220Y-102567580D02*
X138777220Y-102567580D01*
X138777220Y-102567580D02*
X138777220Y-103817580D01*
X138777220Y-103817580D02*
X136777220Y-103817580D01*
%TO.C,C16*%
X104892000Y-89188800D02*
X103642000Y-89188800D01*
X103642000Y-89188800D02*
X103642000Y-87188800D01*
X103642000Y-87188800D02*
X104892000Y-87188800D01*
X104892000Y-87188800D02*
X104892000Y-89188800D01*
%TO.C,C17*%
X97637760Y-97166940D02*
X96387760Y-97166940D01*
X96387760Y-97166940D02*
X96387760Y-95166940D01*
X96387760Y-95166940D02*
X97637760Y-95166940D01*
X97637760Y-95166940D02*
X97637760Y-97166940D01*
%TO.C,PC13_LED*%
X142136620Y-84497620D02*
X142136620Y-85697620D01*
X144136620Y-84497620D02*
X142136620Y-84497620D01*
X144136620Y-85397620D02*
X144136620Y-84497620D01*
X143836620Y-85697620D02*
X144136620Y-85397620D01*
X142136620Y-85697620D02*
X143836620Y-85697620D01*
%TO.C,PWR*%
X88227460Y-95000320D02*
X88227460Y-93300320D01*
X88227460Y-93300320D02*
X87927460Y-93000320D01*
X87927460Y-93000320D02*
X87027460Y-93000320D01*
X87027460Y-93000320D02*
X87027460Y-95000320D01*
X87027460Y-95000320D02*
X88227460Y-95000320D01*
%TO.C,SWD PROG*%
X145789780Y-91081860D02*
X147694780Y-91081860D01*
X147694780Y-91081860D02*
X147694780Y-103781860D01*
X147694780Y-103781860D02*
X145154780Y-103781860D01*
X145154780Y-103781860D02*
X145154780Y-91716860D01*
X145154780Y-91716860D02*
X145789780Y-91081860D01*
X143334780Y-92031860D02*
X145154780Y-92031860D01*
X143334780Y-92031860D02*
X143334780Y-92671860D01*
X143334780Y-92671860D02*
X145154780Y-92671860D01*
X147694780Y-92031860D02*
X153694780Y-92031860D01*
X153694780Y-92031860D02*
X153694780Y-92671860D01*
X147694780Y-92671860D02*
X153694780Y-92671860D01*
X143334780Y-94571860D02*
X145154780Y-94571860D01*
X143334780Y-94571860D02*
X143334780Y-95211860D01*
X143334780Y-95211860D02*
X145154780Y-95211860D01*
X147694780Y-94571860D02*
X153694780Y-94571860D01*
X153694780Y-94571860D02*
X153694780Y-95211860D01*
X147694780Y-95211860D02*
X153694780Y-95211860D01*
X143334780Y-97111860D02*
X145154780Y-97111860D01*
X143334780Y-97111860D02*
X143334780Y-97751860D01*
X143334780Y-97751860D02*
X145154780Y-97751860D01*
X147694780Y-97111860D02*
X153694780Y-97111860D01*
X153694780Y-97111860D02*
X153694780Y-97751860D01*
X147694780Y-97751860D02*
X153694780Y-97751860D01*
X143334780Y-99651860D02*
X145154780Y-99651860D01*
X143334780Y-99651860D02*
X143334780Y-100291860D01*
X143334780Y-100291860D02*
X145154780Y-100291860D01*
X147694780Y-99651860D02*
X153694780Y-99651860D01*
X153694780Y-99651860D02*
X153694780Y-100291860D01*
X147694780Y-100291860D02*
X153694780Y-100291860D01*
X143334780Y-102191860D02*
X145154780Y-102191860D01*
X143334780Y-102191860D02*
X143334780Y-102831860D01*
X143334780Y-102831860D02*
X145154780Y-102831860D01*
X147694780Y-102191860D02*
X153694780Y-102191860D01*
X153694780Y-102191860D02*
X153694780Y-102831860D01*
X147694780Y-102831860D02*
X153694780Y-102831860D01*
%TO.C,USB*%
X77145760Y-92700320D02*
X77545760Y-93100320D01*
X77545760Y-93100320D02*
X77545760Y-92300320D01*
X77545760Y-92300320D02*
X77145760Y-92700320D01*
X71245760Y-90250320D02*
X76845760Y-90250320D01*
X71245760Y-97750320D02*
X71245760Y-90250320D01*
X76845760Y-97750320D02*
X71245760Y-97750320D01*
X76845760Y-90250320D02*
X76845760Y-97750320D01*
X72545760Y-91400320D02*
X72545760Y-96600320D01*
%TO.C,VBat*%
X126098300Y-101917500D02*
X125463300Y-101282500D01*
X130543300Y-101917500D02*
X126098300Y-101917500D01*
X130543300Y-99377500D02*
X130543300Y-101917500D01*
X125463300Y-99377500D02*
X130543300Y-99377500D01*
X125463300Y-101282500D02*
X125463300Y-99377500D01*
%TO.C,5V_IN*%
X92710000Y-85547200D02*
X94615000Y-85547200D01*
X94615000Y-85547200D02*
X94615000Y-90627200D01*
X94615000Y-90627200D02*
X92075000Y-90627200D01*
X92075000Y-90627200D02*
X92075000Y-86182200D01*
X92075000Y-86182200D02*
X92710000Y-85547200D01*
%TO.C,R1*%
X84947000Y-93857920D02*
X84947000Y-95107920D01*
X84947000Y-95107920D02*
X82947000Y-95107920D01*
X82947000Y-95107920D02*
X82947000Y-93857920D01*
X82947000Y-93857920D02*
X84947000Y-93857920D01*
%TO.C,R2*%
X82936840Y-91754800D02*
X84936840Y-91754800D01*
X82936840Y-93004800D02*
X82936840Y-91754800D01*
X84936840Y-93004800D02*
X82936840Y-93004800D01*
X84936840Y-91754800D02*
X84936840Y-93004800D01*
%TO.C,R4*%
X84921600Y-89646600D02*
X84921600Y-90896600D01*
X84921600Y-90896600D02*
X82921600Y-90896600D01*
X82921600Y-90896600D02*
X82921600Y-89646600D01*
X82921600Y-89646600D02*
X84921600Y-89646600D01*
%TO.C,R5*%
X82947000Y-95945800D02*
X84947000Y-95945800D01*
X82947000Y-97195800D02*
X82947000Y-95945800D01*
X84947000Y-97195800D02*
X82947000Y-97195800D01*
X84947000Y-95945800D02*
X84947000Y-97195800D01*
%TO.C,R6*%
X89009060Y-93023180D02*
X90259060Y-93023180D01*
X90259060Y-93023180D02*
X90259060Y-95023180D01*
X90259060Y-95023180D02*
X89009060Y-95023180D01*
X89009060Y-95023180D02*
X89009060Y-93023180D01*
%TO.C,R9*%
X99745960Y-95159320D02*
X99745960Y-97159320D01*
X98495960Y-95159320D02*
X99745960Y-95159320D01*
X98495960Y-97159320D02*
X98495960Y-95159320D01*
X99745960Y-97159320D02*
X98495960Y-97159320D01*
%TO.C,STM32F405RG*%
X120466760Y-94693108D02*
X114102799Y-101057069D01*
X114102799Y-101057069D02*
X107031731Y-93986001D01*
X107031731Y-93986001D02*
X114102799Y-86914933D01*
X114102799Y-86914933D02*
X120466760Y-93278894D01*
X120466760Y-93278894D02*
X120466760Y-94693108D01*
%TO.C,8-25MHz*%
X137399000Y-89268800D02*
X137399000Y-84568800D01*
X137399000Y-84568800D02*
X125999000Y-84568800D01*
X125999000Y-84568800D02*
X125999000Y-89268800D01*
X125999000Y-89268800D02*
X137399000Y-89268800D01*
X134714000Y-89033800D02*
X128684000Y-89033800D01*
X134714000Y-84803800D02*
X128684000Y-84803800D01*
X134714000Y-84803800D02*
G75*
G02*
X134714000Y-89033800I0J-2115000D01*
G01*
X128684000Y-84803800D02*
G75*
G03*
X128684000Y-89033800I0J-2115000D01*
G01*
D11*
%TO.C,32.768KHz*%
X126390600Y-98195900D02*
X126390600Y-90195900D01*
X126390600Y-90195900D02*
X129590600Y-90195900D01*
X129590600Y-90195900D02*
X129590600Y-98195900D01*
X129590600Y-98195900D02*
X126390600Y-98195900D01*
D10*
%TO.C,W25Qxx*%
X137936800Y-93371600D02*
X138936800Y-94371600D01*
X133706800Y-93371600D02*
X137936800Y-93371600D01*
X133706800Y-98601600D02*
X133706800Y-93371600D01*
X138936800Y-98601600D02*
X133706800Y-98601600D01*
X138936800Y-94371600D02*
X138936800Y-98601600D01*
%TO.C,RESET*%
X150677020Y-87749640D02*
X147077020Y-87749640D01*
X150677020Y-81749640D02*
X147077020Y-81749640D01*
X150677020Y-81749640D02*
X150677020Y-87749640D01*
X147077020Y-81749640D02*
X147077020Y-87749640D01*
X149677020Y-83249640D02*
X148077020Y-83249640D01*
X149677020Y-86249640D02*
X148077020Y-86249640D01*
X149677020Y-83249640D02*
X149677020Y-86249640D01*
X148077020Y-83249640D02*
X148077020Y-86249640D01*
X147877020Y-82999640D02*
X149877020Y-82999640D01*
X147877020Y-86499640D02*
X147877020Y-82999640D01*
X149877020Y-86499640D02*
X147877020Y-86499640D01*
X149877020Y-82999640D02*
X149877020Y-86499640D01*
%TO.C,BOOT0*%
X97688400Y-93141800D02*
X95783400Y-93141800D01*
X95783400Y-93141800D02*
X95783400Y-85521800D01*
X95783400Y-85521800D02*
X98323400Y-85521800D01*
X98323400Y-85521800D02*
X98323400Y-92506800D01*
X98323400Y-92506800D02*
X97688400Y-93141800D01*
%TO.C,.*%
X143093440Y-78933040D02*
X143728440Y-79568040D01*
X72608440Y-78933040D02*
X143093440Y-78933040D01*
X72608440Y-81473040D02*
X72608440Y-78933040D01*
X143728440Y-81473040D02*
X72608440Y-81473040D01*
X143728440Y-79568040D02*
X143728440Y-81473040D01*
X72654160Y-108351320D02*
X72654160Y-106446320D01*
X72654160Y-106446320D02*
X143774160Y-106446320D01*
X143774160Y-106446320D02*
X143774160Y-108986320D01*
X143774160Y-108986320D02*
X73289160Y-108986320D01*
X73289160Y-108986320D02*
X72654160Y-108351320D01*
%TD*%
%TO.C,C2*%
D12*
X97019160Y-97704399D02*
X97019160Y-98275827D01*
X97019160Y-97990113D02*
X96019160Y-97990113D01*
X96162018Y-98085351D01*
X96257256Y-98180589D01*
X96304875Y-98275827D01*
X96019160Y-97085351D02*
X96019160Y-96990113D01*
X96066780Y-96894875D01*
X96114399Y-96847256D01*
X96209637Y-96799637D01*
X96400113Y-96752018D01*
X96638208Y-96752018D01*
X96828684Y-96799637D01*
X96923922Y-96847256D01*
X96971541Y-96894875D01*
X97019160Y-96990113D01*
X97019160Y-97085351D01*
X96971541Y-97180589D01*
X96923922Y-97228208D01*
X96828684Y-97275827D01*
X96638208Y-97323446D01*
X96400113Y-97323446D01*
X96209637Y-97275827D01*
X96114399Y-97228208D01*
X96066780Y-97180589D01*
X96019160Y-97085351D01*
X96019160Y-96132970D02*
X96019160Y-96037732D01*
X96066780Y-95942494D01*
X96114399Y-95894875D01*
X96209637Y-95847256D01*
X96400113Y-95799637D01*
X96638208Y-95799637D01*
X96828684Y-95847256D01*
X96923922Y-95894875D01*
X96971541Y-95942494D01*
X97019160Y-96037732D01*
X97019160Y-96132970D01*
X96971541Y-96228208D01*
X96923922Y-96275827D01*
X96828684Y-96323446D01*
X96638208Y-96371065D01*
X96400113Y-96371065D01*
X96209637Y-96323446D01*
X96114399Y-96275827D01*
X96066780Y-96228208D01*
X96019160Y-96132970D01*
X96352494Y-95371065D02*
X97019160Y-95371065D01*
X96447732Y-95371065D02*
X96400113Y-95323446D01*
X96352494Y-95228208D01*
X96352494Y-95085351D01*
X96400113Y-94990113D01*
X96495351Y-94942494D01*
X97019160Y-94942494D01*
X96495351Y-94132970D02*
X96495351Y-94466303D01*
X97019160Y-94466303D02*
X96019160Y-94466303D01*
X96019160Y-93990113D01*
D13*
X95065351Y-96240113D02*
X95089160Y-96263922D01*
X95112970Y-96335351D01*
X95112970Y-96382970D01*
X95089160Y-96454399D01*
X95041541Y-96502018D01*
X94993922Y-96525827D01*
X94898684Y-96549637D01*
X94827256Y-96549637D01*
X94732018Y-96525827D01*
X94684399Y-96502018D01*
X94636780Y-96454399D01*
X94612970Y-96382970D01*
X94612970Y-96335351D01*
X94636780Y-96263922D01*
X94660589Y-96240113D01*
X94660589Y-96049637D02*
X94636780Y-96025827D01*
X94612970Y-95978208D01*
X94612970Y-95859160D01*
X94636780Y-95811541D01*
X94660589Y-95787732D01*
X94708208Y-95763922D01*
X94755827Y-95763922D01*
X94827256Y-95787732D01*
X95112970Y-96073446D01*
X95112970Y-95763922D01*
%TO.C,C4*%
D12*
X75272140Y-103356460D02*
X74700712Y-103356460D01*
X74986426Y-103356460D02*
X74986426Y-102356460D01*
X74891188Y-102499318D01*
X74795950Y-102594556D01*
X74700712Y-102642175D01*
X75891188Y-102356460D02*
X75986426Y-102356460D01*
X76081664Y-102404080D01*
X76129283Y-102451699D01*
X76176902Y-102546937D01*
X76224521Y-102737413D01*
X76224521Y-102975508D01*
X76176902Y-103165984D01*
X76129283Y-103261222D01*
X76081664Y-103308841D01*
X75986426Y-103356460D01*
X75891188Y-103356460D01*
X75795950Y-103308841D01*
X75748331Y-103261222D01*
X75700712Y-103165984D01*
X75653093Y-102975508D01*
X75653093Y-102737413D01*
X75700712Y-102546937D01*
X75748331Y-102451699D01*
X75795950Y-102404080D01*
X75891188Y-102356460D01*
X76843569Y-102356460D02*
X76938807Y-102356460D01*
X77034045Y-102404080D01*
X77081664Y-102451699D01*
X77129283Y-102546937D01*
X77176902Y-102737413D01*
X77176902Y-102975508D01*
X77129283Y-103165984D01*
X77081664Y-103261222D01*
X77034045Y-103308841D01*
X76938807Y-103356460D01*
X76843569Y-103356460D01*
X76748331Y-103308841D01*
X76700712Y-103261222D01*
X76653093Y-103165984D01*
X76605474Y-102975508D01*
X76605474Y-102737413D01*
X76653093Y-102546937D01*
X76700712Y-102451699D01*
X76748331Y-102404080D01*
X76843569Y-102356460D01*
X77605474Y-102689794D02*
X77605474Y-103356460D01*
X77605474Y-102785032D02*
X77653093Y-102737413D01*
X77748331Y-102689794D01*
X77891188Y-102689794D01*
X77986426Y-102737413D01*
X78034045Y-102832651D01*
X78034045Y-103356460D01*
X78843569Y-102832651D02*
X78510236Y-102832651D01*
X78510236Y-103356460D02*
X78510236Y-102356460D01*
X78986426Y-102356460D01*
D13*
X76736426Y-101402651D02*
X76712617Y-101426460D01*
X76641188Y-101450270D01*
X76593569Y-101450270D01*
X76522140Y-101426460D01*
X76474521Y-101378841D01*
X76450712Y-101331222D01*
X76426902Y-101235984D01*
X76426902Y-101164556D01*
X76450712Y-101069318D01*
X76474521Y-101021699D01*
X76522140Y-100974080D01*
X76593569Y-100950270D01*
X76641188Y-100950270D01*
X76712617Y-100974080D01*
X76736426Y-100997889D01*
X77164998Y-101116937D02*
X77164998Y-101450270D01*
X77045950Y-100926460D02*
X76926902Y-101283603D01*
X77236426Y-101283603D01*
%TO.C,C5*%
D12*
X82348580Y-90204580D02*
X81777152Y-90204580D01*
X82062866Y-90204580D02*
X82062866Y-89204580D01*
X81967628Y-89347438D01*
X81872390Y-89442676D01*
X81777152Y-89490295D01*
X82967628Y-89204580D02*
X83062866Y-89204580D01*
X83158104Y-89252200D01*
X83205723Y-89299819D01*
X83253342Y-89395057D01*
X83300961Y-89585533D01*
X83300961Y-89823628D01*
X83253342Y-90014104D01*
X83205723Y-90109342D01*
X83158104Y-90156961D01*
X83062866Y-90204580D01*
X82967628Y-90204580D01*
X82872390Y-90156961D01*
X82824771Y-90109342D01*
X82777152Y-90014104D01*
X82729533Y-89823628D01*
X82729533Y-89585533D01*
X82777152Y-89395057D01*
X82824771Y-89299819D01*
X82872390Y-89252200D01*
X82967628Y-89204580D01*
X83920009Y-89204580D02*
X84015247Y-89204580D01*
X84110485Y-89252200D01*
X84158104Y-89299819D01*
X84205723Y-89395057D01*
X84253342Y-89585533D01*
X84253342Y-89823628D01*
X84205723Y-90014104D01*
X84158104Y-90109342D01*
X84110485Y-90156961D01*
X84015247Y-90204580D01*
X83920009Y-90204580D01*
X83824771Y-90156961D01*
X83777152Y-90109342D01*
X83729533Y-90014104D01*
X83681914Y-89823628D01*
X83681914Y-89585533D01*
X83729533Y-89395057D01*
X83777152Y-89299819D01*
X83824771Y-89252200D01*
X83920009Y-89204580D01*
X85110485Y-89537914D02*
X85110485Y-90204580D01*
X84681914Y-89537914D02*
X84681914Y-90061723D01*
X84729533Y-90156961D01*
X84824771Y-90204580D01*
X84967628Y-90204580D01*
X85062866Y-90156961D01*
X85110485Y-90109342D01*
X85920009Y-89680771D02*
X85586676Y-89680771D01*
X85586676Y-90204580D02*
X85586676Y-89204580D01*
X86062866Y-89204580D01*
D14*
X83762866Y-87737914D02*
X83724771Y-87776009D01*
X83610485Y-87814104D01*
X83534295Y-87814104D01*
X83420009Y-87776009D01*
X83343819Y-87699819D01*
X83305723Y-87623628D01*
X83267628Y-87471247D01*
X83267628Y-87356961D01*
X83305723Y-87204580D01*
X83343819Y-87128390D01*
X83420009Y-87052200D01*
X83534295Y-87014104D01*
X83610485Y-87014104D01*
X83724771Y-87052200D01*
X83762866Y-87090295D01*
X84486676Y-87014104D02*
X84105723Y-87014104D01*
X84067628Y-87395057D01*
X84105723Y-87356961D01*
X84181914Y-87318866D01*
X84372390Y-87318866D01*
X84448580Y-87356961D01*
X84486676Y-87395057D01*
X84524771Y-87471247D01*
X84524771Y-87661723D01*
X84486676Y-87737914D01*
X84448580Y-87776009D01*
X84372390Y-87814104D01*
X84181914Y-87814104D01*
X84105723Y-87776009D01*
X84067628Y-87737914D01*
%TO.C,C6*%
D12*
X75261980Y-84451660D02*
X74690552Y-84451660D01*
X74976266Y-84451660D02*
X74976266Y-83451660D01*
X74881028Y-83594518D01*
X74785790Y-83689756D01*
X74690552Y-83737375D01*
X75881028Y-83451660D02*
X75976266Y-83451660D01*
X76071504Y-83499280D01*
X76119123Y-83546899D01*
X76166742Y-83642137D01*
X76214361Y-83832613D01*
X76214361Y-84070708D01*
X76166742Y-84261184D01*
X76119123Y-84356422D01*
X76071504Y-84404041D01*
X75976266Y-84451660D01*
X75881028Y-84451660D01*
X75785790Y-84404041D01*
X75738171Y-84356422D01*
X75690552Y-84261184D01*
X75642933Y-84070708D01*
X75642933Y-83832613D01*
X75690552Y-83642137D01*
X75738171Y-83546899D01*
X75785790Y-83499280D01*
X75881028Y-83451660D01*
X76833409Y-83451660D02*
X76928647Y-83451660D01*
X77023885Y-83499280D01*
X77071504Y-83546899D01*
X77119123Y-83642137D01*
X77166742Y-83832613D01*
X77166742Y-84070708D01*
X77119123Y-84261184D01*
X77071504Y-84356422D01*
X77023885Y-84404041D01*
X76928647Y-84451660D01*
X76833409Y-84451660D01*
X76738171Y-84404041D01*
X76690552Y-84356422D01*
X76642933Y-84261184D01*
X76595314Y-84070708D01*
X76595314Y-83832613D01*
X76642933Y-83642137D01*
X76690552Y-83546899D01*
X76738171Y-83499280D01*
X76833409Y-83451660D01*
X77595314Y-83784994D02*
X77595314Y-84451660D01*
X77595314Y-83880232D02*
X77642933Y-83832613D01*
X77738171Y-83784994D01*
X77881028Y-83784994D01*
X77976266Y-83832613D01*
X78023885Y-83927851D01*
X78023885Y-84451660D01*
X78833409Y-83927851D02*
X78500076Y-83927851D01*
X78500076Y-84451660D02*
X78500076Y-83451660D01*
X78976266Y-83451660D01*
D13*
X76726266Y-85857851D02*
X76702457Y-85881660D01*
X76631028Y-85905470D01*
X76583409Y-85905470D01*
X76511980Y-85881660D01*
X76464361Y-85834041D01*
X76440552Y-85786422D01*
X76416742Y-85691184D01*
X76416742Y-85619756D01*
X76440552Y-85524518D01*
X76464361Y-85476899D01*
X76511980Y-85429280D01*
X76583409Y-85405470D01*
X76631028Y-85405470D01*
X76702457Y-85429280D01*
X76726266Y-85453089D01*
X77154838Y-85405470D02*
X77059600Y-85405470D01*
X77011980Y-85429280D01*
X76988171Y-85453089D01*
X76940552Y-85524518D01*
X76916742Y-85619756D01*
X76916742Y-85810232D01*
X76940552Y-85857851D01*
X76964361Y-85881660D01*
X77011980Y-85905470D01*
X77107219Y-85905470D01*
X77154838Y-85881660D01*
X77178647Y-85857851D01*
X77202457Y-85810232D01*
X77202457Y-85691184D01*
X77178647Y-85643565D01*
X77154838Y-85619756D01*
X77107219Y-85595946D01*
X77011980Y-85595946D01*
X76964361Y-85619756D01*
X76940552Y-85643565D01*
X76916742Y-85691184D01*
%TO.C,C14*%
D12*
X136229600Y-105324960D02*
X135658172Y-105324960D01*
X135943886Y-105324960D02*
X135943886Y-104324960D01*
X135848648Y-104467818D01*
X135753410Y-104563056D01*
X135658172Y-104610675D01*
X136848648Y-104324960D02*
X136943886Y-104324960D01*
X137039124Y-104372580D01*
X137086743Y-104420199D01*
X137134362Y-104515437D01*
X137181981Y-104705913D01*
X137181981Y-104944008D01*
X137134362Y-105134484D01*
X137086743Y-105229722D01*
X137039124Y-105277341D01*
X136943886Y-105324960D01*
X136848648Y-105324960D01*
X136753410Y-105277341D01*
X136705791Y-105229722D01*
X136658172Y-105134484D01*
X136610553Y-104944008D01*
X136610553Y-104705913D01*
X136658172Y-104515437D01*
X136705791Y-104420199D01*
X136753410Y-104372580D01*
X136848648Y-104324960D01*
X137801029Y-104324960D02*
X137896267Y-104324960D01*
X137991505Y-104372580D01*
X138039124Y-104420199D01*
X138086743Y-104515437D01*
X138134362Y-104705913D01*
X138134362Y-104944008D01*
X138086743Y-105134484D01*
X138039124Y-105229722D01*
X137991505Y-105277341D01*
X137896267Y-105324960D01*
X137801029Y-105324960D01*
X137705791Y-105277341D01*
X137658172Y-105229722D01*
X137610553Y-105134484D01*
X137562934Y-104944008D01*
X137562934Y-104705913D01*
X137610553Y-104515437D01*
X137658172Y-104420199D01*
X137705791Y-104372580D01*
X137801029Y-104324960D01*
X138562934Y-104658294D02*
X138562934Y-105324960D01*
X138562934Y-104753532D02*
X138610553Y-104705913D01*
X138705791Y-104658294D01*
X138848648Y-104658294D01*
X138943886Y-104705913D01*
X138991505Y-104801151D01*
X138991505Y-105324960D01*
X139801029Y-104801151D02*
X139467696Y-104801151D01*
X139467696Y-105324960D02*
X139467696Y-104324960D01*
X139943886Y-104324960D01*
D13*
X137455791Y-103371151D02*
X137431981Y-103394960D01*
X137360553Y-103418770D01*
X137312934Y-103418770D01*
X137241505Y-103394960D01*
X137193886Y-103347341D01*
X137170077Y-103299722D01*
X137146267Y-103204484D01*
X137146267Y-103133056D01*
X137170077Y-103037818D01*
X137193886Y-102990199D01*
X137241505Y-102942580D01*
X137312934Y-102918770D01*
X137360553Y-102918770D01*
X137431981Y-102942580D01*
X137455791Y-102966389D01*
X137931981Y-103418770D02*
X137646267Y-103418770D01*
X137789124Y-103418770D02*
X137789124Y-102918770D01*
X137741505Y-102990199D01*
X137693886Y-103037818D01*
X137646267Y-103061627D01*
X138360553Y-103085437D02*
X138360553Y-103418770D01*
X138241505Y-102894960D02*
X138122458Y-103252103D01*
X138431981Y-103252103D01*
%TO.C,C16*%
D12*
X106399380Y-89736419D02*
X106399380Y-90307847D01*
X106399380Y-90022133D02*
X105399380Y-90022133D01*
X105542238Y-90117371D01*
X105637476Y-90212609D01*
X105685095Y-90307847D01*
X105399380Y-89117371D02*
X105399380Y-89022133D01*
X105447000Y-88926895D01*
X105494619Y-88879276D01*
X105589857Y-88831657D01*
X105780333Y-88784038D01*
X106018428Y-88784038D01*
X106208904Y-88831657D01*
X106304142Y-88879276D01*
X106351761Y-88926895D01*
X106399380Y-89022133D01*
X106399380Y-89117371D01*
X106351761Y-89212609D01*
X106304142Y-89260228D01*
X106208904Y-89307847D01*
X106018428Y-89355466D01*
X105780333Y-89355466D01*
X105589857Y-89307847D01*
X105494619Y-89260228D01*
X105447000Y-89212609D01*
X105399380Y-89117371D01*
X105399380Y-88164990D02*
X105399380Y-88069752D01*
X105447000Y-87974514D01*
X105494619Y-87926895D01*
X105589857Y-87879276D01*
X105780333Y-87831657D01*
X106018428Y-87831657D01*
X106208904Y-87879276D01*
X106304142Y-87926895D01*
X106351761Y-87974514D01*
X106399380Y-88069752D01*
X106399380Y-88164990D01*
X106351761Y-88260228D01*
X106304142Y-88307847D01*
X106208904Y-88355466D01*
X106018428Y-88403085D01*
X105780333Y-88403085D01*
X105589857Y-88355466D01*
X105494619Y-88307847D01*
X105447000Y-88260228D01*
X105399380Y-88164990D01*
X105732714Y-87403085D02*
X106399380Y-87403085D01*
X105827952Y-87403085D02*
X105780333Y-87355466D01*
X105732714Y-87260228D01*
X105732714Y-87117371D01*
X105780333Y-87022133D01*
X105875571Y-86974514D01*
X106399380Y-86974514D01*
X105875571Y-86164990D02*
X105875571Y-86498323D01*
X106399380Y-86498323D02*
X105399380Y-86498323D01*
X105399380Y-86022133D01*
D13*
X104445571Y-88510228D02*
X104469380Y-88534038D01*
X104493190Y-88605466D01*
X104493190Y-88653085D01*
X104469380Y-88724514D01*
X104421761Y-88772133D01*
X104374142Y-88795942D01*
X104278904Y-88819752D01*
X104207476Y-88819752D01*
X104112238Y-88795942D01*
X104064619Y-88772133D01*
X104017000Y-88724514D01*
X103993190Y-88653085D01*
X103993190Y-88605466D01*
X104017000Y-88534038D01*
X104040809Y-88510228D01*
X104493190Y-88034038D02*
X104493190Y-88319752D01*
X104493190Y-88176895D02*
X103993190Y-88176895D01*
X104064619Y-88224514D01*
X104112238Y-88272133D01*
X104136047Y-88319752D01*
X103993190Y-87605466D02*
X103993190Y-87700704D01*
X104017000Y-87748323D01*
X104040809Y-87772133D01*
X104112238Y-87819752D01*
X104207476Y-87843561D01*
X104397952Y-87843561D01*
X104445571Y-87819752D01*
X104469380Y-87795942D01*
X104493190Y-87748323D01*
X104493190Y-87653085D01*
X104469380Y-87605466D01*
X104445571Y-87581657D01*
X104397952Y-87557847D01*
X104278904Y-87557847D01*
X104231285Y-87581657D01*
X104207476Y-87605466D01*
X104183666Y-87653085D01*
X104183666Y-87748323D01*
X104207476Y-87795942D01*
X104231285Y-87819752D01*
X104278904Y-87843561D01*
%TO.C,C17*%
D12*
X99145140Y-97714559D02*
X99145140Y-98285987D01*
X99145140Y-98000273D02*
X98145140Y-98000273D01*
X98287998Y-98095511D01*
X98383236Y-98190749D01*
X98430855Y-98285987D01*
X98145140Y-97095511D02*
X98145140Y-97000273D01*
X98192760Y-96905035D01*
X98240379Y-96857416D01*
X98335617Y-96809797D01*
X98526093Y-96762178D01*
X98764188Y-96762178D01*
X98954664Y-96809797D01*
X99049902Y-96857416D01*
X99097521Y-96905035D01*
X99145140Y-97000273D01*
X99145140Y-97095511D01*
X99097521Y-97190749D01*
X99049902Y-97238368D01*
X98954664Y-97285987D01*
X98764188Y-97333606D01*
X98526093Y-97333606D01*
X98335617Y-97285987D01*
X98240379Y-97238368D01*
X98192760Y-97190749D01*
X98145140Y-97095511D01*
X98145140Y-96143130D02*
X98145140Y-96047892D01*
X98192760Y-95952654D01*
X98240379Y-95905035D01*
X98335617Y-95857416D01*
X98526093Y-95809797D01*
X98764188Y-95809797D01*
X98954664Y-95857416D01*
X99049902Y-95905035D01*
X99097521Y-95952654D01*
X99145140Y-96047892D01*
X99145140Y-96143130D01*
X99097521Y-96238368D01*
X99049902Y-96285987D01*
X98954664Y-96333606D01*
X98764188Y-96381225D01*
X98526093Y-96381225D01*
X98335617Y-96333606D01*
X98240379Y-96285987D01*
X98192760Y-96238368D01*
X98145140Y-96143130D01*
X98478474Y-95381225D02*
X99145140Y-95381225D01*
X98573712Y-95381225D02*
X98526093Y-95333606D01*
X98478474Y-95238368D01*
X98478474Y-95095511D01*
X98526093Y-95000273D01*
X98621331Y-94952654D01*
X99145140Y-94952654D01*
X98621331Y-94143130D02*
X98621331Y-94476463D01*
X99145140Y-94476463D02*
X98145140Y-94476463D01*
X98145140Y-94000273D01*
D13*
X97191331Y-96488368D02*
X97215140Y-96512178D01*
X97238950Y-96583606D01*
X97238950Y-96631225D01*
X97215140Y-96702654D01*
X97167521Y-96750273D01*
X97119902Y-96774082D01*
X97024664Y-96797892D01*
X96953236Y-96797892D01*
X96857998Y-96774082D01*
X96810379Y-96750273D01*
X96762760Y-96702654D01*
X96738950Y-96631225D01*
X96738950Y-96583606D01*
X96762760Y-96512178D01*
X96786569Y-96488368D01*
X97238950Y-96012178D02*
X97238950Y-96297892D01*
X97238950Y-96155035D02*
X96738950Y-96155035D01*
X96810379Y-96202654D01*
X96857998Y-96250273D01*
X96881807Y-96297892D01*
X96738950Y-95845511D02*
X96738950Y-95512178D01*
X97238950Y-95726463D01*
%TO.C,PC13_LED*%
D12*
X142493762Y-83950000D02*
X142017572Y-83950000D01*
X142017572Y-82950000D01*
X142827096Y-83426191D02*
X143160429Y-83426191D01*
X143303286Y-83950000D02*
X142827096Y-83950000D01*
X142827096Y-82950000D01*
X143303286Y-82950000D01*
X143731858Y-83950000D02*
X143731858Y-82950000D01*
X143969953Y-82950000D01*
X144112810Y-82997620D01*
X144208048Y-83092858D01*
X144255667Y-83188096D01*
X144303286Y-83378572D01*
X144303286Y-83521429D01*
X144255667Y-83711905D01*
X144208048Y-83807143D01*
X144112810Y-83902381D01*
X143969953Y-83950000D01*
X143731858Y-83950000D01*
D13*
X141410429Y-85323810D02*
X141410429Y-84823810D01*
X141600905Y-84823810D01*
X141648524Y-84847620D01*
X141672334Y-84871429D01*
X141696143Y-84919048D01*
X141696143Y-84990477D01*
X141672334Y-85038096D01*
X141648524Y-85061905D01*
X141600905Y-85085715D01*
X141410429Y-85085715D01*
X142196143Y-85276191D02*
X142172334Y-85300000D01*
X142100905Y-85323810D01*
X142053286Y-85323810D01*
X141981858Y-85300000D01*
X141934239Y-85252381D01*
X141910429Y-85204762D01*
X141886620Y-85109524D01*
X141886620Y-85038096D01*
X141910429Y-84942858D01*
X141934239Y-84895239D01*
X141981858Y-84847620D01*
X142053286Y-84823810D01*
X142100905Y-84823810D01*
X142172334Y-84847620D01*
X142196143Y-84871429D01*
X142672334Y-85323810D02*
X142386620Y-85323810D01*
X142529477Y-85323810D02*
X142529477Y-84823810D01*
X142481858Y-84895239D01*
X142434239Y-84942858D01*
X142386620Y-84966667D01*
X142839000Y-84823810D02*
X143148524Y-84823810D01*
X142981858Y-85014286D01*
X143053286Y-85014286D01*
X143100905Y-85038096D01*
X143124715Y-85061905D01*
X143148524Y-85109524D01*
X143148524Y-85228572D01*
X143124715Y-85276191D01*
X143100905Y-85300000D01*
X143053286Y-85323810D01*
X142910429Y-85323810D01*
X142862810Y-85300000D01*
X142839000Y-85276191D01*
X143243762Y-85371429D02*
X143624715Y-85371429D01*
X143981858Y-85323810D02*
X143743762Y-85323810D01*
X143743762Y-84823810D01*
X144148524Y-85061905D02*
X144315191Y-85061905D01*
X144386620Y-85323810D02*
X144148524Y-85323810D01*
X144148524Y-84823810D01*
X144386620Y-84823810D01*
X144600905Y-85323810D02*
X144600905Y-84823810D01*
X144719953Y-84823810D01*
X144791381Y-84847620D01*
X144839000Y-84895239D01*
X144862810Y-84942858D01*
X144886620Y-85038096D01*
X144886620Y-85109524D01*
X144862810Y-85204762D01*
X144839000Y-85252381D01*
X144791381Y-85300000D01*
X144719953Y-85323810D01*
X144600905Y-85323810D01*
%TO.C,PWR*%
D12*
X86479840Y-94643177D02*
X86479840Y-95119367D01*
X85479840Y-95119367D01*
X85956031Y-94309843D02*
X85956031Y-93976510D01*
X86479840Y-93833653D02*
X86479840Y-94309843D01*
X85479840Y-94309843D01*
X85479840Y-93833653D01*
X86479840Y-93405081D02*
X85479840Y-93405081D01*
X85479840Y-93166986D01*
X85527460Y-93024129D01*
X85622698Y-92928891D01*
X85717936Y-92881272D01*
X85908412Y-92833653D01*
X86051269Y-92833653D01*
X86241745Y-92881272D01*
X86336983Y-92928891D01*
X86432221Y-93024129D01*
X86479840Y-93166986D01*
X86479840Y-93405081D01*
D13*
X87853650Y-94666986D02*
X87353650Y-94666986D01*
X87353650Y-94476510D01*
X87377460Y-94428891D01*
X87401269Y-94405081D01*
X87448888Y-94381272D01*
X87520317Y-94381272D01*
X87567936Y-94405081D01*
X87591745Y-94428891D01*
X87615555Y-94476510D01*
X87615555Y-94666986D01*
X87353650Y-94214605D02*
X87853650Y-94095558D01*
X87496507Y-94000320D01*
X87853650Y-93905081D01*
X87353650Y-93786034D01*
X87853650Y-93309843D02*
X87615555Y-93476510D01*
X87853650Y-93595558D02*
X87353650Y-93595558D01*
X87353650Y-93405081D01*
X87377460Y-93357462D01*
X87401269Y-93333653D01*
X87448888Y-93309843D01*
X87520317Y-93309843D01*
X87567936Y-93333653D01*
X87591745Y-93357462D01*
X87615555Y-93405081D01*
X87615555Y-93595558D01*
%TO.C,SWD PROG*%
D12*
X146682637Y-105186621D02*
X146825494Y-105234240D01*
X147063589Y-105234240D01*
X147158827Y-105186621D01*
X147206446Y-105139002D01*
X147254065Y-105043764D01*
X147254065Y-104948526D01*
X147206446Y-104853288D01*
X147158827Y-104805669D01*
X147063589Y-104758050D01*
X146873113Y-104710431D01*
X146777875Y-104662812D01*
X146730256Y-104615193D01*
X146682637Y-104519955D01*
X146682637Y-104424717D01*
X146730256Y-104329479D01*
X146777875Y-104281860D01*
X146873113Y-104234240D01*
X147111208Y-104234240D01*
X147254065Y-104281860D01*
X147587399Y-104234240D02*
X147825494Y-105234240D01*
X148015970Y-104519955D01*
X148206446Y-105234240D01*
X148444541Y-104234240D01*
X148825494Y-105234240D02*
X148825494Y-104234240D01*
X149063589Y-104234240D01*
X149206446Y-104281860D01*
X149301684Y-104377098D01*
X149349303Y-104472336D01*
X149396922Y-104662812D01*
X149396922Y-104805669D01*
X149349303Y-104996145D01*
X149301684Y-105091383D01*
X149206446Y-105186621D01*
X149063589Y-105234240D01*
X148825494Y-105234240D01*
X146829541Y-101193764D02*
X146877160Y-101050907D01*
X146877160Y-100812812D01*
X146829541Y-100717574D01*
X146781922Y-100669955D01*
X146686684Y-100622336D01*
X146591446Y-100622336D01*
X146496208Y-100669955D01*
X146448589Y-100717574D01*
X146400970Y-100812812D01*
X146353351Y-101003288D01*
X146305732Y-101098526D01*
X146258113Y-101146145D01*
X146162875Y-101193764D01*
X146067637Y-101193764D01*
X145972399Y-101146145D01*
X145924780Y-101098526D01*
X145877160Y-101003288D01*
X145877160Y-100765193D01*
X145924780Y-100622336D01*
X145877160Y-100289002D02*
X146877160Y-100050907D01*
X146162875Y-99860431D01*
X146877160Y-99669955D01*
X145877160Y-99431860D01*
X146877160Y-99050907D02*
X145877160Y-99050907D01*
X145877160Y-98812812D01*
X145924780Y-98669955D01*
X146020018Y-98574717D01*
X146115256Y-98527098D01*
X146305732Y-98479479D01*
X146448589Y-98479479D01*
X146639065Y-98527098D01*
X146734303Y-98574717D01*
X146829541Y-98669955D01*
X146877160Y-98812812D01*
X146877160Y-99050907D01*
X146877160Y-97289002D02*
X145877160Y-97289002D01*
X145877160Y-96908050D01*
X145924780Y-96812812D01*
X145972399Y-96765193D01*
X146067637Y-96717574D01*
X146210494Y-96717574D01*
X146305732Y-96765193D01*
X146353351Y-96812812D01*
X146400970Y-96908050D01*
X146400970Y-97289002D01*
X146877160Y-95717574D02*
X146400970Y-96050907D01*
X146877160Y-96289002D02*
X145877160Y-96289002D01*
X145877160Y-95908050D01*
X145924780Y-95812812D01*
X145972399Y-95765193D01*
X146067637Y-95717574D01*
X146210494Y-95717574D01*
X146305732Y-95765193D01*
X146353351Y-95812812D01*
X146400970Y-95908050D01*
X146400970Y-96289002D01*
X145877160Y-95098526D02*
X145877160Y-94908050D01*
X145924780Y-94812812D01*
X146020018Y-94717574D01*
X146210494Y-94669955D01*
X146543827Y-94669955D01*
X146734303Y-94717574D01*
X146829541Y-94812812D01*
X146877160Y-94908050D01*
X146877160Y-95098526D01*
X146829541Y-95193764D01*
X146734303Y-95289002D01*
X146543827Y-95336621D01*
X146210494Y-95336621D01*
X146020018Y-95289002D01*
X145924780Y-95193764D01*
X145877160Y-95098526D01*
X145924780Y-93717574D02*
X145877160Y-93812812D01*
X145877160Y-93955669D01*
X145924780Y-94098526D01*
X146020018Y-94193764D01*
X146115256Y-94241383D01*
X146305732Y-94289002D01*
X146448589Y-94289002D01*
X146639065Y-94241383D01*
X146734303Y-94193764D01*
X146829541Y-94098526D01*
X146877160Y-93955669D01*
X146877160Y-93860431D01*
X146829541Y-93717574D01*
X146781922Y-93669955D01*
X146448589Y-93669955D01*
X146448589Y-93860431D01*
%TO.C,USB*%
X69398140Y-95262224D02*
X70207664Y-95262224D01*
X70302902Y-95214605D01*
X70350521Y-95166986D01*
X70398140Y-95071748D01*
X70398140Y-94881272D01*
X70350521Y-94786034D01*
X70302902Y-94738415D01*
X70207664Y-94690796D01*
X69398140Y-94690796D01*
X70350521Y-94262224D02*
X70398140Y-94119367D01*
X70398140Y-93881272D01*
X70350521Y-93786034D01*
X70302902Y-93738415D01*
X70207664Y-93690796D01*
X70112426Y-93690796D01*
X70017188Y-93738415D01*
X69969569Y-93786034D01*
X69921950Y-93881272D01*
X69874331Y-94071748D01*
X69826712Y-94166986D01*
X69779093Y-94214605D01*
X69683855Y-94262224D01*
X69588617Y-94262224D01*
X69493379Y-94214605D01*
X69445760Y-94166986D01*
X69398140Y-94071748D01*
X69398140Y-93833653D01*
X69445760Y-93690796D01*
X69874331Y-92928891D02*
X69921950Y-92786034D01*
X69969569Y-92738415D01*
X70064807Y-92690796D01*
X70207664Y-92690796D01*
X70302902Y-92738415D01*
X70350521Y-92786034D01*
X70398140Y-92881272D01*
X70398140Y-93262224D01*
X69398140Y-93262224D01*
X69398140Y-92928891D01*
X69445760Y-92833653D01*
X69493379Y-92786034D01*
X69588617Y-92738415D01*
X69683855Y-92738415D01*
X69779093Y-92786034D01*
X69826712Y-92833653D01*
X69874331Y-92928891D01*
X69874331Y-93262224D01*
X74948140Y-95262224D02*
X75757664Y-95262224D01*
X75852902Y-95214605D01*
X75900521Y-95166986D01*
X75948140Y-95071748D01*
X75948140Y-94881272D01*
X75900521Y-94786034D01*
X75852902Y-94738415D01*
X75757664Y-94690796D01*
X74948140Y-94690796D01*
X75900521Y-94262224D02*
X75948140Y-94119367D01*
X75948140Y-93881272D01*
X75900521Y-93786034D01*
X75852902Y-93738415D01*
X75757664Y-93690796D01*
X75662426Y-93690796D01*
X75567188Y-93738415D01*
X75519569Y-93786034D01*
X75471950Y-93881272D01*
X75424331Y-94071748D01*
X75376712Y-94166986D01*
X75329093Y-94214605D01*
X75233855Y-94262224D01*
X75138617Y-94262224D01*
X75043379Y-94214605D01*
X74995760Y-94166986D01*
X74948140Y-94071748D01*
X74948140Y-93833653D01*
X74995760Y-93690796D01*
X75424331Y-92928891D02*
X75471950Y-92786034D01*
X75519569Y-92738415D01*
X75614807Y-92690796D01*
X75757664Y-92690796D01*
X75852902Y-92738415D01*
X75900521Y-92786034D01*
X75948140Y-92881272D01*
X75948140Y-93262224D01*
X74948140Y-93262224D01*
X74948140Y-92928891D01*
X74995760Y-92833653D01*
X75043379Y-92786034D01*
X75138617Y-92738415D01*
X75233855Y-92738415D01*
X75329093Y-92786034D01*
X75376712Y-92833653D01*
X75424331Y-92928891D01*
X75424331Y-93262224D01*
%TO.C,VBat*%
X131055680Y-102290357D02*
X132055680Y-101957023D01*
X131055680Y-101623690D01*
X131531871Y-100957023D02*
X131579490Y-100814166D01*
X131627109Y-100766547D01*
X131722347Y-100718928D01*
X131865204Y-100718928D01*
X131960442Y-100766547D01*
X132008061Y-100814166D01*
X132055680Y-100909404D01*
X132055680Y-101290357D01*
X131055680Y-101290357D01*
X131055680Y-100957023D01*
X131103300Y-100861785D01*
X131150919Y-100814166D01*
X131246157Y-100766547D01*
X131341395Y-100766547D01*
X131436633Y-100814166D01*
X131484252Y-100861785D01*
X131531871Y-100957023D01*
X131531871Y-101290357D01*
X131769966Y-100337976D02*
X131769966Y-99861785D01*
X132055680Y-100433214D02*
X131055680Y-100099880D01*
X132055680Y-99766547D01*
X131055680Y-99576071D02*
X131055680Y-99004642D01*
X132055680Y-99290357D02*
X131055680Y-99290357D01*
X126431871Y-100099880D02*
X126765204Y-101099880D01*
X127098538Y-100099880D01*
X127765204Y-100576071D02*
X127908061Y-100623690D01*
X127955680Y-100671309D01*
X128003300Y-100766547D01*
X128003300Y-100909404D01*
X127955680Y-101004642D01*
X127908061Y-101052261D01*
X127812823Y-101099880D01*
X127431871Y-101099880D01*
X127431871Y-100099880D01*
X127765204Y-100099880D01*
X127860442Y-100147500D01*
X127908061Y-100195119D01*
X127955680Y-100290357D01*
X127955680Y-100385595D01*
X127908061Y-100480833D01*
X127860442Y-100528452D01*
X127765204Y-100576071D01*
X127431871Y-100576071D01*
X128860442Y-101099880D02*
X128860442Y-100576071D01*
X128812823Y-100480833D01*
X128717585Y-100433214D01*
X128527109Y-100433214D01*
X128431871Y-100480833D01*
X128860442Y-101052261D02*
X128765204Y-101099880D01*
X128527109Y-101099880D01*
X128431871Y-101052261D01*
X128384252Y-100957023D01*
X128384252Y-100861785D01*
X128431871Y-100766547D01*
X128527109Y-100718928D01*
X128765204Y-100718928D01*
X128860442Y-100671309D01*
X129193776Y-100433214D02*
X129574728Y-100433214D01*
X129336633Y-100099880D02*
X129336633Y-100957023D01*
X129384252Y-101052261D01*
X129479490Y-101099880D01*
X129574728Y-101099880D01*
%TO.C,5V_IN*%
X91035476Y-91139580D02*
X90559285Y-91139580D01*
X90511666Y-91615771D01*
X90559285Y-91568152D01*
X90654523Y-91520533D01*
X90892619Y-91520533D01*
X90987857Y-91568152D01*
X91035476Y-91615771D01*
X91083095Y-91711009D01*
X91083095Y-91949104D01*
X91035476Y-92044342D01*
X90987857Y-92091961D01*
X90892619Y-92139580D01*
X90654523Y-92139580D01*
X90559285Y-92091961D01*
X90511666Y-92044342D01*
X91368809Y-91139580D02*
X91702142Y-92139580D01*
X92035476Y-91139580D01*
X93130714Y-92139580D02*
X93130714Y-91139580D01*
X93130714Y-91520533D02*
X93225952Y-91472914D01*
X93416428Y-91472914D01*
X93511666Y-91520533D01*
X93559285Y-91568152D01*
X93606904Y-91663390D01*
X93606904Y-91949104D01*
X93559285Y-92044342D01*
X93511666Y-92091961D01*
X93416428Y-92139580D01*
X93225952Y-92139580D01*
X93130714Y-92091961D01*
X94464047Y-91472914D02*
X94464047Y-92139580D01*
X94035476Y-91472914D02*
X94035476Y-91996723D01*
X94083095Y-92091961D01*
X94178333Y-92139580D01*
X94321190Y-92139580D01*
X94416428Y-92091961D01*
X94464047Y-92044342D01*
X95368809Y-92091961D02*
X95273571Y-92139580D01*
X95083095Y-92139580D01*
X94987857Y-92091961D01*
X94940238Y-92044342D01*
X94892619Y-91949104D01*
X94892619Y-91663390D01*
X94940238Y-91568152D01*
X94987857Y-91520533D01*
X95083095Y-91472914D01*
X95273571Y-91472914D01*
X95368809Y-91520533D01*
X95797380Y-92139580D02*
X95797380Y-91139580D01*
X95892619Y-91758628D02*
X96178333Y-92139580D01*
X96178333Y-91472914D02*
X95797380Y-91853866D01*
X92797380Y-89420533D02*
X92797380Y-89896723D01*
X93273571Y-89944342D01*
X93225952Y-89896723D01*
X93178333Y-89801485D01*
X93178333Y-89563390D01*
X93225952Y-89468152D01*
X93273571Y-89420533D01*
X93368809Y-89372914D01*
X93606904Y-89372914D01*
X93702142Y-89420533D01*
X93749761Y-89468152D01*
X93797380Y-89563390D01*
X93797380Y-89801485D01*
X93749761Y-89896723D01*
X93702142Y-89944342D01*
X92797380Y-89087200D02*
X93797380Y-88753866D01*
X92797380Y-88420533D01*
X93892619Y-88325295D02*
X93892619Y-87563390D01*
X93797380Y-87325295D02*
X92797380Y-87325295D01*
X93797380Y-86849104D02*
X92797380Y-86849104D01*
X93797380Y-86277676D01*
X92797380Y-86277676D01*
%TO.C,R1*%
X82685095Y-92380539D02*
X82732714Y-92332920D01*
X82827952Y-92285300D01*
X83066047Y-92285300D01*
X83161285Y-92332920D01*
X83208904Y-92380539D01*
X83256523Y-92475777D01*
X83256523Y-92571015D01*
X83208904Y-92713872D01*
X82637476Y-93285300D01*
X83256523Y-93285300D01*
X83637476Y-92380539D02*
X83685095Y-92332920D01*
X83780333Y-92285300D01*
X84018428Y-92285300D01*
X84113666Y-92332920D01*
X84161285Y-92380539D01*
X84208904Y-92475777D01*
X84208904Y-92571015D01*
X84161285Y-92713872D01*
X83589857Y-93285300D01*
X84208904Y-93285300D01*
X85208904Y-93285300D02*
X84875571Y-92809110D01*
X84637476Y-93285300D02*
X84637476Y-92285300D01*
X85018428Y-92285300D01*
X85113666Y-92332920D01*
X85161285Y-92380539D01*
X85208904Y-92475777D01*
X85208904Y-92618634D01*
X85161285Y-92713872D01*
X85113666Y-92761491D01*
X85018428Y-92809110D01*
X84637476Y-92809110D01*
D13*
X83863666Y-94709110D02*
X83697000Y-94471015D01*
X83577952Y-94709110D02*
X83577952Y-94209110D01*
X83768428Y-94209110D01*
X83816047Y-94232920D01*
X83839857Y-94256729D01*
X83863666Y-94304348D01*
X83863666Y-94375777D01*
X83839857Y-94423396D01*
X83816047Y-94447205D01*
X83768428Y-94471015D01*
X83577952Y-94471015D01*
X84339857Y-94709110D02*
X84054142Y-94709110D01*
X84197000Y-94709110D02*
X84197000Y-94209110D01*
X84149380Y-94280539D01*
X84101761Y-94328158D01*
X84054142Y-94351967D01*
%TO.C,R2*%
D12*
X82674935Y-90277419D02*
X82722554Y-90229800D01*
X82817792Y-90182180D01*
X83055887Y-90182180D01*
X83151125Y-90229800D01*
X83198744Y-90277419D01*
X83246363Y-90372657D01*
X83246363Y-90467895D01*
X83198744Y-90610752D01*
X82627316Y-91182180D01*
X83246363Y-91182180D01*
X83627316Y-90277419D02*
X83674935Y-90229800D01*
X83770173Y-90182180D01*
X84008268Y-90182180D01*
X84103506Y-90229800D01*
X84151125Y-90277419D01*
X84198744Y-90372657D01*
X84198744Y-90467895D01*
X84151125Y-90610752D01*
X83579697Y-91182180D01*
X84198744Y-91182180D01*
X85198744Y-91182180D02*
X84865411Y-90705990D01*
X84627316Y-91182180D02*
X84627316Y-90182180D01*
X85008268Y-90182180D01*
X85103506Y-90229800D01*
X85151125Y-90277419D01*
X85198744Y-90372657D01*
X85198744Y-90515514D01*
X85151125Y-90610752D01*
X85103506Y-90658371D01*
X85008268Y-90705990D01*
X84627316Y-90705990D01*
D13*
X83853506Y-92605990D02*
X83686840Y-92367895D01*
X83567792Y-92605990D02*
X83567792Y-92105990D01*
X83758268Y-92105990D01*
X83805887Y-92129800D01*
X83829697Y-92153609D01*
X83853506Y-92201228D01*
X83853506Y-92272657D01*
X83829697Y-92320276D01*
X83805887Y-92344085D01*
X83758268Y-92367895D01*
X83567792Y-92367895D01*
X84043982Y-92153609D02*
X84067792Y-92129800D01*
X84115411Y-92105990D01*
X84234459Y-92105990D01*
X84282078Y-92129800D01*
X84305887Y-92153609D01*
X84329697Y-92201228D01*
X84329697Y-92248847D01*
X84305887Y-92320276D01*
X84020173Y-92605990D01*
X84329697Y-92605990D01*
%TO.C,R4*%
D12*
X83231123Y-88407314D02*
X83231123Y-89073980D01*
X82993028Y-88026361D02*
X82754933Y-88740647D01*
X83373980Y-88740647D01*
X83754933Y-89073980D02*
X83754933Y-88073980D01*
X83850171Y-88693028D02*
X84135885Y-89073980D01*
X84135885Y-88407314D02*
X83754933Y-88788266D01*
X84469219Y-88073980D02*
X85135885Y-88073980D01*
X84707314Y-89073980D01*
D13*
X83838266Y-90497790D02*
X83671600Y-90259695D01*
X83552552Y-90497790D02*
X83552552Y-89997790D01*
X83743028Y-89997790D01*
X83790647Y-90021600D01*
X83814457Y-90045409D01*
X83838266Y-90093028D01*
X83838266Y-90164457D01*
X83814457Y-90212076D01*
X83790647Y-90235885D01*
X83743028Y-90259695D01*
X83552552Y-90259695D01*
X84266838Y-90164457D02*
X84266838Y-90497790D01*
X84147790Y-89973980D02*
X84028742Y-90331123D01*
X84338266Y-90331123D01*
%TO.C,R5*%
D12*
X83256523Y-94706514D02*
X83256523Y-95373180D01*
X83018428Y-94325561D02*
X82780333Y-95039847D01*
X83399380Y-95039847D01*
X83780333Y-95373180D02*
X83780333Y-94373180D01*
X83875571Y-94992228D02*
X84161285Y-95373180D01*
X84161285Y-94706514D02*
X83780333Y-95087466D01*
X84494619Y-94373180D02*
X85161285Y-94373180D01*
X84732714Y-95373180D01*
D13*
X83863666Y-96796990D02*
X83697000Y-96558895D01*
X83577952Y-96796990D02*
X83577952Y-96296990D01*
X83768428Y-96296990D01*
X83816047Y-96320800D01*
X83839857Y-96344609D01*
X83863666Y-96392228D01*
X83863666Y-96463657D01*
X83839857Y-96511276D01*
X83816047Y-96535085D01*
X83768428Y-96558895D01*
X83577952Y-96558895D01*
X84316047Y-96296990D02*
X84077952Y-96296990D01*
X84054142Y-96535085D01*
X84077952Y-96511276D01*
X84125571Y-96487466D01*
X84244619Y-96487466D01*
X84292238Y-96511276D01*
X84316047Y-96535085D01*
X84339857Y-96582704D01*
X84339857Y-96701752D01*
X84316047Y-96749371D01*
X84292238Y-96773180D01*
X84244619Y-96796990D01*
X84125571Y-96796990D01*
X84077952Y-96773180D01*
X84054142Y-96749371D01*
%TO.C,R6*%
D12*
X88436440Y-94689846D02*
X88436440Y-95261275D01*
X88436440Y-94975560D02*
X87436440Y-94975560D01*
X87579298Y-95070799D01*
X87674536Y-95166037D01*
X87722155Y-95261275D01*
X87436440Y-93785084D02*
X87436440Y-94261275D01*
X87912631Y-94308894D01*
X87865012Y-94261275D01*
X87817393Y-94166037D01*
X87817393Y-93927941D01*
X87865012Y-93832703D01*
X87912631Y-93785084D01*
X88007869Y-93737465D01*
X88245964Y-93737465D01*
X88341202Y-93785084D01*
X88388821Y-93832703D01*
X88436440Y-93927941D01*
X88436440Y-94166037D01*
X88388821Y-94261275D01*
X88341202Y-94308894D01*
X87436440Y-93118418D02*
X87436440Y-93023180D01*
X87484060Y-92927941D01*
X87531679Y-92880322D01*
X87626917Y-92832703D01*
X87817393Y-92785084D01*
X88055488Y-92785084D01*
X88245964Y-92832703D01*
X88341202Y-92880322D01*
X88388821Y-92927941D01*
X88436440Y-93023180D01*
X88436440Y-93118418D01*
X88388821Y-93213656D01*
X88341202Y-93261275D01*
X88245964Y-93308894D01*
X88055488Y-93356513D01*
X87817393Y-93356513D01*
X87626917Y-93308894D01*
X87531679Y-93261275D01*
X87484060Y-93213656D01*
X87436440Y-93118418D01*
D13*
X89860250Y-94106513D02*
X89622155Y-94273180D01*
X89860250Y-94392227D02*
X89360250Y-94392227D01*
X89360250Y-94201751D01*
X89384060Y-94154132D01*
X89407869Y-94130322D01*
X89455488Y-94106513D01*
X89526917Y-94106513D01*
X89574536Y-94130322D01*
X89598345Y-94154132D01*
X89622155Y-94201751D01*
X89622155Y-94392227D01*
X89360250Y-93677941D02*
X89360250Y-93773180D01*
X89384060Y-93820799D01*
X89407869Y-93844608D01*
X89479298Y-93892227D01*
X89574536Y-93916037D01*
X89765012Y-93916037D01*
X89812631Y-93892227D01*
X89836440Y-93868418D01*
X89860250Y-93820799D01*
X89860250Y-93725560D01*
X89836440Y-93677941D01*
X89812631Y-93654132D01*
X89765012Y-93630322D01*
X89645964Y-93630322D01*
X89598345Y-93654132D01*
X89574536Y-93677941D01*
X89550726Y-93725560D01*
X89550726Y-93820799D01*
X89574536Y-93868418D01*
X89598345Y-93892227D01*
X89645964Y-93916037D01*
%TO.C,R9*%
D12*
X101223340Y-96754558D02*
X101223340Y-97325986D01*
X101223340Y-97040272D02*
X100223340Y-97040272D01*
X100366198Y-97135510D01*
X100461436Y-97230748D01*
X100509055Y-97325986D01*
X100223340Y-96135510D02*
X100223340Y-96040272D01*
X100270960Y-95945034D01*
X100318579Y-95897415D01*
X100413817Y-95849796D01*
X100604293Y-95802177D01*
X100842388Y-95802177D01*
X101032864Y-95849796D01*
X101128102Y-95897415D01*
X101175721Y-95945034D01*
X101223340Y-96040272D01*
X101223340Y-96135510D01*
X101175721Y-96230748D01*
X101128102Y-96278367D01*
X101032864Y-96325986D01*
X100842388Y-96373605D01*
X100604293Y-96373605D01*
X100413817Y-96325986D01*
X100318579Y-96278367D01*
X100270960Y-96230748D01*
X100223340Y-96135510D01*
X101223340Y-95373605D02*
X100223340Y-95373605D01*
X100842388Y-95278367D02*
X101223340Y-94992653D01*
X100556674Y-94992653D02*
X100937626Y-95373605D01*
D13*
X99347150Y-96242653D02*
X99109055Y-96409320D01*
X99347150Y-96528367D02*
X98847150Y-96528367D01*
X98847150Y-96337891D01*
X98870960Y-96290272D01*
X98894769Y-96266462D01*
X98942388Y-96242653D01*
X99013817Y-96242653D01*
X99061436Y-96266462D01*
X99085245Y-96290272D01*
X99109055Y-96337891D01*
X99109055Y-96528367D01*
X99347150Y-96004558D02*
X99347150Y-95909320D01*
X99323340Y-95861700D01*
X99299531Y-95837891D01*
X99228102Y-95790272D01*
X99132864Y-95766462D01*
X98942388Y-95766462D01*
X98894769Y-95790272D01*
X98870960Y-95814081D01*
X98847150Y-95861700D01*
X98847150Y-95956939D01*
X98870960Y-96004558D01*
X98894769Y-96028367D01*
X98942388Y-96052177D01*
X99061436Y-96052177D01*
X99109055Y-96028367D01*
X99132864Y-96004558D01*
X99156674Y-95956939D01*
X99156674Y-95861700D01*
X99132864Y-95814081D01*
X99109055Y-95790272D01*
X99061436Y-95766462D01*
%TO.C,STM32F405RG*%
D12*
X103640600Y-95551620D02*
X103707944Y-95686307D01*
X103876302Y-95854666D01*
X103977318Y-95888337D01*
X104044661Y-95888337D01*
X104145676Y-95854666D01*
X104213020Y-95787322D01*
X104246692Y-95686307D01*
X104246692Y-95618963D01*
X104213020Y-95517948D01*
X104112005Y-95349589D01*
X104078333Y-95248574D01*
X104078333Y-95181231D01*
X104112005Y-95080215D01*
X104179348Y-95012872D01*
X104280363Y-94979200D01*
X104347707Y-94979200D01*
X104448722Y-95012872D01*
X104617081Y-95181231D01*
X104684424Y-95315918D01*
X104920127Y-95484276D02*
X105324188Y-95888337D01*
X104415050Y-96393414D02*
X105122157Y-95686307D01*
X104852783Y-96831146D02*
X105559890Y-96124040D01*
X105290516Y-96864818D01*
X106031294Y-96595444D01*
X105324188Y-97302551D01*
X106300668Y-96864818D02*
X106738401Y-97302551D01*
X106233325Y-97336223D01*
X106334340Y-97437238D01*
X106368012Y-97538253D01*
X106368012Y-97605597D01*
X106334340Y-97706612D01*
X106165981Y-97874971D01*
X106064966Y-97908642D01*
X105997623Y-97908642D01*
X105896607Y-97874971D01*
X105694577Y-97672940D01*
X105660905Y-97571925D01*
X105660905Y-97504581D01*
X106940432Y-97639268D02*
X107007775Y-97639268D01*
X107108790Y-97672940D01*
X107277149Y-97841299D01*
X107310821Y-97942314D01*
X107310821Y-98009658D01*
X107277149Y-98110673D01*
X107209806Y-98178016D01*
X107075119Y-98245360D01*
X106266997Y-98245360D01*
X106704729Y-98683093D01*
X107613867Y-98851451D02*
X107378164Y-98615749D01*
X107007775Y-98986138D02*
X107714882Y-98279032D01*
X108051600Y-98615749D01*
X108388317Y-99423871D02*
X107916912Y-99895276D01*
X108489332Y-98986138D02*
X107815897Y-99322856D01*
X108253630Y-99760589D01*
X109129096Y-99693245D02*
X109196439Y-99760589D01*
X109230111Y-99861604D01*
X109230111Y-99928948D01*
X109196439Y-100029963D01*
X109095424Y-100198322D01*
X108927065Y-100366680D01*
X108758706Y-100467696D01*
X108657691Y-100501367D01*
X108590348Y-100501367D01*
X108489332Y-100467696D01*
X108421989Y-100400352D01*
X108388317Y-100299337D01*
X108388317Y-100231993D01*
X108421989Y-100130978D01*
X108523004Y-99962619D01*
X108691363Y-99794261D01*
X108859722Y-99693245D01*
X108960737Y-99659574D01*
X109028080Y-99659574D01*
X109129096Y-99693245D01*
X110004561Y-100568711D02*
X109667844Y-100231993D01*
X109297454Y-100535039D01*
X109364798Y-100535039D01*
X109465813Y-100568711D01*
X109634172Y-100737070D01*
X109667844Y-100838085D01*
X109667844Y-100905428D01*
X109634172Y-101006444D01*
X109465813Y-101174802D01*
X109364798Y-101208474D01*
X109297454Y-101208474D01*
X109196439Y-101174802D01*
X109028080Y-101006444D01*
X108994409Y-100905428D01*
X108994409Y-100838085D01*
X110038233Y-102016596D02*
X110139248Y-101444176D01*
X109634172Y-101612535D02*
X110341279Y-100905428D01*
X110610653Y-101174802D01*
X110644324Y-101275818D01*
X110644324Y-101343161D01*
X110610653Y-101444176D01*
X110509637Y-101545192D01*
X110408622Y-101578863D01*
X110341279Y-101578863D01*
X110240263Y-101545192D01*
X109970889Y-101275818D01*
X111385103Y-102016596D02*
X111351431Y-101915581D01*
X111250416Y-101814566D01*
X111115729Y-101747222D01*
X110981042Y-101747222D01*
X110880027Y-101780894D01*
X110711668Y-101881909D01*
X110610653Y-101982924D01*
X110509637Y-102151283D01*
X110475966Y-102252298D01*
X110475966Y-102386985D01*
X110543309Y-102521672D01*
X110610653Y-102589016D01*
X110745340Y-102656359D01*
X110812683Y-102656359D01*
X111048385Y-102420657D01*
X110913698Y-102285970D01*
X111654477Y-102218627D02*
X112058538Y-102622688D01*
X111149401Y-103127764D02*
X111856507Y-102420657D01*
X111519790Y-103498153D02*
X112361584Y-103397138D01*
X111991194Y-103026749D02*
X111890179Y-103868542D01*
X110819803Y-97841416D02*
X110954490Y-97774073D01*
X111122848Y-97605714D01*
X111156520Y-97504699D01*
X111156520Y-97437355D01*
X111122848Y-97336340D01*
X111055505Y-97268996D01*
X110954490Y-97235325D01*
X110887146Y-97235325D01*
X110786131Y-97268996D01*
X110617772Y-97370012D01*
X110516757Y-97403683D01*
X110449413Y-97403683D01*
X110348398Y-97370012D01*
X110281055Y-97302668D01*
X110247383Y-97201653D01*
X110247383Y-97134309D01*
X110281055Y-97033294D01*
X110449413Y-96864935D01*
X110584100Y-96797592D01*
X110752459Y-96561889D02*
X111156520Y-96157828D01*
X111661597Y-97066966D02*
X110954490Y-96359859D01*
X112099329Y-96629233D02*
X111392223Y-95922126D01*
X112133001Y-96191500D01*
X111863627Y-95450722D01*
X112570734Y-96157828D01*
X112133001Y-95181348D02*
X112570734Y-94743615D01*
X112604406Y-95248691D01*
X112705421Y-95147676D01*
X112806436Y-95114004D01*
X112873780Y-95114004D01*
X112974795Y-95147676D01*
X113143154Y-95316035D01*
X113176825Y-95417050D01*
X113176825Y-95484393D01*
X113143154Y-95585409D01*
X112941123Y-95787439D01*
X112840108Y-95821111D01*
X112772764Y-95821111D01*
X112907451Y-94541584D02*
X112907451Y-94474241D01*
X112941123Y-94373226D01*
X113109482Y-94204867D01*
X113210497Y-94171195D01*
X113277841Y-94171195D01*
X113378856Y-94204867D01*
X113446199Y-94272210D01*
X113513543Y-94406897D01*
X113513543Y-95215019D01*
X113951276Y-94777287D01*
X114119634Y-93868149D02*
X113883932Y-94103852D01*
X114254321Y-94474241D02*
X113547215Y-93767134D01*
X113883932Y-93430417D01*
X114692054Y-93093699D02*
X115163459Y-93565104D01*
X114254321Y-92992684D02*
X114591039Y-93666119D01*
X115028772Y-93228386D01*
X114961428Y-92352921D02*
X115028772Y-92285577D01*
X115129787Y-92251905D01*
X115197130Y-92251905D01*
X115298146Y-92285577D01*
X115466504Y-92386592D01*
X115634863Y-92554951D01*
X115735878Y-92723310D01*
X115769550Y-92824325D01*
X115769550Y-92891669D01*
X115735878Y-92992684D01*
X115668535Y-93060027D01*
X115567520Y-93093699D01*
X115500176Y-93093699D01*
X115399161Y-93060027D01*
X115230802Y-92959012D01*
X115062443Y-92790653D01*
X114961428Y-92622295D01*
X114927756Y-92521279D01*
X114927756Y-92453936D01*
X114961428Y-92352921D01*
X115836894Y-91477455D02*
X115500176Y-91814173D01*
X115803222Y-92184562D01*
X115803222Y-92117218D01*
X115836894Y-92016203D01*
X116005252Y-91847844D01*
X116106268Y-91814173D01*
X116173611Y-91814173D01*
X116274626Y-91847844D01*
X116442985Y-92016203D01*
X116476657Y-92117218D01*
X116476657Y-92184562D01*
X116442985Y-92285577D01*
X116274626Y-92453936D01*
X116173611Y-92487608D01*
X116106268Y-92487608D01*
X117284779Y-91443783D02*
X116712359Y-91342768D01*
X116880718Y-91847844D02*
X116173611Y-91140737D01*
X116442985Y-90871363D01*
X116544000Y-90837692D01*
X116611344Y-90837692D01*
X116712359Y-90871363D01*
X116813374Y-90972379D01*
X116847046Y-91073394D01*
X116847046Y-91140737D01*
X116813374Y-91241753D01*
X116544000Y-91511127D01*
X117284779Y-90096913D02*
X117183764Y-90130585D01*
X117082749Y-90231600D01*
X117015405Y-90366287D01*
X117015405Y-90500974D01*
X117049077Y-90601989D01*
X117150092Y-90770348D01*
X117251107Y-90871363D01*
X117419466Y-90972379D01*
X117520481Y-91006050D01*
X117655168Y-91006050D01*
X117789855Y-90938707D01*
X117857199Y-90871363D01*
X117924542Y-90736676D01*
X117924542Y-90669333D01*
X117688840Y-90433631D01*
X117554153Y-90568318D01*
%TO.C,8-25MHz*%
X130103761Y-83249752D02*
X130008523Y-83202133D01*
X129960904Y-83154514D01*
X129913285Y-83059276D01*
X129913285Y-83011657D01*
X129960904Y-82916419D01*
X130008523Y-82868800D01*
X130103761Y-82821180D01*
X130294238Y-82821180D01*
X130389476Y-82868800D01*
X130437095Y-82916419D01*
X130484714Y-83011657D01*
X130484714Y-83059276D01*
X130437095Y-83154514D01*
X130389476Y-83202133D01*
X130294238Y-83249752D01*
X130103761Y-83249752D01*
X130008523Y-83297371D01*
X129960904Y-83344990D01*
X129913285Y-83440228D01*
X129913285Y-83630704D01*
X129960904Y-83725942D01*
X130008523Y-83773561D01*
X130103761Y-83821180D01*
X130294238Y-83821180D01*
X130389476Y-83773561D01*
X130437095Y-83725942D01*
X130484714Y-83630704D01*
X130484714Y-83440228D01*
X130437095Y-83344990D01*
X130389476Y-83297371D01*
X130294238Y-83249752D01*
X130913285Y-83821180D02*
X130913285Y-82821180D01*
X131246619Y-83535466D01*
X131579952Y-82821180D01*
X131579952Y-83821180D01*
X132056142Y-83821180D02*
X132056142Y-82821180D01*
X132056142Y-83297371D02*
X132627571Y-83297371D01*
X132627571Y-83821180D02*
X132627571Y-82821180D01*
X133008523Y-83154514D02*
X133532333Y-83154514D01*
X133008523Y-83821180D01*
X133532333Y-83821180D01*
X128532333Y-86799752D02*
X128437095Y-86752133D01*
X128389476Y-86704514D01*
X128341857Y-86609276D01*
X128341857Y-86561657D01*
X128389476Y-86466419D01*
X128437095Y-86418800D01*
X128532333Y-86371180D01*
X128722809Y-86371180D01*
X128818047Y-86418800D01*
X128865666Y-86466419D01*
X128913285Y-86561657D01*
X128913285Y-86609276D01*
X128865666Y-86704514D01*
X128818047Y-86752133D01*
X128722809Y-86799752D01*
X128532333Y-86799752D01*
X128437095Y-86847371D01*
X128389476Y-86894990D01*
X128341857Y-86990228D01*
X128341857Y-87180704D01*
X128389476Y-87275942D01*
X128437095Y-87323561D01*
X128532333Y-87371180D01*
X128722809Y-87371180D01*
X128818047Y-87323561D01*
X128865666Y-87275942D01*
X128913285Y-87180704D01*
X128913285Y-86990228D01*
X128865666Y-86894990D01*
X128818047Y-86847371D01*
X128722809Y-86799752D01*
X129341857Y-86990228D02*
X130103761Y-86990228D01*
X130532333Y-86466419D02*
X130579952Y-86418800D01*
X130675190Y-86371180D01*
X130913285Y-86371180D01*
X131008523Y-86418800D01*
X131056142Y-86466419D01*
X131103761Y-86561657D01*
X131103761Y-86656895D01*
X131056142Y-86799752D01*
X130484714Y-87371180D01*
X131103761Y-87371180D01*
X132008523Y-86371180D02*
X131532333Y-86371180D01*
X131484714Y-86847371D01*
X131532333Y-86799752D01*
X131627571Y-86752133D01*
X131865666Y-86752133D01*
X131960904Y-86799752D01*
X132008523Y-86847371D01*
X132056142Y-86942609D01*
X132056142Y-87180704D01*
X132008523Y-87275942D01*
X131960904Y-87323561D01*
X131865666Y-87371180D01*
X131627571Y-87371180D01*
X131532333Y-87323561D01*
X131484714Y-87275942D01*
X132484714Y-87371180D02*
X132484714Y-86371180D01*
X132818047Y-87085466D01*
X133151380Y-86371180D01*
X133151380Y-87371180D01*
X133627571Y-87371180D02*
X133627571Y-86371180D01*
X133627571Y-86847371D02*
X134199000Y-86847371D01*
X134199000Y-87371180D02*
X134199000Y-86371180D01*
X134579952Y-86704514D02*
X135103761Y-86704514D01*
X134579952Y-87371180D01*
X135103761Y-87371180D01*
%TO.C,32.768KHz*%
D15*
X127295123Y-99154947D02*
X127295123Y-98368757D01*
X127778933Y-98792090D01*
X127778933Y-98610661D01*
X127839409Y-98489709D01*
X127899885Y-98429233D01*
X128020838Y-98368757D01*
X128323219Y-98368757D01*
X128444171Y-98429233D01*
X128504647Y-98489709D01*
X128565123Y-98610661D01*
X128565123Y-98973519D01*
X128504647Y-99094471D01*
X128444171Y-99154947D01*
X127416076Y-97884947D02*
X127355600Y-97824471D01*
X127295123Y-97703519D01*
X127295123Y-97401138D01*
X127355600Y-97280185D01*
X127416076Y-97219709D01*
X127537028Y-97159233D01*
X127657980Y-97159233D01*
X127839409Y-97219709D01*
X128565123Y-97945423D01*
X128565123Y-97159233D01*
X128444171Y-96614947D02*
X128504647Y-96554471D01*
X128565123Y-96614947D01*
X128504647Y-96675423D01*
X128444171Y-96614947D01*
X128565123Y-96614947D01*
X127295123Y-96131138D02*
X127295123Y-95284471D01*
X128565123Y-95828757D01*
X127295123Y-94256376D02*
X127295123Y-94498280D01*
X127355600Y-94619233D01*
X127416076Y-94679709D01*
X127597504Y-94800661D01*
X127839409Y-94861138D01*
X128323219Y-94861138D01*
X128444171Y-94800661D01*
X128504647Y-94740185D01*
X128565123Y-94619233D01*
X128565123Y-94377328D01*
X128504647Y-94256376D01*
X128444171Y-94195900D01*
X128323219Y-94135423D01*
X128020838Y-94135423D01*
X127899885Y-94195900D01*
X127839409Y-94256376D01*
X127778933Y-94377328D01*
X127778933Y-94619233D01*
X127839409Y-94740185D01*
X127899885Y-94800661D01*
X128020838Y-94861138D01*
X127839409Y-93409709D02*
X127778933Y-93530661D01*
X127718457Y-93591138D01*
X127597504Y-93651614D01*
X127537028Y-93651614D01*
X127416076Y-93591138D01*
X127355600Y-93530661D01*
X127295123Y-93409709D01*
X127295123Y-93167804D01*
X127355600Y-93046852D01*
X127416076Y-92986376D01*
X127537028Y-92925900D01*
X127597504Y-92925900D01*
X127718457Y-92986376D01*
X127778933Y-93046852D01*
X127839409Y-93167804D01*
X127839409Y-93409709D01*
X127899885Y-93530661D01*
X127960361Y-93591138D01*
X128081314Y-93651614D01*
X128323219Y-93651614D01*
X128444171Y-93591138D01*
X128504647Y-93530661D01*
X128565123Y-93409709D01*
X128565123Y-93167804D01*
X128504647Y-93046852D01*
X128444171Y-92986376D01*
X128323219Y-92925900D01*
X128081314Y-92925900D01*
X127960361Y-92986376D01*
X127899885Y-93046852D01*
X127839409Y-93167804D01*
X128565123Y-92381614D02*
X127295123Y-92381614D01*
X128565123Y-91655900D02*
X127839409Y-92200185D01*
X127295123Y-91655900D02*
X128020838Y-92381614D01*
X128565123Y-91111614D02*
X127295123Y-91111614D01*
X127899885Y-91111614D02*
X127899885Y-90385900D01*
X128565123Y-90385900D02*
X127295123Y-90385900D01*
X127718457Y-89902090D02*
X127718457Y-89236852D01*
X128565123Y-89902090D01*
X128565123Y-89236852D01*
%TO.C,W25Qxx*%
D12*
X132214180Y-100605647D02*
X133214180Y-100367552D01*
X132499895Y-100177076D01*
X133214180Y-99986600D01*
X132214180Y-99748504D01*
X132309419Y-99415171D02*
X132261800Y-99367552D01*
X132214180Y-99272314D01*
X132214180Y-99034219D01*
X132261800Y-98938980D01*
X132309419Y-98891361D01*
X132404657Y-98843742D01*
X132499895Y-98843742D01*
X132642752Y-98891361D01*
X133214180Y-99462790D01*
X133214180Y-98843742D01*
X132214180Y-97938980D02*
X132214180Y-98415171D01*
X132690371Y-98462790D01*
X132642752Y-98415171D01*
X132595133Y-98319933D01*
X132595133Y-98081838D01*
X132642752Y-97986600D01*
X132690371Y-97938980D01*
X132785609Y-97891361D01*
X133023704Y-97891361D01*
X133118942Y-97938980D01*
X133166561Y-97986600D01*
X133214180Y-98081838D01*
X133214180Y-98319933D01*
X133166561Y-98415171D01*
X133118942Y-98462790D01*
X133309419Y-96796123D02*
X133261800Y-96891361D01*
X133166561Y-96986600D01*
X133023704Y-97129457D01*
X132976085Y-97224695D01*
X132976085Y-97319933D01*
X133214180Y-97272314D02*
X133166561Y-97367552D01*
X133071323Y-97462790D01*
X132880847Y-97510409D01*
X132547514Y-97510409D01*
X132357038Y-97462790D01*
X132261800Y-97367552D01*
X132214180Y-97272314D01*
X132214180Y-97081838D01*
X132261800Y-96986600D01*
X132357038Y-96891361D01*
X132547514Y-96843742D01*
X132880847Y-96843742D01*
X133071323Y-96891361D01*
X133166561Y-96986600D01*
X133214180Y-97081838D01*
X133214180Y-97272314D01*
X132214180Y-96510409D02*
X132214180Y-95891361D01*
X132595133Y-96224695D01*
X132595133Y-96081838D01*
X132642752Y-95986600D01*
X132690371Y-95938980D01*
X132785609Y-95891361D01*
X133023704Y-95891361D01*
X133118942Y-95938980D01*
X133166561Y-95986600D01*
X133214180Y-96081838D01*
X133214180Y-96367552D01*
X133166561Y-96462790D01*
X133118942Y-96510409D01*
X132309419Y-95510409D02*
X132261800Y-95462790D01*
X132214180Y-95367552D01*
X132214180Y-95129457D01*
X132261800Y-95034219D01*
X132309419Y-94986600D01*
X132404657Y-94938980D01*
X132499895Y-94938980D01*
X132642752Y-94986600D01*
X133214180Y-95558028D01*
X133214180Y-94938980D01*
X132214180Y-94224695D02*
X132928466Y-94224695D01*
X133071323Y-94272314D01*
X133166561Y-94367552D01*
X133214180Y-94510409D01*
X133214180Y-94605647D01*
X132214180Y-93891361D02*
X133214180Y-93558028D01*
X132214180Y-93224695D01*
X133166561Y-92938980D02*
X133214180Y-92796123D01*
X133214180Y-92558028D01*
X133166561Y-92462790D01*
X133118942Y-92415171D01*
X133023704Y-92367552D01*
X132928466Y-92367552D01*
X132833228Y-92415171D01*
X132785609Y-92462790D01*
X132737990Y-92558028D01*
X132690371Y-92748504D01*
X132642752Y-92843742D01*
X132595133Y-92891361D01*
X132499895Y-92938980D01*
X132404657Y-92938980D01*
X132309419Y-92891361D01*
X132261800Y-92843742D01*
X132214180Y-92748504D01*
X132214180Y-92510409D01*
X132261800Y-92367552D01*
X133166561Y-91986600D02*
X133214180Y-91843742D01*
X133214180Y-91605647D01*
X133166561Y-91510409D01*
X133118942Y-91462790D01*
X133023704Y-91415171D01*
X132928466Y-91415171D01*
X132833228Y-91462790D01*
X132785609Y-91510409D01*
X132737990Y-91605647D01*
X132690371Y-91796123D01*
X132642752Y-91891361D01*
X132595133Y-91938980D01*
X132499895Y-91986600D01*
X132404657Y-91986600D01*
X132309419Y-91938980D01*
X132261800Y-91891361D01*
X132214180Y-91796123D01*
X132214180Y-91558028D01*
X132261800Y-91415171D01*
X135774180Y-98700885D02*
X136774180Y-98462790D01*
X136059895Y-98272314D01*
X136774180Y-98081838D01*
X135774180Y-97843742D01*
X135869419Y-97510409D02*
X135821800Y-97462790D01*
X135774180Y-97367552D01*
X135774180Y-97129457D01*
X135821800Y-97034219D01*
X135869419Y-96986600D01*
X135964657Y-96938980D01*
X136059895Y-96938980D01*
X136202752Y-96986600D01*
X136774180Y-97558028D01*
X136774180Y-96938980D01*
X135774180Y-96034219D02*
X135774180Y-96510409D01*
X136250371Y-96558028D01*
X136202752Y-96510409D01*
X136155133Y-96415171D01*
X136155133Y-96177076D01*
X136202752Y-96081838D01*
X136250371Y-96034219D01*
X136345609Y-95986600D01*
X136583704Y-95986600D01*
X136678942Y-96034219D01*
X136726561Y-96081838D01*
X136774180Y-96177076D01*
X136774180Y-96415171D01*
X136726561Y-96510409D01*
X136678942Y-96558028D01*
X136869419Y-94891361D02*
X136821800Y-94986600D01*
X136726561Y-95081838D01*
X136583704Y-95224695D01*
X136536085Y-95319933D01*
X136536085Y-95415171D01*
X136774180Y-95367552D02*
X136726561Y-95462790D01*
X136631323Y-95558028D01*
X136440847Y-95605647D01*
X136107514Y-95605647D01*
X135917038Y-95558028D01*
X135821800Y-95462790D01*
X135774180Y-95367552D01*
X135774180Y-95177076D01*
X135821800Y-95081838D01*
X135917038Y-94986600D01*
X136107514Y-94938980D01*
X136440847Y-94938980D01*
X136631323Y-94986600D01*
X136726561Y-95081838D01*
X136774180Y-95177076D01*
X136774180Y-95367552D01*
X136774180Y-94605647D02*
X136107514Y-94081838D01*
X136107514Y-94605647D02*
X136774180Y-94081838D01*
X136774180Y-93796123D02*
X136107514Y-93272314D01*
X136107514Y-93796123D02*
X136774180Y-93272314D01*
%TO.C,RESET*%
X146329400Y-85987735D02*
X145853210Y-86321068D01*
X146329400Y-86559163D02*
X145329400Y-86559163D01*
X145329400Y-86178211D01*
X145377020Y-86082973D01*
X145424639Y-86035354D01*
X145519877Y-85987735D01*
X145662734Y-85987735D01*
X145757972Y-86035354D01*
X145805591Y-86082973D01*
X145853210Y-86178211D01*
X145853210Y-86559163D01*
X146281781Y-85178211D02*
X146329400Y-85273449D01*
X146329400Y-85463925D01*
X146281781Y-85559163D01*
X146186543Y-85606782D01*
X145805591Y-85606782D01*
X145710353Y-85559163D01*
X145662734Y-85463925D01*
X145662734Y-85273449D01*
X145710353Y-85178211D01*
X145805591Y-85130592D01*
X145900829Y-85130592D01*
X145996067Y-85606782D01*
X146281781Y-84749640D02*
X146329400Y-84654401D01*
X146329400Y-84463925D01*
X146281781Y-84368687D01*
X146186543Y-84321068D01*
X146138924Y-84321068D01*
X146043686Y-84368687D01*
X145996067Y-84463925D01*
X145996067Y-84606782D01*
X145948448Y-84702020D01*
X145853210Y-84749640D01*
X145805591Y-84749640D01*
X145710353Y-84702020D01*
X145662734Y-84606782D01*
X145662734Y-84463925D01*
X145710353Y-84368687D01*
X146281781Y-83511544D02*
X146329400Y-83606782D01*
X146329400Y-83797259D01*
X146281781Y-83892497D01*
X146186543Y-83940116D01*
X145805591Y-83940116D01*
X145710353Y-83892497D01*
X145662734Y-83797259D01*
X145662734Y-83606782D01*
X145710353Y-83511544D01*
X145805591Y-83463925D01*
X145900829Y-83463925D01*
X145996067Y-83940116D01*
X145662734Y-83178211D02*
X145662734Y-82797259D01*
X145329400Y-83035354D02*
X146186543Y-83035354D01*
X146281781Y-82987735D01*
X146329400Y-82892497D01*
X146329400Y-82797259D01*
X151929400Y-86202020D02*
X151453210Y-86535354D01*
X151929400Y-86773449D02*
X150929400Y-86773449D01*
X150929400Y-86392497D01*
X150977020Y-86297259D01*
X151024639Y-86249640D01*
X151119877Y-86202020D01*
X151262734Y-86202020D01*
X151357972Y-86249640D01*
X151405591Y-86297259D01*
X151453210Y-86392497D01*
X151453210Y-86773449D01*
X151405591Y-85773449D02*
X151405591Y-85440116D01*
X151929400Y-85297259D02*
X151929400Y-85773449D01*
X150929400Y-85773449D01*
X150929400Y-85297259D01*
X151881781Y-84916306D02*
X151929400Y-84773449D01*
X151929400Y-84535354D01*
X151881781Y-84440116D01*
X151834162Y-84392497D01*
X151738924Y-84344878D01*
X151643686Y-84344878D01*
X151548448Y-84392497D01*
X151500829Y-84440116D01*
X151453210Y-84535354D01*
X151405591Y-84725830D01*
X151357972Y-84821068D01*
X151310353Y-84868687D01*
X151215115Y-84916306D01*
X151119877Y-84916306D01*
X151024639Y-84868687D01*
X150977020Y-84821068D01*
X150929400Y-84725830D01*
X150929400Y-84487735D01*
X150977020Y-84344878D01*
X151405591Y-83916306D02*
X151405591Y-83582973D01*
X151929400Y-83440116D02*
X151929400Y-83916306D01*
X150929400Y-83916306D01*
X150929400Y-83440116D01*
X150929400Y-83154401D02*
X150929400Y-82582973D01*
X151929400Y-82868687D02*
X150929400Y-82868687D01*
%TO.C,BOOT0*%
X95696257Y-84390371D02*
X95839114Y-84437990D01*
X95886733Y-84485609D01*
X95934352Y-84580847D01*
X95934352Y-84723704D01*
X95886733Y-84818942D01*
X95839114Y-84866561D01*
X95743876Y-84914180D01*
X95362923Y-84914180D01*
X95362923Y-83914180D01*
X95696257Y-83914180D01*
X95791495Y-83961800D01*
X95839114Y-84009419D01*
X95886733Y-84104657D01*
X95886733Y-84199895D01*
X95839114Y-84295133D01*
X95791495Y-84342752D01*
X95696257Y-84390371D01*
X95362923Y-84390371D01*
X96553400Y-83914180D02*
X96743876Y-83914180D01*
X96839114Y-83961800D01*
X96934352Y-84057038D01*
X96981971Y-84247514D01*
X96981971Y-84580847D01*
X96934352Y-84771323D01*
X96839114Y-84866561D01*
X96743876Y-84914180D01*
X96553400Y-84914180D01*
X96458161Y-84866561D01*
X96362923Y-84771323D01*
X96315304Y-84580847D01*
X96315304Y-84247514D01*
X96362923Y-84057038D01*
X96458161Y-83961800D01*
X96553400Y-83914180D01*
X97601019Y-83914180D02*
X97791495Y-83914180D01*
X97886733Y-83961800D01*
X97981971Y-84057038D01*
X98029590Y-84247514D01*
X98029590Y-84580847D01*
X97981971Y-84771323D01*
X97886733Y-84866561D01*
X97791495Y-84914180D01*
X97601019Y-84914180D01*
X97505780Y-84866561D01*
X97410542Y-84771323D01*
X97362923Y-84580847D01*
X97362923Y-84247514D01*
X97410542Y-84057038D01*
X97505780Y-83961800D01*
X97601019Y-83914180D01*
X98315304Y-83914180D02*
X98886733Y-83914180D01*
X98601019Y-84914180D02*
X98601019Y-83914180D01*
X96981971Y-91165133D02*
X97029590Y-91022276D01*
X97077209Y-90974657D01*
X97172447Y-90927038D01*
X97315304Y-90927038D01*
X97410542Y-90974657D01*
X97458161Y-91022276D01*
X97505780Y-91117514D01*
X97505780Y-91498466D01*
X96505780Y-91498466D01*
X96505780Y-91165133D01*
X96553400Y-91069895D01*
X96601019Y-91022276D01*
X96696257Y-90974657D01*
X96791495Y-90974657D01*
X96886733Y-91022276D01*
X96934352Y-91069895D01*
X96981971Y-91165133D01*
X96981971Y-91498466D01*
X96505780Y-90307990D02*
X96505780Y-90117514D01*
X96553400Y-90022276D01*
X96648638Y-89927038D01*
X96839114Y-89879419D01*
X97172447Y-89879419D01*
X97362923Y-89927038D01*
X97458161Y-90022276D01*
X97505780Y-90117514D01*
X97505780Y-90307990D01*
X97458161Y-90403228D01*
X97362923Y-90498466D01*
X97172447Y-90546085D01*
X96839114Y-90546085D01*
X96648638Y-90498466D01*
X96553400Y-90403228D01*
X96505780Y-90307990D01*
X96505780Y-89260371D02*
X96505780Y-89069895D01*
X96553400Y-88974657D01*
X96648638Y-88879419D01*
X96839114Y-88831800D01*
X97172447Y-88831800D01*
X97362923Y-88879419D01*
X97458161Y-88974657D01*
X97505780Y-89069895D01*
X97505780Y-89260371D01*
X97458161Y-89355609D01*
X97362923Y-89450847D01*
X97172447Y-89498466D01*
X96839114Y-89498466D01*
X96648638Y-89450847D01*
X96553400Y-89355609D01*
X96505780Y-89260371D01*
X96505780Y-88546085D02*
X96505780Y-87974657D01*
X97505780Y-88260371D02*
X96505780Y-88260371D01*
X96505780Y-87450847D02*
X96505780Y-87355609D01*
X96553400Y-87260371D01*
X96601019Y-87212752D01*
X96696257Y-87165133D01*
X96886733Y-87117514D01*
X97124828Y-87117514D01*
X97315304Y-87165133D01*
X97410542Y-87212752D01*
X97458161Y-87260371D01*
X97505780Y-87355609D01*
X97505780Y-87450847D01*
X97458161Y-87546085D01*
X97410542Y-87593704D01*
X97315304Y-87641323D01*
X97124828Y-87688942D01*
X96886733Y-87688942D01*
X96696257Y-87641323D01*
X96601019Y-87593704D01*
X96553400Y-87546085D01*
X96505780Y-87450847D01*
%TO.C,.*%
X71905582Y-81679230D02*
X71953201Y-81726849D01*
X72000820Y-81869706D01*
X72000820Y-81964944D01*
X71953201Y-82107801D01*
X71857963Y-82203040D01*
X71762725Y-82250659D01*
X71572249Y-82298278D01*
X71429392Y-82298278D01*
X71238916Y-82250659D01*
X71143678Y-82203040D01*
X71048440Y-82107801D01*
X71000820Y-81964944D01*
X71000820Y-81869706D01*
X71048440Y-81726849D01*
X71096059Y-81679230D01*
X72000820Y-81107801D02*
X71953201Y-81203040D01*
X71905582Y-81250659D01*
X71810344Y-81298278D01*
X71524630Y-81298278D01*
X71429392Y-81250659D01*
X71381773Y-81203040D01*
X71334154Y-81107801D01*
X71334154Y-80964944D01*
X71381773Y-80869706D01*
X71429392Y-80822087D01*
X71524630Y-80774468D01*
X71810344Y-80774468D01*
X71905582Y-80822087D01*
X71953201Y-80869706D01*
X72000820Y-80964944D01*
X72000820Y-81107801D01*
X71334154Y-80345897D02*
X72000820Y-80345897D01*
X71429392Y-80345897D02*
X71381773Y-80298278D01*
X71334154Y-80203040D01*
X71334154Y-80060182D01*
X71381773Y-79964944D01*
X71477011Y-79917325D01*
X72000820Y-79917325D01*
X72096059Y-79679230D02*
X72096059Y-78917325D01*
X71477011Y-78345897D02*
X71524630Y-78203040D01*
X71572249Y-78155420D01*
X71667487Y-78107801D01*
X71810344Y-78107801D01*
X71905582Y-78155420D01*
X71953201Y-78203040D01*
X72000820Y-78298278D01*
X72000820Y-78679230D01*
X71000820Y-78679230D01*
X71000820Y-78345897D01*
X71048440Y-78250659D01*
X71096059Y-78203040D01*
X71191297Y-78155420D01*
X71286535Y-78155420D01*
X71381773Y-78203040D01*
X71429392Y-78250659D01*
X71477011Y-78345897D01*
X71477011Y-78679230D01*
X108168440Y-80560182D02*
X108216059Y-80607801D01*
X108168440Y-80655420D01*
X108120820Y-80607801D01*
X108168440Y-80560182D01*
X108168440Y-80655420D01*
X145191302Y-109121081D02*
X145238921Y-109168700D01*
X145286540Y-109311558D01*
X145286540Y-109406796D01*
X145238921Y-109549653D01*
X145143683Y-109644891D01*
X145048445Y-109692510D01*
X144857969Y-109740129D01*
X144715112Y-109740129D01*
X144524636Y-109692510D01*
X144429398Y-109644891D01*
X144334160Y-109549653D01*
X144286540Y-109406796D01*
X144286540Y-109311558D01*
X144334160Y-109168700D01*
X144381779Y-109121081D01*
X145286540Y-108549653D02*
X145238921Y-108644891D01*
X145191302Y-108692510D01*
X145096064Y-108740129D01*
X144810350Y-108740129D01*
X144715112Y-108692510D01*
X144667493Y-108644891D01*
X144619874Y-108549653D01*
X144619874Y-108406796D01*
X144667493Y-108311558D01*
X144715112Y-108263939D01*
X144810350Y-108216320D01*
X145096064Y-108216320D01*
X145191302Y-108263939D01*
X145238921Y-108311558D01*
X145286540Y-108406796D01*
X145286540Y-108549653D01*
X144619874Y-107787748D02*
X145286540Y-107787748D01*
X144715112Y-107787748D02*
X144667493Y-107740129D01*
X144619874Y-107644891D01*
X144619874Y-107502034D01*
X144667493Y-107406796D01*
X144762731Y-107359177D01*
X145286540Y-107359177D01*
X145381779Y-107121081D02*
X145381779Y-106359177D01*
X145000826Y-106168700D02*
X145000826Y-105692510D01*
X145286540Y-106263939D02*
X144286540Y-105930605D01*
X145286540Y-105597272D01*
X108214160Y-108073462D02*
X108261779Y-108121081D01*
X108214160Y-108168700D01*
X108166540Y-108121081D01*
X108214160Y-108073462D01*
X108214160Y-108168700D01*
%TD*%
M02*
