%TF.GenerationSoftware,KiCad,Pcbnew,(5.1.10)-1*%
%TF.CreationDate,2021-08-29T21:18:51+07:00*%
%TF.ProjectId,stm32f405rgt6_Mini,73746d33-3266-4343-9035-726774365f4d,rev?*%
%TF.SameCoordinates,Original*%
%TF.FileFunction,OtherDrawing,Comment*%
%FSLAX46Y46*%
G04 Gerber Fmt 4.6, Leading zero omitted, Abs format (unit mm)*
G04 Created by KiCad (PCBNEW (5.1.10)-1) date 2021-08-29 21:18:51*
%MOMM*%
%LPD*%
G01*
G04 APERTURE LIST*
%ADD10C,0.080000*%
G04 APERTURE END LIST*
%TO.C,USB*%
D10*
X72771950Y-95702700D02*
X72271950Y-95702700D01*
X72271950Y-95512224D01*
X72295760Y-95464605D01*
X72319569Y-95440796D01*
X72367188Y-95416986D01*
X72438617Y-95416986D01*
X72486236Y-95440796D01*
X72510045Y-95464605D01*
X72533855Y-95512224D01*
X72533855Y-95702700D01*
X72724331Y-94916986D02*
X72748140Y-94940796D01*
X72771950Y-95012224D01*
X72771950Y-95059843D01*
X72748140Y-95131272D01*
X72700521Y-95178891D01*
X72652902Y-95202700D01*
X72557664Y-95226510D01*
X72486236Y-95226510D01*
X72390998Y-95202700D01*
X72343379Y-95178891D01*
X72295760Y-95131272D01*
X72271950Y-95059843D01*
X72271950Y-95012224D01*
X72295760Y-94940796D01*
X72319569Y-94916986D01*
X72510045Y-94536034D02*
X72533855Y-94464605D01*
X72557664Y-94440796D01*
X72605283Y-94416986D01*
X72676712Y-94416986D01*
X72724331Y-94440796D01*
X72748140Y-94464605D01*
X72771950Y-94512224D01*
X72771950Y-94702700D01*
X72271950Y-94702700D01*
X72271950Y-94536034D01*
X72295760Y-94488415D01*
X72319569Y-94464605D01*
X72367188Y-94440796D01*
X72414807Y-94440796D01*
X72462426Y-94464605D01*
X72486236Y-94488415D01*
X72510045Y-94536034D01*
X72510045Y-94702700D01*
X72748140Y-93631272D02*
X72771950Y-93678891D01*
X72771950Y-93774129D01*
X72748140Y-93821748D01*
X72700521Y-93845558D01*
X72510045Y-93845558D01*
X72462426Y-93821748D01*
X72438617Y-93774129D01*
X72438617Y-93678891D01*
X72462426Y-93631272D01*
X72510045Y-93607462D01*
X72557664Y-93607462D01*
X72605283Y-93845558D01*
X72771950Y-93178891D02*
X72271950Y-93178891D01*
X72748140Y-93178891D02*
X72771950Y-93226510D01*
X72771950Y-93321748D01*
X72748140Y-93369367D01*
X72724331Y-93393177D01*
X72676712Y-93416986D01*
X72533855Y-93416986D01*
X72486236Y-93393177D01*
X72462426Y-93369367D01*
X72438617Y-93321748D01*
X72438617Y-93226510D01*
X72462426Y-93178891D01*
X72438617Y-92726510D02*
X72843379Y-92726510D01*
X72890998Y-92750320D01*
X72914807Y-92774129D01*
X72938617Y-92821748D01*
X72938617Y-92893177D01*
X72914807Y-92940796D01*
X72748140Y-92726510D02*
X72771950Y-92774129D01*
X72771950Y-92869367D01*
X72748140Y-92916986D01*
X72724331Y-92940796D01*
X72676712Y-92964605D01*
X72533855Y-92964605D01*
X72486236Y-92940796D01*
X72462426Y-92916986D01*
X72438617Y-92869367D01*
X72438617Y-92774129D01*
X72462426Y-92726510D01*
X72748140Y-92297939D02*
X72771950Y-92345558D01*
X72771950Y-92440796D01*
X72748140Y-92488415D01*
X72700521Y-92512224D01*
X72510045Y-92512224D01*
X72462426Y-92488415D01*
X72438617Y-92440796D01*
X72438617Y-92345558D01*
X72462426Y-92297939D01*
X72510045Y-92274129D01*
X72557664Y-92274129D01*
X72605283Y-92512224D01*
%TD*%
M02*
