M48
; DRILL file {KiCad (5.1.10)-1} date 08/29/21 21:18:54
; FORMAT={-:-/ absolute / inch / decimal}
; #@! TF.CreationDate,2021-08-29T21:18:54+07:00
; #@! TF.GenerationSoftware,Kicad,Pcbnew,(5.1.10)-1
; #@! TF.FileFunction,Plated,1,2,PTH
FMAT,2
INCH
T1C0.0157
T2C0.0394
%
G90
G05
T1
X2.8523Y-3.3702
X2.8526Y-3.3221
X2.8526Y-3.4172
X2.912Y-3.9357
X2.912Y-3.981
X2.9128Y-4.0244
X3.1088Y-3.437
X3.1108Y-3.2852
X3.1396Y-3.4934
X3.1522Y-3.7602
X3.1546Y-3.2862
X3.155Y-3.6222
X3.166Y-3.931
X3.1994Y-3.2862
X3.215Y-4.077
X3.301Y-3.853
X3.301Y-3.895
X3.39Y-3.8
X3.391Y-3.634
X3.408Y-4.021
X3.4095Y-3.9525
X3.43Y-3.59
X3.439Y-3.852
X3.439Y-3.895
X3.476Y-3.371
X3.482Y-3.424
X3.4901Y-3.8089
X3.491Y-3.9325
X3.498Y-3.54
X3.567Y-3.503
X3.6429Y-3.8714
X3.6433Y-3.9073
X3.6787Y-3.8271
X3.6812Y-3.9076
X3.7171Y-3.9072
X3.904Y-3.6104
X4.025Y-3.676
X4.1049Y-3.3777
X4.154Y-3.869
X4.397Y-4.05
X4.45Y-3.671
X4.4565Y-3.877
X4.492Y-4.019
X4.494Y-3.353
X4.5144Y-3.308
X4.547Y-3.369
X4.5614Y-3.6306
X4.562Y-3.6751
X4.562Y-3.719
X4.565Y-3.796
X4.62Y-3.791
X4.656Y-3.721
X4.6742Y-3.6508
X4.811Y-3.821
X4.832Y-3.731
X4.8827Y-3.5657
X5.0375Y-3.8335
X5.0384Y-3.7649
X5.129Y-3.364
X5.1537Y-3.7057
X5.1807Y-3.8768
X5.1807Y-3.9225
X5.1808Y-3.7568
X5.1808Y-3.9662
X5.233Y-3.363
X5.299Y-3.547
X5.322Y-3.822
X5.3238Y-4.1068
X5.3337Y-4.0621
X5.3676Y-3.9974
X5.439Y-3.71
X5.4938Y-3.4078
X5.5351Y-3.5917
X5.5351Y-3.6868
X5.5412Y-3.4064
X5.5445Y-3.785
X5.5445Y-3.886
X5.5877Y-3.406
X5.6342Y-3.405
X5.7418Y-3.5157
X5.7644Y-3.6867
X5.7647Y-3.7859
X5.7655Y-4.2004
X5.7723Y-3.2698
X5.8096Y-4.2004
X5.8335Y-3.3915
X5.8585Y-4.2001
X5.8586Y-4.1559
X5.9042Y-4.2001
X5.9267Y-3.2265
X5.9271Y-3.1838
X5.9479Y-4.2
X5.9652Y-3.2269
X5.9656Y-3.1842
X6.0045Y-3.4981
X6.0046Y-3.5418
X6.0046Y-3.5875
X6.0049Y-3.6364
X6.0049Y-3.6805
T2
X2.9086Y-3.1576
X2.9104Y-4.2408
X3.0086Y-3.1576
X3.0104Y-4.2408
X3.1086Y-3.1576
X3.1104Y-4.2408
X3.2086Y-3.1576
X3.2104Y-4.2408
X3.3086Y-3.1576
X3.3104Y-4.2408
X3.4086Y-3.1576
X3.4104Y-4.2408
X3.5086Y-3.1576
X3.5104Y-4.2408
X3.6086Y-3.1576
X3.6104Y-4.2408
X3.675Y-3.418
X3.675Y-3.518
X3.7086Y-3.1576
X3.7104Y-4.2408
X3.8086Y-3.1576
X3.8104Y-4.2408
X3.821Y-3.417
X3.821Y-3.517
X3.821Y-3.617
X3.9086Y-3.1576
X3.9104Y-4.2408
X4.0086Y-3.1576
X4.0104Y-4.2408
X4.1086Y-3.1576
X4.1104Y-4.2408
X4.2086Y-3.1576
X4.2104Y-4.2408
X4.3086Y-3.1576
X4.3104Y-4.2408
X4.4086Y-3.1576
X4.4104Y-4.2408
X4.5086Y-3.1576
X4.5104Y-4.2408
X4.6086Y-3.1576
X4.6104Y-4.2408
X4.7086Y-3.1576
X4.7104Y-4.2408
X4.8086Y-3.1576
X4.8104Y-4.2408
X4.9086Y-3.1576
X4.9104Y-4.2408
X4.9895Y-3.9625
X5.0086Y-3.1576
X5.0104Y-4.2408
X5.0895Y-3.9625
X5.1086Y-3.1576
X5.1104Y-4.2408
X5.2086Y-3.1576
X5.2104Y-4.2408
X5.3086Y-3.1576
X5.3104Y-4.2408
X5.4086Y-3.1576
X5.4104Y-4.2408
X5.5086Y-3.1576
X5.5104Y-4.2408
X5.6086Y-3.1576
X5.6104Y-4.2408
X5.6557Y-3.6359
X5.6557Y-3.7359
X5.6557Y-3.8359
X5.6557Y-3.9359
X5.6557Y-4.0359
T0
M30
