%TF.GenerationSoftware,KiCad,Pcbnew,(5.1.10)-1*%
%TF.CreationDate,2021-08-29T21:18:51+07:00*%
%TF.ProjectId,stm32f405rgt6_Mini,73746d33-3266-4343-9035-726774365f4d,rev?*%
%TF.SameCoordinates,Original*%
%TF.FileFunction,Legend,Top*%
%TF.FilePolarity,Positive*%
%FSLAX46Y46*%
G04 Gerber Fmt 4.6, Leading zero omitted, Abs format (unit mm)*
G04 Created by KiCad (PCBNEW (5.1.10)-1) date 2021-08-29 21:18:51*
%MOMM*%
%LPD*%
G01*
G04 APERTURE LIST*
%ADD10C,0.125000*%
%ADD11C,0.150000*%
%ADD12C,0.250000*%
%ADD13C,0.180000*%
%ADD14C,0.200000*%
%ADD15C,0.010000*%
%ADD16C,0.120000*%
%ADD17C,0.100000*%
%ADD18C,0.230000*%
%ADD19C,0.175000*%
G04 APERTURE END LIST*
D10*
X119616220Y-84050297D02*
X119616220Y-83336011D01*
D11*
X115703813Y-85030746D02*
X115703813Y-84330746D01*
X115870480Y-84330746D01*
X115970480Y-84364080D01*
X116037146Y-84430746D01*
X116070480Y-84497413D01*
X116103813Y-84630746D01*
X116103813Y-84730746D01*
X116070480Y-84864080D01*
X116037146Y-84930746D01*
X115970480Y-84997413D01*
X115870480Y-85030746D01*
X115703813Y-85030746D01*
X116370480Y-84830746D02*
X116703813Y-84830746D01*
X116303813Y-85030746D02*
X116537146Y-84330746D01*
X116770480Y-85030746D01*
X117403813Y-84964080D02*
X117370480Y-84997413D01*
X117270480Y-85030746D01*
X117203813Y-85030746D01*
X117103813Y-84997413D01*
X117037146Y-84930746D01*
X117003813Y-84864080D01*
X116970480Y-84730746D01*
X116970480Y-84630746D01*
X117003813Y-84497413D01*
X117037146Y-84430746D01*
X117103813Y-84364080D01*
X117203813Y-84330746D01*
X117270480Y-84330746D01*
X117370480Y-84364080D01*
X117403813Y-84397413D01*
X117670480Y-84397413D02*
X117703813Y-84364080D01*
X117770480Y-84330746D01*
X117937146Y-84330746D01*
X118003813Y-84364080D01*
X118037146Y-84397413D01*
X118070480Y-84464080D01*
X118070480Y-84530746D01*
X118037146Y-84630746D01*
X117637146Y-85030746D01*
X118070480Y-85030746D01*
X118535913Y-85040906D02*
X118535913Y-84340906D01*
X118702580Y-84340906D01*
X118802580Y-84374240D01*
X118869246Y-84440906D01*
X118902580Y-84507573D01*
X118935913Y-84640906D01*
X118935913Y-84740906D01*
X118902580Y-84874240D01*
X118869246Y-84940906D01*
X118802580Y-85007573D01*
X118702580Y-85040906D01*
X118535913Y-85040906D01*
X119202580Y-84840906D02*
X119535913Y-84840906D01*
X119135913Y-85040906D02*
X119369246Y-84340906D01*
X119602580Y-85040906D01*
X120235913Y-84974240D02*
X120202580Y-85007573D01*
X120102580Y-85040906D01*
X120035913Y-85040906D01*
X119935913Y-85007573D01*
X119869246Y-84940906D01*
X119835913Y-84874240D01*
X119802580Y-84740906D01*
X119802580Y-84640906D01*
X119835913Y-84507573D01*
X119869246Y-84440906D01*
X119935913Y-84374240D01*
X120035913Y-84340906D01*
X120102580Y-84340906D01*
X120202580Y-84374240D01*
X120235913Y-84407573D01*
X120902580Y-85040906D02*
X120502580Y-85040906D01*
X120702580Y-85040906D02*
X120702580Y-84340906D01*
X120635913Y-84440906D01*
X120569246Y-84507573D01*
X120502580Y-84540906D01*
X108515266Y-104573506D02*
X108515266Y-103873506D01*
X108748600Y-104373506D01*
X108981933Y-103873506D01*
X108981933Y-104573506D01*
X109448600Y-103873506D02*
X109581933Y-103873506D01*
X109648600Y-103906840D01*
X109715266Y-103973506D01*
X109748600Y-104106840D01*
X109748600Y-104340173D01*
X109715266Y-104473506D01*
X109648600Y-104540173D01*
X109581933Y-104573506D01*
X109448600Y-104573506D01*
X109381933Y-104540173D01*
X109315266Y-104473506D01*
X109281933Y-104340173D01*
X109281933Y-104106840D01*
X109315266Y-103973506D01*
X109381933Y-103906840D01*
X109448600Y-103873506D01*
X109981933Y-103873506D02*
X110415266Y-103873506D01*
X110181933Y-104140173D01*
X110281933Y-104140173D01*
X110348600Y-104173506D01*
X110381933Y-104206840D01*
X110415266Y-104273506D01*
X110415266Y-104440173D01*
X110381933Y-104506840D01*
X110348600Y-104540173D01*
X110281933Y-104573506D01*
X110081933Y-104573506D01*
X110015266Y-104540173D01*
X109981933Y-104506840D01*
X106165106Y-104560806D02*
X106165106Y-103860806D01*
X106398440Y-104360806D01*
X106631773Y-103860806D01*
X106631773Y-104560806D01*
X106965106Y-104560806D02*
X106965106Y-103860806D01*
X107231773Y-103860806D02*
X107665106Y-103860806D01*
X107431773Y-104127473D01*
X107531773Y-104127473D01*
X107598440Y-104160806D01*
X107631773Y-104194140D01*
X107665106Y-104260806D01*
X107665106Y-104427473D01*
X107631773Y-104494140D01*
X107598440Y-104527473D01*
X107531773Y-104560806D01*
X107331773Y-104560806D01*
X107265106Y-104527473D01*
X107231773Y-104494140D01*
X103163206Y-104540173D02*
X103263206Y-104573506D01*
X103429873Y-104573506D01*
X103496540Y-104540173D01*
X103529873Y-104506840D01*
X103563206Y-104440173D01*
X103563206Y-104373506D01*
X103529873Y-104306840D01*
X103496540Y-104273506D01*
X103429873Y-104240173D01*
X103296540Y-104206840D01*
X103229873Y-104173506D01*
X103196540Y-104140173D01*
X103163206Y-104073506D01*
X103163206Y-104006840D01*
X103196540Y-103940173D01*
X103229873Y-103906840D01*
X103296540Y-103873506D01*
X103463206Y-103873506D01*
X103563206Y-103906840D01*
X104263206Y-104506840D02*
X104229873Y-104540173D01*
X104129873Y-104573506D01*
X104063206Y-104573506D01*
X103963206Y-104540173D01*
X103896540Y-104473506D01*
X103863206Y-104406840D01*
X103829873Y-104273506D01*
X103829873Y-104173506D01*
X103863206Y-104040173D01*
X103896540Y-103973506D01*
X103963206Y-103906840D01*
X104063206Y-103873506D01*
X104129873Y-103873506D01*
X104229873Y-103906840D01*
X104263206Y-103940173D01*
X104563206Y-104573506D02*
X104563206Y-103873506D01*
X104963206Y-104573506D02*
X104663206Y-104173506D01*
X104963206Y-103873506D02*
X104563206Y-104273506D01*
X105196540Y-103873506D02*
X105629873Y-103873506D01*
X105396540Y-104140173D01*
X105496540Y-104140173D01*
X105563206Y-104173506D01*
X105596540Y-104206840D01*
X105629873Y-104273506D01*
X105629873Y-104440173D01*
X105596540Y-104506840D01*
X105563206Y-104540173D01*
X105496540Y-104573506D01*
X105296540Y-104573506D01*
X105229873Y-104540173D01*
X105196540Y-104506840D01*
X98382300Y-84629460D02*
X98915633Y-84629460D01*
X98648966Y-84896126D02*
X98648966Y-84362793D01*
X99648966Y-84829460D02*
X99615633Y-84862793D01*
X99515633Y-84896126D01*
X99448966Y-84896126D01*
X99348966Y-84862793D01*
X99282300Y-84796126D01*
X99248966Y-84729460D01*
X99215633Y-84596126D01*
X99215633Y-84496126D01*
X99248966Y-84362793D01*
X99282300Y-84296126D01*
X99348966Y-84229460D01*
X99448966Y-84196126D01*
X99515633Y-84196126D01*
X99615633Y-84229460D01*
X99648966Y-84262793D01*
X99948966Y-84896126D02*
X99948966Y-84196126D01*
X100348966Y-84896126D02*
X100048966Y-84496126D01*
X100348966Y-84196126D02*
X99948966Y-84596126D01*
X100615633Y-84262793D02*
X100648966Y-84229460D01*
X100715633Y-84196126D01*
X100882300Y-84196126D01*
X100948966Y-84229460D01*
X100982300Y-84262793D01*
X101015633Y-84329460D01*
X101015633Y-84396126D01*
X100982300Y-84496126D01*
X100582300Y-84896126D01*
X101015633Y-84896126D01*
X134295606Y-84096026D02*
X134295606Y-83396026D01*
X134528940Y-83896026D01*
X134762273Y-83396026D01*
X134762273Y-84096026D01*
X135095606Y-84096026D02*
X135095606Y-83396026D01*
X135395606Y-83462693D02*
X135428940Y-83429360D01*
X135495606Y-83396026D01*
X135662273Y-83396026D01*
X135728940Y-83429360D01*
X135762273Y-83462693D01*
X135795606Y-83529360D01*
X135795606Y-83596026D01*
X135762273Y-83696026D01*
X135362273Y-84096026D01*
X135795606Y-84096026D01*
X131593706Y-84108726D02*
X131593706Y-83408726D01*
X131827040Y-83908726D01*
X132060373Y-83408726D01*
X132060373Y-84108726D01*
X132527040Y-83408726D02*
X132660373Y-83408726D01*
X132727040Y-83442060D01*
X132793706Y-83508726D01*
X132827040Y-83642060D01*
X132827040Y-83875393D01*
X132793706Y-84008726D01*
X132727040Y-84075393D01*
X132660373Y-84108726D01*
X132527040Y-84108726D01*
X132460373Y-84075393D01*
X132393706Y-84008726D01*
X132360373Y-83875393D01*
X132360373Y-83642060D01*
X132393706Y-83508726D01*
X132460373Y-83442060D01*
X132527040Y-83408726D01*
X133093706Y-83475393D02*
X133127040Y-83442060D01*
X133193706Y-83408726D01*
X133360373Y-83408726D01*
X133427040Y-83442060D01*
X133460373Y-83475393D01*
X133493706Y-83542060D01*
X133493706Y-83608726D01*
X133460373Y-83708726D01*
X133060373Y-84108726D01*
X133493706Y-84108726D01*
X111062886Y-84101106D02*
X111062886Y-83401106D01*
X111296220Y-83901106D01*
X111529553Y-83401106D01*
X111529553Y-84101106D01*
X111996220Y-83401106D02*
X112129553Y-83401106D01*
X112196220Y-83434440D01*
X112262886Y-83501106D01*
X112296220Y-83634440D01*
X112296220Y-83867773D01*
X112262886Y-84001106D01*
X112196220Y-84067773D01*
X112129553Y-84101106D01*
X111996220Y-84101106D01*
X111929553Y-84067773D01*
X111862886Y-84001106D01*
X111829553Y-83867773D01*
X111829553Y-83634440D01*
X111862886Y-83501106D01*
X111929553Y-83434440D01*
X111996220Y-83401106D01*
X112962886Y-84101106D02*
X112562886Y-84101106D01*
X112762886Y-84101106D02*
X112762886Y-83401106D01*
X112696220Y-83501106D01*
X112629553Y-83567773D01*
X112562886Y-83601106D01*
X113764786Y-84088406D02*
X113764786Y-83388406D01*
X113998120Y-83888406D01*
X114231453Y-83388406D01*
X114231453Y-84088406D01*
X114564786Y-84088406D02*
X114564786Y-83388406D01*
X115264786Y-84088406D02*
X114864786Y-84088406D01*
X115064786Y-84088406D02*
X115064786Y-83388406D01*
X114998120Y-83488406D01*
X114931453Y-83555073D01*
X114864786Y-83588406D01*
X115814946Y-84067773D02*
X115914946Y-84101106D01*
X116081613Y-84101106D01*
X116148280Y-84067773D01*
X116181613Y-84034440D01*
X116214946Y-83967773D01*
X116214946Y-83901106D01*
X116181613Y-83834440D01*
X116148280Y-83801106D01*
X116081613Y-83767773D01*
X115948280Y-83734440D01*
X115881613Y-83701106D01*
X115848280Y-83667773D01*
X115814946Y-83601106D01*
X115814946Y-83534440D01*
X115848280Y-83467773D01*
X115881613Y-83434440D01*
X115948280Y-83401106D01*
X116114946Y-83401106D01*
X116214946Y-83434440D01*
X116914946Y-84034440D02*
X116881613Y-84067773D01*
X116781613Y-84101106D01*
X116714946Y-84101106D01*
X116614946Y-84067773D01*
X116548280Y-84001106D01*
X116514946Y-83934440D01*
X116481613Y-83801106D01*
X116481613Y-83701106D01*
X116514946Y-83567773D01*
X116548280Y-83501106D01*
X116614946Y-83434440D01*
X116714946Y-83401106D01*
X116781613Y-83401106D01*
X116881613Y-83434440D01*
X116914946Y-83467773D01*
X117214946Y-84101106D02*
X117214946Y-83401106D01*
X117614946Y-84101106D02*
X117314946Y-83701106D01*
X117614946Y-83401106D02*
X117214946Y-83801106D01*
X118281613Y-84101106D02*
X117881613Y-84101106D01*
X118081613Y-84101106D02*
X118081613Y-83401106D01*
X118014946Y-83501106D01*
X117948280Y-83567773D01*
X117881613Y-83601106D01*
X80165246Y-104357293D02*
X80265246Y-104390626D01*
X80431913Y-104390626D01*
X80498580Y-104357293D01*
X80531913Y-104323960D01*
X80565246Y-104257293D01*
X80565246Y-104190626D01*
X80531913Y-104123960D01*
X80498580Y-104090626D01*
X80431913Y-104057293D01*
X80298580Y-104023960D01*
X80231913Y-103990626D01*
X80198580Y-103957293D01*
X80165246Y-103890626D01*
X80165246Y-103823960D01*
X80198580Y-103757293D01*
X80231913Y-103723960D01*
X80298580Y-103690626D01*
X80465246Y-103690626D01*
X80565246Y-103723960D01*
X80865246Y-104390626D02*
X80865246Y-103690626D01*
X81031913Y-103690626D01*
X81131913Y-103723960D01*
X81198580Y-103790626D01*
X81231913Y-103857293D01*
X81265246Y-103990626D01*
X81265246Y-104090626D01*
X81231913Y-104223960D01*
X81198580Y-104290626D01*
X81131913Y-104357293D01*
X81031913Y-104390626D01*
X80865246Y-104390626D01*
X81531913Y-104190626D02*
X81865246Y-104190626D01*
X81465246Y-104390626D02*
X81698580Y-103690626D01*
X81931913Y-104390626D01*
X82098580Y-103690626D02*
X82531913Y-103690626D01*
X82298580Y-103957293D01*
X82398580Y-103957293D01*
X82465246Y-103990626D01*
X82498580Y-104023960D01*
X82531913Y-104090626D01*
X82531913Y-104257293D01*
X82498580Y-104323960D01*
X82465246Y-104357293D01*
X82398580Y-104390626D01*
X82198580Y-104390626D01*
X82131913Y-104357293D01*
X82098580Y-104323960D01*
X83090213Y-104357293D02*
X83190213Y-104390626D01*
X83356880Y-104390626D01*
X83423546Y-104357293D01*
X83456880Y-104323960D01*
X83490213Y-104257293D01*
X83490213Y-104190626D01*
X83456880Y-104123960D01*
X83423546Y-104090626D01*
X83356880Y-104057293D01*
X83223546Y-104023960D01*
X83156880Y-103990626D01*
X83123546Y-103957293D01*
X83090213Y-103890626D01*
X83090213Y-103823960D01*
X83123546Y-103757293D01*
X83156880Y-103723960D01*
X83223546Y-103690626D01*
X83390213Y-103690626D01*
X83490213Y-103723960D01*
X84190213Y-104323960D02*
X84156880Y-104357293D01*
X84056880Y-104390626D01*
X83990213Y-104390626D01*
X83890213Y-104357293D01*
X83823546Y-104290626D01*
X83790213Y-104223960D01*
X83756880Y-104090626D01*
X83756880Y-103990626D01*
X83790213Y-103857293D01*
X83823546Y-103790626D01*
X83890213Y-103723960D01*
X83990213Y-103690626D01*
X84056880Y-103690626D01*
X84156880Y-103723960D01*
X84190213Y-103757293D01*
X84823546Y-104390626D02*
X84490213Y-104390626D01*
X84490213Y-103690626D01*
X84990213Y-103690626D02*
X85423546Y-103690626D01*
X85190213Y-103957293D01*
X85290213Y-103957293D01*
X85356880Y-103990626D01*
X85390213Y-104023960D01*
X85423546Y-104090626D01*
X85423546Y-104257293D01*
X85390213Y-104323960D01*
X85356880Y-104357293D01*
X85290213Y-104390626D01*
X85090213Y-104390626D01*
X85023546Y-104357293D01*
X84990213Y-104323960D01*
X92691413Y-84862793D02*
X92791413Y-84896126D01*
X92958080Y-84896126D01*
X93024746Y-84862793D01*
X93058080Y-84829460D01*
X93091413Y-84762793D01*
X93091413Y-84696126D01*
X93058080Y-84629460D01*
X93024746Y-84596126D01*
X92958080Y-84562793D01*
X92824746Y-84529460D01*
X92758080Y-84496126D01*
X92724746Y-84462793D01*
X92691413Y-84396126D01*
X92691413Y-84329460D01*
X92724746Y-84262793D01*
X92758080Y-84229460D01*
X92824746Y-84196126D01*
X92991413Y-84196126D01*
X93091413Y-84229460D01*
X93791413Y-84829460D02*
X93758080Y-84862793D01*
X93658080Y-84896126D01*
X93591413Y-84896126D01*
X93491413Y-84862793D01*
X93424746Y-84796126D01*
X93391413Y-84729460D01*
X93358080Y-84596126D01*
X93358080Y-84496126D01*
X93391413Y-84362793D01*
X93424746Y-84296126D01*
X93491413Y-84229460D01*
X93591413Y-84196126D01*
X93658080Y-84196126D01*
X93758080Y-84229460D01*
X93791413Y-84262793D01*
X94424746Y-84896126D02*
X94091413Y-84896126D01*
X94091413Y-84196126D01*
X94624746Y-84262793D02*
X94658080Y-84229460D01*
X94724746Y-84196126D01*
X94891413Y-84196126D01*
X94958080Y-84229460D01*
X94991413Y-84262793D01*
X95024746Y-84329460D01*
X95024746Y-84396126D01*
X94991413Y-84496126D01*
X94591413Y-84896126D01*
X95024746Y-84896126D01*
X95689726Y-84862793D02*
X95789726Y-84896126D01*
X95956393Y-84896126D01*
X96023060Y-84862793D01*
X96056393Y-84829460D01*
X96089726Y-84762793D01*
X96089726Y-84696126D01*
X96056393Y-84629460D01*
X96023060Y-84596126D01*
X95956393Y-84562793D01*
X95823060Y-84529460D01*
X95756393Y-84496126D01*
X95723060Y-84462793D01*
X95689726Y-84396126D01*
X95689726Y-84329460D01*
X95723060Y-84262793D01*
X95756393Y-84229460D01*
X95823060Y-84196126D01*
X95989726Y-84196126D01*
X96089726Y-84229460D01*
X96389726Y-84896126D02*
X96389726Y-84196126D01*
X96556393Y-84196126D01*
X96656393Y-84229460D01*
X96723060Y-84296126D01*
X96756393Y-84362793D01*
X96789726Y-84496126D01*
X96789726Y-84596126D01*
X96756393Y-84729460D01*
X96723060Y-84796126D01*
X96656393Y-84862793D01*
X96556393Y-84896126D01*
X96389726Y-84896126D01*
X97056393Y-84696126D02*
X97389726Y-84696126D01*
X96989726Y-84896126D02*
X97223060Y-84196126D01*
X97456393Y-84896126D01*
X97656393Y-84262793D02*
X97689726Y-84229460D01*
X97756393Y-84196126D01*
X97923060Y-84196126D01*
X97989726Y-84229460D01*
X98023060Y-84262793D01*
X98056393Y-84329460D01*
X98056393Y-84396126D01*
X98023060Y-84496126D01*
X97623060Y-84896126D01*
X98056393Y-84896126D01*
X123642426Y-104512233D02*
X123742426Y-104545566D01*
X123909093Y-104545566D01*
X123975760Y-104512233D01*
X124009093Y-104478900D01*
X124042426Y-104412233D01*
X124042426Y-104345566D01*
X124009093Y-104278900D01*
X123975760Y-104245566D01*
X123909093Y-104212233D01*
X123775760Y-104178900D01*
X123709093Y-104145566D01*
X123675760Y-104112233D01*
X123642426Y-104045566D01*
X123642426Y-103978900D01*
X123675760Y-103912233D01*
X123709093Y-103878900D01*
X123775760Y-103845566D01*
X123942426Y-103845566D01*
X124042426Y-103878900D01*
X124342426Y-104545566D02*
X124342426Y-103845566D01*
X124509093Y-103845566D01*
X124609093Y-103878900D01*
X124675760Y-103945566D01*
X124709093Y-104012233D01*
X124742426Y-104145566D01*
X124742426Y-104245566D01*
X124709093Y-104378900D01*
X124675760Y-104445566D01*
X124609093Y-104512233D01*
X124509093Y-104545566D01*
X124342426Y-104545566D01*
X125009093Y-104345566D02*
X125342426Y-104345566D01*
X124942426Y-104545566D02*
X125175760Y-103845566D01*
X125409093Y-104545566D01*
X126009093Y-104545566D02*
X125609093Y-104545566D01*
X125809093Y-104545566D02*
X125809093Y-103845566D01*
X125742426Y-103945566D01*
X125675760Y-104012233D01*
X125609093Y-104045566D01*
X120771113Y-104489373D02*
X120871113Y-104522706D01*
X121037780Y-104522706D01*
X121104446Y-104489373D01*
X121137780Y-104456040D01*
X121171113Y-104389373D01*
X121171113Y-104322706D01*
X121137780Y-104256040D01*
X121104446Y-104222706D01*
X121037780Y-104189373D01*
X120904446Y-104156040D01*
X120837780Y-104122706D01*
X120804446Y-104089373D01*
X120771113Y-104022706D01*
X120771113Y-103956040D01*
X120804446Y-103889373D01*
X120837780Y-103856040D01*
X120904446Y-103822706D01*
X121071113Y-103822706D01*
X121171113Y-103856040D01*
X121871113Y-104456040D02*
X121837780Y-104489373D01*
X121737780Y-104522706D01*
X121671113Y-104522706D01*
X121571113Y-104489373D01*
X121504446Y-104422706D01*
X121471113Y-104356040D01*
X121437780Y-104222706D01*
X121437780Y-104122706D01*
X121471113Y-103989373D01*
X121504446Y-103922706D01*
X121571113Y-103856040D01*
X121671113Y-103822706D01*
X121737780Y-103822706D01*
X121837780Y-103856040D01*
X121871113Y-103889373D01*
X122504446Y-104522706D02*
X122171113Y-104522706D01*
X122171113Y-103822706D01*
X123104446Y-104522706D02*
X122704446Y-104522706D01*
X122904446Y-104522706D02*
X122904446Y-103822706D01*
X122837780Y-103922706D01*
X122771113Y-103989373D01*
X122704446Y-104022706D01*
X111611460Y-103646406D02*
X111378126Y-103313073D01*
X111211460Y-103646406D02*
X111211460Y-102946406D01*
X111478126Y-102946406D01*
X111544793Y-102979740D01*
X111578126Y-103013073D01*
X111611460Y-103079740D01*
X111611460Y-103179740D01*
X111578126Y-103246406D01*
X111544793Y-103279740D01*
X111478126Y-103313073D01*
X111211460Y-103313073D01*
X111844793Y-103646406D02*
X112211460Y-103179740D01*
X111844793Y-103179740D02*
X112211460Y-103646406D01*
X112811460Y-102946406D02*
X112478126Y-102946406D01*
X112444793Y-103279740D01*
X112478126Y-103246406D01*
X112544793Y-103213073D01*
X112711460Y-103213073D01*
X112778126Y-103246406D01*
X112811460Y-103279740D01*
X112844793Y-103346406D01*
X112844793Y-103513073D01*
X112811460Y-103579740D01*
X112778126Y-103613073D01*
X112711460Y-103646406D01*
X112544793Y-103646406D01*
X112478126Y-103613073D01*
X112444793Y-103579740D01*
X108596373Y-102936246D02*
X108996373Y-102936246D01*
X108796373Y-103636246D02*
X108796373Y-102936246D01*
X109163040Y-103636246D02*
X109529706Y-103169580D01*
X109163040Y-103169580D02*
X109529706Y-103636246D01*
X110129706Y-102936246D02*
X109796373Y-102936246D01*
X109763040Y-103269580D01*
X109796373Y-103236246D01*
X109863040Y-103202913D01*
X110029706Y-103202913D01*
X110096373Y-103236246D01*
X110129706Y-103269580D01*
X110163040Y-103336246D01*
X110163040Y-103502913D01*
X110129706Y-103569580D01*
X110096373Y-103602913D01*
X110029706Y-103636246D01*
X109863040Y-103636246D01*
X109796373Y-103602913D01*
X109763040Y-103569580D01*
X128926533Y-83390946D02*
X129326533Y-83390946D01*
X129126533Y-84090946D02*
X129126533Y-83390946D01*
X129493200Y-84090946D02*
X129859866Y-83624280D01*
X129493200Y-83624280D02*
X129859866Y-84090946D01*
X130426533Y-83624280D02*
X130426533Y-84090946D01*
X130259866Y-83357613D02*
X130093200Y-83857613D01*
X130526533Y-83857613D01*
X126787960Y-84101106D02*
X126554626Y-83767773D01*
X126387960Y-84101106D02*
X126387960Y-83401106D01*
X126654626Y-83401106D01*
X126721293Y-83434440D01*
X126754626Y-83467773D01*
X126787960Y-83534440D01*
X126787960Y-83634440D01*
X126754626Y-83701106D01*
X126721293Y-83734440D01*
X126654626Y-83767773D01*
X126387960Y-83767773D01*
X127021293Y-84101106D02*
X127387960Y-83634440D01*
X127021293Y-83634440D02*
X127387960Y-84101106D01*
X127954626Y-83634440D02*
X127954626Y-84101106D01*
X127787960Y-83367773D02*
X127621293Y-83867773D01*
X128054626Y-83867773D01*
X95931933Y-83324906D02*
X96331933Y-83324906D01*
X96131933Y-84024906D02*
X96131933Y-83324906D01*
X96498600Y-84024906D02*
X96865266Y-83558240D01*
X96498600Y-83558240D02*
X96865266Y-84024906D01*
X97065266Y-83324906D02*
X97498600Y-83324906D01*
X97265266Y-83591573D01*
X97365266Y-83591573D01*
X97431933Y-83624906D01*
X97465266Y-83658240D01*
X97498600Y-83724906D01*
X97498600Y-83891573D01*
X97465266Y-83958240D01*
X97431933Y-83991573D01*
X97365266Y-84024906D01*
X97165266Y-84024906D01*
X97098600Y-83991573D01*
X97065266Y-83958240D01*
X93793360Y-84035066D02*
X93560026Y-83701733D01*
X93393360Y-84035066D02*
X93393360Y-83335066D01*
X93660026Y-83335066D01*
X93726693Y-83368400D01*
X93760026Y-83401733D01*
X93793360Y-83468400D01*
X93793360Y-83568400D01*
X93760026Y-83635066D01*
X93726693Y-83668400D01*
X93660026Y-83701733D01*
X93393360Y-83701733D01*
X94026693Y-84035066D02*
X94393360Y-83568400D01*
X94026693Y-83568400D02*
X94393360Y-84035066D01*
X94593360Y-83335066D02*
X95026693Y-83335066D01*
X94793360Y-83601733D01*
X94893360Y-83601733D01*
X94960026Y-83635066D01*
X94993360Y-83668400D01*
X95026693Y-83735066D01*
X95026693Y-83901733D01*
X94993360Y-83968400D01*
X94960026Y-84001733D01*
X94893360Y-84035066D01*
X94693360Y-84035066D01*
X94626693Y-84001733D01*
X94593360Y-83968400D01*
X121781620Y-84116346D02*
X121548286Y-83783013D01*
X121381620Y-84116346D02*
X121381620Y-83416346D01*
X121648286Y-83416346D01*
X121714953Y-83449680D01*
X121748286Y-83483013D01*
X121781620Y-83549680D01*
X121781620Y-83649680D01*
X121748286Y-83716346D01*
X121714953Y-83749680D01*
X121648286Y-83783013D01*
X121381620Y-83783013D01*
X122014953Y-84116346D02*
X122381620Y-83649680D01*
X122014953Y-83649680D02*
X122381620Y-84116346D01*
X122614953Y-83483013D02*
X122648286Y-83449680D01*
X122714953Y-83416346D01*
X122881620Y-83416346D01*
X122948286Y-83449680D01*
X122981620Y-83483013D01*
X123014953Y-83549680D01*
X123014953Y-83616346D01*
X122981620Y-83716346D01*
X122581620Y-84116346D01*
X123014953Y-84116346D01*
X123920193Y-83406186D02*
X124320193Y-83406186D01*
X124120193Y-84106186D02*
X124120193Y-83406186D01*
X124486860Y-84106186D02*
X124853526Y-83639520D01*
X124486860Y-83639520D02*
X124853526Y-84106186D01*
X125086860Y-83472853D02*
X125120193Y-83439520D01*
X125186860Y-83406186D01*
X125353526Y-83406186D01*
X125420193Y-83439520D01*
X125453526Y-83472853D01*
X125486860Y-83539520D01*
X125486860Y-83606186D01*
X125453526Y-83706186D01*
X125053526Y-84106186D01*
X125486860Y-84106186D01*
X88766700Y-104474446D02*
X88533366Y-104141113D01*
X88366700Y-104474446D02*
X88366700Y-103774446D01*
X88633366Y-103774446D01*
X88700033Y-103807780D01*
X88733366Y-103841113D01*
X88766700Y-103907780D01*
X88766700Y-104007780D01*
X88733366Y-104074446D01*
X88700033Y-104107780D01*
X88633366Y-104141113D01*
X88366700Y-104141113D01*
X89000033Y-104474446D02*
X89366700Y-104007780D01*
X89000033Y-104007780D02*
X89366700Y-104474446D01*
X90000033Y-104474446D02*
X89600033Y-104474446D01*
X89800033Y-104474446D02*
X89800033Y-103774446D01*
X89733366Y-103874446D01*
X89666700Y-103941113D01*
X89600033Y-103974446D01*
X85812573Y-103771906D02*
X86212573Y-103771906D01*
X86012573Y-104471906D02*
X86012573Y-103771906D01*
X86379240Y-104471906D02*
X86745906Y-104005240D01*
X86379240Y-104005240D02*
X86745906Y-104471906D01*
X87379240Y-104471906D02*
X86979240Y-104471906D01*
X87179240Y-104471906D02*
X87179240Y-103771906D01*
X87112573Y-103871906D01*
X87045906Y-103938573D01*
X86979240Y-103971906D01*
X76056540Y-104471906D02*
X75823206Y-104138573D01*
X75656540Y-104471906D02*
X75656540Y-103771906D01*
X75923206Y-103771906D01*
X75989873Y-103805240D01*
X76023206Y-103838573D01*
X76056540Y-103905240D01*
X76056540Y-104005240D01*
X76023206Y-104071906D01*
X75989873Y-104105240D01*
X75923206Y-104138573D01*
X75656540Y-104138573D01*
X76289873Y-104471906D02*
X76656540Y-104005240D01*
X76289873Y-104005240D02*
X76656540Y-104471906D01*
X77223206Y-103771906D02*
X77089873Y-103771906D01*
X77023206Y-103805240D01*
X76989873Y-103838573D01*
X76923206Y-103938573D01*
X76889873Y-104071906D01*
X76889873Y-104338573D01*
X76923206Y-104405240D01*
X76956540Y-104438573D01*
X77023206Y-104471906D01*
X77156540Y-104471906D01*
X77223206Y-104438573D01*
X77256540Y-104405240D01*
X77289873Y-104338573D01*
X77289873Y-104171906D01*
X77256540Y-104105240D01*
X77223206Y-104071906D01*
X77156540Y-104038573D01*
X77023206Y-104038573D01*
X76956540Y-104071906D01*
X76923206Y-104105240D01*
X76889873Y-104171906D01*
X73102413Y-103769366D02*
X73502413Y-103769366D01*
X73302413Y-104469366D02*
X73302413Y-103769366D01*
X73669080Y-104469366D02*
X74035746Y-104002700D01*
X73669080Y-104002700D02*
X74035746Y-104469366D01*
X74602413Y-103769366D02*
X74469080Y-103769366D01*
X74402413Y-103802700D01*
X74369080Y-103836033D01*
X74302413Y-103936033D01*
X74269080Y-104069366D01*
X74269080Y-104336033D01*
X74302413Y-104402700D01*
X74335746Y-104436033D01*
X74402413Y-104469366D01*
X74535746Y-104469366D01*
X74602413Y-104436033D01*
X74635746Y-104402700D01*
X74669080Y-104336033D01*
X74669080Y-104169366D01*
X74635746Y-104102700D01*
X74602413Y-104069366D01*
X74535746Y-104036033D01*
X74402413Y-104036033D01*
X74335746Y-104069366D01*
X74302413Y-104102700D01*
X74269080Y-104169366D01*
D12*
X98760351Y-104296459D02*
X99903208Y-104296459D01*
X97950020Y-83554320D02*
X97950020Y-83792416D01*
X97711924Y-83697178D02*
X97950020Y-83792416D01*
X98188115Y-83697178D01*
X97807162Y-83982892D02*
X97950020Y-83792416D01*
X98092877Y-83982892D01*
X112049560Y-104092760D02*
X112049560Y-104330856D01*
X111811464Y-104235618D02*
X112049560Y-104330856D01*
X112287655Y-104235618D01*
X111906702Y-104521332D02*
X112049560Y-104330856D01*
X112192417Y-104521332D01*
X108308140Y-103140260D02*
X108308140Y-103378356D01*
X108070044Y-103283118D02*
X108308140Y-103378356D01*
X108546235Y-103283118D01*
X108165282Y-103568832D02*
X108308140Y-103378356D01*
X108450997Y-103568832D01*
X106949240Y-103119940D02*
X106949240Y-103358036D01*
X106711144Y-103262798D02*
X106949240Y-103358036D01*
X107187335Y-103262798D01*
X106806382Y-103548512D02*
X106949240Y-103358036D01*
X107092097Y-103548512D01*
X104449880Y-103140260D02*
X104449880Y-103378356D01*
X104211784Y-103283118D02*
X104449880Y-103378356D01*
X104687975Y-103283118D01*
X104307022Y-103568832D02*
X104449880Y-103378356D01*
X104592737Y-103568832D01*
X137419080Y-83280000D02*
X137419080Y-83518096D01*
X137180984Y-83422858D02*
X137419080Y-83518096D01*
X137657175Y-83422858D01*
X137276222Y-83708572D02*
X137419080Y-83518096D01*
X137561937Y-83708572D01*
X135869680Y-82738980D02*
X135869680Y-82977076D01*
X135631584Y-82881838D02*
X135869680Y-82977076D01*
X136107775Y-82881838D01*
X135726822Y-83167552D02*
X135869680Y-82977076D01*
X136012537Y-83167552D01*
X133390640Y-82744060D02*
X133390640Y-82982156D01*
X133152544Y-82886918D02*
X133390640Y-82982156D01*
X133628735Y-82886918D01*
X133247782Y-83172632D02*
X133390640Y-82982156D01*
X133533497Y-83172632D01*
X80396080Y-104623620D02*
X80396080Y-104861716D01*
X80157984Y-104766478D02*
X80396080Y-104861716D01*
X80634175Y-104766478D01*
X80253222Y-105052192D02*
X80396080Y-104861716D01*
X80538937Y-105052192D01*
X79009240Y-104072440D02*
X79009240Y-104310536D01*
X78771144Y-104215298D02*
X79009240Y-104310536D01*
X79247335Y-104215298D01*
X78866382Y-104501012D02*
X79009240Y-104310536D01*
X79152097Y-104501012D01*
X94203520Y-104019100D02*
X94203520Y-104257196D01*
X93965424Y-104161958D02*
X94203520Y-104257196D01*
X94441615Y-104161958D01*
X94060662Y-104447672D02*
X94203520Y-104257196D01*
X94346377Y-104447672D01*
X91683840Y-104036880D02*
X91683840Y-104274976D01*
X91445744Y-104179738D02*
X91683840Y-104274976D01*
X91921935Y-104179738D01*
X91540982Y-104465452D02*
X91683840Y-104274976D01*
X91826697Y-104465452D01*
X96347351Y-104296459D02*
X97490208Y-104296459D01*
D13*
X142030504Y-83038904D02*
X141763838Y-82657952D01*
X141573361Y-83038904D02*
X141573361Y-82238904D01*
X141878123Y-82238904D01*
X141954314Y-82277000D01*
X141992409Y-82315095D01*
X142030504Y-82391285D01*
X142030504Y-82505571D01*
X141992409Y-82581761D01*
X141954314Y-82619857D01*
X141878123Y-82657952D01*
X141573361Y-82657952D01*
X142335266Y-83000809D02*
X142449552Y-83038904D01*
X142640028Y-83038904D01*
X142716219Y-83000809D01*
X142754314Y-82962714D01*
X142792409Y-82886523D01*
X142792409Y-82810333D01*
X142754314Y-82734142D01*
X142716219Y-82696047D01*
X142640028Y-82657952D01*
X142487647Y-82619857D01*
X142411457Y-82581761D01*
X142373361Y-82543666D01*
X142335266Y-82467476D01*
X142335266Y-82391285D01*
X142373361Y-82315095D01*
X142411457Y-82277000D01*
X142487647Y-82238904D01*
X142678123Y-82238904D01*
X142792409Y-82277000D01*
X143020980Y-82238904D02*
X143478123Y-82238904D01*
X143249552Y-83038904D02*
X143249552Y-82238904D01*
X139795266Y-82962714D02*
X139757171Y-83000809D01*
X139642885Y-83038904D01*
X139566695Y-83038904D01*
X139452409Y-83000809D01*
X139376219Y-82924619D01*
X139338123Y-82848428D01*
X139300028Y-82696047D01*
X139300028Y-82581761D01*
X139338123Y-82429380D01*
X139376219Y-82353190D01*
X139452409Y-82277000D01*
X139566695Y-82238904D01*
X139642885Y-82238904D01*
X139757171Y-82277000D01*
X139795266Y-82315095D01*
X140290504Y-82238904D02*
X140366695Y-82238904D01*
X140442885Y-82277000D01*
X140480980Y-82315095D01*
X140519076Y-82391285D01*
X140557171Y-82543666D01*
X140557171Y-82734142D01*
X140519076Y-82886523D01*
X140480980Y-82962714D01*
X140442885Y-83000809D01*
X140366695Y-83038904D01*
X140290504Y-83038904D01*
X140214314Y-83000809D01*
X140176219Y-82962714D01*
X140138123Y-82886523D01*
X140100028Y-82734142D01*
X140100028Y-82543666D01*
X140138123Y-82391285D01*
X140176219Y-82315095D01*
X140214314Y-82277000D01*
X140290504Y-82238904D01*
X137255266Y-82962714D02*
X137217171Y-83000809D01*
X137102885Y-83038904D01*
X137026695Y-83038904D01*
X136912409Y-83000809D01*
X136836219Y-82924619D01*
X136798123Y-82848428D01*
X136760028Y-82696047D01*
X136760028Y-82581761D01*
X136798123Y-82429380D01*
X136836219Y-82353190D01*
X136912409Y-82277000D01*
X137026695Y-82238904D01*
X137102885Y-82238904D01*
X137217171Y-82277000D01*
X137255266Y-82315095D01*
X138017171Y-83038904D02*
X137560028Y-83038904D01*
X137788600Y-83038904D02*
X137788600Y-82238904D01*
X137712409Y-82353190D01*
X137636219Y-82429380D01*
X137560028Y-82467476D01*
X134715266Y-82962714D02*
X134677171Y-83000809D01*
X134562885Y-83038904D01*
X134486695Y-83038904D01*
X134372409Y-83000809D01*
X134296219Y-82924619D01*
X134258123Y-82848428D01*
X134220028Y-82696047D01*
X134220028Y-82581761D01*
X134258123Y-82429380D01*
X134296219Y-82353190D01*
X134372409Y-82277000D01*
X134486695Y-82238904D01*
X134562885Y-82238904D01*
X134677171Y-82277000D01*
X134715266Y-82315095D01*
X135020028Y-82315095D02*
X135058123Y-82277000D01*
X135134314Y-82238904D01*
X135324790Y-82238904D01*
X135400980Y-82277000D01*
X135439076Y-82315095D01*
X135477171Y-82391285D01*
X135477171Y-82467476D01*
X135439076Y-82581761D01*
X134981933Y-83038904D01*
X135477171Y-83038904D01*
X132175266Y-82962714D02*
X132137171Y-83000809D01*
X132022885Y-83038904D01*
X131946695Y-83038904D01*
X131832409Y-83000809D01*
X131756219Y-82924619D01*
X131718123Y-82848428D01*
X131680028Y-82696047D01*
X131680028Y-82581761D01*
X131718123Y-82429380D01*
X131756219Y-82353190D01*
X131832409Y-82277000D01*
X131946695Y-82238904D01*
X132022885Y-82238904D01*
X132137171Y-82277000D01*
X132175266Y-82315095D01*
X132441933Y-82238904D02*
X132937171Y-82238904D01*
X132670504Y-82543666D01*
X132784790Y-82543666D01*
X132860980Y-82581761D01*
X132899076Y-82619857D01*
X132937171Y-82696047D01*
X132937171Y-82886523D01*
X132899076Y-82962714D01*
X132860980Y-83000809D01*
X132784790Y-83038904D01*
X132556219Y-83038904D01*
X132480028Y-83000809D01*
X132441933Y-82962714D01*
X129197171Y-82810333D02*
X129578123Y-82810333D01*
X129120980Y-83038904D02*
X129387647Y-82238904D01*
X129654314Y-83038904D01*
X130073361Y-82238904D02*
X130149552Y-82238904D01*
X130225742Y-82277000D01*
X130263838Y-82315095D01*
X130301933Y-82391285D01*
X130340028Y-82543666D01*
X130340028Y-82734142D01*
X130301933Y-82886523D01*
X130263838Y-82962714D01*
X130225742Y-83000809D01*
X130149552Y-83038904D01*
X130073361Y-83038904D01*
X129997171Y-83000809D01*
X129959076Y-82962714D01*
X129920980Y-82886523D01*
X129882885Y-82734142D01*
X129882885Y-82543666D01*
X129920980Y-82391285D01*
X129959076Y-82315095D01*
X129997171Y-82277000D01*
X130073361Y-82238904D01*
X126657171Y-82810333D02*
X127038123Y-82810333D01*
X126580980Y-83038904D02*
X126847647Y-82238904D01*
X127114314Y-83038904D01*
X127800028Y-83038904D02*
X127342885Y-83038904D01*
X127571457Y-83038904D02*
X127571457Y-82238904D01*
X127495266Y-82353190D01*
X127419076Y-82429380D01*
X127342885Y-82467476D01*
X124117171Y-82810333D02*
X124498123Y-82810333D01*
X124040980Y-83038904D02*
X124307647Y-82238904D01*
X124574314Y-83038904D01*
X124802885Y-82315095D02*
X124840980Y-82277000D01*
X124917171Y-82238904D01*
X125107647Y-82238904D01*
X125183838Y-82277000D01*
X125221933Y-82315095D01*
X125260028Y-82391285D01*
X125260028Y-82467476D01*
X125221933Y-82581761D01*
X124764790Y-83038904D01*
X125260028Y-83038904D01*
X121577171Y-82810333D02*
X121958123Y-82810333D01*
X121500980Y-83038904D02*
X121767647Y-82238904D01*
X122034314Y-83038904D01*
X122224790Y-82238904D02*
X122720028Y-82238904D01*
X122453361Y-82543666D01*
X122567647Y-82543666D01*
X122643838Y-82581761D01*
X122681933Y-82619857D01*
X122720028Y-82696047D01*
X122720028Y-82886523D01*
X122681933Y-82962714D01*
X122643838Y-83000809D01*
X122567647Y-83038904D01*
X122339076Y-83038904D01*
X122262885Y-83000809D01*
X122224790Y-82962714D01*
X119037171Y-82810333D02*
X119418123Y-82810333D01*
X118960980Y-83038904D02*
X119227647Y-82238904D01*
X119494314Y-83038904D01*
X120103838Y-82505571D02*
X120103838Y-83038904D01*
X119913361Y-82200809D02*
X119722885Y-82772238D01*
X120218123Y-82772238D01*
X116497171Y-82810333D02*
X116878123Y-82810333D01*
X116420980Y-83038904D02*
X116687647Y-82238904D01*
X116954314Y-83038904D01*
X117601933Y-82238904D02*
X117220980Y-82238904D01*
X117182885Y-82619857D01*
X117220980Y-82581761D01*
X117297171Y-82543666D01*
X117487647Y-82543666D01*
X117563838Y-82581761D01*
X117601933Y-82619857D01*
X117640028Y-82696047D01*
X117640028Y-82886523D01*
X117601933Y-82962714D01*
X117563838Y-83000809D01*
X117487647Y-83038904D01*
X117297171Y-83038904D01*
X117220980Y-83000809D01*
X117182885Y-82962714D01*
X113957171Y-82810333D02*
X114338123Y-82810333D01*
X113880980Y-83038904D02*
X114147647Y-82238904D01*
X114414314Y-83038904D01*
X115023838Y-82238904D02*
X114871457Y-82238904D01*
X114795266Y-82277000D01*
X114757171Y-82315095D01*
X114680980Y-82429380D01*
X114642885Y-82581761D01*
X114642885Y-82886523D01*
X114680980Y-82962714D01*
X114719076Y-83000809D01*
X114795266Y-83038904D01*
X114947647Y-83038904D01*
X115023838Y-83000809D01*
X115061933Y-82962714D01*
X115100028Y-82886523D01*
X115100028Y-82696047D01*
X115061933Y-82619857D01*
X115023838Y-82581761D01*
X114947647Y-82543666D01*
X114795266Y-82543666D01*
X114719076Y-82581761D01*
X114680980Y-82619857D01*
X114642885Y-82696047D01*
X111417171Y-82810333D02*
X111798123Y-82810333D01*
X111340980Y-83038904D02*
X111607647Y-82238904D01*
X111874314Y-83038904D01*
X112064790Y-82238904D02*
X112598123Y-82238904D01*
X112255266Y-83038904D01*
X109315266Y-82962714D02*
X109277171Y-83000809D01*
X109162885Y-83038904D01*
X109086695Y-83038904D01*
X108972409Y-83000809D01*
X108896219Y-82924619D01*
X108858123Y-82848428D01*
X108820028Y-82696047D01*
X108820028Y-82581761D01*
X108858123Y-82429380D01*
X108896219Y-82353190D01*
X108972409Y-82277000D01*
X109086695Y-82238904D01*
X109162885Y-82238904D01*
X109277171Y-82277000D01*
X109315266Y-82315095D01*
X110000980Y-82505571D02*
X110000980Y-83038904D01*
X109810504Y-82200809D02*
X109620028Y-82772238D01*
X110115266Y-82772238D01*
X106775266Y-82962714D02*
X106737171Y-83000809D01*
X106622885Y-83038904D01*
X106546695Y-83038904D01*
X106432409Y-83000809D01*
X106356219Y-82924619D01*
X106318123Y-82848428D01*
X106280028Y-82696047D01*
X106280028Y-82581761D01*
X106318123Y-82429380D01*
X106356219Y-82353190D01*
X106432409Y-82277000D01*
X106546695Y-82238904D01*
X106622885Y-82238904D01*
X106737171Y-82277000D01*
X106775266Y-82315095D01*
X107499076Y-82238904D02*
X107118123Y-82238904D01*
X107080028Y-82619857D01*
X107118123Y-82581761D01*
X107194314Y-82543666D01*
X107384790Y-82543666D01*
X107460980Y-82581761D01*
X107499076Y-82619857D01*
X107537171Y-82696047D01*
X107537171Y-82886523D01*
X107499076Y-82962714D01*
X107460980Y-83000809D01*
X107384790Y-83038904D01*
X107194314Y-83038904D01*
X107118123Y-83000809D01*
X107080028Y-82962714D01*
X104044790Y-82619857D02*
X104159076Y-82657952D01*
X104197171Y-82696047D01*
X104235266Y-82772238D01*
X104235266Y-82886523D01*
X104197171Y-82962714D01*
X104159076Y-83000809D01*
X104082885Y-83038904D01*
X103778123Y-83038904D01*
X103778123Y-82238904D01*
X104044790Y-82238904D01*
X104120980Y-82277000D01*
X104159076Y-82315095D01*
X104197171Y-82391285D01*
X104197171Y-82467476D01*
X104159076Y-82543666D01*
X104120980Y-82581761D01*
X104044790Y-82619857D01*
X103778123Y-82619857D01*
X104730504Y-82238904D02*
X104806695Y-82238904D01*
X104882885Y-82277000D01*
X104920980Y-82315095D01*
X104959076Y-82391285D01*
X104997171Y-82543666D01*
X104997171Y-82734142D01*
X104959076Y-82886523D01*
X104920980Y-82962714D01*
X104882885Y-83000809D01*
X104806695Y-83038904D01*
X104730504Y-83038904D01*
X104654314Y-83000809D01*
X104616219Y-82962714D01*
X104578123Y-82886523D01*
X104540028Y-82734142D01*
X104540028Y-82543666D01*
X104578123Y-82391285D01*
X104616219Y-82315095D01*
X104654314Y-82277000D01*
X104730504Y-82238904D01*
X101504790Y-82619857D02*
X101619076Y-82657952D01*
X101657171Y-82696047D01*
X101695266Y-82772238D01*
X101695266Y-82886523D01*
X101657171Y-82962714D01*
X101619076Y-83000809D01*
X101542885Y-83038904D01*
X101238123Y-83038904D01*
X101238123Y-82238904D01*
X101504790Y-82238904D01*
X101580980Y-82277000D01*
X101619076Y-82315095D01*
X101657171Y-82391285D01*
X101657171Y-82467476D01*
X101619076Y-82543666D01*
X101580980Y-82581761D01*
X101504790Y-82619857D01*
X101238123Y-82619857D01*
X102457171Y-83038904D02*
X102000028Y-83038904D01*
X102228600Y-83038904D02*
X102228600Y-82238904D01*
X102152409Y-82353190D01*
X102076219Y-82429380D01*
X102000028Y-82467476D01*
X98964790Y-82619857D02*
X99079076Y-82657952D01*
X99117171Y-82696047D01*
X99155266Y-82772238D01*
X99155266Y-82886523D01*
X99117171Y-82962714D01*
X99079076Y-83000809D01*
X99002885Y-83038904D01*
X98698123Y-83038904D01*
X98698123Y-82238904D01*
X98964790Y-82238904D01*
X99040980Y-82277000D01*
X99079076Y-82315095D01*
X99117171Y-82391285D01*
X99117171Y-82467476D01*
X99079076Y-82543666D01*
X99040980Y-82581761D01*
X98964790Y-82619857D01*
X98698123Y-82619857D01*
X99460028Y-82315095D02*
X99498123Y-82277000D01*
X99574314Y-82238904D01*
X99764790Y-82238904D01*
X99840980Y-82277000D01*
X99879076Y-82315095D01*
X99917171Y-82391285D01*
X99917171Y-82467476D01*
X99879076Y-82581761D01*
X99421933Y-83038904D01*
X99917171Y-83038904D01*
X96043838Y-82619857D02*
X96158123Y-82657952D01*
X96196219Y-82696047D01*
X96234314Y-82772238D01*
X96234314Y-82886523D01*
X96196219Y-82962714D01*
X96158123Y-83000809D01*
X96081933Y-83038904D01*
X95777171Y-83038904D01*
X95777171Y-82238904D01*
X96043838Y-82238904D01*
X96120028Y-82277000D01*
X96158123Y-82315095D01*
X96196219Y-82391285D01*
X96196219Y-82467476D01*
X96158123Y-82543666D01*
X96120028Y-82581761D01*
X96043838Y-82619857D01*
X95777171Y-82619857D01*
X96996219Y-83038904D02*
X96539076Y-83038904D01*
X96767647Y-83038904D02*
X96767647Y-82238904D01*
X96691457Y-82353190D01*
X96615266Y-82429380D01*
X96539076Y-82467476D01*
X97491457Y-82238904D02*
X97567647Y-82238904D01*
X97643838Y-82277000D01*
X97681933Y-82315095D01*
X97720028Y-82391285D01*
X97758123Y-82543666D01*
X97758123Y-82734142D01*
X97720028Y-82886523D01*
X97681933Y-82962714D01*
X97643838Y-83000809D01*
X97567647Y-83038904D01*
X97491457Y-83038904D01*
X97415266Y-83000809D01*
X97377171Y-82962714D01*
X97339076Y-82886523D01*
X97300980Y-82734142D01*
X97300980Y-82543666D01*
X97339076Y-82391285D01*
X97377171Y-82315095D01*
X97415266Y-82277000D01*
X97491457Y-82238904D01*
X93503838Y-82619857D02*
X93618123Y-82657952D01*
X93656219Y-82696047D01*
X93694314Y-82772238D01*
X93694314Y-82886523D01*
X93656219Y-82962714D01*
X93618123Y-83000809D01*
X93541933Y-83038904D01*
X93237171Y-83038904D01*
X93237171Y-82238904D01*
X93503838Y-82238904D01*
X93580028Y-82277000D01*
X93618123Y-82315095D01*
X93656219Y-82391285D01*
X93656219Y-82467476D01*
X93618123Y-82543666D01*
X93580028Y-82581761D01*
X93503838Y-82619857D01*
X93237171Y-82619857D01*
X94456219Y-83038904D02*
X93999076Y-83038904D01*
X94227647Y-83038904D02*
X94227647Y-82238904D01*
X94151457Y-82353190D01*
X94075266Y-82429380D01*
X93999076Y-82467476D01*
X95218123Y-83038904D02*
X94760980Y-83038904D01*
X94989552Y-83038904D02*
X94989552Y-82238904D01*
X94913361Y-82353190D01*
X94837171Y-82429380D01*
X94760980Y-82467476D01*
X90963838Y-82619857D02*
X91078123Y-82657952D01*
X91116219Y-82696047D01*
X91154314Y-82772238D01*
X91154314Y-82886523D01*
X91116219Y-82962714D01*
X91078123Y-83000809D01*
X91001933Y-83038904D01*
X90697171Y-83038904D01*
X90697171Y-82238904D01*
X90963838Y-82238904D01*
X91040028Y-82277000D01*
X91078123Y-82315095D01*
X91116219Y-82391285D01*
X91116219Y-82467476D01*
X91078123Y-82543666D01*
X91040028Y-82581761D01*
X90963838Y-82619857D01*
X90697171Y-82619857D01*
X91916219Y-83038904D02*
X91459076Y-83038904D01*
X91687647Y-83038904D02*
X91687647Y-82238904D01*
X91611457Y-82353190D01*
X91535266Y-82429380D01*
X91459076Y-82467476D01*
X92220980Y-82315095D02*
X92259076Y-82277000D01*
X92335266Y-82238904D01*
X92525742Y-82238904D01*
X92601933Y-82277000D01*
X92640028Y-82315095D01*
X92678123Y-82391285D01*
X92678123Y-82467476D01*
X92640028Y-82581761D01*
X92182885Y-83038904D01*
X92678123Y-83038904D01*
X88423838Y-82619857D02*
X88538123Y-82657952D01*
X88576219Y-82696047D01*
X88614314Y-82772238D01*
X88614314Y-82886523D01*
X88576219Y-82962714D01*
X88538123Y-83000809D01*
X88461933Y-83038904D01*
X88157171Y-83038904D01*
X88157171Y-82238904D01*
X88423838Y-82238904D01*
X88500028Y-82277000D01*
X88538123Y-82315095D01*
X88576219Y-82391285D01*
X88576219Y-82467476D01*
X88538123Y-82543666D01*
X88500028Y-82581761D01*
X88423838Y-82619857D01*
X88157171Y-82619857D01*
X89376219Y-83038904D02*
X88919076Y-83038904D01*
X89147647Y-83038904D02*
X89147647Y-82238904D01*
X89071457Y-82353190D01*
X88995266Y-82429380D01*
X88919076Y-82467476D01*
X89642885Y-82238904D02*
X90138123Y-82238904D01*
X89871457Y-82543666D01*
X89985742Y-82543666D01*
X90061933Y-82581761D01*
X90100028Y-82619857D01*
X90138123Y-82696047D01*
X90138123Y-82886523D01*
X90100028Y-82962714D01*
X90061933Y-83000809D01*
X89985742Y-83038904D01*
X89757171Y-83038904D01*
X89680980Y-83000809D01*
X89642885Y-82962714D01*
X85883838Y-82619857D02*
X85998123Y-82657952D01*
X86036219Y-82696047D01*
X86074314Y-82772238D01*
X86074314Y-82886523D01*
X86036219Y-82962714D01*
X85998123Y-83000809D01*
X85921933Y-83038904D01*
X85617171Y-83038904D01*
X85617171Y-82238904D01*
X85883838Y-82238904D01*
X85960028Y-82277000D01*
X85998123Y-82315095D01*
X86036219Y-82391285D01*
X86036219Y-82467476D01*
X85998123Y-82543666D01*
X85960028Y-82581761D01*
X85883838Y-82619857D01*
X85617171Y-82619857D01*
X86836219Y-83038904D02*
X86379076Y-83038904D01*
X86607647Y-83038904D02*
X86607647Y-82238904D01*
X86531457Y-82353190D01*
X86455266Y-82429380D01*
X86379076Y-82467476D01*
X87521933Y-82505571D02*
X87521933Y-83038904D01*
X87331457Y-82200809D02*
X87140980Y-82772238D01*
X87636219Y-82772238D01*
X83343838Y-82619857D02*
X83458123Y-82657952D01*
X83496219Y-82696047D01*
X83534314Y-82772238D01*
X83534314Y-82886523D01*
X83496219Y-82962714D01*
X83458123Y-83000809D01*
X83381933Y-83038904D01*
X83077171Y-83038904D01*
X83077171Y-82238904D01*
X83343838Y-82238904D01*
X83420028Y-82277000D01*
X83458123Y-82315095D01*
X83496219Y-82391285D01*
X83496219Y-82467476D01*
X83458123Y-82543666D01*
X83420028Y-82581761D01*
X83343838Y-82619857D01*
X83077171Y-82619857D01*
X84296219Y-83038904D02*
X83839076Y-83038904D01*
X84067647Y-83038904D02*
X84067647Y-82238904D01*
X83991457Y-82353190D01*
X83915266Y-82429380D01*
X83839076Y-82467476D01*
X85020028Y-82238904D02*
X84639076Y-82238904D01*
X84600980Y-82619857D01*
X84639076Y-82581761D01*
X84715266Y-82543666D01*
X84905742Y-82543666D01*
X84981933Y-82581761D01*
X85020028Y-82619857D01*
X85058123Y-82696047D01*
X85058123Y-82886523D01*
X85020028Y-82962714D01*
X84981933Y-83000809D01*
X84905742Y-83038904D01*
X84715266Y-83038904D01*
X84639076Y-83000809D01*
X84600980Y-82962714D01*
X80899076Y-82277000D02*
X80822885Y-82238904D01*
X80708600Y-82238904D01*
X80594314Y-82277000D01*
X80518123Y-82353190D01*
X80480028Y-82429380D01*
X80441933Y-82581761D01*
X80441933Y-82696047D01*
X80480028Y-82848428D01*
X80518123Y-82924619D01*
X80594314Y-83000809D01*
X80708600Y-83038904D01*
X80784790Y-83038904D01*
X80899076Y-83000809D01*
X80937171Y-82962714D01*
X80937171Y-82696047D01*
X80784790Y-82696047D01*
X81280028Y-83038904D02*
X81280028Y-82238904D01*
X81737171Y-83038904D01*
X81737171Y-82238904D01*
X82118123Y-83038904D02*
X82118123Y-82238904D01*
X82308600Y-82238904D01*
X82422885Y-82277000D01*
X82499076Y-82353190D01*
X82537171Y-82429380D01*
X82575266Y-82581761D01*
X82575266Y-82696047D01*
X82537171Y-82848428D01*
X82499076Y-82924619D01*
X82422885Y-83000809D01*
X82308600Y-83038904D01*
X82118123Y-83038904D01*
X78359076Y-82277000D02*
X78282885Y-82238904D01*
X78168600Y-82238904D01*
X78054314Y-82277000D01*
X77978123Y-82353190D01*
X77940028Y-82429380D01*
X77901933Y-82581761D01*
X77901933Y-82696047D01*
X77940028Y-82848428D01*
X77978123Y-82924619D01*
X78054314Y-83000809D01*
X78168600Y-83038904D01*
X78244790Y-83038904D01*
X78359076Y-83000809D01*
X78397171Y-82962714D01*
X78397171Y-82696047D01*
X78244790Y-82696047D01*
X78740028Y-83038904D02*
X78740028Y-82238904D01*
X79197171Y-83038904D01*
X79197171Y-82238904D01*
X79578123Y-83038904D02*
X79578123Y-82238904D01*
X79768600Y-82238904D01*
X79882885Y-82277000D01*
X79959076Y-82353190D01*
X79997171Y-82429380D01*
X80035266Y-82581761D01*
X80035266Y-82696047D01*
X79997171Y-82848428D01*
X79959076Y-82924619D01*
X79882885Y-83000809D01*
X79768600Y-83038904D01*
X79578123Y-83038904D01*
X75438123Y-82238904D02*
X75933361Y-82238904D01*
X75666695Y-82543666D01*
X75780980Y-82543666D01*
X75857171Y-82581761D01*
X75895266Y-82619857D01*
X75933361Y-82696047D01*
X75933361Y-82886523D01*
X75895266Y-82962714D01*
X75857171Y-83000809D01*
X75780980Y-83038904D01*
X75552409Y-83038904D01*
X75476219Y-83000809D01*
X75438123Y-82962714D01*
X76161933Y-82238904D02*
X76428600Y-83038904D01*
X76695266Y-82238904D01*
X76885742Y-82238904D02*
X77380980Y-82238904D01*
X77114314Y-82543666D01*
X77228600Y-82543666D01*
X77304790Y-82581761D01*
X77342885Y-82619857D01*
X77380980Y-82696047D01*
X77380980Y-82886523D01*
X77342885Y-82962714D01*
X77304790Y-83000809D01*
X77228600Y-83038904D01*
X77000028Y-83038904D01*
X76923838Y-83000809D01*
X76885742Y-82962714D01*
X73736219Y-82238904D02*
X73355266Y-82238904D01*
X73317171Y-82619857D01*
X73355266Y-82581761D01*
X73431457Y-82543666D01*
X73621933Y-82543666D01*
X73698123Y-82581761D01*
X73736219Y-82619857D01*
X73774314Y-82696047D01*
X73774314Y-82886523D01*
X73736219Y-82962714D01*
X73698123Y-83000809D01*
X73621933Y-83038904D01*
X73431457Y-83038904D01*
X73355266Y-83000809D01*
X73317171Y-82962714D01*
X74002885Y-82238904D02*
X74269552Y-83038904D01*
X74536219Y-82238904D01*
X142311139Y-104834744D02*
X141930186Y-104834744D01*
X141892091Y-105215697D01*
X141930186Y-105177601D01*
X142006377Y-105139506D01*
X142196853Y-105139506D01*
X142273043Y-105177601D01*
X142311139Y-105215697D01*
X142349234Y-105291887D01*
X142349234Y-105482363D01*
X142311139Y-105558554D01*
X142273043Y-105596649D01*
X142196853Y-105634744D01*
X142006377Y-105634744D01*
X141930186Y-105596649D01*
X141892091Y-105558554D01*
X142577805Y-104834744D02*
X142844472Y-105634744D01*
X143111139Y-104834744D01*
X138933043Y-104834744D02*
X139428281Y-104834744D01*
X139161615Y-105139506D01*
X139275900Y-105139506D01*
X139352091Y-105177601D01*
X139390186Y-105215697D01*
X139428281Y-105291887D01*
X139428281Y-105482363D01*
X139390186Y-105558554D01*
X139352091Y-105596649D01*
X139275900Y-105634744D01*
X139047329Y-105634744D01*
X138971139Y-105596649D01*
X138933043Y-105558554D01*
X139656853Y-104834744D02*
X139923520Y-105634744D01*
X140190186Y-104834744D01*
X140380662Y-104834744D02*
X140875900Y-104834744D01*
X140609234Y-105139506D01*
X140723520Y-105139506D01*
X140799710Y-105177601D01*
X140837805Y-105215697D01*
X140875900Y-105291887D01*
X140875900Y-105482363D01*
X140837805Y-105558554D01*
X140799710Y-105596649D01*
X140723520Y-105634744D01*
X140494948Y-105634744D01*
X140418758Y-105596649D01*
X140380662Y-105558554D01*
X136773996Y-104872840D02*
X136697805Y-104834744D01*
X136583520Y-104834744D01*
X136469234Y-104872840D01*
X136393043Y-104949030D01*
X136354948Y-105025220D01*
X136316853Y-105177601D01*
X136316853Y-105291887D01*
X136354948Y-105444268D01*
X136393043Y-105520459D01*
X136469234Y-105596649D01*
X136583520Y-105634744D01*
X136659710Y-105634744D01*
X136773996Y-105596649D01*
X136812091Y-105558554D01*
X136812091Y-105291887D01*
X136659710Y-105291887D01*
X137154948Y-105634744D02*
X137154948Y-104834744D01*
X137612091Y-105634744D01*
X137612091Y-104834744D01*
X137993043Y-105634744D02*
X137993043Y-104834744D01*
X138183520Y-104834744D01*
X138297805Y-104872840D01*
X138373996Y-104949030D01*
X138412091Y-105025220D01*
X138450186Y-105177601D01*
X138450186Y-105291887D01*
X138412091Y-105444268D01*
X138373996Y-105520459D01*
X138297805Y-105596649D01*
X138183520Y-105634744D01*
X137993043Y-105634744D01*
X134233996Y-104872840D02*
X134157805Y-104834744D01*
X134043520Y-104834744D01*
X133929234Y-104872840D01*
X133853043Y-104949030D01*
X133814948Y-105025220D01*
X133776853Y-105177601D01*
X133776853Y-105291887D01*
X133814948Y-105444268D01*
X133853043Y-105520459D01*
X133929234Y-105596649D01*
X134043520Y-105634744D01*
X134119710Y-105634744D01*
X134233996Y-105596649D01*
X134272091Y-105558554D01*
X134272091Y-105291887D01*
X134119710Y-105291887D01*
X134614948Y-105634744D02*
X134614948Y-104834744D01*
X135072091Y-105634744D01*
X135072091Y-104834744D01*
X135453043Y-105634744D02*
X135453043Y-104834744D01*
X135643520Y-104834744D01*
X135757805Y-104872840D01*
X135833996Y-104949030D01*
X135872091Y-105025220D01*
X135910186Y-105177601D01*
X135910186Y-105291887D01*
X135872091Y-105444268D01*
X135833996Y-105520459D01*
X135757805Y-105596649D01*
X135643520Y-105634744D01*
X135453043Y-105634744D01*
X131789234Y-105558554D02*
X131751139Y-105596649D01*
X131636853Y-105634744D01*
X131560662Y-105634744D01*
X131446377Y-105596649D01*
X131370186Y-105520459D01*
X131332091Y-105444268D01*
X131293996Y-105291887D01*
X131293996Y-105177601D01*
X131332091Y-105025220D01*
X131370186Y-104949030D01*
X131446377Y-104872840D01*
X131560662Y-104834744D01*
X131636853Y-104834744D01*
X131751139Y-104872840D01*
X131789234Y-104910935D01*
X132551139Y-105634744D02*
X132093996Y-105634744D01*
X132322567Y-105634744D02*
X132322567Y-104834744D01*
X132246377Y-104949030D01*
X132170186Y-105025220D01*
X132093996Y-105063316D01*
X132817805Y-104834744D02*
X133313043Y-104834744D01*
X133046377Y-105139506D01*
X133160662Y-105139506D01*
X133236853Y-105177601D01*
X133274948Y-105215697D01*
X133313043Y-105291887D01*
X133313043Y-105482363D01*
X133274948Y-105558554D01*
X133236853Y-105596649D01*
X133160662Y-105634744D01*
X132932091Y-105634744D01*
X132855900Y-105596649D01*
X132817805Y-105558554D01*
X129439710Y-105215697D02*
X129553996Y-105253792D01*
X129592091Y-105291887D01*
X129630186Y-105368078D01*
X129630186Y-105482363D01*
X129592091Y-105558554D01*
X129553996Y-105596649D01*
X129477805Y-105634744D01*
X129173043Y-105634744D01*
X129173043Y-104834744D01*
X129439710Y-104834744D01*
X129515900Y-104872840D01*
X129553996Y-104910935D01*
X129592091Y-104987125D01*
X129592091Y-105063316D01*
X129553996Y-105139506D01*
X129515900Y-105177601D01*
X129439710Y-105215697D01*
X129173043Y-105215697D01*
X130011139Y-105634744D02*
X130163520Y-105634744D01*
X130239710Y-105596649D01*
X130277805Y-105558554D01*
X130353996Y-105444268D01*
X130392091Y-105291887D01*
X130392091Y-104987125D01*
X130353996Y-104910935D01*
X130315900Y-104872840D01*
X130239710Y-104834744D01*
X130087329Y-104834744D01*
X130011139Y-104872840D01*
X129973043Y-104910935D01*
X129934948Y-104987125D01*
X129934948Y-105177601D01*
X129973043Y-105253792D01*
X130011139Y-105291887D01*
X130087329Y-105329982D01*
X130239710Y-105329982D01*
X130315900Y-105291887D01*
X130353996Y-105253792D01*
X130392091Y-105177601D01*
X126899710Y-105215697D02*
X127013996Y-105253792D01*
X127052091Y-105291887D01*
X127090186Y-105368078D01*
X127090186Y-105482363D01*
X127052091Y-105558554D01*
X127013996Y-105596649D01*
X126937805Y-105634744D01*
X126633043Y-105634744D01*
X126633043Y-104834744D01*
X126899710Y-104834744D01*
X126975900Y-104872840D01*
X127013996Y-104910935D01*
X127052091Y-104987125D01*
X127052091Y-105063316D01*
X127013996Y-105139506D01*
X126975900Y-105177601D01*
X126899710Y-105215697D01*
X126633043Y-105215697D01*
X127547329Y-105177601D02*
X127471139Y-105139506D01*
X127433043Y-105101411D01*
X127394948Y-105025220D01*
X127394948Y-104987125D01*
X127433043Y-104910935D01*
X127471139Y-104872840D01*
X127547329Y-104834744D01*
X127699710Y-104834744D01*
X127775900Y-104872840D01*
X127813996Y-104910935D01*
X127852091Y-104987125D01*
X127852091Y-105025220D01*
X127813996Y-105101411D01*
X127775900Y-105139506D01*
X127699710Y-105177601D01*
X127547329Y-105177601D01*
X127471139Y-105215697D01*
X127433043Y-105253792D01*
X127394948Y-105329982D01*
X127394948Y-105482363D01*
X127433043Y-105558554D01*
X127471139Y-105596649D01*
X127547329Y-105634744D01*
X127699710Y-105634744D01*
X127775900Y-105596649D01*
X127813996Y-105558554D01*
X127852091Y-105482363D01*
X127852091Y-105329982D01*
X127813996Y-105253792D01*
X127775900Y-105215697D01*
X127699710Y-105177601D01*
X124359710Y-105215697D02*
X124473996Y-105253792D01*
X124512091Y-105291887D01*
X124550186Y-105368078D01*
X124550186Y-105482363D01*
X124512091Y-105558554D01*
X124473996Y-105596649D01*
X124397805Y-105634744D01*
X124093043Y-105634744D01*
X124093043Y-104834744D01*
X124359710Y-104834744D01*
X124435900Y-104872840D01*
X124473996Y-104910935D01*
X124512091Y-104987125D01*
X124512091Y-105063316D01*
X124473996Y-105139506D01*
X124435900Y-105177601D01*
X124359710Y-105215697D01*
X124093043Y-105215697D01*
X124816853Y-104834744D02*
X125350186Y-104834744D01*
X125007329Y-105634744D01*
X121819710Y-105215697D02*
X121933996Y-105253792D01*
X121972091Y-105291887D01*
X122010186Y-105368078D01*
X122010186Y-105482363D01*
X121972091Y-105558554D01*
X121933996Y-105596649D01*
X121857805Y-105634744D01*
X121553043Y-105634744D01*
X121553043Y-104834744D01*
X121819710Y-104834744D01*
X121895900Y-104872840D01*
X121933996Y-104910935D01*
X121972091Y-104987125D01*
X121972091Y-105063316D01*
X121933996Y-105139506D01*
X121895900Y-105177601D01*
X121819710Y-105215697D01*
X121553043Y-105215697D01*
X122695900Y-104834744D02*
X122543520Y-104834744D01*
X122467329Y-104872840D01*
X122429234Y-104910935D01*
X122353043Y-105025220D01*
X122314948Y-105177601D01*
X122314948Y-105482363D01*
X122353043Y-105558554D01*
X122391139Y-105596649D01*
X122467329Y-105634744D01*
X122619710Y-105634744D01*
X122695900Y-105596649D01*
X122733996Y-105558554D01*
X122772091Y-105482363D01*
X122772091Y-105291887D01*
X122733996Y-105215697D01*
X122695900Y-105177601D01*
X122619710Y-105139506D01*
X122467329Y-105139506D01*
X122391139Y-105177601D01*
X122353043Y-105215697D01*
X122314948Y-105291887D01*
X119279710Y-105215697D02*
X119393996Y-105253792D01*
X119432091Y-105291887D01*
X119470186Y-105368078D01*
X119470186Y-105482363D01*
X119432091Y-105558554D01*
X119393996Y-105596649D01*
X119317805Y-105634744D01*
X119013043Y-105634744D01*
X119013043Y-104834744D01*
X119279710Y-104834744D01*
X119355900Y-104872840D01*
X119393996Y-104910935D01*
X119432091Y-104987125D01*
X119432091Y-105063316D01*
X119393996Y-105139506D01*
X119355900Y-105177601D01*
X119279710Y-105215697D01*
X119013043Y-105215697D01*
X120193996Y-104834744D02*
X119813043Y-104834744D01*
X119774948Y-105215697D01*
X119813043Y-105177601D01*
X119889234Y-105139506D01*
X120079710Y-105139506D01*
X120155900Y-105177601D01*
X120193996Y-105215697D01*
X120232091Y-105291887D01*
X120232091Y-105482363D01*
X120193996Y-105558554D01*
X120155900Y-105596649D01*
X120079710Y-105634744D01*
X119889234Y-105634744D01*
X119813043Y-105596649D01*
X119774948Y-105558554D01*
X116739710Y-105215697D02*
X116853996Y-105253792D01*
X116892091Y-105291887D01*
X116930186Y-105368078D01*
X116930186Y-105482363D01*
X116892091Y-105558554D01*
X116853996Y-105596649D01*
X116777805Y-105634744D01*
X116473043Y-105634744D01*
X116473043Y-104834744D01*
X116739710Y-104834744D01*
X116815900Y-104872840D01*
X116853996Y-104910935D01*
X116892091Y-104987125D01*
X116892091Y-105063316D01*
X116853996Y-105139506D01*
X116815900Y-105177601D01*
X116739710Y-105215697D01*
X116473043Y-105215697D01*
X117615900Y-105101411D02*
X117615900Y-105634744D01*
X117425424Y-104796649D02*
X117234948Y-105368078D01*
X117730186Y-105368078D01*
X114199710Y-105215697D02*
X114313996Y-105253792D01*
X114352091Y-105291887D01*
X114390186Y-105368078D01*
X114390186Y-105482363D01*
X114352091Y-105558554D01*
X114313996Y-105596649D01*
X114237805Y-105634744D01*
X113933043Y-105634744D01*
X113933043Y-104834744D01*
X114199710Y-104834744D01*
X114275900Y-104872840D01*
X114313996Y-104910935D01*
X114352091Y-104987125D01*
X114352091Y-105063316D01*
X114313996Y-105139506D01*
X114275900Y-105177601D01*
X114199710Y-105215697D01*
X113933043Y-105215697D01*
X114656853Y-104834744D02*
X115152091Y-104834744D01*
X114885424Y-105139506D01*
X114999710Y-105139506D01*
X115075900Y-105177601D01*
X115113996Y-105215697D01*
X115152091Y-105291887D01*
X115152091Y-105482363D01*
X115113996Y-105558554D01*
X115075900Y-105596649D01*
X114999710Y-105634744D01*
X114771139Y-105634744D01*
X114694948Y-105596649D01*
X114656853Y-105558554D01*
X103849234Y-105558554D02*
X103811139Y-105596649D01*
X103696853Y-105634744D01*
X103620662Y-105634744D01*
X103506377Y-105596649D01*
X103430186Y-105520459D01*
X103392091Y-105444268D01*
X103353996Y-105291887D01*
X103353996Y-105177601D01*
X103392091Y-105025220D01*
X103430186Y-104949030D01*
X103506377Y-104872840D01*
X103620662Y-104834744D01*
X103696853Y-104834744D01*
X103811139Y-104872840D01*
X103849234Y-104910935D01*
X104611139Y-105634744D02*
X104153996Y-105634744D01*
X104382567Y-105634744D02*
X104382567Y-104834744D01*
X104306377Y-104949030D01*
X104230186Y-105025220D01*
X104153996Y-105063316D01*
X105106377Y-104834744D02*
X105182567Y-104834744D01*
X105258758Y-104872840D01*
X105296853Y-104910935D01*
X105334948Y-104987125D01*
X105373043Y-105139506D01*
X105373043Y-105329982D01*
X105334948Y-105482363D01*
X105296853Y-105558554D01*
X105258758Y-105596649D01*
X105182567Y-105634744D01*
X105106377Y-105634744D01*
X105030186Y-105596649D01*
X104992091Y-105558554D01*
X104953996Y-105482363D01*
X104915900Y-105329982D01*
X104915900Y-105139506D01*
X104953996Y-104987125D01*
X104992091Y-104910935D01*
X105030186Y-104872840D01*
X105106377Y-104834744D01*
X111393043Y-105634744D02*
X111393043Y-104834744D01*
X111583520Y-104834744D01*
X111697805Y-104872840D01*
X111773996Y-104949030D01*
X111812091Y-105025220D01*
X111850186Y-105177601D01*
X111850186Y-105291887D01*
X111812091Y-105444268D01*
X111773996Y-105520459D01*
X111697805Y-105596649D01*
X111583520Y-105634744D01*
X111393043Y-105634744D01*
X112154948Y-104910935D02*
X112193043Y-104872840D01*
X112269234Y-104834744D01*
X112459710Y-104834744D01*
X112535900Y-104872840D01*
X112573996Y-104910935D01*
X112612091Y-104987125D01*
X112612091Y-105063316D01*
X112573996Y-105177601D01*
X112116853Y-105634744D01*
X112612091Y-105634744D01*
X108929234Y-105558554D02*
X108891139Y-105596649D01*
X108776853Y-105634744D01*
X108700662Y-105634744D01*
X108586377Y-105596649D01*
X108510186Y-105520459D01*
X108472091Y-105444268D01*
X108433996Y-105291887D01*
X108433996Y-105177601D01*
X108472091Y-105025220D01*
X108510186Y-104949030D01*
X108586377Y-104872840D01*
X108700662Y-104834744D01*
X108776853Y-104834744D01*
X108891139Y-104872840D01*
X108929234Y-104910935D01*
X109691139Y-105634744D02*
X109233996Y-105634744D01*
X109462567Y-105634744D02*
X109462567Y-104834744D01*
X109386377Y-104949030D01*
X109310186Y-105025220D01*
X109233996Y-105063316D01*
X109995900Y-104910935D02*
X110033996Y-104872840D01*
X110110186Y-104834744D01*
X110300662Y-104834744D01*
X110376853Y-104872840D01*
X110414948Y-104910935D01*
X110453043Y-104987125D01*
X110453043Y-105063316D01*
X110414948Y-105177601D01*
X109957805Y-105634744D01*
X110453043Y-105634744D01*
X106389234Y-105558554D02*
X106351139Y-105596649D01*
X106236853Y-105634744D01*
X106160662Y-105634744D01*
X106046377Y-105596649D01*
X105970186Y-105520459D01*
X105932091Y-105444268D01*
X105893996Y-105291887D01*
X105893996Y-105177601D01*
X105932091Y-105025220D01*
X105970186Y-104949030D01*
X106046377Y-104872840D01*
X106160662Y-104834744D01*
X106236853Y-104834744D01*
X106351139Y-104872840D01*
X106389234Y-104910935D01*
X107151139Y-105634744D02*
X106693996Y-105634744D01*
X106922567Y-105634744D02*
X106922567Y-104834744D01*
X106846377Y-104949030D01*
X106770186Y-105025220D01*
X106693996Y-105063316D01*
X107913043Y-105634744D02*
X107455900Y-105634744D01*
X107684472Y-105634744D02*
X107684472Y-104834744D01*
X107608281Y-104949030D01*
X107532091Y-105025220D01*
X107455900Y-105063316D01*
X100916859Y-105360453D02*
X101297811Y-105360453D01*
X100840668Y-105589024D02*
X101107335Y-104789024D01*
X101374001Y-105589024D01*
X102059716Y-105589024D02*
X101602573Y-105589024D01*
X101831144Y-105589024D02*
X101831144Y-104789024D01*
X101754954Y-104903310D01*
X101678763Y-104979500D01*
X101602573Y-105017596D01*
X102783525Y-104789024D02*
X102402573Y-104789024D01*
X102364478Y-105169977D01*
X102402573Y-105131881D01*
X102478763Y-105093786D01*
X102669240Y-105093786D01*
X102745430Y-105131881D01*
X102783525Y-105169977D01*
X102821620Y-105246167D01*
X102821620Y-105436643D01*
X102783525Y-105512834D01*
X102745430Y-105550929D01*
X102669240Y-105589024D01*
X102478763Y-105589024D01*
X102402573Y-105550929D01*
X102364478Y-105512834D01*
X98376859Y-105360453D02*
X98757811Y-105360453D01*
X98300668Y-105589024D02*
X98567335Y-104789024D01*
X98834001Y-105589024D01*
X99519716Y-105589024D02*
X99062573Y-105589024D01*
X99291144Y-105589024D02*
X99291144Y-104789024D01*
X99214954Y-104903310D01*
X99138763Y-104979500D01*
X99062573Y-105017596D01*
X100205430Y-105055691D02*
X100205430Y-105589024D01*
X100014954Y-104750929D02*
X99824478Y-105322358D01*
X100319716Y-105322358D01*
X95836859Y-105360453D02*
X96217811Y-105360453D01*
X95760668Y-105589024D02*
X96027335Y-104789024D01*
X96294001Y-105589024D01*
X96979716Y-105589024D02*
X96522573Y-105589024D01*
X96751144Y-105589024D02*
X96751144Y-104789024D01*
X96674954Y-104903310D01*
X96598763Y-104979500D01*
X96522573Y-105017596D01*
X97246382Y-104789024D02*
X97741620Y-104789024D01*
X97474954Y-105093786D01*
X97589240Y-105093786D01*
X97665430Y-105131881D01*
X97703525Y-105169977D01*
X97741620Y-105246167D01*
X97741620Y-105436643D01*
X97703525Y-105512834D01*
X97665430Y-105550929D01*
X97589240Y-105589024D01*
X97360668Y-105589024D01*
X97284478Y-105550929D01*
X97246382Y-105512834D01*
X93296859Y-105360453D02*
X93677811Y-105360453D01*
X93220668Y-105589024D02*
X93487335Y-104789024D01*
X93754001Y-105589024D01*
X94439716Y-105589024D02*
X93982573Y-105589024D01*
X94211144Y-105589024D02*
X94211144Y-104789024D01*
X94134954Y-104903310D01*
X94058763Y-104979500D01*
X93982573Y-105017596D01*
X94744478Y-104865215D02*
X94782573Y-104827120D01*
X94858763Y-104789024D01*
X95049240Y-104789024D01*
X95125430Y-104827120D01*
X95163525Y-104865215D01*
X95201620Y-104941405D01*
X95201620Y-105017596D01*
X95163525Y-105131881D01*
X94706382Y-105589024D01*
X95201620Y-105589024D01*
X90756859Y-105360453D02*
X91137811Y-105360453D01*
X90680668Y-105589024D02*
X90947335Y-104789024D01*
X91214001Y-105589024D01*
X91899716Y-105589024D02*
X91442573Y-105589024D01*
X91671144Y-105589024D02*
X91671144Y-104789024D01*
X91594954Y-104903310D01*
X91518763Y-104979500D01*
X91442573Y-105017596D01*
X92661620Y-105589024D02*
X92204478Y-105589024D01*
X92433049Y-105589024D02*
X92433049Y-104789024D01*
X92356859Y-104903310D01*
X92280668Y-104979500D01*
X92204478Y-105017596D01*
X88216859Y-105360453D02*
X88597811Y-105360453D01*
X88140668Y-105589024D02*
X88407335Y-104789024D01*
X88674001Y-105589024D01*
X89359716Y-105589024D02*
X88902573Y-105589024D01*
X89131144Y-105589024D02*
X89131144Y-104789024D01*
X89054954Y-104903310D01*
X88978763Y-104979500D01*
X88902573Y-105017596D01*
X89854954Y-104789024D02*
X89931144Y-104789024D01*
X90007335Y-104827120D01*
X90045430Y-104865215D01*
X90083525Y-104941405D01*
X90121620Y-105093786D01*
X90121620Y-105284262D01*
X90083525Y-105436643D01*
X90045430Y-105512834D01*
X90007335Y-105550929D01*
X89931144Y-105589024D01*
X89854954Y-105589024D01*
X89778763Y-105550929D01*
X89740668Y-105512834D01*
X89702573Y-105436643D01*
X89664478Y-105284262D01*
X89664478Y-105093786D01*
X89702573Y-104941405D01*
X89740668Y-104865215D01*
X89778763Y-104827120D01*
X89854954Y-104789024D01*
X86057811Y-105360453D02*
X86438763Y-105360453D01*
X85981620Y-105589024D02*
X86248287Y-104789024D01*
X86514954Y-105589024D01*
X86819716Y-105589024D02*
X86972097Y-105589024D01*
X87048287Y-105550929D01*
X87086382Y-105512834D01*
X87162573Y-105398548D01*
X87200668Y-105246167D01*
X87200668Y-104941405D01*
X87162573Y-104865215D01*
X87124478Y-104827120D01*
X87048287Y-104789024D01*
X86895906Y-104789024D01*
X86819716Y-104827120D01*
X86781620Y-104865215D01*
X86743525Y-104941405D01*
X86743525Y-105131881D01*
X86781620Y-105208072D01*
X86819716Y-105246167D01*
X86895906Y-105284262D01*
X87048287Y-105284262D01*
X87124478Y-105246167D01*
X87162573Y-105208072D01*
X87200668Y-105131881D01*
X83517811Y-105360453D02*
X83898763Y-105360453D01*
X83441620Y-105589024D02*
X83708287Y-104789024D01*
X83974954Y-105589024D01*
X84355906Y-105131881D02*
X84279716Y-105093786D01*
X84241620Y-105055691D01*
X84203525Y-104979500D01*
X84203525Y-104941405D01*
X84241620Y-104865215D01*
X84279716Y-104827120D01*
X84355906Y-104789024D01*
X84508287Y-104789024D01*
X84584478Y-104827120D01*
X84622573Y-104865215D01*
X84660668Y-104941405D01*
X84660668Y-104979500D01*
X84622573Y-105055691D01*
X84584478Y-105093786D01*
X84508287Y-105131881D01*
X84355906Y-105131881D01*
X84279716Y-105169977D01*
X84241620Y-105208072D01*
X84203525Y-105284262D01*
X84203525Y-105436643D01*
X84241620Y-105512834D01*
X84279716Y-105550929D01*
X84355906Y-105589024D01*
X84508287Y-105589024D01*
X84584478Y-105550929D01*
X84622573Y-105512834D01*
X84660668Y-105436643D01*
X84660668Y-105284262D01*
X84622573Y-105208072D01*
X84584478Y-105169977D01*
X84508287Y-105131881D01*
X81370186Y-105512834D02*
X81332091Y-105550929D01*
X81217805Y-105589024D01*
X81141615Y-105589024D01*
X81027329Y-105550929D01*
X80951139Y-105474739D01*
X80913043Y-105398548D01*
X80874948Y-105246167D01*
X80874948Y-105131881D01*
X80913043Y-104979500D01*
X80951139Y-104903310D01*
X81027329Y-104827120D01*
X81141615Y-104789024D01*
X81217805Y-104789024D01*
X81332091Y-104827120D01*
X81370186Y-104865215D01*
X81751139Y-105589024D02*
X81903520Y-105589024D01*
X81979710Y-105550929D01*
X82017805Y-105512834D01*
X82093996Y-105398548D01*
X82132091Y-105246167D01*
X82132091Y-104941405D01*
X82093996Y-104865215D01*
X82055900Y-104827120D01*
X81979710Y-104789024D01*
X81827329Y-104789024D01*
X81751139Y-104827120D01*
X81713043Y-104865215D01*
X81674948Y-104941405D01*
X81674948Y-105131881D01*
X81713043Y-105208072D01*
X81751139Y-105246167D01*
X81827329Y-105284262D01*
X81979710Y-105284262D01*
X82055900Y-105246167D01*
X82093996Y-105208072D01*
X82132091Y-105131881D01*
X78830186Y-105512834D02*
X78792091Y-105550929D01*
X78677805Y-105589024D01*
X78601615Y-105589024D01*
X78487329Y-105550929D01*
X78411139Y-105474739D01*
X78373043Y-105398548D01*
X78334948Y-105246167D01*
X78334948Y-105131881D01*
X78373043Y-104979500D01*
X78411139Y-104903310D01*
X78487329Y-104827120D01*
X78601615Y-104789024D01*
X78677805Y-104789024D01*
X78792091Y-104827120D01*
X78830186Y-104865215D01*
X79287329Y-105131881D02*
X79211139Y-105093786D01*
X79173043Y-105055691D01*
X79134948Y-104979500D01*
X79134948Y-104941405D01*
X79173043Y-104865215D01*
X79211139Y-104827120D01*
X79287329Y-104789024D01*
X79439710Y-104789024D01*
X79515900Y-104827120D01*
X79553996Y-104865215D01*
X79592091Y-104941405D01*
X79592091Y-104979500D01*
X79553996Y-105055691D01*
X79515900Y-105093786D01*
X79439710Y-105131881D01*
X79287329Y-105131881D01*
X79211139Y-105169977D01*
X79173043Y-105208072D01*
X79134948Y-105284262D01*
X79134948Y-105436643D01*
X79173043Y-105512834D01*
X79211139Y-105550929D01*
X79287329Y-105589024D01*
X79439710Y-105589024D01*
X79515900Y-105550929D01*
X79553996Y-105512834D01*
X79592091Y-105436643D01*
X79592091Y-105284262D01*
X79553996Y-105208072D01*
X79515900Y-105169977D01*
X79439710Y-105131881D01*
X76290186Y-105512834D02*
X76252091Y-105550929D01*
X76137805Y-105589024D01*
X76061615Y-105589024D01*
X75947329Y-105550929D01*
X75871139Y-105474739D01*
X75833043Y-105398548D01*
X75794948Y-105246167D01*
X75794948Y-105131881D01*
X75833043Y-104979500D01*
X75871139Y-104903310D01*
X75947329Y-104827120D01*
X76061615Y-104789024D01*
X76137805Y-104789024D01*
X76252091Y-104827120D01*
X76290186Y-104865215D01*
X76556853Y-104789024D02*
X77090186Y-104789024D01*
X76747329Y-105589024D01*
X73750186Y-105512834D02*
X73712091Y-105550929D01*
X73597805Y-105589024D01*
X73521615Y-105589024D01*
X73407329Y-105550929D01*
X73331139Y-105474739D01*
X73293043Y-105398548D01*
X73254948Y-105246167D01*
X73254948Y-105131881D01*
X73293043Y-104979500D01*
X73331139Y-104903310D01*
X73407329Y-104827120D01*
X73521615Y-104789024D01*
X73597805Y-104789024D01*
X73712091Y-104827120D01*
X73750186Y-104865215D01*
X74435900Y-104789024D02*
X74283520Y-104789024D01*
X74207329Y-104827120D01*
X74169234Y-104865215D01*
X74093043Y-104979500D01*
X74054948Y-105131881D01*
X74054948Y-105436643D01*
X74093043Y-105512834D01*
X74131139Y-105550929D01*
X74207329Y-105589024D01*
X74359710Y-105589024D01*
X74435900Y-105550929D01*
X74473996Y-105512834D01*
X74512091Y-105436643D01*
X74512091Y-105246167D01*
X74473996Y-105169977D01*
X74435900Y-105131881D01*
X74359710Y-105093786D01*
X74207329Y-105093786D01*
X74131139Y-105131881D01*
X74093043Y-105169977D01*
X74054948Y-105246167D01*
D14*
X141201163Y-102142040D02*
X140724973Y-102142040D01*
X140677354Y-102618231D01*
X140724973Y-102570612D01*
X140820211Y-102522993D01*
X141058306Y-102522993D01*
X141153544Y-102570612D01*
X141201163Y-102618231D01*
X141248782Y-102713469D01*
X141248782Y-102951564D01*
X141201163Y-103046802D01*
X141153544Y-103094421D01*
X141058306Y-103142040D01*
X140820211Y-103142040D01*
X140724973Y-103094421D01*
X140677354Y-103046802D01*
X141534497Y-102142040D02*
X141867830Y-103142040D01*
X142201163Y-102142040D01*
X139891924Y-99462340D02*
X140510972Y-99462340D01*
X140177639Y-99843293D01*
X140320496Y-99843293D01*
X140415734Y-99890912D01*
X140463353Y-99938531D01*
X140510972Y-100033769D01*
X140510972Y-100271864D01*
X140463353Y-100367102D01*
X140415734Y-100414721D01*
X140320496Y-100462340D01*
X140034781Y-100462340D01*
X139939543Y-100414721D01*
X139891924Y-100367102D01*
X140796686Y-99462340D02*
X141130020Y-100462340D01*
X141463353Y-99462340D01*
X141701448Y-99462340D02*
X142320496Y-99462340D01*
X141987162Y-99843293D01*
X142130020Y-99843293D01*
X142225258Y-99890912D01*
X142272877Y-99938531D01*
X142320496Y-100033769D01*
X142320496Y-100271864D01*
X142272877Y-100367102D01*
X142225258Y-100414721D01*
X142130020Y-100462340D01*
X141844305Y-100462340D01*
X141749067Y-100414721D01*
X141701448Y-100367102D01*
X140572881Y-95261702D02*
X140525262Y-95309321D01*
X140382405Y-95356940D01*
X140287167Y-95356940D01*
X140144310Y-95309321D01*
X140049072Y-95214083D01*
X140001453Y-95118845D01*
X139953834Y-94928369D01*
X139953834Y-94785512D01*
X140001453Y-94595036D01*
X140049072Y-94499798D01*
X140144310Y-94404560D01*
X140287167Y-94356940D01*
X140382405Y-94356940D01*
X140525262Y-94404560D01*
X140572881Y-94452179D01*
X141477643Y-95356940D02*
X141001453Y-95356940D01*
X141001453Y-94356940D01*
X141810977Y-95356940D02*
X141810977Y-94356940D01*
X142382405Y-95356940D02*
X141953834Y-94785512D01*
X142382405Y-94356940D02*
X141810977Y-94928369D01*
X140256070Y-97889320D02*
X140256070Y-96889320D01*
X140494165Y-96889320D01*
X140637022Y-96936940D01*
X140732260Y-97032178D01*
X140779880Y-97127416D01*
X140827499Y-97317892D01*
X140827499Y-97460749D01*
X140779880Y-97651225D01*
X140732260Y-97746463D01*
X140637022Y-97841701D01*
X140494165Y-97889320D01*
X140256070Y-97889320D01*
X141256070Y-97889320D02*
X141256070Y-96889320D01*
X141922737Y-96889320D02*
X142113213Y-96889320D01*
X142208451Y-96936940D01*
X142303689Y-97032178D01*
X142351308Y-97222654D01*
X142351308Y-97555987D01*
X142303689Y-97746463D01*
X142208451Y-97841701D01*
X142113213Y-97889320D01*
X141922737Y-97889320D01*
X141827499Y-97841701D01*
X141732260Y-97746463D01*
X141684641Y-97555987D01*
X141684641Y-97222654D01*
X141732260Y-97032178D01*
X141827499Y-96936940D01*
X141922737Y-96889320D01*
X140012515Y-91907740D02*
X139917277Y-91860120D01*
X139774420Y-91860120D01*
X139631562Y-91907740D01*
X139536324Y-92002978D01*
X139488705Y-92098216D01*
X139441086Y-92288692D01*
X139441086Y-92431549D01*
X139488705Y-92622025D01*
X139536324Y-92717263D01*
X139631562Y-92812501D01*
X139774420Y-92860120D01*
X139869658Y-92860120D01*
X140012515Y-92812501D01*
X140060134Y-92764882D01*
X140060134Y-92431549D01*
X139869658Y-92431549D01*
X140488705Y-92860120D02*
X140488705Y-91860120D01*
X141060134Y-92860120D01*
X141060134Y-91860120D01*
X141536324Y-92860120D02*
X141536324Y-91860120D01*
X141774420Y-91860120D01*
X141917277Y-91907740D01*
X142012515Y-92002978D01*
X142060134Y-92098216D01*
X142107753Y-92288692D01*
X142107753Y-92431549D01*
X142060134Y-92622025D01*
X142012515Y-92717263D01*
X141917277Y-92812501D01*
X141774420Y-92860120D01*
X141536324Y-92860120D01*
D15*
%TO.C,.*%
G36*
X100914084Y-100697899D02*
G01*
X100898180Y-100759065D01*
X100871372Y-100849617D01*
X100836283Y-100960236D01*
X100835972Y-100961190D01*
X100742693Y-101246940D01*
X100490844Y-101254178D01*
X100385930Y-101256292D01*
X100302418Y-101256261D01*
X100250706Y-101254191D01*
X100238994Y-101251564D01*
X100257003Y-101232639D01*
X100306033Y-101188123D01*
X100378586Y-101124392D01*
X100467164Y-101047821D01*
X100564271Y-100964786D01*
X100662408Y-100881663D01*
X100754080Y-100804828D01*
X100831787Y-100740657D01*
X100888032Y-100695526D01*
X100915320Y-100675811D01*
X100916458Y-100675440D01*
X100914084Y-100697899D01*
G37*
X100914084Y-100697899D02*
X100898180Y-100759065D01*
X100871372Y-100849617D01*
X100836283Y-100960236D01*
X100835972Y-100961190D01*
X100742693Y-101246940D01*
X100490844Y-101254178D01*
X100385930Y-101256292D01*
X100302418Y-101256261D01*
X100250706Y-101254191D01*
X100238994Y-101251564D01*
X100257003Y-101232639D01*
X100306033Y-101188123D01*
X100378586Y-101124392D01*
X100467164Y-101047821D01*
X100564271Y-100964786D01*
X100662408Y-100881663D01*
X100754080Y-100804828D01*
X100831787Y-100740657D01*
X100888032Y-100695526D01*
X100915320Y-100675811D01*
X100916458Y-100675440D01*
X100914084Y-100697899D01*
G36*
X108515677Y-102555040D02*
G01*
X88542604Y-102555040D01*
X88542604Y-101543440D01*
X88925626Y-101543440D01*
X88931500Y-101635813D01*
X88946559Y-101726591D01*
X88969525Y-101798905D01*
X88976095Y-101811679D01*
X89053831Y-101897734D01*
X89171102Y-101960897D01*
X89322595Y-101999898D01*
X89502997Y-102013469D01*
X89706994Y-102000341D01*
X89744457Y-101995243D01*
X89940427Y-101945981D01*
X90119882Y-101861221D01*
X90276216Y-101746789D01*
X90402819Y-101608510D01*
X90493086Y-101452209D01*
X90538757Y-101294974D01*
X90541188Y-101176197D01*
X90506645Y-101074460D01*
X90432381Y-100987030D01*
X90315649Y-100911175D01*
X90153702Y-100844161D01*
X90054213Y-100812912D01*
X89948515Y-100781304D01*
X89857573Y-100752260D01*
X89794250Y-100729979D01*
X89775433Y-100721910D01*
X89736256Y-100681549D01*
X89736012Y-100630061D01*
X89767709Y-100575424D01*
X89824358Y-100525617D01*
X89898969Y-100488620D01*
X89984551Y-100472411D01*
X89994163Y-100472239D01*
X90097751Y-100489709D01*
X90168395Y-100539416D01*
X90201163Y-100617310D01*
X90202879Y-100643690D01*
X90202862Y-100713540D01*
X90444489Y-100697035D01*
X90547860Y-100689771D01*
X90630496Y-100683581D01*
X90681441Y-100679306D01*
X90692311Y-100677985D01*
X90699690Y-100651078D01*
X90700415Y-100590448D01*
X90699036Y-100567490D01*
X90975756Y-100567490D01*
X90984590Y-100582110D01*
X91024120Y-100591796D01*
X91100300Y-100597258D01*
X91219086Y-100599206D01*
X91241860Y-100599240D01*
X91351792Y-100600159D01*
X91440741Y-100602653D01*
X91498739Y-100606326D01*
X91516262Y-100610154D01*
X91508541Y-100636079D01*
X91486747Y-100703804D01*
X91452932Y-100807091D01*
X91409149Y-100939703D01*
X91357450Y-101095404D01*
X91299887Y-101267958D01*
X91293238Y-101287842D01*
X91235062Y-101462523D01*
X91182544Y-101621663D01*
X91137745Y-101758896D01*
X91102730Y-101867854D01*
X91079559Y-101942171D01*
X91070295Y-101975480D01*
X91070213Y-101976316D01*
X91093235Y-101984694D01*
X91155372Y-101990103D01*
X91246234Y-101991946D01*
X91321989Y-101990778D01*
X91573765Y-101983540D01*
X91580115Y-101964490D01*
X92413871Y-101964490D01*
X92421602Y-101980873D01*
X92462550Y-101990875D01*
X92542998Y-101995510D01*
X92610147Y-101996138D01*
X92817238Y-101996037D01*
X93037894Y-101322113D01*
X93095930Y-101146609D01*
X93149741Y-100987189D01*
X93197124Y-100850123D01*
X93235874Y-100741684D01*
X93263786Y-100668141D01*
X93278655Y-100635766D01*
X93279504Y-100634915D01*
X93288997Y-100633240D01*
X93295244Y-100645643D01*
X93298030Y-100677277D01*
X93297141Y-100733293D01*
X93292362Y-100818845D01*
X93283481Y-100939083D01*
X93270283Y-101099161D01*
X93252552Y-101304230D01*
X93250896Y-101323140D01*
X93236528Y-101489447D01*
X93223799Y-101641326D01*
X93213366Y-101770556D01*
X93205886Y-101868917D01*
X93202017Y-101928188D01*
X93201628Y-101939090D01*
X93204708Y-101968450D01*
X93221316Y-101985539D01*
X93261939Y-101993657D01*
X93337068Y-101996106D01*
X93383144Y-101996240D01*
X93564952Y-101996240D01*
X93941350Y-101342190D01*
X94055587Y-101143631D01*
X94147152Y-100984536D01*
X94218635Y-100860665D01*
X94272628Y-100767777D01*
X94311722Y-100701631D01*
X94338507Y-100657988D01*
X94355575Y-100632607D01*
X94365517Y-100621246D01*
X94370924Y-100619667D01*
X94374386Y-100623628D01*
X94377671Y-100628117D01*
X94373684Y-100655016D01*
X94355264Y-100723613D01*
X94324330Y-100827649D01*
X94282797Y-100960864D01*
X94232584Y-101116999D01*
X94175606Y-101289797D01*
X94168384Y-101311419D01*
X94110239Y-101485535D01*
X94057721Y-101643336D01*
X94012878Y-101778628D01*
X93977757Y-101885217D01*
X93954405Y-101956908D01*
X93944869Y-101987507D01*
X93944750Y-101988127D01*
X93967604Y-101991837D01*
X94028468Y-101994641D01*
X94115791Y-101996085D01*
X94149189Y-101996185D01*
X94353628Y-101996131D01*
X94482906Y-101605708D01*
X94813345Y-101605708D01*
X94828588Y-101696959D01*
X94860225Y-101785005D01*
X94921061Y-101879037D01*
X95011379Y-101944896D01*
X95138774Y-101987570D01*
X95181369Y-101995913D01*
X95279283Y-102011302D01*
X95354696Y-102017018D01*
X95429749Y-102013011D01*
X95526581Y-101999227D01*
X95552059Y-101995035D01*
X95628678Y-101973734D01*
X96298896Y-101973734D01*
X96322691Y-101979581D01*
X96390139Y-101984835D01*
X96495332Y-101989310D01*
X96632363Y-101992822D01*
X96795325Y-101995184D01*
X96978311Y-101996211D01*
X97015510Y-101996240D01*
X97732124Y-101996240D01*
X98065176Y-101996240D01*
X98573673Y-101996240D01*
X98638431Y-101812090D01*
X98681078Y-101688772D01*
X98688759Y-101666040D01*
X99698262Y-101666040D01*
X100604550Y-101666040D01*
X100486890Y-101998292D01*
X100689949Y-101990916D01*
X100893007Y-101983540D01*
X100898943Y-101964490D01*
X102202163Y-101964490D01*
X102209895Y-101980873D01*
X102250843Y-101990875D01*
X102331291Y-101995510D01*
X102398440Y-101996138D01*
X102605530Y-101996037D01*
X102826187Y-101322113D01*
X102884222Y-101146609D01*
X102938034Y-100987189D01*
X102985417Y-100850123D01*
X103024167Y-100741684D01*
X103052079Y-100668141D01*
X103066948Y-100635766D01*
X103067797Y-100634915D01*
X103077290Y-100633240D01*
X103083536Y-100645643D01*
X103086322Y-100677277D01*
X103085433Y-100733293D01*
X103080655Y-100818845D01*
X103071774Y-100939083D01*
X103058575Y-101099161D01*
X103040845Y-101304230D01*
X103039189Y-101323140D01*
X103024821Y-101489447D01*
X103012092Y-101641326D01*
X103001658Y-101770556D01*
X102994178Y-101868917D01*
X102990310Y-101928188D01*
X102989921Y-101939090D01*
X102993001Y-101968450D01*
X103009608Y-101985539D01*
X103050232Y-101993657D01*
X103125360Y-101996106D01*
X103171436Y-101996240D01*
X103353245Y-101996240D01*
X103729643Y-101342190D01*
X103843880Y-101143631D01*
X103935445Y-100984536D01*
X104006928Y-100860665D01*
X104060921Y-100767777D01*
X104100014Y-100701631D01*
X104126800Y-100657988D01*
X104143868Y-100632607D01*
X104153810Y-100621246D01*
X104159216Y-100619667D01*
X104162679Y-100623628D01*
X104165963Y-100628117D01*
X104161976Y-100655016D01*
X104143557Y-100723613D01*
X104112623Y-100827649D01*
X104071090Y-100960864D01*
X104020877Y-101116999D01*
X103963899Y-101289797D01*
X103956677Y-101311419D01*
X103898532Y-101485535D01*
X103846014Y-101643336D01*
X103801171Y-101778628D01*
X103766050Y-101885217D01*
X103742698Y-101956908D01*
X103733161Y-101987507D01*
X103733043Y-101988127D01*
X103755897Y-101991837D01*
X103816761Y-101994641D01*
X103904084Y-101996085D01*
X103937482Y-101996185D01*
X104141921Y-101996131D01*
X104148390Y-101976594D01*
X104526018Y-101976594D01*
X104548938Y-101985301D01*
X104610276Y-101992030D01*
X104698897Y-101995785D01*
X104745906Y-101996240D01*
X104965793Y-101996240D01*
X104975967Y-101965484D01*
X105324283Y-101965484D01*
X105329533Y-101981085D01*
X105363274Y-101989959D01*
X105432516Y-101992925D01*
X105541732Y-101990884D01*
X105770517Y-101983540D01*
X105887564Y-101640640D01*
X105933078Y-101509973D01*
X105976438Y-101390265D01*
X106013423Y-101292854D01*
X106039807Y-101229078D01*
X106044633Y-101218961D01*
X106117010Y-101122375D01*
X106213273Y-101070290D01*
X106317621Y-101061390D01*
X106383527Y-101069290D01*
X106414868Y-101088634D01*
X106426612Y-101132578D01*
X106429127Y-101159411D01*
X106422644Y-101231349D01*
X106395489Y-101346907D01*
X106348251Y-101503817D01*
X106311420Y-101614227D01*
X106268062Y-101741168D01*
X106231222Y-101850174D01*
X106203747Y-101932735D01*
X106188480Y-101980342D01*
X106186311Y-101988459D01*
X106209255Y-101991940D01*
X106270826Y-101993264D01*
X106360127Y-101992320D01*
X106415530Y-101990843D01*
X106644750Y-101983540D01*
X106647079Y-101976594D01*
X107004067Y-101976594D01*
X107026987Y-101985301D01*
X107088325Y-101992030D01*
X107176945Y-101995785D01*
X107223954Y-101996240D01*
X107443842Y-101996240D01*
X107657613Y-101350027D01*
X107714191Y-101178488D01*
X107765148Y-101023018D01*
X107808415Y-100890009D01*
X107841922Y-100785853D01*
X107863601Y-100716940D01*
X107871383Y-100689664D01*
X107871384Y-100689627D01*
X107848460Y-100683345D01*
X107787103Y-100678488D01*
X107698437Y-100675773D01*
X107651011Y-100675440D01*
X107542841Y-100676874D01*
X107474232Y-100682417D01*
X107435230Y-100693924D01*
X107415885Y-100713253D01*
X107412806Y-100719890D01*
X107397477Y-100762483D01*
X107370220Y-100842586D01*
X107333590Y-100952335D01*
X107290147Y-101083869D01*
X107242447Y-101229325D01*
X107193047Y-101380839D01*
X107144504Y-101530549D01*
X107099377Y-101670593D01*
X107060222Y-101793107D01*
X107029597Y-101890229D01*
X107010059Y-101954096D01*
X107004067Y-101976594D01*
X106647079Y-101976594D01*
X106798086Y-101526340D01*
X106868443Y-101307517D01*
X106917745Y-101130049D01*
X106945884Y-100989250D01*
X106952754Y-100880433D01*
X106938245Y-100798913D01*
X106902250Y-100740004D01*
X106844660Y-100699021D01*
X106778454Y-100674725D01*
X106646202Y-100661922D01*
X106499376Y-100687931D01*
X106351318Y-100749590D01*
X106281375Y-100792539D01*
X106210000Y-100841558D01*
X106153896Y-100879703D01*
X106128962Y-100896273D01*
X106114892Y-100889888D01*
X106120650Y-100850861D01*
X106144470Y-100764481D01*
X106153469Y-100712161D01*
X106139913Y-100685478D01*
X106096064Y-100676006D01*
X106014190Y-100675319D01*
X105959778Y-100675636D01*
X105752652Y-100675832D01*
X105544136Y-101304286D01*
X105487601Y-101474624D01*
X105436019Y-101629942D01*
X105391631Y-101763494D01*
X105356680Y-101868539D01*
X105333407Y-101938334D01*
X105324283Y-101965484D01*
X104975967Y-101965484D01*
X105179564Y-101350027D01*
X105236142Y-101178488D01*
X105287099Y-101023018D01*
X105330366Y-100890009D01*
X105363873Y-100785853D01*
X105385553Y-100716940D01*
X105393335Y-100689664D01*
X105393335Y-100689627D01*
X105370411Y-100683345D01*
X105309054Y-100678488D01*
X105220388Y-100675773D01*
X105172962Y-100675440D01*
X105064793Y-100676874D01*
X104996183Y-100682417D01*
X104957182Y-100693924D01*
X104937836Y-100713253D01*
X104934757Y-100719890D01*
X104919428Y-100762483D01*
X104892171Y-100842586D01*
X104855542Y-100952335D01*
X104812098Y-101083869D01*
X104764398Y-101229325D01*
X104714998Y-101380839D01*
X104666456Y-101530549D01*
X104621328Y-101670593D01*
X104582174Y-101793107D01*
X104551548Y-101890229D01*
X104532010Y-101954096D01*
X104526018Y-101976594D01*
X104148390Y-101976594D01*
X104444682Y-101081785D01*
X104629695Y-100523040D01*
X105000104Y-100523040D01*
X105458626Y-100523040D01*
X107478153Y-100523040D01*
X107936675Y-100523040D01*
X107981558Y-100376990D01*
X108007666Y-100293151D01*
X108028976Y-100226699D01*
X108038668Y-100198195D01*
X108033971Y-100182644D01*
X108000911Y-100173767D01*
X107932492Y-100170747D01*
X107821720Y-100172769D01*
X107820887Y-100172795D01*
X107590879Y-100180140D01*
X107478153Y-100523040D01*
X105458626Y-100523040D01*
X105503510Y-100376990D01*
X105529618Y-100293151D01*
X105550927Y-100226699D01*
X105560620Y-100198195D01*
X105555923Y-100182644D01*
X105522862Y-100173767D01*
X105454443Y-100170747D01*
X105343672Y-100172769D01*
X105342838Y-100172795D01*
X105112830Y-100180140D01*
X105000104Y-100523040D01*
X104629695Y-100523040D01*
X104747443Y-100167440D01*
X104065612Y-100167440D01*
X103762393Y-100694490D01*
X103659744Y-100872957D01*
X103579479Y-101012374D01*
X103518725Y-101117398D01*
X103474605Y-101192683D01*
X103444245Y-101242888D01*
X103424769Y-101272667D01*
X103413301Y-101286678D01*
X103406966Y-101289575D01*
X103402890Y-101286017D01*
X103399621Y-101281949D01*
X103397809Y-101254096D01*
X103399814Y-101184449D01*
X103405027Y-101081809D01*
X103412842Y-100954978D01*
X103422649Y-100812760D01*
X103433842Y-100663955D01*
X103445811Y-100517367D01*
X103457950Y-100381798D01*
X103469649Y-100266050D01*
X103470019Y-100262690D01*
X103480522Y-100167440D01*
X102797351Y-100167440D01*
X102505164Y-101050090D01*
X102438186Y-101252396D01*
X102376028Y-101440096D01*
X102320537Y-101607616D01*
X102273561Y-101749382D01*
X102236946Y-101859819D01*
X102212540Y-101933353D01*
X102202190Y-101964411D01*
X102202163Y-101964490D01*
X100898943Y-101964490D01*
X100991951Y-101666040D01*
X101219695Y-101666040D01*
X101349677Y-101259640D01*
X101237733Y-101259640D01*
X101169711Y-101257011D01*
X101140729Y-101245888D01*
X101140395Y-101221416D01*
X101142586Y-101215190D01*
X101155321Y-101178651D01*
X101181366Y-101101795D01*
X101218107Y-100992411D01*
X101262932Y-100858286D01*
X101313225Y-100707212D01*
X101330104Y-100656390D01*
X101500824Y-100142040D01*
X101111582Y-100142040D01*
X100470380Y-100699378D01*
X99829178Y-101256717D01*
X99763720Y-101461378D01*
X99698262Y-101666040D01*
X98688759Y-101666040D01*
X98727037Y-101552759D01*
X98760916Y-101450140D01*
X98818644Y-101272340D01*
X99167452Y-101265305D01*
X99516261Y-101258270D01*
X99567871Y-101101623D01*
X99594449Y-101018013D01*
X99613080Y-100953782D01*
X99619482Y-100924508D01*
X99596208Y-100917026D01*
X99532406Y-100910770D01*
X99437104Y-100906294D01*
X99319330Y-100904148D01*
X99284945Y-100904040D01*
X99162661Y-100902869D01*
X99060419Y-100899662D01*
X98987248Y-100894871D01*
X98952175Y-100888950D01*
X98950408Y-100887222D01*
X98957320Y-100855504D01*
X98975134Y-100791468D01*
X98992105Y-100734822D01*
X99033801Y-100599240D01*
X99857531Y-100599240D01*
X99915262Y-100415090D01*
X99944664Y-100322033D01*
X99969100Y-100246009D01*
X99983859Y-100201658D01*
X99984899Y-100198769D01*
X99979235Y-100188910D01*
X99950975Y-100181435D01*
X99895553Y-100176167D01*
X99808403Y-100172928D01*
X99684962Y-100171539D01*
X99520662Y-100171824D01*
X99333473Y-100173369D01*
X98670140Y-100180140D01*
X98622655Y-100319840D01*
X98602901Y-100378525D01*
X98569586Y-100478147D01*
X98525095Y-100611544D01*
X98471815Y-100771556D01*
X98412131Y-100951019D01*
X98348428Y-101142773D01*
X98320173Y-101227890D01*
X98065176Y-101996240D01*
X97732124Y-101996240D01*
X97787331Y-101824790D01*
X97816408Y-101734988D01*
X97840217Y-101662350D01*
X97853743Y-101622178D01*
X97853954Y-101621590D01*
X97847322Y-101609116D01*
X97813493Y-101600103D01*
X97747055Y-101594092D01*
X97642595Y-101590623D01*
X97494700Y-101589235D01*
X97472425Y-101589185D01*
X97079482Y-101588530D01*
X97284193Y-101455835D01*
X97397497Y-101382829D01*
X97518381Y-101305634D01*
X97625378Y-101237944D01*
X97651556Y-101221540D01*
X97819460Y-101101258D01*
X97958078Y-100970899D01*
X98065484Y-100835313D01*
X98139753Y-100699349D01*
X98178960Y-100567854D01*
X98181180Y-100445679D01*
X98144487Y-100337672D01*
X98066956Y-100248682D01*
X98044362Y-100232229D01*
X97957960Y-100194283D01*
X97836715Y-100167975D01*
X97694355Y-100154837D01*
X97544606Y-100156402D01*
X97450395Y-100165945D01*
X97272526Y-100204373D01*
X97125255Y-100267735D01*
X96992814Y-100363017D01*
X96980101Y-100374279D01*
X96925558Y-100431761D01*
X96870142Y-100503420D01*
X96821471Y-100577301D01*
X96787164Y-100641451D01*
X96774839Y-100683913D01*
X96777625Y-100692003D01*
X96807188Y-100700036D01*
X96873719Y-100708947D01*
X96964683Y-100717172D01*
X96997799Y-100719461D01*
X97098797Y-100725280D01*
X97161979Y-100725111D01*
X97198988Y-100716267D01*
X97221463Y-100696059D01*
X97240167Y-100663482D01*
X97308063Y-100571790D01*
X97395821Y-100506761D01*
X97491959Y-100472420D01*
X97584993Y-100472790D01*
X97663441Y-100511892D01*
X97666067Y-100514276D01*
X97709351Y-100576703D01*
X97712477Y-100648133D01*
X97674284Y-100730043D01*
X97593615Y-100823913D01*
X97469309Y-100931220D01*
X97300207Y-101053443D01*
X97182635Y-101130797D01*
X96954946Y-101282089D01*
X96768616Y-101418647D01*
X96618937Y-101544464D01*
X96501200Y-101663538D01*
X96410695Y-101779863D01*
X96401718Y-101793403D01*
X96351994Y-101872550D01*
X96315491Y-101936041D01*
X96299173Y-101971655D01*
X96298896Y-101973734D01*
X95628678Y-101973734D01*
X95759802Y-101937280D01*
X95941663Y-101839062D01*
X96093254Y-101703565D01*
X96210187Y-101533975D01*
X96223656Y-101507460D01*
X96277712Y-101364439D01*
X96295980Y-101235956D01*
X96279492Y-101128008D01*
X96229283Y-101046590D01*
X96146384Y-100997699D01*
X96135272Y-100994553D01*
X96099025Y-100983546D01*
X96092197Y-100970300D01*
X96118968Y-100946225D01*
X96178246Y-100906213D01*
X96317834Y-100794839D01*
X96414026Y-100675529D01*
X96465300Y-100551741D01*
X96470134Y-100426936D01*
X96435717Y-100320885D01*
X96374907Y-100252152D01*
X96276802Y-100201105D01*
X96150789Y-100168376D01*
X96006257Y-100154597D01*
X95852594Y-100160400D01*
X95699190Y-100186415D01*
X95555431Y-100233274D01*
X95502501Y-100258116D01*
X95405591Y-100319582D01*
X95306773Y-100400352D01*
X95221141Y-100486668D01*
X95163789Y-100564769D01*
X95161561Y-100568922D01*
X95152115Y-100594319D01*
X95161530Y-100611883D01*
X95198362Y-100625747D01*
X95271167Y-100640045D01*
X95328005Y-100649330D01*
X95520412Y-100680009D01*
X95623182Y-100574670D01*
X95685216Y-100514874D01*
X95733063Y-100484508D01*
X95785617Y-100475176D01*
X95842617Y-100477135D01*
X95935901Y-100493728D01*
X95985305Y-100527492D01*
X95985650Y-100528049D01*
X95999359Y-100593018D01*
X95975093Y-100664813D01*
X95921695Y-100733596D01*
X95848010Y-100789531D01*
X95762881Y-100822779D01*
X95716129Y-100827840D01*
X95671499Y-100831640D01*
X95639702Y-100850113D01*
X95610756Y-100893866D01*
X95574676Y-100973505D01*
X95571111Y-100981914D01*
X95537958Y-101061810D01*
X95514486Y-101121324D01*
X95505921Y-101147014D01*
X95528138Y-101153489D01*
X95584561Y-101157455D01*
X95621677Y-101158040D01*
X95729529Y-101173991D01*
X95798387Y-101220436D01*
X95827256Y-101295256D01*
X95815145Y-101396334D01*
X95777506Y-101490248D01*
X95699405Y-101597399D01*
X95594807Y-101666402D01*
X95472746Y-101691336D01*
X95470701Y-101691345D01*
X95372346Y-101673973D01*
X95308630Y-101623697D01*
X95283201Y-101543609D01*
X95282896Y-101532119D01*
X95282896Y-101456871D01*
X95090847Y-101474142D01*
X94993001Y-101484051D01*
X94910678Y-101494386D01*
X94859592Y-101503138D01*
X94855433Y-101504238D01*
X94822235Y-101538036D01*
X94813345Y-101605708D01*
X94482906Y-101605708D01*
X94656389Y-101081785D01*
X94959151Y-100167440D01*
X94277320Y-100167440D01*
X93974100Y-100694490D01*
X93871451Y-100872957D01*
X93791187Y-101012374D01*
X93730432Y-101117398D01*
X93686313Y-101192683D01*
X93655952Y-101242888D01*
X93636476Y-101272667D01*
X93625008Y-101286678D01*
X93618674Y-101289575D01*
X93614597Y-101286017D01*
X93611328Y-101281949D01*
X93609516Y-101254096D01*
X93611521Y-101184449D01*
X93616735Y-101081809D01*
X93624549Y-100954978D01*
X93634357Y-100812760D01*
X93645549Y-100663955D01*
X93657519Y-100517367D01*
X93669657Y-100381798D01*
X93681357Y-100266050D01*
X93681726Y-100262690D01*
X93692229Y-100167440D01*
X93009059Y-100167440D01*
X92716871Y-101050090D01*
X92649893Y-101252396D01*
X92587735Y-101440096D01*
X92532244Y-101607616D01*
X92485268Y-101749382D01*
X92448654Y-101859819D01*
X92424248Y-101933353D01*
X92413897Y-101964411D01*
X92413871Y-101964490D01*
X91580115Y-101964490D01*
X92031007Y-100611940D01*
X92597329Y-100597710D01*
X92654819Y-100414325D01*
X92684138Y-100321526D01*
X92708461Y-100245841D01*
X92723078Y-100201912D01*
X92724059Y-100199190D01*
X92717589Y-100190194D01*
X92688127Y-100182957D01*
X92631620Y-100177319D01*
X92544016Y-100173119D01*
X92421260Y-100170199D01*
X92259300Y-100168397D01*
X92054083Y-100167553D01*
X91920279Y-100167440D01*
X91104749Y-100167440D01*
X91044402Y-100351590D01*
X91014277Y-100444318D01*
X90990143Y-100520082D01*
X90976600Y-100564407D01*
X90975756Y-100567490D01*
X90699036Y-100567490D01*
X90695733Y-100512524D01*
X90686894Y-100433733D01*
X90675149Y-100370503D01*
X90667109Y-100346630D01*
X90604313Y-100272273D01*
X90503585Y-100215187D01*
X90373866Y-100176127D01*
X90224092Y-100155849D01*
X90063203Y-100155108D01*
X89900136Y-100174659D01*
X89743829Y-100215259D01*
X89637189Y-100259587D01*
X89487607Y-100355341D01*
X89366813Y-100475333D01*
X89280821Y-100611324D01*
X89235643Y-100755078D01*
X89230264Y-100817089D01*
X89239052Y-100914012D01*
X89272019Y-100994838D01*
X89334361Y-101064061D01*
X89431275Y-101126176D01*
X89567956Y-101185677D01*
X89714664Y-101236087D01*
X89835231Y-101277047D01*
X89915175Y-101311186D01*
X89962315Y-101342405D01*
X89982529Y-101369774D01*
X89995328Y-101451619D01*
X89965958Y-101529061D01*
X89901748Y-101595115D01*
X89810027Y-101642798D01*
X89698123Y-101665128D01*
X89671713Y-101665945D01*
X89556830Y-101649527D01*
X89479350Y-101600448D01*
X89439942Y-101519275D01*
X89434718Y-101464762D01*
X89434735Y-101373940D01*
X89200558Y-101387471D01*
X89096861Y-101395385D01*
X89012136Y-101405439D01*
X88958416Y-101416027D01*
X88946541Y-101421394D01*
X88930213Y-101466344D01*
X88925626Y-101543440D01*
X88542604Y-101543440D01*
X88542604Y-99481640D01*
X108515677Y-99481640D01*
X108515677Y-102555040D01*
G37*
X108515677Y-102555040D02*
X88542604Y-102555040D01*
X88542604Y-101543440D01*
X88925626Y-101543440D01*
X88931500Y-101635813D01*
X88946559Y-101726591D01*
X88969525Y-101798905D01*
X88976095Y-101811679D01*
X89053831Y-101897734D01*
X89171102Y-101960897D01*
X89322595Y-101999898D01*
X89502997Y-102013469D01*
X89706994Y-102000341D01*
X89744457Y-101995243D01*
X89940427Y-101945981D01*
X90119882Y-101861221D01*
X90276216Y-101746789D01*
X90402819Y-101608510D01*
X90493086Y-101452209D01*
X90538757Y-101294974D01*
X90541188Y-101176197D01*
X90506645Y-101074460D01*
X90432381Y-100987030D01*
X90315649Y-100911175D01*
X90153702Y-100844161D01*
X90054213Y-100812912D01*
X89948515Y-100781304D01*
X89857573Y-100752260D01*
X89794250Y-100729979D01*
X89775433Y-100721910D01*
X89736256Y-100681549D01*
X89736012Y-100630061D01*
X89767709Y-100575424D01*
X89824358Y-100525617D01*
X89898969Y-100488620D01*
X89984551Y-100472411D01*
X89994163Y-100472239D01*
X90097751Y-100489709D01*
X90168395Y-100539416D01*
X90201163Y-100617310D01*
X90202879Y-100643690D01*
X90202862Y-100713540D01*
X90444489Y-100697035D01*
X90547860Y-100689771D01*
X90630496Y-100683581D01*
X90681441Y-100679306D01*
X90692311Y-100677985D01*
X90699690Y-100651078D01*
X90700415Y-100590448D01*
X90699036Y-100567490D01*
X90975756Y-100567490D01*
X90984590Y-100582110D01*
X91024120Y-100591796D01*
X91100300Y-100597258D01*
X91219086Y-100599206D01*
X91241860Y-100599240D01*
X91351792Y-100600159D01*
X91440741Y-100602653D01*
X91498739Y-100606326D01*
X91516262Y-100610154D01*
X91508541Y-100636079D01*
X91486747Y-100703804D01*
X91452932Y-100807091D01*
X91409149Y-100939703D01*
X91357450Y-101095404D01*
X91299887Y-101267958D01*
X91293238Y-101287842D01*
X91235062Y-101462523D01*
X91182544Y-101621663D01*
X91137745Y-101758896D01*
X91102730Y-101867854D01*
X91079559Y-101942171D01*
X91070295Y-101975480D01*
X91070213Y-101976316D01*
X91093235Y-101984694D01*
X91155372Y-101990103D01*
X91246234Y-101991946D01*
X91321989Y-101990778D01*
X91573765Y-101983540D01*
X91580115Y-101964490D01*
X92413871Y-101964490D01*
X92421602Y-101980873D01*
X92462550Y-101990875D01*
X92542998Y-101995510D01*
X92610147Y-101996138D01*
X92817238Y-101996037D01*
X93037894Y-101322113D01*
X93095930Y-101146609D01*
X93149741Y-100987189D01*
X93197124Y-100850123D01*
X93235874Y-100741684D01*
X93263786Y-100668141D01*
X93278655Y-100635766D01*
X93279504Y-100634915D01*
X93288997Y-100633240D01*
X93295244Y-100645643D01*
X93298030Y-100677277D01*
X93297141Y-100733293D01*
X93292362Y-100818845D01*
X93283481Y-100939083D01*
X93270283Y-101099161D01*
X93252552Y-101304230D01*
X93250896Y-101323140D01*
X93236528Y-101489447D01*
X93223799Y-101641326D01*
X93213366Y-101770556D01*
X93205886Y-101868917D01*
X93202017Y-101928188D01*
X93201628Y-101939090D01*
X93204708Y-101968450D01*
X93221316Y-101985539D01*
X93261939Y-101993657D01*
X93337068Y-101996106D01*
X93383144Y-101996240D01*
X93564952Y-101996240D01*
X93941350Y-101342190D01*
X94055587Y-101143631D01*
X94147152Y-100984536D01*
X94218635Y-100860665D01*
X94272628Y-100767777D01*
X94311722Y-100701631D01*
X94338507Y-100657988D01*
X94355575Y-100632607D01*
X94365517Y-100621246D01*
X94370924Y-100619667D01*
X94374386Y-100623628D01*
X94377671Y-100628117D01*
X94373684Y-100655016D01*
X94355264Y-100723613D01*
X94324330Y-100827649D01*
X94282797Y-100960864D01*
X94232584Y-101116999D01*
X94175606Y-101289797D01*
X94168384Y-101311419D01*
X94110239Y-101485535D01*
X94057721Y-101643336D01*
X94012878Y-101778628D01*
X93977757Y-101885217D01*
X93954405Y-101956908D01*
X93944869Y-101987507D01*
X93944750Y-101988127D01*
X93967604Y-101991837D01*
X94028468Y-101994641D01*
X94115791Y-101996085D01*
X94149189Y-101996185D01*
X94353628Y-101996131D01*
X94482906Y-101605708D01*
X94813345Y-101605708D01*
X94828588Y-101696959D01*
X94860225Y-101785005D01*
X94921061Y-101879037D01*
X95011379Y-101944896D01*
X95138774Y-101987570D01*
X95181369Y-101995913D01*
X95279283Y-102011302D01*
X95354696Y-102017018D01*
X95429749Y-102013011D01*
X95526581Y-101999227D01*
X95552059Y-101995035D01*
X95628678Y-101973734D01*
X96298896Y-101973734D01*
X96322691Y-101979581D01*
X96390139Y-101984835D01*
X96495332Y-101989310D01*
X96632363Y-101992822D01*
X96795325Y-101995184D01*
X96978311Y-101996211D01*
X97015510Y-101996240D01*
X97732124Y-101996240D01*
X98065176Y-101996240D01*
X98573673Y-101996240D01*
X98638431Y-101812090D01*
X98681078Y-101688772D01*
X98688759Y-101666040D01*
X99698262Y-101666040D01*
X100604550Y-101666040D01*
X100486890Y-101998292D01*
X100689949Y-101990916D01*
X100893007Y-101983540D01*
X100898943Y-101964490D01*
X102202163Y-101964490D01*
X102209895Y-101980873D01*
X102250843Y-101990875D01*
X102331291Y-101995510D01*
X102398440Y-101996138D01*
X102605530Y-101996037D01*
X102826187Y-101322113D01*
X102884222Y-101146609D01*
X102938034Y-100987189D01*
X102985417Y-100850123D01*
X103024167Y-100741684D01*
X103052079Y-100668141D01*
X103066948Y-100635766D01*
X103067797Y-100634915D01*
X103077290Y-100633240D01*
X103083536Y-100645643D01*
X103086322Y-100677277D01*
X103085433Y-100733293D01*
X103080655Y-100818845D01*
X103071774Y-100939083D01*
X103058575Y-101099161D01*
X103040845Y-101304230D01*
X103039189Y-101323140D01*
X103024821Y-101489447D01*
X103012092Y-101641326D01*
X103001658Y-101770556D01*
X102994178Y-101868917D01*
X102990310Y-101928188D01*
X102989921Y-101939090D01*
X102993001Y-101968450D01*
X103009608Y-101985539D01*
X103050232Y-101993657D01*
X103125360Y-101996106D01*
X103171436Y-101996240D01*
X103353245Y-101996240D01*
X103729643Y-101342190D01*
X103843880Y-101143631D01*
X103935445Y-100984536D01*
X104006928Y-100860665D01*
X104060921Y-100767777D01*
X104100014Y-100701631D01*
X104126800Y-100657988D01*
X104143868Y-100632607D01*
X104153810Y-100621246D01*
X104159216Y-100619667D01*
X104162679Y-100623628D01*
X104165963Y-100628117D01*
X104161976Y-100655016D01*
X104143557Y-100723613D01*
X104112623Y-100827649D01*
X104071090Y-100960864D01*
X104020877Y-101116999D01*
X103963899Y-101289797D01*
X103956677Y-101311419D01*
X103898532Y-101485535D01*
X103846014Y-101643336D01*
X103801171Y-101778628D01*
X103766050Y-101885217D01*
X103742698Y-101956908D01*
X103733161Y-101987507D01*
X103733043Y-101988127D01*
X103755897Y-101991837D01*
X103816761Y-101994641D01*
X103904084Y-101996085D01*
X103937482Y-101996185D01*
X104141921Y-101996131D01*
X104148390Y-101976594D01*
X104526018Y-101976594D01*
X104548938Y-101985301D01*
X104610276Y-101992030D01*
X104698897Y-101995785D01*
X104745906Y-101996240D01*
X104965793Y-101996240D01*
X104975967Y-101965484D01*
X105324283Y-101965484D01*
X105329533Y-101981085D01*
X105363274Y-101989959D01*
X105432516Y-101992925D01*
X105541732Y-101990884D01*
X105770517Y-101983540D01*
X105887564Y-101640640D01*
X105933078Y-101509973D01*
X105976438Y-101390265D01*
X106013423Y-101292854D01*
X106039807Y-101229078D01*
X106044633Y-101218961D01*
X106117010Y-101122375D01*
X106213273Y-101070290D01*
X106317621Y-101061390D01*
X106383527Y-101069290D01*
X106414868Y-101088634D01*
X106426612Y-101132578D01*
X106429127Y-101159411D01*
X106422644Y-101231349D01*
X106395489Y-101346907D01*
X106348251Y-101503817D01*
X106311420Y-101614227D01*
X106268062Y-101741168D01*
X106231222Y-101850174D01*
X106203747Y-101932735D01*
X106188480Y-101980342D01*
X106186311Y-101988459D01*
X106209255Y-101991940D01*
X106270826Y-101993264D01*
X106360127Y-101992320D01*
X106415530Y-101990843D01*
X106644750Y-101983540D01*
X106647079Y-101976594D01*
X107004067Y-101976594D01*
X107026987Y-101985301D01*
X107088325Y-101992030D01*
X107176945Y-101995785D01*
X107223954Y-101996240D01*
X107443842Y-101996240D01*
X107657613Y-101350027D01*
X107714191Y-101178488D01*
X107765148Y-101023018D01*
X107808415Y-100890009D01*
X107841922Y-100785853D01*
X107863601Y-100716940D01*
X107871383Y-100689664D01*
X107871384Y-100689627D01*
X107848460Y-100683345D01*
X107787103Y-100678488D01*
X107698437Y-100675773D01*
X107651011Y-100675440D01*
X107542841Y-100676874D01*
X107474232Y-100682417D01*
X107435230Y-100693924D01*
X107415885Y-100713253D01*
X107412806Y-100719890D01*
X107397477Y-100762483D01*
X107370220Y-100842586D01*
X107333590Y-100952335D01*
X107290147Y-101083869D01*
X107242447Y-101229325D01*
X107193047Y-101380839D01*
X107144504Y-101530549D01*
X107099377Y-101670593D01*
X107060222Y-101793107D01*
X107029597Y-101890229D01*
X107010059Y-101954096D01*
X107004067Y-101976594D01*
X106647079Y-101976594D01*
X106798086Y-101526340D01*
X106868443Y-101307517D01*
X106917745Y-101130049D01*
X106945884Y-100989250D01*
X106952754Y-100880433D01*
X106938245Y-100798913D01*
X106902250Y-100740004D01*
X106844660Y-100699021D01*
X106778454Y-100674725D01*
X106646202Y-100661922D01*
X106499376Y-100687931D01*
X106351318Y-100749590D01*
X106281375Y-100792539D01*
X106210000Y-100841558D01*
X106153896Y-100879703D01*
X106128962Y-100896273D01*
X106114892Y-100889888D01*
X106120650Y-100850861D01*
X106144470Y-100764481D01*
X106153469Y-100712161D01*
X106139913Y-100685478D01*
X106096064Y-100676006D01*
X106014190Y-100675319D01*
X105959778Y-100675636D01*
X105752652Y-100675832D01*
X105544136Y-101304286D01*
X105487601Y-101474624D01*
X105436019Y-101629942D01*
X105391631Y-101763494D01*
X105356680Y-101868539D01*
X105333407Y-101938334D01*
X105324283Y-101965484D01*
X104975967Y-101965484D01*
X105179564Y-101350027D01*
X105236142Y-101178488D01*
X105287099Y-101023018D01*
X105330366Y-100890009D01*
X105363873Y-100785853D01*
X105385553Y-100716940D01*
X105393335Y-100689664D01*
X105393335Y-100689627D01*
X105370411Y-100683345D01*
X105309054Y-100678488D01*
X105220388Y-100675773D01*
X105172962Y-100675440D01*
X105064793Y-100676874D01*
X104996183Y-100682417D01*
X104957182Y-100693924D01*
X104937836Y-100713253D01*
X104934757Y-100719890D01*
X104919428Y-100762483D01*
X104892171Y-100842586D01*
X104855542Y-100952335D01*
X104812098Y-101083869D01*
X104764398Y-101229325D01*
X104714998Y-101380839D01*
X104666456Y-101530549D01*
X104621328Y-101670593D01*
X104582174Y-101793107D01*
X104551548Y-101890229D01*
X104532010Y-101954096D01*
X104526018Y-101976594D01*
X104148390Y-101976594D01*
X104444682Y-101081785D01*
X104629695Y-100523040D01*
X105000104Y-100523040D01*
X105458626Y-100523040D01*
X107478153Y-100523040D01*
X107936675Y-100523040D01*
X107981558Y-100376990D01*
X108007666Y-100293151D01*
X108028976Y-100226699D01*
X108038668Y-100198195D01*
X108033971Y-100182644D01*
X108000911Y-100173767D01*
X107932492Y-100170747D01*
X107821720Y-100172769D01*
X107820887Y-100172795D01*
X107590879Y-100180140D01*
X107478153Y-100523040D01*
X105458626Y-100523040D01*
X105503510Y-100376990D01*
X105529618Y-100293151D01*
X105550927Y-100226699D01*
X105560620Y-100198195D01*
X105555923Y-100182644D01*
X105522862Y-100173767D01*
X105454443Y-100170747D01*
X105343672Y-100172769D01*
X105342838Y-100172795D01*
X105112830Y-100180140D01*
X105000104Y-100523040D01*
X104629695Y-100523040D01*
X104747443Y-100167440D01*
X104065612Y-100167440D01*
X103762393Y-100694490D01*
X103659744Y-100872957D01*
X103579479Y-101012374D01*
X103518725Y-101117398D01*
X103474605Y-101192683D01*
X103444245Y-101242888D01*
X103424769Y-101272667D01*
X103413301Y-101286678D01*
X103406966Y-101289575D01*
X103402890Y-101286017D01*
X103399621Y-101281949D01*
X103397809Y-101254096D01*
X103399814Y-101184449D01*
X103405027Y-101081809D01*
X103412842Y-100954978D01*
X103422649Y-100812760D01*
X103433842Y-100663955D01*
X103445811Y-100517367D01*
X103457950Y-100381798D01*
X103469649Y-100266050D01*
X103470019Y-100262690D01*
X103480522Y-100167440D01*
X102797351Y-100167440D01*
X102505164Y-101050090D01*
X102438186Y-101252396D01*
X102376028Y-101440096D01*
X102320537Y-101607616D01*
X102273561Y-101749382D01*
X102236946Y-101859819D01*
X102212540Y-101933353D01*
X102202190Y-101964411D01*
X102202163Y-101964490D01*
X100898943Y-101964490D01*
X100991951Y-101666040D01*
X101219695Y-101666040D01*
X101349677Y-101259640D01*
X101237733Y-101259640D01*
X101169711Y-101257011D01*
X101140729Y-101245888D01*
X101140395Y-101221416D01*
X101142586Y-101215190D01*
X101155321Y-101178651D01*
X101181366Y-101101795D01*
X101218107Y-100992411D01*
X101262932Y-100858286D01*
X101313225Y-100707212D01*
X101330104Y-100656390D01*
X101500824Y-100142040D01*
X101111582Y-100142040D01*
X100470380Y-100699378D01*
X99829178Y-101256717D01*
X99763720Y-101461378D01*
X99698262Y-101666040D01*
X98688759Y-101666040D01*
X98727037Y-101552759D01*
X98760916Y-101450140D01*
X98818644Y-101272340D01*
X99167452Y-101265305D01*
X99516261Y-101258270D01*
X99567871Y-101101623D01*
X99594449Y-101018013D01*
X99613080Y-100953782D01*
X99619482Y-100924508D01*
X99596208Y-100917026D01*
X99532406Y-100910770D01*
X99437104Y-100906294D01*
X99319330Y-100904148D01*
X99284945Y-100904040D01*
X99162661Y-100902869D01*
X99060419Y-100899662D01*
X98987248Y-100894871D01*
X98952175Y-100888950D01*
X98950408Y-100887222D01*
X98957320Y-100855504D01*
X98975134Y-100791468D01*
X98992105Y-100734822D01*
X99033801Y-100599240D01*
X99857531Y-100599240D01*
X99915262Y-100415090D01*
X99944664Y-100322033D01*
X99969100Y-100246009D01*
X99983859Y-100201658D01*
X99984899Y-100198769D01*
X99979235Y-100188910D01*
X99950975Y-100181435D01*
X99895553Y-100176167D01*
X99808403Y-100172928D01*
X99684962Y-100171539D01*
X99520662Y-100171824D01*
X99333473Y-100173369D01*
X98670140Y-100180140D01*
X98622655Y-100319840D01*
X98602901Y-100378525D01*
X98569586Y-100478147D01*
X98525095Y-100611544D01*
X98471815Y-100771556D01*
X98412131Y-100951019D01*
X98348428Y-101142773D01*
X98320173Y-101227890D01*
X98065176Y-101996240D01*
X97732124Y-101996240D01*
X97787331Y-101824790D01*
X97816408Y-101734988D01*
X97840217Y-101662350D01*
X97853743Y-101622178D01*
X97853954Y-101621590D01*
X97847322Y-101609116D01*
X97813493Y-101600103D01*
X97747055Y-101594092D01*
X97642595Y-101590623D01*
X97494700Y-101589235D01*
X97472425Y-101589185D01*
X97079482Y-101588530D01*
X97284193Y-101455835D01*
X97397497Y-101382829D01*
X97518381Y-101305634D01*
X97625378Y-101237944D01*
X97651556Y-101221540D01*
X97819460Y-101101258D01*
X97958078Y-100970899D01*
X98065484Y-100835313D01*
X98139753Y-100699349D01*
X98178960Y-100567854D01*
X98181180Y-100445679D01*
X98144487Y-100337672D01*
X98066956Y-100248682D01*
X98044362Y-100232229D01*
X97957960Y-100194283D01*
X97836715Y-100167975D01*
X97694355Y-100154837D01*
X97544606Y-100156402D01*
X97450395Y-100165945D01*
X97272526Y-100204373D01*
X97125255Y-100267735D01*
X96992814Y-100363017D01*
X96980101Y-100374279D01*
X96925558Y-100431761D01*
X96870142Y-100503420D01*
X96821471Y-100577301D01*
X96787164Y-100641451D01*
X96774839Y-100683913D01*
X96777625Y-100692003D01*
X96807188Y-100700036D01*
X96873719Y-100708947D01*
X96964683Y-100717172D01*
X96997799Y-100719461D01*
X97098797Y-100725280D01*
X97161979Y-100725111D01*
X97198988Y-100716267D01*
X97221463Y-100696059D01*
X97240167Y-100663482D01*
X97308063Y-100571790D01*
X97395821Y-100506761D01*
X97491959Y-100472420D01*
X97584993Y-100472790D01*
X97663441Y-100511892D01*
X97666067Y-100514276D01*
X97709351Y-100576703D01*
X97712477Y-100648133D01*
X97674284Y-100730043D01*
X97593615Y-100823913D01*
X97469309Y-100931220D01*
X97300207Y-101053443D01*
X97182635Y-101130797D01*
X96954946Y-101282089D01*
X96768616Y-101418647D01*
X96618937Y-101544464D01*
X96501200Y-101663538D01*
X96410695Y-101779863D01*
X96401718Y-101793403D01*
X96351994Y-101872550D01*
X96315491Y-101936041D01*
X96299173Y-101971655D01*
X96298896Y-101973734D01*
X95628678Y-101973734D01*
X95759802Y-101937280D01*
X95941663Y-101839062D01*
X96093254Y-101703565D01*
X96210187Y-101533975D01*
X96223656Y-101507460D01*
X96277712Y-101364439D01*
X96295980Y-101235956D01*
X96279492Y-101128008D01*
X96229283Y-101046590D01*
X96146384Y-100997699D01*
X96135272Y-100994553D01*
X96099025Y-100983546D01*
X96092197Y-100970300D01*
X96118968Y-100946225D01*
X96178246Y-100906213D01*
X96317834Y-100794839D01*
X96414026Y-100675529D01*
X96465300Y-100551741D01*
X96470134Y-100426936D01*
X96435717Y-100320885D01*
X96374907Y-100252152D01*
X96276802Y-100201105D01*
X96150789Y-100168376D01*
X96006257Y-100154597D01*
X95852594Y-100160400D01*
X95699190Y-100186415D01*
X95555431Y-100233274D01*
X95502501Y-100258116D01*
X95405591Y-100319582D01*
X95306773Y-100400352D01*
X95221141Y-100486668D01*
X95163789Y-100564769D01*
X95161561Y-100568922D01*
X95152115Y-100594319D01*
X95161530Y-100611883D01*
X95198362Y-100625747D01*
X95271167Y-100640045D01*
X95328005Y-100649330D01*
X95520412Y-100680009D01*
X95623182Y-100574670D01*
X95685216Y-100514874D01*
X95733063Y-100484508D01*
X95785617Y-100475176D01*
X95842617Y-100477135D01*
X95935901Y-100493728D01*
X95985305Y-100527492D01*
X95985650Y-100528049D01*
X95999359Y-100593018D01*
X95975093Y-100664813D01*
X95921695Y-100733596D01*
X95848010Y-100789531D01*
X95762881Y-100822779D01*
X95716129Y-100827840D01*
X95671499Y-100831640D01*
X95639702Y-100850113D01*
X95610756Y-100893866D01*
X95574676Y-100973505D01*
X95571111Y-100981914D01*
X95537958Y-101061810D01*
X95514486Y-101121324D01*
X95505921Y-101147014D01*
X95528138Y-101153489D01*
X95584561Y-101157455D01*
X95621677Y-101158040D01*
X95729529Y-101173991D01*
X95798387Y-101220436D01*
X95827256Y-101295256D01*
X95815145Y-101396334D01*
X95777506Y-101490248D01*
X95699405Y-101597399D01*
X95594807Y-101666402D01*
X95472746Y-101691336D01*
X95470701Y-101691345D01*
X95372346Y-101673973D01*
X95308630Y-101623697D01*
X95283201Y-101543609D01*
X95282896Y-101532119D01*
X95282896Y-101456871D01*
X95090847Y-101474142D01*
X94993001Y-101484051D01*
X94910678Y-101494386D01*
X94859592Y-101503138D01*
X94855433Y-101504238D01*
X94822235Y-101538036D01*
X94813345Y-101605708D01*
X94482906Y-101605708D01*
X94656389Y-101081785D01*
X94959151Y-100167440D01*
X94277320Y-100167440D01*
X93974100Y-100694490D01*
X93871451Y-100872957D01*
X93791187Y-101012374D01*
X93730432Y-101117398D01*
X93686313Y-101192683D01*
X93655952Y-101242888D01*
X93636476Y-101272667D01*
X93625008Y-101286678D01*
X93618674Y-101289575D01*
X93614597Y-101286017D01*
X93611328Y-101281949D01*
X93609516Y-101254096D01*
X93611521Y-101184449D01*
X93616735Y-101081809D01*
X93624549Y-100954978D01*
X93634357Y-100812760D01*
X93645549Y-100663955D01*
X93657519Y-100517367D01*
X93669657Y-100381798D01*
X93681357Y-100266050D01*
X93681726Y-100262690D01*
X93692229Y-100167440D01*
X93009059Y-100167440D01*
X92716871Y-101050090D01*
X92649893Y-101252396D01*
X92587735Y-101440096D01*
X92532244Y-101607616D01*
X92485268Y-101749382D01*
X92448654Y-101859819D01*
X92424248Y-101933353D01*
X92413897Y-101964411D01*
X92413871Y-101964490D01*
X91580115Y-101964490D01*
X92031007Y-100611940D01*
X92597329Y-100597710D01*
X92654819Y-100414325D01*
X92684138Y-100321526D01*
X92708461Y-100245841D01*
X92723078Y-100201912D01*
X92724059Y-100199190D01*
X92717589Y-100190194D01*
X92688127Y-100182957D01*
X92631620Y-100177319D01*
X92544016Y-100173119D01*
X92421260Y-100170199D01*
X92259300Y-100168397D01*
X92054083Y-100167553D01*
X91920279Y-100167440D01*
X91104749Y-100167440D01*
X91044402Y-100351590D01*
X91014277Y-100444318D01*
X90990143Y-100520082D01*
X90976600Y-100564407D01*
X90975756Y-100567490D01*
X90699036Y-100567490D01*
X90695733Y-100512524D01*
X90686894Y-100433733D01*
X90675149Y-100370503D01*
X90667109Y-100346630D01*
X90604313Y-100272273D01*
X90503585Y-100215187D01*
X90373866Y-100176127D01*
X90224092Y-100155849D01*
X90063203Y-100155108D01*
X89900136Y-100174659D01*
X89743829Y-100215259D01*
X89637189Y-100259587D01*
X89487607Y-100355341D01*
X89366813Y-100475333D01*
X89280821Y-100611324D01*
X89235643Y-100755078D01*
X89230264Y-100817089D01*
X89239052Y-100914012D01*
X89272019Y-100994838D01*
X89334361Y-101064061D01*
X89431275Y-101126176D01*
X89567956Y-101185677D01*
X89714664Y-101236087D01*
X89835231Y-101277047D01*
X89915175Y-101311186D01*
X89962315Y-101342405D01*
X89982529Y-101369774D01*
X89995328Y-101451619D01*
X89965958Y-101529061D01*
X89901748Y-101595115D01*
X89810027Y-101642798D01*
X89698123Y-101665128D01*
X89671713Y-101665945D01*
X89556830Y-101649527D01*
X89479350Y-101600448D01*
X89439942Y-101519275D01*
X89434718Y-101464762D01*
X89434735Y-101373940D01*
X89200558Y-101387471D01*
X89096861Y-101395385D01*
X89012136Y-101405439D01*
X88958416Y-101416027D01*
X88946541Y-101421394D01*
X88930213Y-101466344D01*
X88925626Y-101543440D01*
X88542604Y-101543440D01*
X88542604Y-99481640D01*
X108515677Y-99481640D01*
X108515677Y-102555040D01*
D16*
%TO.C,C2*%
X94151780Y-96418032D02*
X94151780Y-95895528D01*
X95621780Y-96418032D02*
X95621780Y-95895528D01*
%TO.C,C4*%
X76558508Y-100489080D02*
X77081012Y-100489080D01*
X76558508Y-101959080D02*
X77081012Y-101959080D01*
%TO.C,C5*%
X83184948Y-86092200D02*
X84607452Y-86092200D01*
X83184948Y-88812200D02*
X84607452Y-88812200D01*
%TO.C,C6*%
X77070852Y-86414280D02*
X76548348Y-86414280D01*
X77070852Y-84944280D02*
X76548348Y-84944280D01*
%TO.C,C14*%
X137515968Y-102457580D02*
X138038472Y-102457580D01*
X137515968Y-103927580D02*
X138038472Y-103927580D01*
%TO.C,C16*%
X103532000Y-88450052D02*
X103532000Y-87927548D01*
X105002000Y-88450052D02*
X105002000Y-87927548D01*
%TO.C,C17*%
X96277760Y-96428192D02*
X96277760Y-95905688D01*
X97747760Y-96428192D02*
X97747760Y-95905688D01*
%TO.C,PC13_LED*%
X145021620Y-84187620D02*
X142136620Y-84187620D01*
X145021620Y-86007620D02*
X145021620Y-84187620D01*
X142136620Y-86007620D02*
X145021620Y-86007620D01*
%TO.C,PWR*%
X88537460Y-95000320D02*
X88537460Y-92115320D01*
X88537460Y-92115320D02*
X86717460Y-92115320D01*
X86717460Y-92115320D02*
X86717460Y-95000320D01*
%TO.C,SWD PROG*%
X145094780Y-91021860D02*
X145094780Y-103841860D01*
X145094780Y-103841860D02*
X147754780Y-103841860D01*
X147754780Y-103841860D02*
X147754780Y-91021860D01*
X147754780Y-91021860D02*
X145094780Y-91021860D01*
X147754780Y-91971860D02*
X153754780Y-91971860D01*
X153754780Y-91971860D02*
X153754780Y-92731860D01*
X153754780Y-92731860D02*
X147754780Y-92731860D01*
X147754780Y-92031860D02*
X153754780Y-92031860D01*
X147754780Y-92151860D02*
X153754780Y-92151860D01*
X147754780Y-92271860D02*
X153754780Y-92271860D01*
X147754780Y-92391860D02*
X153754780Y-92391860D01*
X147754780Y-92511860D02*
X153754780Y-92511860D01*
X147754780Y-92631860D02*
X153754780Y-92631860D01*
X144764780Y-91971860D02*
X145094780Y-91971860D01*
X144764780Y-92731860D02*
X145094780Y-92731860D01*
X145094780Y-93621860D02*
X147754780Y-93621860D01*
X147754780Y-94511860D02*
X153754780Y-94511860D01*
X153754780Y-94511860D02*
X153754780Y-95271860D01*
X153754780Y-95271860D02*
X147754780Y-95271860D01*
X144697709Y-94511860D02*
X145094780Y-94511860D01*
X144697709Y-95271860D02*
X145094780Y-95271860D01*
X145094780Y-96161860D02*
X147754780Y-96161860D01*
X147754780Y-97051860D02*
X153754780Y-97051860D01*
X153754780Y-97051860D02*
X153754780Y-97811860D01*
X153754780Y-97811860D02*
X147754780Y-97811860D01*
X144697709Y-97051860D02*
X145094780Y-97051860D01*
X144697709Y-97811860D02*
X145094780Y-97811860D01*
X145094780Y-98701860D02*
X147754780Y-98701860D01*
X147754780Y-99591860D02*
X153754780Y-99591860D01*
X153754780Y-99591860D02*
X153754780Y-100351860D01*
X153754780Y-100351860D02*
X147754780Y-100351860D01*
X144697709Y-99591860D02*
X145094780Y-99591860D01*
X144697709Y-100351860D02*
X145094780Y-100351860D01*
X145094780Y-101241860D02*
X147754780Y-101241860D01*
X147754780Y-102131860D02*
X153754780Y-102131860D01*
X153754780Y-102131860D02*
X153754780Y-102891860D01*
X153754780Y-102891860D02*
X147754780Y-102891860D01*
X144697709Y-102131860D02*
X145094780Y-102131860D01*
X144697709Y-102891860D02*
X145094780Y-102891860D01*
X142384780Y-92351860D02*
X142384780Y-91081860D01*
X142384780Y-91081860D02*
X143654780Y-91081860D01*
%TO.C,USB*%
X71135760Y-90140320D02*
X72745760Y-90140320D01*
X76955760Y-97860320D02*
X76955760Y-95800320D01*
X75245760Y-97860320D02*
X76955760Y-97860320D01*
X76955760Y-90140320D02*
X76955760Y-92200320D01*
X75245760Y-90140320D02*
X76955760Y-90140320D01*
X71135760Y-90140320D02*
X71135760Y-97860320D01*
X71135760Y-97860320D02*
X72745760Y-97860320D01*
X76955760Y-92200320D02*
X77545760Y-92200320D01*
%TO.C,VBat*%
X125403300Y-101977500D02*
X125403300Y-100647500D01*
X126733300Y-101977500D02*
X125403300Y-101977500D01*
X128003300Y-101977500D02*
X128003300Y-99317500D01*
X128003300Y-99317500D02*
X130603300Y-99317500D01*
X128003300Y-101977500D02*
X130603300Y-101977500D01*
X130603300Y-101977500D02*
X130603300Y-99317500D01*
%TO.C,5V_IN*%
X92015000Y-90687200D02*
X94675000Y-90687200D01*
X92015000Y-88087200D02*
X92015000Y-90687200D01*
X94675000Y-88087200D02*
X94675000Y-90687200D01*
X92015000Y-88087200D02*
X94675000Y-88087200D01*
X92015000Y-86817200D02*
X92015000Y-85487200D01*
X92015000Y-85487200D02*
X93345000Y-85487200D01*
%TO.C,R1*%
X84174064Y-95217920D02*
X83719936Y-95217920D01*
X84174064Y-93747920D02*
X83719936Y-93747920D01*
%TO.C,R2*%
X84163904Y-91644800D02*
X83709776Y-91644800D01*
X84163904Y-93114800D02*
X83709776Y-93114800D01*
%TO.C,R4*%
X84148664Y-91006600D02*
X83694536Y-91006600D01*
X84148664Y-89536600D02*
X83694536Y-89536600D01*
%TO.C,R5*%
X84174064Y-95835800D02*
X83719936Y-95835800D01*
X84174064Y-97305800D02*
X83719936Y-97305800D01*
%TO.C,R6*%
X90369060Y-93796116D02*
X90369060Y-94250244D01*
X88899060Y-93796116D02*
X88899060Y-94250244D01*
%TO.C,R9*%
X99855960Y-96386384D02*
X99855960Y-95932256D01*
X98385960Y-96386384D02*
X98385960Y-95932256D01*
%TO.C,STM32F405RG*%
X107547919Y-93314250D02*
X106876168Y-93986001D01*
X106876168Y-93986001D02*
X107547919Y-94657752D01*
X113431048Y-87431121D02*
X114102799Y-86759370D01*
X114102799Y-86759370D02*
X114774550Y-87431121D01*
X114774550Y-100540881D02*
X114102799Y-101212632D01*
X114102799Y-101212632D02*
X113431048Y-100540881D01*
X120657679Y-94657752D02*
X121329430Y-93986001D01*
X121329430Y-93986001D02*
X120657679Y-93314250D01*
X120657679Y-93314250D02*
X121605202Y-92366726D01*
%TO.C,8-25MHz*%
X125799000Y-89468800D02*
X138399000Y-89468800D01*
X138399000Y-89468800D02*
X138399000Y-84368800D01*
X138399000Y-84368800D02*
X125799000Y-84368800D01*
D14*
%TO.C,32.768KHz*%
X130090600Y-98095900D02*
X130090600Y-98095900D01*
X130290600Y-98095900D02*
X130290600Y-98095900D01*
D17*
X126390600Y-95695900D02*
X126390600Y-92695900D01*
X129590600Y-95695900D02*
X129590600Y-92695900D01*
X126390600Y-98195900D02*
X129590600Y-98195900D01*
X126390600Y-90195900D02*
X129590600Y-90195900D01*
D14*
X130290600Y-98095900D02*
G75*
G02*
X130090600Y-98095900I-100000J0D01*
G01*
X130090600Y-98095900D02*
G75*
G02*
X130290600Y-98095900I100000J0D01*
G01*
D16*
%TO.C,W25Qxx*%
X138786800Y-93261600D02*
X138786800Y-91586600D01*
X139046800Y-93261600D02*
X138786800Y-93261600D01*
X139046800Y-95986600D02*
X139046800Y-93261600D01*
X139046800Y-98711600D02*
X138786800Y-98711600D01*
X139046800Y-95986600D02*
X139046800Y-98711600D01*
X133596800Y-93261600D02*
X133856800Y-93261600D01*
X133596800Y-95986600D02*
X133596800Y-93261600D01*
X133596800Y-98711600D02*
X133856800Y-98711600D01*
X133596800Y-95986600D02*
X133596800Y-98711600D01*
%TO.C,RESET*%
X147027020Y-81689640D02*
X150727020Y-81689640D01*
X147027020Y-87809640D02*
X147027020Y-81689640D01*
X150727020Y-87809640D02*
X147027020Y-87809640D01*
X150727020Y-81689640D02*
X150727020Y-87809640D01*
%TO.C,BOOT0*%
X98383400Y-85461800D02*
X95723400Y-85461800D01*
X98383400Y-90601800D02*
X98383400Y-85461800D01*
X95723400Y-90601800D02*
X95723400Y-85461800D01*
X98383400Y-90601800D02*
X95723400Y-90601800D01*
X98383400Y-91871800D02*
X98383400Y-93201800D01*
X98383400Y-93201800D02*
X97053400Y-93201800D01*
%TO.C,.*%
X143788440Y-78873040D02*
X143788440Y-80203040D01*
X142458440Y-78873040D02*
X143788440Y-78873040D01*
X141188440Y-78873040D02*
X141188440Y-81533040D01*
X141188440Y-81533040D02*
X72548440Y-81533040D01*
X141188440Y-78873040D02*
X72548440Y-78873040D01*
X72548440Y-78873040D02*
X72548440Y-81533040D01*
X143834160Y-109046320D02*
X143834160Y-106386320D01*
X75194160Y-109046320D02*
X143834160Y-109046320D01*
X75194160Y-106386320D02*
X143834160Y-106386320D01*
X75194160Y-109046320D02*
X75194160Y-106386320D01*
X73924160Y-109046320D02*
X72594160Y-109046320D01*
X72594160Y-109046320D02*
X72594160Y-107716320D01*
%TO.C,C2*%
D11*
X94184173Y-99127582D02*
X94136554Y-99175201D01*
X93993697Y-99222820D01*
X93898459Y-99222820D01*
X93755601Y-99175201D01*
X93660363Y-99079963D01*
X93612744Y-98984725D01*
X93565125Y-98794249D01*
X93565125Y-98651392D01*
X93612744Y-98460916D01*
X93660363Y-98365678D01*
X93755601Y-98270440D01*
X93898459Y-98222820D01*
X93993697Y-98222820D01*
X94136554Y-98270440D01*
X94184173Y-98318059D01*
X94565125Y-98318059D02*
X94612744Y-98270440D01*
X94707982Y-98222820D01*
X94946078Y-98222820D01*
X95041316Y-98270440D01*
X95088935Y-98318059D01*
X95136554Y-98413297D01*
X95136554Y-98508535D01*
X95088935Y-98651392D01*
X94517506Y-99222820D01*
X95136554Y-99222820D01*
%TO.C,C4*%
X76744533Y-103308422D02*
X76696914Y-103356041D01*
X76554057Y-103403660D01*
X76458819Y-103403660D01*
X76315961Y-103356041D01*
X76220723Y-103260803D01*
X76173104Y-103165565D01*
X76125485Y-102975089D01*
X76125485Y-102832232D01*
X76173104Y-102641756D01*
X76220723Y-102546518D01*
X76315961Y-102451280D01*
X76458819Y-102403660D01*
X76554057Y-102403660D01*
X76696914Y-102451280D01*
X76744533Y-102498899D01*
X77601676Y-102736994D02*
X77601676Y-103403660D01*
X77363580Y-102356041D02*
X77125485Y-103070327D01*
X77744533Y-103070327D01*
%TO.C,C5*%
X83729533Y-85509342D02*
X83681914Y-85556961D01*
X83539057Y-85604580D01*
X83443819Y-85604580D01*
X83300961Y-85556961D01*
X83205723Y-85461723D01*
X83158104Y-85366485D01*
X83110485Y-85176009D01*
X83110485Y-85033152D01*
X83158104Y-84842676D01*
X83205723Y-84747438D01*
X83300961Y-84652200D01*
X83443819Y-84604580D01*
X83539057Y-84604580D01*
X83681914Y-84652200D01*
X83729533Y-84699819D01*
X84634295Y-84604580D02*
X84158104Y-84604580D01*
X84110485Y-85080771D01*
X84158104Y-85033152D01*
X84253342Y-84985533D01*
X84491438Y-84985533D01*
X84586676Y-85033152D01*
X84634295Y-85080771D01*
X84681914Y-85176009D01*
X84681914Y-85414104D01*
X84634295Y-85509342D01*
X84586676Y-85556961D01*
X84491438Y-85604580D01*
X84253342Y-85604580D01*
X84158104Y-85556961D01*
X84110485Y-85509342D01*
%TO.C,C6*%
X76650553Y-84398122D02*
X76602934Y-84445741D01*
X76460077Y-84493360D01*
X76364839Y-84493360D01*
X76221981Y-84445741D01*
X76126743Y-84350503D01*
X76079124Y-84255265D01*
X76031505Y-84064789D01*
X76031505Y-83921932D01*
X76079124Y-83731456D01*
X76126743Y-83636218D01*
X76221981Y-83540980D01*
X76364839Y-83493360D01*
X76460077Y-83493360D01*
X76602934Y-83540980D01*
X76650553Y-83588599D01*
X77507696Y-83493360D02*
X77317220Y-83493360D01*
X77221981Y-83540980D01*
X77174362Y-83588599D01*
X77079124Y-83731456D01*
X77031505Y-83921932D01*
X77031505Y-84302884D01*
X77079124Y-84398122D01*
X77126743Y-84445741D01*
X77221981Y-84493360D01*
X77412458Y-84493360D01*
X77507696Y-84445741D01*
X77555315Y-84398122D01*
X77602934Y-84302884D01*
X77602934Y-84064789D01*
X77555315Y-83969551D01*
X77507696Y-83921932D01*
X77412458Y-83874313D01*
X77221981Y-83874313D01*
X77126743Y-83921932D01*
X77079124Y-83969551D01*
X77031505Y-84064789D01*
%TO.C,C14*%
X133011942Y-103638622D02*
X132964323Y-103686241D01*
X132821466Y-103733860D01*
X132726228Y-103733860D01*
X132583371Y-103686241D01*
X132488133Y-103591003D01*
X132440514Y-103495765D01*
X132392895Y-103305289D01*
X132392895Y-103162432D01*
X132440514Y-102971956D01*
X132488133Y-102876718D01*
X132583371Y-102781480D01*
X132726228Y-102733860D01*
X132821466Y-102733860D01*
X132964323Y-102781480D01*
X133011942Y-102829099D01*
X133964323Y-103733860D02*
X133392895Y-103733860D01*
X133678609Y-103733860D02*
X133678609Y-102733860D01*
X133583371Y-102876718D01*
X133488133Y-102971956D01*
X133392895Y-103019575D01*
X134821466Y-103067194D02*
X134821466Y-103733860D01*
X134583371Y-102686241D02*
X134345276Y-103400527D01*
X134964323Y-103400527D01*
%TO.C,C16*%
X101114622Y-88413862D02*
X101067003Y-88461481D01*
X100924146Y-88509100D01*
X100828908Y-88509100D01*
X100686051Y-88461481D01*
X100590813Y-88366243D01*
X100543194Y-88271005D01*
X100495575Y-88080529D01*
X100495575Y-87937672D01*
X100543194Y-87747196D01*
X100590813Y-87651958D01*
X100686051Y-87556720D01*
X100828908Y-87509100D01*
X100924146Y-87509100D01*
X101067003Y-87556720D01*
X101114622Y-87604339D01*
X102067003Y-88509100D02*
X101495575Y-88509100D01*
X101781289Y-88509100D02*
X101781289Y-87509100D01*
X101686051Y-87651958D01*
X101590813Y-87747196D01*
X101495575Y-87794815D01*
X102924146Y-87509100D02*
X102733670Y-87509100D01*
X102638432Y-87556720D01*
X102590813Y-87604339D01*
X102495575Y-87747196D01*
X102447956Y-87937672D01*
X102447956Y-88318624D01*
X102495575Y-88413862D01*
X102543194Y-88461481D01*
X102638432Y-88509100D01*
X102828908Y-88509100D01*
X102924146Y-88461481D01*
X102971765Y-88413862D01*
X103019384Y-88318624D01*
X103019384Y-88080529D01*
X102971765Y-87985291D01*
X102924146Y-87937672D01*
X102828908Y-87890053D01*
X102638432Y-87890053D01*
X102543194Y-87937672D01*
X102495575Y-87985291D01*
X102447956Y-88080529D01*
%TO.C,C17*%
X96357202Y-99074242D02*
X96309583Y-99121861D01*
X96166726Y-99169480D01*
X96071488Y-99169480D01*
X95928631Y-99121861D01*
X95833393Y-99026623D01*
X95785774Y-98931385D01*
X95738155Y-98740909D01*
X95738155Y-98598052D01*
X95785774Y-98407576D01*
X95833393Y-98312338D01*
X95928631Y-98217100D01*
X96071488Y-98169480D01*
X96166726Y-98169480D01*
X96309583Y-98217100D01*
X96357202Y-98264719D01*
X97309583Y-99169480D02*
X96738155Y-99169480D01*
X97023869Y-99169480D02*
X97023869Y-98169480D01*
X96928631Y-98312338D01*
X96833393Y-98407576D01*
X96738155Y-98455195D01*
X97642917Y-98169480D02*
X98309583Y-98169480D01*
X97881012Y-99169480D01*
%TO.C,PC13_LED*%
D14*
X139696939Y-88044280D02*
X139696939Y-87044280D01*
X140077891Y-87044280D01*
X140173129Y-87091900D01*
X140220748Y-87139519D01*
X140268367Y-87234757D01*
X140268367Y-87377614D01*
X140220748Y-87472852D01*
X140173129Y-87520471D01*
X140077891Y-87568090D01*
X139696939Y-87568090D01*
X141268367Y-87949042D02*
X141220748Y-87996661D01*
X141077891Y-88044280D01*
X140982653Y-88044280D01*
X140839796Y-87996661D01*
X140744558Y-87901423D01*
X140696939Y-87806185D01*
X140649320Y-87615709D01*
X140649320Y-87472852D01*
X140696939Y-87282376D01*
X140744558Y-87187138D01*
X140839796Y-87091900D01*
X140982653Y-87044280D01*
X141077891Y-87044280D01*
X141220748Y-87091900D01*
X141268367Y-87139519D01*
X142220748Y-88044280D02*
X141649320Y-88044280D01*
X141935034Y-88044280D02*
X141935034Y-87044280D01*
X141839796Y-87187138D01*
X141744558Y-87282376D01*
X141649320Y-87329995D01*
X142554081Y-87044280D02*
X143173129Y-87044280D01*
X142839796Y-87425233D01*
X142982653Y-87425233D01*
X143077891Y-87472852D01*
X143125510Y-87520471D01*
X143173129Y-87615709D01*
X143173129Y-87853804D01*
X143125510Y-87949042D01*
X143077891Y-87996661D01*
X142982653Y-88044280D01*
X142696939Y-88044280D01*
X142601700Y-87996661D01*
X142554081Y-87949042D01*
X143363605Y-88139519D02*
X144125510Y-88139519D01*
X144839796Y-88044280D02*
X144363605Y-88044280D01*
X144363605Y-87044280D01*
X145173129Y-87520471D02*
X145506462Y-87520471D01*
X145649320Y-88044280D02*
X145173129Y-88044280D01*
X145173129Y-87044280D01*
X145649320Y-87044280D01*
X146077891Y-88044280D02*
X146077891Y-87044280D01*
X146315986Y-87044280D01*
X146458843Y-87091900D01*
X146554081Y-87187138D01*
X146601700Y-87282376D01*
X146649320Y-87472852D01*
X146649320Y-87615709D01*
X146601700Y-87806185D01*
X146554081Y-87901423D01*
X146458843Y-87996661D01*
X146315986Y-88044280D01*
X146077891Y-88044280D01*
%TO.C,PWR*%
X86352546Y-91861900D02*
X86352546Y-90861900D01*
X86733499Y-90861900D01*
X86828737Y-90909520D01*
X86876356Y-90957139D01*
X86923975Y-91052377D01*
X86923975Y-91195234D01*
X86876356Y-91290472D01*
X86828737Y-91338091D01*
X86733499Y-91385710D01*
X86352546Y-91385710D01*
X87257308Y-90861900D02*
X87495403Y-91861900D01*
X87685880Y-91147615D01*
X87876356Y-91861900D01*
X88114451Y-90861900D01*
X89066832Y-91861900D02*
X88733499Y-91385710D01*
X88495403Y-91861900D02*
X88495403Y-90861900D01*
X88876356Y-90861900D01*
X88971594Y-90909520D01*
X89019213Y-90957139D01*
X89066832Y-91052377D01*
X89066832Y-91195234D01*
X89019213Y-91290472D01*
X88971594Y-91338091D01*
X88876356Y-91385710D01*
X88495403Y-91385710D01*
%TO.C,SWD PROG*%
D18*
X144482114Y-105839834D02*
X144653542Y-105896977D01*
X144939257Y-105896977D01*
X145053542Y-105839834D01*
X145110685Y-105782691D01*
X145167828Y-105668405D01*
X145167828Y-105554120D01*
X145110685Y-105439834D01*
X145053542Y-105382691D01*
X144939257Y-105325548D01*
X144710685Y-105268405D01*
X144596400Y-105211262D01*
X144539257Y-105154120D01*
X144482114Y-105039834D01*
X144482114Y-104925548D01*
X144539257Y-104811262D01*
X144596400Y-104754120D01*
X144710685Y-104696977D01*
X144996400Y-104696977D01*
X145167828Y-104754120D01*
X145567828Y-104696977D02*
X145853542Y-105896977D01*
X146082114Y-105039834D01*
X146310685Y-105896977D01*
X146596400Y-104696977D01*
X147053542Y-105896977D02*
X147053542Y-104696977D01*
X147339257Y-104696977D01*
X147510685Y-104754120D01*
X147624971Y-104868405D01*
X147682114Y-104982691D01*
X147739257Y-105211262D01*
X147739257Y-105382691D01*
X147682114Y-105611262D01*
X147624971Y-105725548D01*
X147510685Y-105839834D01*
X147339257Y-105896977D01*
X147053542Y-105896977D01*
X149167828Y-105896977D02*
X149167828Y-104696977D01*
X149624971Y-104696977D01*
X149739257Y-104754120D01*
X149796400Y-104811262D01*
X149853542Y-104925548D01*
X149853542Y-105096977D01*
X149796400Y-105211262D01*
X149739257Y-105268405D01*
X149624971Y-105325548D01*
X149167828Y-105325548D01*
X151053542Y-105896977D02*
X150653542Y-105325548D01*
X150367828Y-105896977D02*
X150367828Y-104696977D01*
X150824971Y-104696977D01*
X150939257Y-104754120D01*
X150996400Y-104811262D01*
X151053542Y-104925548D01*
X151053542Y-105096977D01*
X150996400Y-105211262D01*
X150939257Y-105268405D01*
X150824971Y-105325548D01*
X150367828Y-105325548D01*
X151796400Y-104696977D02*
X152024971Y-104696977D01*
X152139257Y-104754120D01*
X152253542Y-104868405D01*
X152310685Y-105096977D01*
X152310685Y-105496977D01*
X152253542Y-105725548D01*
X152139257Y-105839834D01*
X152024971Y-105896977D01*
X151796400Y-105896977D01*
X151682114Y-105839834D01*
X151567828Y-105725548D01*
X151510685Y-105496977D01*
X151510685Y-105096977D01*
X151567828Y-104868405D01*
X151682114Y-104754120D01*
X151796400Y-104696977D01*
X153453542Y-104754120D02*
X153339257Y-104696977D01*
X153167828Y-104696977D01*
X152996400Y-104754120D01*
X152882114Y-104868405D01*
X152824971Y-104982691D01*
X152767828Y-105211262D01*
X152767828Y-105382691D01*
X152824971Y-105611262D01*
X152882114Y-105725548D01*
X152996400Y-105839834D01*
X153167828Y-105896977D01*
X153282114Y-105896977D01*
X153453542Y-105839834D01*
X153510685Y-105782691D01*
X153510685Y-105382691D01*
X153282114Y-105382691D01*
%TO.C,USB*%
D14*
X72938194Y-87046517D02*
X72938194Y-88017945D01*
X72995337Y-88132231D01*
X73052480Y-88189374D01*
X73166765Y-88246517D01*
X73395337Y-88246517D01*
X73509622Y-88189374D01*
X73566765Y-88132231D01*
X73623908Y-88017945D01*
X73623908Y-87046517D01*
X74138194Y-88189374D02*
X74309622Y-88246517D01*
X74595337Y-88246517D01*
X74709622Y-88189374D01*
X74766765Y-88132231D01*
X74823908Y-88017945D01*
X74823908Y-87903660D01*
X74766765Y-87789374D01*
X74709622Y-87732231D01*
X74595337Y-87675088D01*
X74366765Y-87617945D01*
X74252480Y-87560802D01*
X74195337Y-87503660D01*
X74138194Y-87389374D01*
X74138194Y-87275088D01*
X74195337Y-87160802D01*
X74252480Y-87103660D01*
X74366765Y-87046517D01*
X74652480Y-87046517D01*
X74823908Y-87103660D01*
X75738194Y-87617945D02*
X75909622Y-87675088D01*
X75966765Y-87732231D01*
X76023908Y-87846517D01*
X76023908Y-88017945D01*
X75966765Y-88132231D01*
X75909622Y-88189374D01*
X75795337Y-88246517D01*
X75338194Y-88246517D01*
X75338194Y-87046517D01*
X75738194Y-87046517D01*
X75852480Y-87103660D01*
X75909622Y-87160802D01*
X75966765Y-87275088D01*
X75966765Y-87389374D01*
X75909622Y-87503660D01*
X75852480Y-87560802D01*
X75738194Y-87617945D01*
X75338194Y-87617945D01*
%TO.C,VBat*%
D12*
X119926077Y-99942911D02*
X120426077Y-101442911D01*
X120926077Y-99942911D01*
X121926077Y-100657197D02*
X122140362Y-100728625D01*
X122211791Y-100800054D01*
X122283220Y-100942911D01*
X122283220Y-101157197D01*
X122211791Y-101300054D01*
X122140362Y-101371482D01*
X121997505Y-101442911D01*
X121426077Y-101442911D01*
X121426077Y-99942911D01*
X121926077Y-99942911D01*
X122068934Y-100014340D01*
X122140362Y-100085768D01*
X122211791Y-100228625D01*
X122211791Y-100371482D01*
X122140362Y-100514340D01*
X122068934Y-100585768D01*
X121926077Y-100657197D01*
X121426077Y-100657197D01*
X123568934Y-101442911D02*
X123568934Y-100657197D01*
X123497505Y-100514340D01*
X123354648Y-100442911D01*
X123068934Y-100442911D01*
X122926077Y-100514340D01*
X123568934Y-101371482D02*
X123426077Y-101442911D01*
X123068934Y-101442911D01*
X122926077Y-101371482D01*
X122854648Y-101228625D01*
X122854648Y-101085768D01*
X122926077Y-100942911D01*
X123068934Y-100871482D01*
X123426077Y-100871482D01*
X123568934Y-100800054D01*
X124068934Y-100442911D02*
X124640362Y-100442911D01*
X124283220Y-99942911D02*
X124283220Y-101228625D01*
X124354648Y-101371482D01*
X124497505Y-101442911D01*
X124640362Y-101442911D01*
%TO.C,5V_IN*%
D14*
X91612886Y-91611200D02*
X91136696Y-91611200D01*
X91089077Y-92087391D01*
X91136696Y-92039772D01*
X91231934Y-91992153D01*
X91470029Y-91992153D01*
X91565267Y-92039772D01*
X91612886Y-92087391D01*
X91660505Y-92182629D01*
X91660505Y-92420724D01*
X91612886Y-92515962D01*
X91565267Y-92563581D01*
X91470029Y-92611200D01*
X91231934Y-92611200D01*
X91136696Y-92563581D01*
X91089077Y-92515962D01*
X91946220Y-91611200D02*
X92279553Y-92611200D01*
X92612886Y-91611200D01*
X92708124Y-92706439D02*
X93470029Y-92706439D01*
X93708124Y-92611200D02*
X93708124Y-91611200D01*
X94184315Y-92611200D02*
X94184315Y-91611200D01*
X94755743Y-92611200D01*
X94755743Y-91611200D01*
%TO.C,R1*%
D11*
X80866953Y-94881960D02*
X80533620Y-94405770D01*
X80295524Y-94881960D02*
X80295524Y-93881960D01*
X80676477Y-93881960D01*
X80771715Y-93929580D01*
X80819334Y-93977199D01*
X80866953Y-94072437D01*
X80866953Y-94215294D01*
X80819334Y-94310532D01*
X80771715Y-94358151D01*
X80676477Y-94405770D01*
X80295524Y-94405770D01*
X81819334Y-94881960D02*
X81247905Y-94881960D01*
X81533620Y-94881960D02*
X81533620Y-93881960D01*
X81438381Y-94024818D01*
X81343143Y-94120056D01*
X81247905Y-94167675D01*
%TO.C,R2*%
X80894893Y-92895680D02*
X80561560Y-92419490D01*
X80323464Y-92895680D02*
X80323464Y-91895680D01*
X80704417Y-91895680D01*
X80799655Y-91943300D01*
X80847274Y-91990919D01*
X80894893Y-92086157D01*
X80894893Y-92229014D01*
X80847274Y-92324252D01*
X80799655Y-92371871D01*
X80704417Y-92419490D01*
X80323464Y-92419490D01*
X81275845Y-91990919D02*
X81323464Y-91943300D01*
X81418702Y-91895680D01*
X81656798Y-91895680D01*
X81752036Y-91943300D01*
X81799655Y-91990919D01*
X81847274Y-92086157D01*
X81847274Y-92181395D01*
X81799655Y-92324252D01*
X81228226Y-92895680D01*
X81847274Y-92895680D01*
%TO.C,R4*%
X80866953Y-90668100D02*
X80533620Y-90191910D01*
X80295524Y-90668100D02*
X80295524Y-89668100D01*
X80676477Y-89668100D01*
X80771715Y-89715720D01*
X80819334Y-89763339D01*
X80866953Y-89858577D01*
X80866953Y-90001434D01*
X80819334Y-90096672D01*
X80771715Y-90144291D01*
X80676477Y-90191910D01*
X80295524Y-90191910D01*
X81724096Y-90001434D02*
X81724096Y-90668100D01*
X81486000Y-89620481D02*
X81247905Y-90334767D01*
X81866953Y-90334767D01*
%TO.C,R5*%
X80866953Y-97056200D02*
X80533620Y-96580010D01*
X80295524Y-97056200D02*
X80295524Y-96056200D01*
X80676477Y-96056200D01*
X80771715Y-96103820D01*
X80819334Y-96151439D01*
X80866953Y-96246677D01*
X80866953Y-96389534D01*
X80819334Y-96484772D01*
X80771715Y-96532391D01*
X80676477Y-96580010D01*
X80295524Y-96580010D01*
X81771715Y-96056200D02*
X81295524Y-96056200D01*
X81247905Y-96532391D01*
X81295524Y-96484772D01*
X81390762Y-96437153D01*
X81628858Y-96437153D01*
X81724096Y-96484772D01*
X81771715Y-96532391D01*
X81819334Y-96627629D01*
X81819334Y-96865724D01*
X81771715Y-96960962D01*
X81724096Y-97008581D01*
X81628858Y-97056200D01*
X81390762Y-97056200D01*
X81295524Y-97008581D01*
X81247905Y-96960962D01*
%TO.C,R6*%
X88552993Y-97162880D02*
X88219660Y-96686690D01*
X87981564Y-97162880D02*
X87981564Y-96162880D01*
X88362517Y-96162880D01*
X88457755Y-96210500D01*
X88505374Y-96258119D01*
X88552993Y-96353357D01*
X88552993Y-96496214D01*
X88505374Y-96591452D01*
X88457755Y-96639071D01*
X88362517Y-96686690D01*
X87981564Y-96686690D01*
X89410136Y-96162880D02*
X89219660Y-96162880D01*
X89124421Y-96210500D01*
X89076802Y-96258119D01*
X88981564Y-96400976D01*
X88933945Y-96591452D01*
X88933945Y-96972404D01*
X88981564Y-97067642D01*
X89029183Y-97115261D01*
X89124421Y-97162880D01*
X89314898Y-97162880D01*
X89410136Y-97115261D01*
X89457755Y-97067642D01*
X89505374Y-96972404D01*
X89505374Y-96734309D01*
X89457755Y-96639071D01*
X89410136Y-96591452D01*
X89314898Y-96543833D01*
X89124421Y-96543833D01*
X89029183Y-96591452D01*
X88981564Y-96639071D01*
X88933945Y-96734309D01*
%TO.C,R9*%
X99350533Y-99194880D02*
X99017200Y-98718690D01*
X98779104Y-99194880D02*
X98779104Y-98194880D01*
X99160057Y-98194880D01*
X99255295Y-98242500D01*
X99302914Y-98290119D01*
X99350533Y-98385357D01*
X99350533Y-98528214D01*
X99302914Y-98623452D01*
X99255295Y-98671071D01*
X99160057Y-98718690D01*
X98779104Y-98718690D01*
X99826723Y-99194880D02*
X100017200Y-99194880D01*
X100112438Y-99147261D01*
X100160057Y-99099642D01*
X100255295Y-98956785D01*
X100302914Y-98766309D01*
X100302914Y-98385357D01*
X100255295Y-98290119D01*
X100207676Y-98242500D01*
X100112438Y-98194880D01*
X99921961Y-98194880D01*
X99826723Y-98242500D01*
X99779104Y-98290119D01*
X99731485Y-98385357D01*
X99731485Y-98623452D01*
X99779104Y-98718690D01*
X99826723Y-98766309D01*
X99921961Y-98813928D01*
X100112438Y-98813928D01*
X100207676Y-98766309D01*
X100255295Y-98718690D01*
X100302914Y-98623452D01*
%TO.C,STM32F405RG*%
D14*
X104684144Y-93212078D02*
X104832300Y-93138000D01*
X105017494Y-92952805D01*
X105054533Y-92841688D01*
X105054533Y-92767610D01*
X105017494Y-92656494D01*
X104943417Y-92582416D01*
X104832300Y-92545377D01*
X104758222Y-92545377D01*
X104647105Y-92582416D01*
X104461911Y-92693533D01*
X104350794Y-92730572D01*
X104276716Y-92730572D01*
X104165599Y-92693533D01*
X104091521Y-92619455D01*
X104054482Y-92508338D01*
X104054482Y-92434260D01*
X104091521Y-92323143D01*
X104276716Y-92137949D01*
X104424872Y-92063871D01*
X104610066Y-91804598D02*
X105054533Y-91360131D01*
X105610117Y-92360182D02*
X104832300Y-91582365D01*
X106091623Y-91878676D02*
X105313806Y-91100859D01*
X106128662Y-91397170D01*
X105832351Y-90582314D01*
X106610168Y-91360131D01*
X106128662Y-90286002D02*
X106610168Y-89804496D01*
X106647207Y-90360080D01*
X106758324Y-90248963D01*
X106869441Y-90211925D01*
X106943519Y-90211925D01*
X107054635Y-90248963D01*
X107239830Y-90434158D01*
X107276869Y-90545275D01*
X107276869Y-90619353D01*
X107239830Y-90730470D01*
X107017597Y-90952703D01*
X106906480Y-90989742D01*
X106832402Y-90989742D01*
X106980558Y-89582263D02*
X106980558Y-89508185D01*
X107017597Y-89397068D01*
X107202791Y-89211874D01*
X107313908Y-89174835D01*
X107387986Y-89174835D01*
X107499103Y-89211874D01*
X107573180Y-89285951D01*
X107647258Y-89434107D01*
X107647258Y-90323041D01*
X108128764Y-89841535D01*
X108313959Y-88841484D02*
X108054686Y-89100757D01*
X108462115Y-89508185D02*
X107684297Y-88730367D01*
X108054686Y-88359978D01*
X108943621Y-87989589D02*
X109462166Y-88508134D01*
X108462115Y-87878472D02*
X108832504Y-88619251D01*
X109314010Y-88137745D01*
X109239932Y-87174733D02*
X109314010Y-87100655D01*
X109425127Y-87063616D01*
X109499205Y-87063616D01*
X109610321Y-87100655D01*
X109795516Y-87211771D01*
X109980711Y-87396966D01*
X110091827Y-87582161D01*
X110128866Y-87693278D01*
X110128866Y-87767355D01*
X110091827Y-87878472D01*
X110017750Y-87952550D01*
X109906633Y-87989589D01*
X109832555Y-87989589D01*
X109721438Y-87952550D01*
X109536244Y-87841433D01*
X109351049Y-87656239D01*
X109239932Y-87471044D01*
X109202893Y-87359927D01*
X109202893Y-87285849D01*
X109239932Y-87174733D01*
X110202944Y-86211720D02*
X109832555Y-86582110D01*
X110165905Y-86989538D01*
X110165905Y-86915460D01*
X110202944Y-86804343D01*
X110388139Y-86619149D01*
X110499256Y-86582110D01*
X110573333Y-86582110D01*
X110684450Y-86619149D01*
X110869645Y-86804343D01*
X110906684Y-86915460D01*
X110906684Y-86989538D01*
X110869645Y-87100655D01*
X110684450Y-87285849D01*
X110573333Y-87322888D01*
X110499256Y-87322888D01*
X111795618Y-86174682D02*
X111165956Y-86063565D01*
X111351151Y-86619149D02*
X110573333Y-85841331D01*
X110869645Y-85545020D01*
X110980762Y-85507981D01*
X111054840Y-85507981D01*
X111165956Y-85545020D01*
X111277073Y-85656137D01*
X111314112Y-85767253D01*
X111314112Y-85841331D01*
X111277073Y-85952448D01*
X110980762Y-86248759D01*
X111795618Y-84693124D02*
X111684501Y-84730163D01*
X111573385Y-84841280D01*
X111499307Y-84989436D01*
X111499307Y-85137592D01*
X111536346Y-85248708D01*
X111647462Y-85433903D01*
X111758579Y-85545020D01*
X111943774Y-85656137D01*
X112054891Y-85693175D01*
X112203046Y-85693175D01*
X112351202Y-85619098D01*
X112425280Y-85545020D01*
X112499358Y-85396864D01*
X112499358Y-85322786D01*
X112240085Y-85063514D01*
X112091929Y-85211669D01*
%TO.C,8-25MHz*%
X118123413Y-86743872D02*
X118028175Y-86696253D01*
X117980556Y-86648634D01*
X117932937Y-86553396D01*
X117932937Y-86505777D01*
X117980556Y-86410539D01*
X118028175Y-86362920D01*
X118123413Y-86315300D01*
X118313889Y-86315300D01*
X118409127Y-86362920D01*
X118456746Y-86410539D01*
X118504365Y-86505777D01*
X118504365Y-86553396D01*
X118456746Y-86648634D01*
X118409127Y-86696253D01*
X118313889Y-86743872D01*
X118123413Y-86743872D01*
X118028175Y-86791491D01*
X117980556Y-86839110D01*
X117932937Y-86934348D01*
X117932937Y-87124824D01*
X117980556Y-87220062D01*
X118028175Y-87267681D01*
X118123413Y-87315300D01*
X118313889Y-87315300D01*
X118409127Y-87267681D01*
X118456746Y-87220062D01*
X118504365Y-87124824D01*
X118504365Y-86934348D01*
X118456746Y-86839110D01*
X118409127Y-86791491D01*
X118313889Y-86743872D01*
X118932937Y-86934348D02*
X119694841Y-86934348D01*
X120123413Y-86410539D02*
X120171032Y-86362920D01*
X120266270Y-86315300D01*
X120504365Y-86315300D01*
X120599603Y-86362920D01*
X120647222Y-86410539D01*
X120694841Y-86505777D01*
X120694841Y-86601015D01*
X120647222Y-86743872D01*
X120075794Y-87315300D01*
X120694841Y-87315300D01*
X121599603Y-86315300D02*
X121123413Y-86315300D01*
X121075794Y-86791491D01*
X121123413Y-86743872D01*
X121218651Y-86696253D01*
X121456746Y-86696253D01*
X121551984Y-86743872D01*
X121599603Y-86791491D01*
X121647222Y-86886729D01*
X121647222Y-87124824D01*
X121599603Y-87220062D01*
X121551984Y-87267681D01*
X121456746Y-87315300D01*
X121218651Y-87315300D01*
X121123413Y-87267681D01*
X121075794Y-87220062D01*
X122075794Y-87315300D02*
X122075794Y-86315300D01*
X122409127Y-87029586D01*
X122742460Y-86315300D01*
X122742460Y-87315300D01*
X123218651Y-87315300D02*
X123218651Y-86315300D01*
X123218651Y-86791491D02*
X123790080Y-86791491D01*
X123790080Y-87315300D02*
X123790080Y-86315300D01*
X124171032Y-86648634D02*
X124694841Y-86648634D01*
X124171032Y-87315300D01*
X124694841Y-87315300D01*
%TO.C,32.768KHz*%
D19*
X127602186Y-96919073D02*
X127602186Y-96485740D01*
X127868853Y-96719073D01*
X127868853Y-96619073D01*
X127902186Y-96552406D01*
X127935520Y-96519073D01*
X128002186Y-96485740D01*
X128168853Y-96485740D01*
X128235520Y-96519073D01*
X128268853Y-96552406D01*
X128302186Y-96619073D01*
X128302186Y-96819073D01*
X128268853Y-96885740D01*
X128235520Y-96919073D01*
X127668853Y-96219073D02*
X127635520Y-96185740D01*
X127602186Y-96119073D01*
X127602186Y-95952406D01*
X127635520Y-95885740D01*
X127668853Y-95852406D01*
X127735520Y-95819073D01*
X127802186Y-95819073D01*
X127902186Y-95852406D01*
X128302186Y-96252406D01*
X128302186Y-95819073D01*
X128235520Y-95519073D02*
X128268853Y-95485740D01*
X128302186Y-95519073D01*
X128268853Y-95552406D01*
X128235520Y-95519073D01*
X128302186Y-95519073D01*
X127602186Y-95252406D02*
X127602186Y-94785740D01*
X128302186Y-95085740D01*
X127602186Y-94219073D02*
X127602186Y-94352406D01*
X127635520Y-94419073D01*
X127668853Y-94452406D01*
X127768853Y-94519073D01*
X127902186Y-94552406D01*
X128168853Y-94552406D01*
X128235520Y-94519073D01*
X128268853Y-94485740D01*
X128302186Y-94419073D01*
X128302186Y-94285740D01*
X128268853Y-94219073D01*
X128235520Y-94185740D01*
X128168853Y-94152406D01*
X128002186Y-94152406D01*
X127935520Y-94185740D01*
X127902186Y-94219073D01*
X127868853Y-94285740D01*
X127868853Y-94419073D01*
X127902186Y-94485740D01*
X127935520Y-94519073D01*
X128002186Y-94552406D01*
X127902186Y-93752406D02*
X127868853Y-93819073D01*
X127835520Y-93852406D01*
X127768853Y-93885740D01*
X127735520Y-93885740D01*
X127668853Y-93852406D01*
X127635520Y-93819073D01*
X127602186Y-93752406D01*
X127602186Y-93619073D01*
X127635520Y-93552406D01*
X127668853Y-93519073D01*
X127735520Y-93485740D01*
X127768853Y-93485740D01*
X127835520Y-93519073D01*
X127868853Y-93552406D01*
X127902186Y-93619073D01*
X127902186Y-93752406D01*
X127935520Y-93819073D01*
X127968853Y-93852406D01*
X128035520Y-93885740D01*
X128168853Y-93885740D01*
X128235520Y-93852406D01*
X128268853Y-93819073D01*
X128302186Y-93752406D01*
X128302186Y-93619073D01*
X128268853Y-93552406D01*
X128235520Y-93519073D01*
X128168853Y-93485740D01*
X128035520Y-93485740D01*
X127968853Y-93519073D01*
X127935520Y-93552406D01*
X127902186Y-93619073D01*
X128302186Y-93185740D02*
X127602186Y-93185740D01*
X128302186Y-92785740D02*
X127902186Y-93085740D01*
X127602186Y-92785740D02*
X128002186Y-93185740D01*
X128302186Y-92485740D02*
X127602186Y-92485740D01*
X127935520Y-92485740D02*
X127935520Y-92085740D01*
X128302186Y-92085740D02*
X127602186Y-92085740D01*
X127835520Y-91819073D02*
X127835520Y-91452406D01*
X128302186Y-91819073D01*
X128302186Y-91452406D01*
%TO.C,W25Qxx*%
D14*
X133274774Y-89757000D02*
X133512869Y-90757000D01*
X133703345Y-90042715D01*
X133893821Y-90757000D01*
X134131917Y-89757000D01*
X134465250Y-89852239D02*
X134512869Y-89804620D01*
X134608107Y-89757000D01*
X134846202Y-89757000D01*
X134941440Y-89804620D01*
X134989060Y-89852239D01*
X135036679Y-89947477D01*
X135036679Y-90042715D01*
X134989060Y-90185572D01*
X134417631Y-90757000D01*
X135036679Y-90757000D01*
X135941440Y-89757000D02*
X135465250Y-89757000D01*
X135417631Y-90233191D01*
X135465250Y-90185572D01*
X135560488Y-90137953D01*
X135798583Y-90137953D01*
X135893821Y-90185572D01*
X135941440Y-90233191D01*
X135989060Y-90328429D01*
X135989060Y-90566524D01*
X135941440Y-90661762D01*
X135893821Y-90709381D01*
X135798583Y-90757000D01*
X135560488Y-90757000D01*
X135465250Y-90709381D01*
X135417631Y-90661762D01*
X137084298Y-90852239D02*
X136989060Y-90804620D01*
X136893821Y-90709381D01*
X136750964Y-90566524D01*
X136655726Y-90518905D01*
X136560488Y-90518905D01*
X136608107Y-90757000D02*
X136512869Y-90709381D01*
X136417631Y-90614143D01*
X136370012Y-90423667D01*
X136370012Y-90090334D01*
X136417631Y-89899858D01*
X136512869Y-89804620D01*
X136608107Y-89757000D01*
X136798583Y-89757000D01*
X136893821Y-89804620D01*
X136989060Y-89899858D01*
X137036679Y-90090334D01*
X137036679Y-90423667D01*
X136989060Y-90614143D01*
X136893821Y-90709381D01*
X136798583Y-90757000D01*
X136608107Y-90757000D01*
X137370012Y-90757000D02*
X137893821Y-90090334D01*
X137370012Y-90090334D02*
X137893821Y-90757000D01*
X138179536Y-90757000D02*
X138703345Y-90090334D01*
X138179536Y-90090334D02*
X138703345Y-90757000D01*
%TO.C,RESET*%
D12*
X152885531Y-87027271D02*
X152171245Y-87527271D01*
X152885531Y-87884414D02*
X151385531Y-87884414D01*
X151385531Y-87312985D01*
X151456960Y-87170128D01*
X151528388Y-87098700D01*
X151671245Y-87027271D01*
X151885531Y-87027271D01*
X152028388Y-87098700D01*
X152099817Y-87170128D01*
X152171245Y-87312985D01*
X152171245Y-87884414D01*
X152099817Y-86384414D02*
X152099817Y-85884414D01*
X152885531Y-85670128D02*
X152885531Y-86384414D01*
X151385531Y-86384414D01*
X151385531Y-85670128D01*
X152814102Y-85098700D02*
X152885531Y-84884414D01*
X152885531Y-84527271D01*
X152814102Y-84384414D01*
X152742674Y-84312985D01*
X152599817Y-84241557D01*
X152456960Y-84241557D01*
X152314102Y-84312985D01*
X152242674Y-84384414D01*
X152171245Y-84527271D01*
X152099817Y-84812985D01*
X152028388Y-84955842D01*
X151956960Y-85027271D01*
X151814102Y-85098700D01*
X151671245Y-85098700D01*
X151528388Y-85027271D01*
X151456960Y-84955842D01*
X151385531Y-84812985D01*
X151385531Y-84455842D01*
X151456960Y-84241557D01*
X152099817Y-83598700D02*
X152099817Y-83098700D01*
X152885531Y-82884414D02*
X152885531Y-83598700D01*
X151385531Y-83598700D01*
X151385531Y-82884414D01*
X151385531Y-82455842D02*
X151385531Y-81598700D01*
X152885531Y-82027271D02*
X151385531Y-82027271D01*
%TO.C,BOOT0*%
D14*
X95060046Y-93961911D02*
X95202903Y-94009530D01*
X95250522Y-94057149D01*
X95298141Y-94152387D01*
X95298141Y-94295244D01*
X95250522Y-94390482D01*
X95202903Y-94438101D01*
X95107665Y-94485720D01*
X94726713Y-94485720D01*
X94726713Y-93485720D01*
X95060046Y-93485720D01*
X95155284Y-93533340D01*
X95202903Y-93580959D01*
X95250522Y-93676197D01*
X95250522Y-93771435D01*
X95202903Y-93866673D01*
X95155284Y-93914292D01*
X95060046Y-93961911D01*
X94726713Y-93961911D01*
X95917189Y-93485720D02*
X96107665Y-93485720D01*
X96202903Y-93533340D01*
X96298141Y-93628578D01*
X96345760Y-93819054D01*
X96345760Y-94152387D01*
X96298141Y-94342863D01*
X96202903Y-94438101D01*
X96107665Y-94485720D01*
X95917189Y-94485720D01*
X95821951Y-94438101D01*
X95726713Y-94342863D01*
X95679094Y-94152387D01*
X95679094Y-93819054D01*
X95726713Y-93628578D01*
X95821951Y-93533340D01*
X95917189Y-93485720D01*
X96964808Y-93485720D02*
X97155284Y-93485720D01*
X97250522Y-93533340D01*
X97345760Y-93628578D01*
X97393380Y-93819054D01*
X97393380Y-94152387D01*
X97345760Y-94342863D01*
X97250522Y-94438101D01*
X97155284Y-94485720D01*
X96964808Y-94485720D01*
X96869570Y-94438101D01*
X96774332Y-94342863D01*
X96726713Y-94152387D01*
X96726713Y-93819054D01*
X96774332Y-93628578D01*
X96869570Y-93533340D01*
X96964808Y-93485720D01*
X97679094Y-93485720D02*
X98250522Y-93485720D01*
X97964808Y-94485720D02*
X97964808Y-93485720D01*
X98774332Y-93485720D02*
X98869570Y-93485720D01*
X98964808Y-93533340D01*
X99012427Y-93580959D01*
X99060046Y-93676197D01*
X99107665Y-93866673D01*
X99107665Y-94104768D01*
X99060046Y-94295244D01*
X99012427Y-94390482D01*
X98964808Y-94438101D01*
X98869570Y-94485720D01*
X98774332Y-94485720D01*
X98679094Y-94438101D01*
X98631475Y-94390482D01*
X98583856Y-94295244D01*
X98536237Y-94104768D01*
X98536237Y-93866673D01*
X98583856Y-93676197D01*
X98631475Y-93580959D01*
X98679094Y-93533340D01*
X98774332Y-93485720D01*
%TO.C,.*%
D11*
X143722362Y-79410560D02*
X143769981Y-79362940D01*
X143817600Y-79410560D01*
X143769981Y-79458179D01*
X143722362Y-79410560D01*
X143817600Y-79410560D01*
X72609982Y-106212640D02*
X72657601Y-106165020D01*
X72705220Y-106212640D01*
X72657601Y-106260259D01*
X72609982Y-106212640D01*
X72705220Y-106212640D01*
%TD*%
M02*
